<svg width="340" height="727" viewBox="0 0 340 727" fill="none" xmlns="http://www.w3.org/2000/svg">
<g clip-path="url(#clip0_1845_3543)" filter="url(#filter0_d_1845_3543)">
<path d="M336 0H4V718.299H336V0Z" fill="url(#paint0_linear_1845_3543)" fill-opacity="0.73"/>
<path d="M82.7244 335.021C83.625 335.021 84.5434 335.592 85.4789 336.736C86.4493 337.879 86.9342 338.832 86.9342 339.594C86.9342 340.322 86.7953 340.685 86.5184 340.685C86.2756 340.685 85.7908 340.564 85.0632 340.322C84.3356 340.045 83.677 339.906 83.0882 339.906C81.737 339.906 80.0912 340.599 78.1509 341.985C76.2452 343.371 74.4262 345.086 72.6938 347.13C70.9961 349.174 69.5408 351.513 68.3282 354.146C67.1155 356.745 66.5092 358.997 66.5092 360.903C66.5092 362.808 66.9942 364.212 67.9644 365.112C68.9692 365.979 70.2684 366.412 71.8623 366.412C73.4561 366.412 75.1018 366.187 76.7996 365.736C78.4974 365.251 79.8833 364.714 80.9574 364.125C83.729 362.635 85.254 361.89 85.5309 361.89C86.1197 361.89 86.4144 362.289 86.4144 363.085C86.4144 363.848 85.6178 364.887 84.0237 366.204C82.4297 367.486 80.455 368.646 78.0989 369.686C75.7429 370.725 73.6293 371.245 71.7583 371.245C69.333 371.245 67.0462 370.206 64.898 368.127C62.7499 366.013 61.6758 363.692 61.6758 361.162C61.6758 357.905 62.7325 354.233 64.8461 350.144C66.9942 346.022 69.7314 342.47 73.0576 339.49C76.4185 336.511 79.6408 335.021 82.7244 335.021ZM104.845 345.779C106.404 345.779 107.842 346.575 109.159 348.169C110.476 349.729 111.134 351.149 111.134 352.431C111.134 353.678 110.701 354.961 109.834 356.277C110.25 356.797 110.458 357.247 110.458 357.628C110.458 358.599 110.233 360.262 109.782 362.618C109.367 364.973 109.107 366.516 109.003 367.243C108.934 367.971 108.865 368.56 108.795 369.01C108.726 369.426 108.639 369.842 108.535 370.258C108.397 371.124 108.085 371.557 107.6 371.557C106.976 371.557 106.456 371.02 106.04 369.946C105.66 368.837 105.435 367.416 105.365 365.684C102.281 369.599 99.4229 371.557 96.7894 371.557C95.1961 371.557 93.6191 370.881 92.06 369.53C90.5357 368.144 89.7732 366.723 89.7732 365.268C89.7732 363.189 90.5357 360.626 92.06 357.576C93.585 354.493 95.5599 351.755 97.9848 349.365C100.41 346.974 102.697 345.779 104.845 345.779ZM107.236 354.926C107.236 351.704 106.595 350.092 105.313 350.092C103.962 350.092 102.385 351.063 100.583 353.003C98.7822 354.909 97.2572 357.074 96.0098 359.499C94.7625 361.925 94.1389 363.848 94.1389 365.268C94.1389 365.857 94.3817 366.343 94.8665 366.723C95.3521 367.07 95.9237 367.243 96.5815 367.243C98.2105 367.243 100.047 366.152 102.091 363.969C104.135 361.751 105.556 359.066 106.352 355.913C106.456 355.394 106.751 355.082 107.236 354.978V354.926ZM121.204 366.36C121.204 367.018 121.585 367.347 122.347 367.347C123.664 367.347 125.258 366.983 127.129 366.256C129.034 365.493 130.091 365.112 130.299 365.112C130.923 365.112 131.234 365.441 131.234 366.1C131.234 367.104 130.195 368.266 128.116 369.582C126.071 370.898 124.2 371.557 122.503 371.557C120.84 371.557 119.454 371.106 118.345 370.206C117.236 369.27 116.682 368.317 116.682 367.347C116.682 366.377 116.89 365.147 117.306 363.657C117.722 362.133 118.31 360.14 119.073 357.68C119.87 355.186 120.493 353.124 120.944 351.496C119.315 351.877 118.224 352.067 117.67 352.067C117.115 352.067 116.56 351.79 116.007 351.236C115.487 350.647 115.227 350.092 115.227 349.573C115.227 348.741 117.479 347.944 121.983 347.182C122.607 344.306 122.919 341.76 122.919 339.542C122.919 338.503 123.265 337.983 123.958 337.983C124.547 337.983 125.275 338.364 126.141 339.126C127.007 339.854 127.44 340.685 127.44 341.621C127.44 342.556 127.146 344.202 126.557 346.558C128.532 346.385 130.108 346.298 131.286 346.298C133.365 346.298 134.405 346.749 134.405 347.65C134.405 348.169 133.833 348.602 132.69 348.949C131.58 349.296 129.225 349.833 125.621 350.56C124.894 353.298 123.975 356.433 122.867 359.967C121.758 363.466 121.204 365.597 121.204 366.36ZM143.849 371.557C141.839 371.557 139.951 370.777 138.184 369.218C136.417 367.624 135.533 365.753 135.533 363.605C135.533 361.422 136.261 358.911 137.716 356.069C139.171 353.228 141.042 350.803 143.329 348.793C145.65 346.783 147.903 345.779 150.086 345.779C151.506 345.779 152.753 346.419 153.827 347.702C154.901 348.984 155.439 350.109 155.439 351.08C155.439 351.357 155.352 351.6 155.179 351.807C155.005 351.98 154.745 352.067 154.399 352.067C154.087 352.067 153.516 351.755 152.684 351.132C151.853 350.508 151.107 350.196 150.449 350.196C148.578 350.196 146.396 351.842 143.901 355.134C141.406 358.425 140.159 361.301 140.159 363.761C140.159 364.835 140.488 365.684 141.146 366.308C141.839 366.931 142.93 367.243 144.421 367.243C145.945 367.243 147.331 367.07 148.578 366.723C149.86 366.343 150.847 365.979 151.541 365.632C152.233 365.251 152.77 365.06 153.152 365.06C153.81 365.06 154.139 365.389 154.139 366.048C154.139 367.052 152.926 368.231 150.501 369.582C148.111 370.898 145.893 371.557 143.849 371.557ZM164.758 333.253C164.758 331.902 165.174 331.227 166.005 331.227C166.663 331.227 167.356 331.746 168.084 332.786C168.846 333.825 169.227 334.83 169.227 335.8C169.227 338.052 168.656 341.898 167.512 347.338C166.403 352.743 164.948 358.148 163.147 363.553C166.611 357.282 169.504 352.76 171.826 349.988C174.182 347.182 176.192 345.779 177.855 345.779C178.755 345.779 179.795 346.558 180.973 348.117C182.186 349.677 182.792 351.236 182.792 352.795C182.792 354.354 182.359 356.693 181.493 359.811C179.344 367.642 177.317 371.557 175.412 371.557C174.65 371.557 174.269 371.037 174.269 369.998C174.269 368.958 174.685 367.208 175.516 364.748C177.352 359.378 178.271 355.757 178.271 353.886C178.271 353.263 178.115 352.743 177.803 352.327C177.491 351.911 177.109 351.704 176.659 351.704C176.209 351.704 175.654 351.946 174.996 352.431C174.338 352.916 173.541 353.765 172.606 354.978C171.427 356.537 170.197 358.287 168.916 360.227C167.668 362.167 166.906 363.345 166.629 363.761C166.386 364.142 165.935 364.852 165.278 365.892C164.654 366.931 164.186 367.711 163.874 368.231C163.563 368.715 163.181 369.253 162.731 369.842C161.934 370.985 161.328 371.557 160.912 371.557C160.496 371.557 159.942 371.176 159.249 370.413C158.555 369.617 158.209 368.958 158.209 368.438C158.209 367.884 158.399 366.862 158.781 365.372C160.513 358.72 161.605 354.163 162.055 351.704C163.857 342.695 164.758 336.545 164.758 333.253ZM216.548 355.03C214.677 360.955 213.741 364.541 213.741 365.788C213.741 366.204 213.863 366.55 214.105 366.827C214.383 367.07 214.729 367.191 215.144 367.191C219.129 367.191 223.53 366.55 228.345 365.268C229.904 364.852 230.806 364.645 231.048 364.645C231.567 364.645 231.827 365.008 231.827 365.736C231.827 366.983 229.904 368.266 226.058 369.582C222.247 370.898 218.557 371.557 214.988 371.557C213.395 371.557 211.992 371.089 210.779 370.154C209.601 369.218 209.012 368.04 209.012 366.619C209.012 365.199 209.514 362.774 210.519 359.343C211.558 355.913 212.598 352.258 213.637 348.377C214.677 344.496 215.196 341.222 215.196 338.555C215.196 338.174 215.266 337.775 215.404 337.359C215.994 336.077 219.77 335.436 226.734 335.436C233.698 335.436 237.18 335.939 237.18 336.943C237.18 337.636 236.436 338.104 234.946 338.347C233.698 338.59 232.035 338.814 229.956 339.022C227.912 339.195 226.474 339.334 225.643 339.438C224.811 339.507 222.802 339.819 219.614 340.374V340.53C219.614 342.885 218.973 346.437 217.691 351.184C217.899 351.219 218.592 351.236 219.77 351.236C220.983 351.236 222.594 351.149 224.603 350.976C226.613 350.803 228.12 350.716 229.125 350.716C230.164 350.716 230.684 350.959 230.684 351.444C230.684 352.656 229.264 353.557 226.422 354.146C223.582 354.735 220.29 355.03 216.548 355.03ZM251.575 345.779C253.134 345.779 254.572 346.575 255.889 348.169C257.205 349.729 257.864 351.149 257.864 352.431C257.864 353.678 257.43 354.961 256.564 356.277C256.98 356.797 257.188 357.247 257.188 357.628C257.188 358.599 256.962 360.262 256.512 362.618C256.097 364.973 255.837 366.516 255.733 367.243C255.663 367.971 255.594 368.56 255.525 369.01C255.455 369.426 255.369 369.842 255.265 370.258C255.126 371.124 254.814 371.557 254.33 371.557C253.706 371.557 253.186 371.02 252.77 369.946C252.389 368.837 252.164 367.416 252.095 365.684C249.011 369.599 246.152 371.557 243.519 371.557C241.925 371.557 240.349 370.881 238.79 369.53C237.265 368.144 236.503 366.723 236.503 365.268C236.503 363.189 237.265 360.626 238.79 357.576C240.314 354.493 242.289 351.755 244.715 349.365C247.14 346.974 249.426 345.779 251.575 345.779ZM253.966 354.926C253.966 351.704 253.324 350.092 252.043 350.092C250.692 350.092 249.115 351.063 247.313 353.003C245.511 354.909 243.987 357.074 242.74 359.499C241.493 361.925 240.869 363.848 240.869 365.268C240.869 365.857 241.111 366.343 241.596 366.723C242.081 367.07 242.653 367.243 243.312 367.243C244.94 367.243 246.776 366.152 248.821 363.969C250.865 361.751 252.285 359.066 253.082 355.913C253.186 355.394 253.48 355.082 253.966 354.978V354.926ZM267.933 366.36C267.933 367.018 268.314 367.347 269.076 367.347C270.393 367.347 271.987 366.983 273.858 366.256C275.764 365.493 276.82 365.112 277.028 365.112C277.652 365.112 277.964 365.441 277.964 366.1C277.964 367.104 276.924 368.266 274.845 369.582C272.801 370.898 270.93 371.557 269.232 371.557C267.569 371.557 266.183 371.106 265.075 370.206C263.966 369.27 263.412 368.317 263.412 367.347C263.412 366.377 263.619 365.147 264.035 363.657C264.451 362.133 265.04 360.14 265.802 357.68C266.599 355.186 267.223 353.124 267.673 351.496C266.045 351.877 264.954 352.067 264.399 352.067C263.844 352.067 263.291 351.79 262.736 351.236C262.216 350.647 261.956 350.092 261.956 349.573C261.956 348.741 264.208 347.944 268.713 347.182C269.336 344.306 269.648 341.76 269.648 339.542C269.648 338.503 269.995 337.983 270.688 337.983C271.276 337.983 272.004 338.364 272.87 339.126C273.737 339.854 274.17 340.685 274.17 341.621C274.17 342.556 273.875 344.202 273.286 346.558C275.261 346.385 276.837 346.298 278.016 346.298C280.095 346.298 281.134 346.749 281.134 347.65C281.134 348.169 280.562 348.602 279.419 348.949C278.31 349.296 275.954 349.833 272.351 350.56C271.623 353.298 270.705 356.433 269.596 359.967C268.488 363.466 267.933 365.597 267.933 366.36Z" fill="white"/>
<path d="M271.315 318.218C269.91 317.499 268.841 316.261 268.33 314.766C267.821 313.272 267.911 311.638 268.582 310.208C269.253 308.779 270.453 307.666 271.928 307.104C273.403 306.542 275.039 306.576 276.49 307.197C277.087 306.453 277.816 305.826 278.64 305.346C279.507 304.844 280.463 304.518 281.455 304.386C282.447 304.255 283.456 304.32 284.422 304.579C285.389 304.838 286.295 305.286 287.089 305.896C287.883 306.506 288.548 307.266 289.047 308.134C289.521 308.962 289.838 309.87 289.983 310.813C291.551 311 292.984 311.789 293.98 313.013C294.977 314.237 295.46 315.801 295.326 317.374C295.193 318.948 294.453 320.409 293.265 321.448C292.076 322.487 290.53 323.024 288.954 322.945L286.143 333.433L268.505 328.707L271.315 318.218Z" stroke="#A4C639" stroke-width="4" stroke-linecap="round" stroke-linejoin="round"/>
<path d="M270.082 322.82L287.721 327.547" stroke="#A4C639" stroke-width="4" stroke-linecap="round" stroke-linejoin="round"/>
</g>
<defs>
<filter id="filter0_d_1845_3543" x="0" y="0" width="340" height="726.297" filterUnits="userSpaceOnUse" color-interpolation-filters="sRGB">
<feFlood flood-opacity="0" result="BackgroundImageFix"/>
<feColorMatrix in="SourceAlpha" type="matrix" values="0 0 0 0 0 0 0 0 0 0 0 0 0 0 0 0 0 0 127 0" result="hardAlpha"/>
<feOffset dy="4"/>
<feGaussianBlur stdDeviation="2"/>
<feComposite in2="hardAlpha" operator="out"/>
<feColorMatrix type="matrix" values="0 0 0 0 0 0 0 0 0 0 0 0 0 0 0 0 0 0 0.25 0"/>
<feBlend mode="normal" in2="BackgroundImageFix" result="effect1_dropShadow_1845_3543"/>
<feBlend mode="normal" in="SourceGraphic" in2="effect1_dropShadow_1845_3543" result="shape"/>
</filter>
<linearGradient id="paint0_linear_1845_3543" x1="170" y1="0" x2="170" y2="718.299" gradientUnits="userSpaceOnUse">
<stop offset="0.103837" stop-color="#2F4F64"/>
<stop offset="0.831739"/>
</linearGradient>
<clipPath id="clip0_1845_3543">
<rect width="332" height="718.299" fill="white" transform="translate(4)"/>
</clipPath>
</defs>
</svg>
