<svg width="428" height="926" viewBox="0 0 428 926" fill="none" xmlns="http://www.w3.org/2000/svg">
<rect width="428" height="926" fill="url(#paint0_linear_1384_8317)" fill-opacity="0.73"/>
<path d="M101.49 431.894C102.651 431.894 103.835 432.631 105.041 434.105C106.292 435.579 106.917 436.807 106.917 437.79C106.917 438.728 106.738 439.197 106.381 439.197C106.068 439.197 105.443 439.041 104.505 438.728C103.567 438.371 102.718 438.192 101.959 438.192C100.217 438.192 98.0953 439.085 95.594 440.872C93.1373 442.659 90.7923 444.87 88.559 447.505C86.3703 450.14 84.4943 453.155 82.931 456.55C81.3677 459.9 80.586 462.803 80.586 465.26C80.586 467.717 81.2113 469.526 82.462 470.687C83.7573 471.804 85.4323 472.362 87.487 472.362C89.5417 472.362 91.6633 472.072 93.852 471.491C96.0407 470.866 97.8273 470.173 99.212 469.414C102.785 467.493 104.751 466.533 105.108 466.533C105.867 466.533 106.247 467.047 106.247 468.074C106.247 469.057 105.22 470.397 103.165 472.094C101.11 473.747 98.5643 475.243 95.527 476.583C92.4897 477.923 89.765 478.593 87.353 478.593C84.2263 478.593 81.2783 477.253 78.509 474.573C75.7397 471.848 74.355 468.856 74.355 465.595C74.355 461.396 75.7173 456.662 78.442 451.391C81.2113 446.076 84.74 441.497 89.028 437.656C93.3607 433.815 97.5147 431.894 101.49 431.894ZM130.007 445.763C132.017 445.763 133.871 446.79 135.568 448.845C137.266 450.855 138.114 452.686 138.114 454.339C138.114 455.947 137.556 457.6 136.439 459.297C136.975 459.967 137.243 460.548 137.243 461.039C137.243 462.29 136.953 464.434 136.372 467.471C135.836 470.508 135.501 472.496 135.367 473.434C135.278 474.372 135.189 475.131 135.099 475.712C135.01 476.248 134.898 476.784 134.764 477.32C134.586 478.437 134.184 478.995 133.558 478.995C132.754 478.995 132.084 478.303 131.548 476.918C131.057 475.489 130.767 473.657 130.677 471.424C126.702 476.471 123.017 478.995 119.622 478.995C117.568 478.995 115.535 478.124 113.525 476.382C111.56 474.595 110.577 472.764 110.577 470.888C110.577 468.208 111.56 464.903 113.525 460.972C115.491 456.997 118.037 453.468 121.163 450.386C124.29 447.304 127.238 445.763 130.007 445.763ZM133.089 457.555C133.089 453.401 132.263 451.324 130.61 451.324C128.868 451.324 126.836 452.575 124.513 455.076C122.191 457.533 120.225 460.324 118.617 463.451C117.009 466.578 116.205 469.057 116.205 470.888C116.205 471.647 116.518 472.273 117.143 472.764C117.769 473.211 118.506 473.434 119.354 473.434C121.454 473.434 123.821 472.027 126.456 469.213C129.092 466.354 130.923 462.893 131.95 458.828C132.084 458.158 132.464 457.756 133.089 457.622V457.555ZM151.096 472.295C151.096 473.144 151.587 473.568 152.57 473.568C154.267 473.568 156.322 473.099 158.734 472.161C161.19 471.178 162.553 470.687 162.821 470.687C163.625 470.687 164.027 471.111 164.027 471.96C164.027 473.255 162.687 474.752 160.007 476.449C157.371 478.146 154.959 478.995 152.771 478.995C150.627 478.995 148.84 478.414 147.411 477.253C145.981 476.047 145.267 474.819 145.267 473.568C145.267 472.317 145.535 470.732 146.071 468.811C146.607 466.846 147.366 464.277 148.349 461.106C149.376 457.89 150.18 455.232 150.761 453.133C148.661 453.624 147.254 453.87 146.54 453.87C145.825 453.87 145.11 453.513 144.396 452.798C143.726 452.039 143.391 451.324 143.391 450.654C143.391 449.582 146.294 448.555 152.101 447.572C152.905 443.865 153.307 440.582 153.307 437.723C153.307 436.383 153.753 435.713 154.647 435.713C155.406 435.713 156.344 436.204 157.461 437.187C158.577 438.125 159.136 439.197 159.136 440.403C159.136 441.609 158.756 443.731 157.997 446.768C160.543 446.545 162.575 446.433 164.094 446.433C166.774 446.433 168.114 447.014 168.114 448.175C168.114 448.845 167.377 449.403 165.903 449.85C164.473 450.297 161.436 450.989 156.791 451.927C155.853 455.456 154.669 459.498 153.24 464.054C151.81 468.565 151.096 471.312 151.096 472.295ZM180.289 478.995C177.698 478.995 175.264 477.99 172.986 475.98C170.708 473.925 169.569 471.513 169.569 468.744C169.569 465.93 170.507 462.692 172.383 459.029C174.259 455.366 176.671 452.24 179.619 449.649C182.611 447.058 185.515 445.763 188.329 445.763C190.16 445.763 191.768 446.589 193.153 448.242C194.537 449.895 195.23 451.346 195.23 452.597C195.23 452.954 195.118 453.267 194.895 453.535C194.671 453.758 194.336 453.87 193.89 453.87C193.488 453.87 192.751 453.468 191.679 452.664C190.607 451.86 189.646 451.458 188.798 451.458C186.386 451.458 183.572 453.58 180.356 457.823C177.14 462.066 175.532 465.774 175.532 468.945C175.532 470.33 175.956 471.424 176.805 472.228C177.698 473.032 179.105 473.434 181.026 473.434C182.991 473.434 184.778 473.211 186.386 472.764C188.038 472.273 189.311 471.804 190.205 471.357C191.098 470.866 191.79 470.62 192.282 470.62C193.13 470.62 193.555 471.044 193.555 471.893C193.555 473.188 191.991 474.707 188.865 476.449C185.783 478.146 182.924 478.995 180.289 478.995ZM207.244 429.616C207.244 427.874 207.78 427.003 208.852 427.003C209.7 427.003 210.594 427.673 211.532 429.013C212.514 430.353 213.006 431.648 213.006 432.899C213.006 435.802 212.269 440.76 210.795 447.773C209.365 454.741 207.489 461.709 205.167 468.677C209.633 460.592 213.363 454.763 216.356 451.19C219.393 447.572 221.984 445.763 224.128 445.763C225.289 445.763 226.629 446.768 228.148 448.778C229.711 450.788 230.493 452.798 230.493 454.808C230.493 456.818 229.934 459.833 228.818 463.853C226.048 473.948 223.435 478.995 220.979 478.995C219.996 478.995 219.505 478.325 219.505 476.985C219.505 475.645 220.041 473.389 221.113 470.218C223.48 463.295 224.664 458.627 224.664 456.215C224.664 455.411 224.463 454.741 224.061 454.205C223.659 453.669 223.167 453.401 222.587 453.401C222.006 453.401 221.291 453.714 220.443 454.339C219.594 454.964 218.567 456.059 217.361 457.622C215.842 459.632 214.256 461.888 212.604 464.389C210.996 466.89 210.013 468.409 209.656 468.945C209.343 469.436 208.762 470.352 207.914 471.692C207.11 473.032 206.507 474.037 206.105 474.707C205.703 475.332 205.211 476.025 204.631 476.784C203.603 478.258 202.822 478.995 202.286 478.995C201.75 478.995 201.035 478.504 200.142 477.521C199.248 476.494 198.802 475.645 198.802 474.975C198.802 474.26 199.047 472.943 199.539 471.022C201.772 462.446 203.179 456.572 203.76 453.401C206.082 441.788 207.244 433.859 207.244 429.616ZM274.009 457.689C271.597 465.327 270.391 469.95 270.391 471.558C270.391 472.094 270.548 472.541 270.86 472.898C271.218 473.211 271.664 473.367 272.2 473.367C277.337 473.367 283.01 472.541 289.218 470.888C291.228 470.352 292.39 470.084 292.702 470.084C293.372 470.084 293.707 470.553 293.707 471.491C293.707 473.099 291.228 474.752 286.27 476.449C281.357 478.146 276.6 478.995 271.999 478.995C269.945 478.995 268.136 478.392 266.572 477.186C265.054 475.98 264.294 474.461 264.294 472.63C264.294 470.799 264.942 467.672 266.237 463.25C267.577 458.828 268.917 454.116 270.257 449.113C271.597 444.11 272.267 439.889 272.267 436.45C272.267 435.959 272.357 435.445 272.535 434.909C273.295 433.256 278.163 432.43 287.141 432.43C296.119 432.43 300.608 433.078 300.608 434.373C300.608 435.266 299.648 435.869 297.727 436.182C296.119 436.495 293.975 436.785 291.295 437.053C288.66 437.276 286.806 437.455 285.734 437.589C284.662 437.678 282.072 438.08 277.962 438.795V438.996C277.962 442.033 277.136 446.612 275.483 452.731C275.751 452.776 276.645 452.798 278.163 452.798C279.727 452.798 281.804 452.686 284.394 452.463C286.985 452.24 288.928 452.128 290.223 452.128C291.563 452.128 292.233 452.441 292.233 453.066C292.233 454.629 290.402 455.791 286.739 456.55C283.077 457.309 278.833 457.689 274.009 457.689ZM319.165 445.763C321.175 445.763 323.028 446.79 324.726 448.845C326.423 450.855 327.272 452.686 327.272 454.339C327.272 455.947 326.713 457.6 325.597 459.297C326.133 459.967 326.401 460.548 326.401 461.039C326.401 462.29 326.11 464.434 325.53 467.471C324.994 470.508 324.659 472.496 324.525 473.434C324.435 474.372 324.346 475.131 324.257 475.712C324.167 476.248 324.056 476.784 323.922 477.32C323.743 478.437 323.341 478.995 322.716 478.995C321.912 478.995 321.242 478.303 320.706 476.918C320.214 475.489 319.924 473.657 319.835 471.424C315.859 476.471 312.174 478.995 308.78 478.995C306.725 478.995 304.693 478.124 302.683 476.382C300.717 474.595 299.735 472.764 299.735 470.888C299.735 468.208 300.717 464.903 302.683 460.972C304.648 456.997 307.194 453.468 310.321 450.386C313.447 447.304 316.395 445.763 319.165 445.763ZM322.247 457.555C322.247 453.401 321.42 451.324 319.768 451.324C318.026 451.324 315.993 452.575 313.671 455.076C311.348 457.533 309.383 460.324 307.775 463.451C306.167 466.578 305.363 469.057 305.363 470.888C305.363 471.647 305.675 472.273 306.301 472.764C306.926 473.211 307.663 473.434 308.512 473.434C310.611 473.434 312.978 472.027 315.614 469.213C318.249 466.354 320.08 462.893 321.108 458.828C321.242 458.158 321.621 457.756 322.247 457.622V457.555ZM340.253 472.295C340.253 473.144 340.744 473.568 341.727 473.568C343.424 473.568 345.479 473.099 347.891 472.161C350.348 471.178 351.71 470.687 351.978 470.687C352.782 470.687 353.184 471.111 353.184 471.96C353.184 473.255 351.844 474.752 349.164 476.449C346.529 478.146 344.117 478.995 341.928 478.995C339.784 478.995 337.997 478.414 336.568 477.253C335.139 476.047 334.424 474.819 334.424 473.568C334.424 472.317 334.692 470.732 335.228 468.811C335.764 466.846 336.523 464.277 337.506 461.106C338.533 457.89 339.337 455.232 339.918 453.133C337.819 453.624 336.412 453.87 335.697 453.87C334.982 453.87 334.268 453.513 333.553 452.798C332.883 452.039 332.548 451.324 332.548 450.654C332.548 449.582 335.451 448.555 341.258 447.572C342.062 443.865 342.464 440.582 342.464 437.723C342.464 436.383 342.911 435.713 343.804 435.713C344.563 435.713 345.501 436.204 346.618 437.187C347.735 438.125 348.293 439.197 348.293 440.403C348.293 441.609 347.913 443.731 347.154 446.768C349.7 446.545 351.732 446.433 353.251 446.433C355.931 446.433 357.271 447.014 357.271 448.175C357.271 448.845 356.534 449.403 355.06 449.85C353.631 450.297 350.593 450.989 345.948 451.927C345.01 455.456 343.826 459.498 342.397 464.054C340.968 468.565 340.253 471.312 340.253 472.295Z" fill="white"/>
<path d="M344.611 410.234C342.8 409.306 341.421 407.711 340.763 405.784C340.106 403.858 340.222 401.751 341.087 399.908C341.952 398.065 343.499 396.63 345.401 395.906C347.303 395.181 349.412 395.225 351.282 396.026C352.052 395.067 352.992 394.258 354.054 393.639C355.171 392.992 356.404 392.572 357.683 392.402C358.962 392.233 360.262 392.317 361.508 392.651C362.755 392.985 363.923 393.562 364.946 394.348C365.969 395.135 366.827 396.115 367.47 397.234C368.081 398.301 368.49 399.472 368.677 400.687C370.698 400.928 372.545 401.945 373.83 403.523C375.115 405.101 375.738 407.117 375.565 409.146C375.393 411.175 374.44 413.058 372.908 414.397C371.375 415.737 369.382 416.429 367.35 416.327L363.727 429.848L340.988 423.755L344.611 410.234Z" stroke="#A4C639" stroke-width="4" stroke-linecap="round" stroke-linejoin="round"/>
<path d="M343.021 416.168L365.76 422.261" stroke="#A4C639" stroke-width="4" stroke-linecap="round" stroke-linejoin="round"/>
<defs>
<linearGradient id="paint0_linear_1384_8317" x1="214" y1="0" x2="214" y2="926" gradientUnits="userSpaceOnUse">
<stop offset="0.103837" stop-color="#2F4F64"/>
<stop offset="0.831739"/>
</linearGradient>
</defs>
</svg>
