<svg width="22" height="22" viewBox="0 0 22 22" fill="none" xmlns="http://www.w3.org/2000/svg">
<path d="M16 1H6C3.23858 1 1 3.23858 1 6V16C1 18.7614 3.23858 21 6 21H16C18.7614 21 21 18.7614 21 16V6C21 3.23858 18.7614 1 16 1Z" stroke="black" stroke-opacity="0.9" stroke-width="1.5" stroke-linecap="round" stroke-linejoin="round"/>
<path d="M15.0036 10.3703C15.127 11.2025 14.9849 12.0525 14.5974 12.7993C14.2099 13.5461 13.5968 14.1517 12.8452 14.53C12.0937 14.9082 11.2421 15.0399 10.4114 14.9062C9.58074 14.7726 8.81337 14.3804 8.21845 13.7855C7.62353 13.1905 7.23135 12.4232 7.09768 11.5925C6.96402 10.7619 7.09568 9.9102 7.47394 9.15868C7.8522 8.40716 8.4578 7.79404 9.2046 7.40654C9.9514 7.01904 10.8014 6.87689 11.6336 7.0003C12.4825 7.12619 13.2685 7.52176 13.8753 8.12861C14.4822 8.73545 14.8777 9.52138 15.0036 10.3703Z" stroke="black" stroke-opacity="0.9" stroke-width="1.5" stroke-linecap="round" stroke-linejoin="round"/>
<path d="M16.5 5.5H16.51" stroke="black" stroke-opacity="0.9" stroke-width="1.5" stroke-linecap="round" stroke-linejoin="round"/>
</svg>
