<svg xmlns="http://www.w3.org/2000/svg" width="255" height="255" fill="none" viewBox="0 0 255 255">
  <path stroke="#518BA1" stroke-miterlimit="10" stroke-width="6" d="M144.882 204.631a9.277 9.277 0 0 1-2.72 6.562 9.29 9.29 0 0 1-6.566 2.718h-87.31a9.291 9.291 0 0 1-6.566-2.718 9.278 9.278 0 0 1-2.72-6.562v-79.069c0-2.462.978-4.822 2.72-6.563a9.291 9.291 0 0 1 6.567-2.718h47.29m49.306 88.224V161.57"/>
  <path fill="#518BA1" d="M142.054 131.426c20.29 0 36.738-16.437 36.738-36.713S162.344 58 142.054 58s-36.738 16.437-36.738 36.713 16.448 36.713 36.738 36.713Z"/>
  <path stroke="#518BA1" stroke-linecap="square" stroke-linejoin="round" stroke-width="4" d="m166.039 128.999 11.497-12.054m-6.919 16.471 11.493-12.057"/>
  <path stroke="#518BA1" stroke-linejoin="round" stroke-width="5" d="m174.445 138.594 26.657 25.38-.019-.041a9.432 9.432 0 0 0 13.164-.57 9.42 9.42 0 0 0-.263-13.165l-.123-.137-26.318-25.202"/>
  <rect width="252" height="252" x="-1.5" y="1.5" stroke="#000" stroke-opacity=".8" stroke-width="3" rx="23.5" transform="matrix(-1 0 0 1 252 0)"/>
</svg>
