<svg xmlns="http://www.w3.org/2000/svg" width="255" height="255" fill="none" viewBox="0 0 255 255">
  <path stroke="#528CA2" stroke-miterlimit="10" stroke-width="6" d="M151.86 204.631a9.373 9.373 0 0 1-9.372 9.372H54.372A9.37 9.37 0 0 1 45 204.631v-79.852a9.374 9.374 0 0 1 9.372-9.373l65.434.184m32.051 88.908v-52.545"/>
  <path stroke="#528CA2" stroke-linecap="round" stroke-linejoin="round" stroke-width="3" d="m183.947 66.367 16.559 16.56"/>
  <path stroke="#528CA2" stroke-linecap="round" stroke-linejoin="round" stroke-width="4" d="m122.336 162.182-24.102 6.459 6.46-24.102"/>
  <path fill="#518BA1" d="m104.695 144.492 75.515-75.515 17.695 17.69-75.518 75.516"/>
  <path stroke="#518BA1" stroke-miterlimit="10" stroke-width="4" d="m104.695 144.492 75.515-75.515 17.695 17.69-75.518 75.516"/>
  <path fill="#528CA2" stroke="#528CA2" stroke-miterlimit="10" stroke-width="4" d="m99.936 166.937 2.099-7.835 5.732 5.735-7.831 2.1Z"/>
  <path stroke="#528CA2" stroke-linecap="round" stroke-linejoin="round" stroke-width="4" d="m187.166 61.992 4.544-4.543a3.467 3.467 0 0 1 4.904 0l12.793 12.793a3.47 3.47 0 0 1 0 4.904l-4.544 4.543-17.692-17.692-.005-.005Z"/>
  <rect width="252" height="252" x="-1.5" y="1.5" stroke="#000" stroke-opacity=".8" stroke-width="3" rx="23.5" transform="matrix(-1 0 0 1 252 0)"/>
</svg>
