<svg xmlns="http://www.w3.org/2000/svg" width="254" height="255" fill="none" viewBox="0 0 254 255">
  <path fill="#518BA1" d="M225.004 102.393v-15.48l-14.869-1.502a40.764 40.764 0 0 0-5.214-12.2l9.582-11.745-10.914-10.949-11.845 9.729a40.384 40.384 0 0 0-11.976-4.881L178.241 40h-15.435l-1.531 15.365a40.32 40.32 0 0 0-11.976 4.88l-11.849-9.728-10.913 10.95 9.581 11.744a40.736 40.736 0 0 0-5.213 12.2l-14.87 1.502v15.48l14.596 1.465a40.775 40.775 0 0 0 5.075 12.721l-9.177 11.265 10.914 10.949 11.074-9.095a40.356 40.356 0 0 0 12.863 5.422l1.415 14.208h15.434l1.411-14.208a40.361 40.361 0 0 0 12.864-5.422l11.074 9.095 10.913-10.949-9.177-11.265a40.775 40.775 0 0 0 5.094-12.702l14.596-1.484Z"/>
  <path stroke="#518BA1" stroke-miterlimit="10" stroke-width="6" d="M149.679 204.505a9.405 9.405 0 0 1-2.741 6.637 9.339 9.339 0 0 1-6.616 2.75H52.356a9.34 9.34 0 0 1-6.616-2.75 9.401 9.401 0 0 1-2.74-6.637v-79.977c0-2.49.986-4.878 2.74-6.638a9.343 9.343 0 0 1 6.616-2.749h51.39m45.934 89.239v-42.677"/>
  <path fill="#fff" stroke="#518BA1" stroke-miterlimit="10" stroke-width="4" d="M170.481 114.336c10.447 0 18.915-8.496 18.915-18.976 0-10.481-8.468-18.977-18.915-18.977-10.446 0-18.915 8.496-18.915 18.977 0 10.48 8.469 18.976 18.915 18.976Z"/>
  <rect width="251" height="252" x="-1.5" y="1.5" stroke="#000" stroke-opacity=".8" stroke-width="3" rx="23.5" transform="matrix(-1 0 0 1 251 0)"/>
</svg>
