<svg width="162" height="55" viewBox="0 0 162 55" fill="none" xmlns="http://www.w3.org/2000/svg">
<g clip-path="url(#clip0_1499_1189)">
<rect width="162" height="55" rx="10" fill="#1F2022"/>
<rect width="162" height="55" rx="10" fill="url(#paint0_linear_1499_1189)"/>
<path d="M37.14 23.722V26.386H41.442V28.708H37.14V31.534H41.982V34H34.062V21.274H41.982V23.722H37.14ZM50.102 23.848C51.254 23.848 52.166 24.232 52.838 25C53.522 25.768 53.864 26.824 53.864 28.168V34H50.786V28.528C50.786 27.856 50.606 27.334 50.246 26.962C49.898 26.578 49.43 26.386 48.842 26.386C48.218 26.386 47.72 26.584 47.348 26.98C46.988 27.376 46.808 27.94 46.808 28.672V34H43.73V23.956H46.808V25.792C47.096 25.192 47.522 24.718 48.086 24.37C48.662 24.022 49.334 23.848 50.102 23.848ZM58.972 25.846C59.356 25.234 59.848 24.748 60.448 24.388C61.06 24.028 61.72 23.848 62.428 23.848V27.142H61.546C60.73 27.142 60.094 27.316 59.638 27.664C59.194 28.012 58.972 28.6 58.972 29.428V34H55.894V23.956H58.972V25.846ZM68.4143 23.83C69.4103 23.83 70.2983 24.04 71.0783 24.46C71.8703 24.868 72.4883 25.462 72.9323 26.242C73.3883 27.022 73.6163 27.934 73.6163 28.978C73.6163 30.022 73.3883 30.934 72.9323 31.714C72.4883 32.494 71.8703 33.094 71.0783 33.514C70.2983 33.922 69.4103 34.126 68.4143 34.126C67.4183 34.126 66.5243 33.922 65.7323 33.514C64.9403 33.094 64.3163 32.494 63.8603 31.714C63.4163 30.934 63.1943 30.022 63.1943 28.978C63.1943 27.934 63.4163 27.022 63.8603 26.242C64.3163 25.462 64.9403 24.868 65.7323 24.46C66.5243 24.04 67.4183 23.83 68.4143 23.83ZM68.4143 26.494C67.8263 26.494 67.3283 26.71 66.9203 27.142C66.5243 27.562 66.3263 28.174 66.3263 28.978C66.3263 29.782 66.5243 30.394 66.9203 30.814C67.3283 31.234 67.8263 31.444 68.4143 31.444C69.0023 31.444 69.4943 31.234 69.8903 30.814C70.2863 30.394 70.4843 29.782 70.4843 28.978C70.4843 28.174 70.2863 27.562 69.8903 27.142C69.4943 26.71 69.0023 26.494 68.4143 26.494ZM78.2904 20.68V34H75.2124V20.68H78.2904ZM83.4935 20.68V34H80.4155V20.68H83.4935ZM100.526 34H97.4482L92.3002 26.188V34H89.2222V21.274H92.3002L97.4482 29.158V21.274H100.526V34ZM107.35 23.83C108.346 23.83 109.234 24.04 110.014 24.46C110.806 24.868 111.424 25.462 111.868 26.242C112.324 27.022 112.552 27.934 112.552 28.978C112.552 30.022 112.324 30.934 111.868 31.714C111.424 32.494 110.806 33.094 110.014 33.514C109.234 33.922 108.346 34.126 107.35 34.126C106.354 34.126 105.46 33.922 104.668 33.514C103.876 33.094 103.252 32.494 102.796 31.714C102.352 30.934 102.13 30.022 102.13 28.978C102.13 27.934 102.352 27.022 102.796 26.242C103.252 25.462 103.876 24.868 104.668 24.46C105.46 24.04 106.354 23.83 107.35 23.83ZM107.35 26.494C106.762 26.494 106.264 26.71 105.856 27.142C105.46 27.562 105.262 28.174 105.262 28.978C105.262 29.782 105.46 30.394 105.856 30.814C106.264 31.234 106.762 31.444 107.35 31.444C107.938 31.444 108.43 31.234 108.826 30.814C109.222 30.394 109.42 29.782 109.42 28.978C109.42 28.174 109.222 27.562 108.826 27.142C108.43 26.71 107.938 26.494 107.35 26.494ZM128.836 23.956L126.262 34H122.824L121.006 27.268L119.17 34H115.732L113.158 23.956H116.236L117.568 31.192L119.44 23.956H122.716L124.642 31.21L125.974 23.956H128.836Z" fill="white"/>
</g>
<defs>
<linearGradient id="paint0_linear_1499_1189" x1="81" y1="0" x2="81" y2="55" gradientUnits="userSpaceOnUse">
<stop stop-color="#6F32C4"/>
<stop offset="1" stop-color="#6F32C4" stop-opacity="0.14"/>
</linearGradient>
<clipPath id="clip0_1499_1189">
<rect width="162" height="55" rx="10" fill="white"/>
</clipPath>
</defs>
</svg>
