<svg width="269" height="83" viewBox="0 0 269 83" fill="none" xmlns="http://www.w3.org/2000/svg">
<g clip-path="url(#clip0_1410_5315)">
<rect width="269" height="83" rx="10" fill="#1F2022"/>
<rect width="269" height="83" rx="10" fill="url(#paint0_linear_1410_5315)"/>
<path d="M60.041 45.423C60.041 46.2817 59.8187 47.0713 59.374 47.792C58.9447 48.5127 58.3007 49.0877 57.442 49.517C56.5987 49.9463 55.5713 50.161 54.36 50.161C52.5353 50.161 51.0327 49.7163 49.852 48.827C48.6713 47.9377 48.0273 46.6957 47.92 45.101H52.106C52.1673 45.7143 52.382 46.1973 52.75 46.55C53.1333 46.9027 53.6163 47.079 54.199 47.079C54.705 47.079 55.1037 46.941 55.395 46.665C55.6863 46.389 55.832 46.021 55.832 45.561C55.832 45.147 55.694 44.802 55.418 44.526C55.1573 44.25 54.8277 44.0277 54.429 43.859C54.0303 43.675 53.4783 43.4603 52.773 43.215C51.7457 42.8623 50.9023 42.525 50.243 42.203C49.599 41.8657 49.0393 41.375 48.564 40.731C48.104 40.0717 47.874 39.2207 47.874 38.178C47.874 37.212 48.1193 36.3763 48.61 35.671C49.1007 34.9657 49.7753 34.429 50.634 34.061C51.508 33.6777 52.5047 33.486 53.624 33.486C55.4333 33.486 56.867 33.9153 57.925 34.774C58.9983 35.6327 59.604 36.8133 59.742 38.316H55.487C55.4103 37.7793 55.211 37.3577 54.889 37.051C54.5823 36.729 54.1607 36.568 53.624 36.568C53.164 36.568 52.7883 36.6907 52.497 36.936C52.221 37.1813 52.083 37.5417 52.083 38.017C52.083 38.4003 52.2057 38.73 52.451 39.006C52.7117 39.2667 53.0337 39.4813 53.417 39.65C53.8003 39.8187 54.3523 40.0333 55.073 40.294C56.1157 40.6467 56.9667 40.9993 57.626 41.352C58.2853 41.6893 58.8527 42.1877 59.328 42.847C59.8033 43.5063 60.041 44.365 60.041 45.423ZM74.9804 37.166V50H71.0244V47.677C70.6564 48.4283 70.1044 49.0263 69.3684 49.471C68.6477 49.9157 67.8044 50.138 66.8384 50.138C65.3664 50.138 64.1934 49.6473 63.3194 48.666C62.4607 47.6847 62.0314 46.3353 62.0314 44.618V37.166H65.9414V44.135C65.9414 45.009 66.1637 45.6913 66.6084 46.182C67.0684 46.6573 67.6817 46.895 68.4484 46.895C69.2457 46.895 69.8744 46.642 70.3344 46.136C70.7944 45.63 71.0244 44.9093 71.0244 43.974V37.166H74.9804ZM85.695 37.005C86.753 37.005 87.696 37.2733 88.524 37.81C89.3673 38.3313 90.0267 39.0903 90.502 40.087C90.9927 41.0683 91.238 42.2337 91.238 43.583C91.238 44.917 90.9927 46.0823 90.502 47.079C90.0267 48.0757 89.3673 48.8423 88.524 49.379C87.696 49.9003 86.753 50.161 85.695 50.161C84.7137 50.161 83.8703 49.9387 83.165 49.494C82.4597 49.0493 81.946 48.4437 81.624 47.677V50H77.691V32.98H81.624V39.489C81.946 38.7223 82.4597 38.1167 83.165 37.672C83.8703 37.2273 84.7137 37.005 85.695 37.005ZM84.43 40.455C83.602 40.455 82.9197 40.7387 82.383 41.306C81.8617 41.858 81.601 42.617 81.601 43.583C81.601 44.5337 81.8617 45.2927 82.383 45.86C82.9197 46.4273 83.602 46.711 84.43 46.711C85.2733 46.711 85.948 46.435 86.454 45.883C86.9753 45.331 87.236 44.5643 87.236 43.583C87.236 42.6017 86.9753 41.835 86.454 41.283C85.948 40.731 85.2733 40.455 84.43 40.455ZM97.9479 37.005C99.5732 37.005 100.869 37.4113 101.835 38.224C102.816 39.0367 103.43 40.11 103.675 41.444H99.9949C99.8875 40.9227 99.6422 40.5163 99.2589 40.225C98.8909 39.9183 98.4232 39.765 97.8559 39.765C97.4112 39.765 97.0739 39.8647 96.8439 40.064C96.6139 40.248 96.4989 40.5163 96.4989 40.869C96.4989 41.2677 96.7059 41.5667 97.1199 41.766C97.5492 41.9653 98.2162 42.1647 99.1209 42.364C100.102 42.594 100.907 42.8317 101.536 43.077C102.165 43.307 102.709 43.6903 103.169 44.227C103.629 44.7637 103.859 45.4843 103.859 46.389C103.859 47.125 103.66 47.7767 103.261 48.344C102.862 48.9113 102.287 49.356 101.536 49.678C100.785 50 99.8952 50.161 98.8679 50.161C97.1352 50.161 95.7475 49.7777 94.7049 49.011C93.6622 48.2443 93.0259 47.148 92.7959 45.722H96.5909C96.6522 46.274 96.8822 46.6957 97.2809 46.987C97.6949 47.2783 98.2239 47.424 98.8679 47.424C99.3125 47.424 99.6499 47.3243 99.8799 47.125C100.11 46.9103 100.225 46.6343 100.225 46.297C100.225 45.8523 100.01 45.538 99.5809 45.354C99.1669 45.1547 98.4845 44.9477 97.5339 44.733C96.5832 44.5337 95.8012 44.319 95.1879 44.089C94.5745 43.859 94.0455 43.491 93.6009 42.985C93.1562 42.4637 92.9339 41.7583 92.9339 40.869C92.9339 39.719 93.3709 38.7913 94.2449 38.086C95.1189 37.3653 96.3532 37.005 97.9479 37.005ZM111.833 37.005C113.489 37.005 114.876 37.465 115.996 38.385C117.115 39.2897 117.82 40.5393 118.112 42.134H113.949C113.826 41.582 113.573 41.1527 113.19 40.846C112.806 40.5393 112.323 40.386 111.741 40.386C111.051 40.386 110.483 40.662 110.039 41.214C109.594 41.7507 109.372 42.5403 109.372 43.583C109.372 44.6257 109.594 45.423 110.039 45.975C110.483 46.5117 111.051 46.78 111.741 46.78C112.323 46.78 112.806 46.6267 113.19 46.32C113.573 46.0133 113.826 45.584 113.949 45.032H118.112C117.82 46.6267 117.115 47.884 115.996 48.804C114.876 49.7087 113.489 50.161 111.833 50.161C110.575 50.161 109.456 49.9003 108.475 49.379C107.509 48.8423 106.75 48.0757 106.198 47.079C105.646 46.0823 105.37 44.917 105.37 43.583C105.37 42.2337 105.638 41.0683 106.175 40.087C106.727 39.0903 107.493 38.3313 108.475 37.81C109.456 37.2733 110.575 37.005 111.833 37.005ZM124.098 39.581C124.588 38.799 125.217 38.178 125.984 37.718C126.766 37.258 127.609 37.028 128.514 37.028V41.237H127.387C126.344 41.237 125.531 41.4593 124.949 41.904C124.381 42.3487 124.098 43.1 124.098 44.158V50H120.165V37.166H124.098V39.581ZM129.792 33.555C129.792 32.957 130.006 32.4663 130.436 32.083C130.865 31.6843 131.432 31.485 132.138 31.485C132.843 31.485 133.41 31.6843 133.84 32.083C134.269 32.4663 134.484 32.957 134.484 33.555C134.484 34.1377 134.269 34.6283 133.84 35.027C133.41 35.4103 132.843 35.602 132.138 35.602C131.432 35.602 130.865 35.4103 130.436 35.027C130.006 34.6283 129.792 34.1377 129.792 33.555ZM134.093 37.166V50H130.16V37.166H134.093ZM144.812 37.005C145.87 37.005 146.813 37.2733 147.641 37.81C148.485 38.3313 149.144 39.0903 149.619 40.087C150.11 41.0683 150.355 42.2337 150.355 43.583C150.355 44.917 150.11 46.0823 149.619 47.079C149.144 48.0757 148.485 48.8423 147.641 49.379C146.813 49.9003 145.87 50.161 144.812 50.161C143.831 50.161 142.988 49.9387 142.282 49.494C141.577 49.0493 141.063 48.4437 140.741 47.677V50H136.808V32.98H140.741V39.489C141.063 38.7223 141.577 38.1167 142.282 37.672C142.988 37.2273 143.831 37.005 144.812 37.005ZM143.547 40.455C142.719 40.455 142.037 40.7387 141.5 41.306C140.979 41.858 140.718 42.617 140.718 43.583C140.718 44.5337 140.979 45.2927 141.5 45.86C142.037 46.4273 142.719 46.711 143.547 46.711C144.391 46.711 145.065 46.435 145.571 45.883C146.093 45.331 146.353 44.5643 146.353 43.583C146.353 42.6017 146.093 41.835 145.571 41.283C145.065 40.731 144.391 40.455 143.547 40.455ZM164.586 43.238C164.586 43.56 164.548 43.9127 164.471 44.296H155.57C155.616 45.262 155.861 45.9597 156.306 46.389C156.751 46.803 157.318 47.01 158.008 47.01C158.591 47.01 159.074 46.8643 159.457 46.573C159.84 46.2817 160.093 45.906 160.216 45.446H164.379C164.21 46.3507 163.842 47.1633 163.275 47.884C162.708 48.5893 161.987 49.149 161.113 49.563C160.239 49.9617 159.265 50.161 158.192 50.161C156.935 50.161 155.815 49.9003 154.834 49.379C153.868 48.8423 153.109 48.0757 152.557 47.079C152.005 46.0823 151.729 44.917 151.729 43.583C151.729 42.2337 151.997 41.0683 152.534 40.087C153.086 39.0903 153.853 38.3313 154.834 37.81C155.815 37.2733 156.935 37.005 158.192 37.005C159.465 37.005 160.584 37.2657 161.55 37.787C162.516 38.3083 163.26 39.0443 163.781 39.995C164.318 40.9303 164.586 42.0113 164.586 43.238ZM160.607 42.64C160.622 41.7967 160.392 41.168 159.917 40.754C159.457 40.3247 158.882 40.11 158.192 40.11C157.471 40.11 156.873 40.3247 156.398 40.754C155.923 41.1833 155.654 41.812 155.593 42.64H160.607ZM185.685 50H181.752L175.174 40.018V50H171.241V33.739H175.174L181.752 43.813V33.739H185.685V50ZM194.404 37.005C195.677 37.005 196.811 37.2733 197.808 37.81C198.82 38.3313 199.61 39.0903 200.177 40.087C200.76 41.0837 201.051 42.249 201.051 43.583C201.051 44.917 200.76 46.0823 200.177 47.079C199.61 48.0757 198.82 48.8423 197.808 49.379C196.811 49.9003 195.677 50.161 194.404 50.161C193.131 50.161 191.989 49.9003 190.977 49.379C189.965 48.8423 189.168 48.0757 188.585 47.079C188.018 46.0823 187.734 44.917 187.734 43.583C187.734 42.249 188.018 41.0837 188.585 40.087C189.168 39.0903 189.965 38.3313 190.977 37.81C191.989 37.2733 193.131 37.005 194.404 37.005ZM194.404 40.409C193.653 40.409 193.016 40.685 192.495 41.237C191.989 41.7737 191.736 42.5557 191.736 43.583C191.736 44.6103 191.989 45.3923 192.495 45.929C193.016 46.4657 193.653 46.734 194.404 46.734C195.155 46.734 195.784 46.4657 196.29 45.929C196.796 45.3923 197.049 44.6103 197.049 43.583C197.049 42.5557 196.796 41.7737 196.29 41.237C195.784 40.685 195.155 40.409 194.404 40.409ZM221.858 37.166L218.569 50H214.176L211.853 41.398L209.507 50H205.114L201.825 37.166H205.758L207.46 46.412L209.852 37.166H214.038L216.499 46.435L218.201 37.166H221.858Z" fill="white"/>
</g>
<defs>
<linearGradient id="paint0_linear_1410_5315" x1="134.5" y1="0" x2="134.5" y2="83" gradientUnits="userSpaceOnUse">
<stop stop-color="#6F32C4"/>
<stop offset="1" stop-color="#6F32C4" stop-opacity="0.14"/>
</linearGradient>
<clipPath id="clip0_1410_5315">
<rect width="269" height="83" rx="10" fill="white"/>
</clipPath>
</defs>
</svg>
