<svg width="191" height="83" viewBox="0 0 191 83" fill="none" xmlns="http://www.w3.org/2000/svg">
<rect width="191" height="83" rx="10" fill="#1F2022"/>
<rect width="191" height="83" rx="10" fill="url(#paint0_linear_1499_1191)"/>
<path d="M35.29 46.987H40.534V50H31.357V33.739H35.29V46.987ZM54.5304 43.238C54.5304 43.56 54.4921 43.9127 54.4154 44.296H45.5144C45.5604 45.262 45.8057 45.9597 46.2504 46.389C46.6951 46.803 47.2624 47.01 47.9524 47.01C48.5351 47.01 49.0181 46.8643 49.4014 46.573C49.7847 46.2817 50.0377 45.906 50.1604 45.446H54.3234C54.1547 46.3507 53.7867 47.1633 53.2194 47.884C52.6521 48.5893 51.9314 49.149 51.0574 49.563C50.1834 49.9617 49.2097 50.161 48.1364 50.161C46.8791 50.161 45.7597 49.9003 44.7784 49.379C43.8124 48.8423 43.0534 48.0757 42.5014 47.079C41.9494 46.0823 41.6734 44.917 41.6734 43.583C41.6734 42.2337 41.9417 41.0683 42.4784 40.087C43.0304 39.0903 43.7971 38.3313 44.7784 37.81C45.7597 37.2733 46.8791 37.005 48.1364 37.005C49.4091 37.005 50.5284 37.2657 51.4944 37.787C52.4604 38.3083 53.2041 39.0443 53.7254 39.995C54.2621 40.9303 54.5304 42.0113 54.5304 43.238ZM50.5514 42.64C50.5667 41.7967 50.3367 41.168 49.8614 40.754C49.4014 40.3247 48.8264 40.11 48.1364 40.11C47.4157 40.11 46.8177 40.3247 46.3424 40.754C45.8671 41.1833 45.5987 41.812 45.5374 42.64H50.5514ZM61.4566 37.005C62.438 37.005 63.2813 37.2273 63.9866 37.672C64.692 38.1167 65.2133 38.7223 65.5506 39.489V37.166H69.4606V50H65.5506V47.677C65.2133 48.4437 64.692 49.0493 63.9866 49.494C63.2813 49.9387 62.438 50.161 61.4566 50.161C60.3986 50.161 59.448 49.9003 58.6046 49.379C57.7766 48.8423 57.1173 48.0757 56.6266 47.079C56.1513 46.0823 55.9136 44.917 55.9136 43.583C55.9136 42.2337 56.1513 41.0683 56.6266 40.087C57.1173 39.0903 57.7766 38.3313 58.6046 37.81C59.448 37.2733 60.3986 37.005 61.4566 37.005ZM62.7216 40.455C61.8783 40.455 61.196 40.731 60.6746 41.283C60.1686 41.835 59.9156 42.6017 59.9156 43.583C59.9156 44.5643 60.1686 45.331 60.6746 45.883C61.196 46.435 61.8783 46.711 62.7216 46.711C63.5496 46.711 64.2243 46.4273 64.7456 45.86C65.2823 45.2927 65.5506 44.5337 65.5506 43.583C65.5506 42.617 65.2823 41.858 64.7456 41.306C64.2243 40.7387 63.5496 40.455 62.7216 40.455ZM76.1015 39.581C76.5922 38.799 77.2209 38.178 77.9875 37.718C78.7695 37.258 79.6129 37.028 80.5175 37.028V41.237H79.3905C78.3479 41.237 77.5352 41.4593 76.9525 41.904C76.3852 42.3487 76.1015 43.1 76.1015 44.158V50H72.1685V37.166H76.1015V39.581ZM90.3056 37.028C91.7776 37.028 92.943 37.5187 93.8016 38.5C94.6756 39.4813 95.1126 40.8307 95.1126 42.548V50H91.1796V43.008C91.1796 42.1493 90.9496 41.4823 90.4896 41.007C90.045 40.5163 89.447 40.271 88.6956 40.271C87.8983 40.271 87.262 40.524 86.7866 41.03C86.3266 41.536 86.0966 42.2567 86.0966 43.192V50H82.1636V37.166H86.0966V39.512C86.4646 38.7453 87.009 38.1397 87.7296 37.695C88.4656 37.2503 89.3243 37.028 90.3056 37.028ZM120.596 33.854V50H116.663V39.903L113.167 50H109.763L106.244 39.88V50H102.311V33.854H107.118L111.511 45.101L115.812 33.854H120.596ZM129.315 37.005C130.588 37.005 131.722 37.2733 132.719 37.81C133.731 38.3313 134.521 39.0903 135.088 40.087C135.671 41.0837 135.962 42.249 135.962 43.583C135.962 44.917 135.671 46.0823 135.088 47.079C134.521 48.0757 133.731 48.8423 132.719 49.379C131.722 49.9003 130.588 50.161 129.315 50.161C128.042 50.161 126.9 49.9003 125.888 49.379C124.876 48.8423 124.079 48.0757 123.496 47.079C122.929 46.0823 122.645 44.917 122.645 43.583C122.645 42.249 122.929 41.0837 123.496 40.087C124.079 39.0903 124.876 38.3313 125.888 37.81C126.9 37.2733 128.042 37.005 129.315 37.005ZM129.315 40.409C128.564 40.409 127.927 40.685 127.406 41.237C126.9 41.7737 126.647 42.5557 126.647 43.583C126.647 44.6103 126.9 45.3923 127.406 45.929C127.927 46.4657 128.564 46.734 129.315 46.734C130.066 46.734 130.695 46.4657 131.201 45.929C131.707 45.3923 131.96 44.6103 131.96 43.583C131.96 42.5557 131.707 41.7737 131.201 41.237C130.695 40.685 130.066 40.409 129.315 40.409ZM141.935 39.581C142.425 38.799 143.054 38.178 143.821 37.718C144.603 37.258 145.446 37.028 146.351 37.028V41.237H145.224C144.181 41.237 143.368 41.4593 142.786 41.904C142.218 42.3487 141.935 43.1 141.935 44.158V50H138.002V37.166H141.935V39.581ZM160.187 43.238C160.187 43.56 160.148 43.9127 160.072 44.296H151.171C151.217 45.262 151.462 45.9597 151.907 46.389C152.351 46.803 152.919 47.01 153.609 47.01C154.191 47.01 154.674 46.8643 155.058 46.573C155.441 46.2817 155.694 45.906 155.817 45.446H159.98C159.811 46.3507 159.443 47.1633 158.876 47.884C158.308 48.5893 157.588 49.149 156.714 49.563C155.84 49.9617 154.866 50.161 153.793 50.161C152.535 50.161 151.416 49.9003 150.435 49.379C149.469 48.8423 148.71 48.0757 148.158 47.079C147.606 46.0823 147.33 44.917 147.33 43.583C147.33 42.2337 147.598 41.0683 148.135 40.087C148.687 39.0903 149.453 38.3313 150.435 37.81C151.416 37.2733 152.535 37.005 153.793 37.005C155.065 37.005 156.185 37.2657 157.151 37.787C158.117 38.3083 158.86 39.0443 159.382 39.995C159.918 40.9303 160.187 42.0113 160.187 43.238ZM156.208 42.64C156.223 41.7967 155.993 41.168 155.518 40.754C155.058 40.3247 154.483 40.11 153.793 40.11C153.072 40.11 152.474 40.3247 151.999 40.754C151.523 41.1833 151.255 41.812 151.194 42.64H156.208Z" fill="white"/>
<defs>
<linearGradient id="paint0_linear_1499_1191" x1="95.5" y1="0" x2="95.5" y2="83" gradientUnits="userSpaceOnUse">
<stop stop-color="#6F32C4"/>
<stop offset="1" stop-color="#6F32C4" stop-opacity="0.14"/>
</linearGradient>
</defs>
</svg>
