<svg width="986" height="297" viewBox="0 0 986 297" fill="none" xmlns="http://www.w3.org/2000/svg">
<rect width="245" height="245" transform="translate(106.5 2)" fill="url(#paint0_linear_1525_1118)"/>
<path d="M199.42 33.816L198.86 36.408H201.1V37.736H198.588L197.884 41H196.508L197.212 37.736H193.836L193.132 41H191.756L192.46 37.736H189.964V36.408H192.732L193.292 33.816H190.876V32.472H193.58L194.284 29.16H195.66L194.956 32.472H198.332L199.036 29.16H200.412L199.708 32.472H201.996V33.816H199.42ZM198.044 33.816H194.668L194.108 36.408H197.484L198.044 33.816ZM202.949 38.408V37.192L208.741 29.64H210.309V37.144H211.973V38.408H210.309V41H208.837V38.408H202.949ZM208.933 31.416L204.485 37.144H208.933V31.416ZM214.999 30.904V34.76H219.287V35.88H214.999V39.816H219.767V41H213.543V29.72H219.767V30.904H214.999ZM225.253 29.416C225.978 29.416 226.602 29.544 227.125 29.8C227.647 30.056 228.042 30.408 228.309 30.856C228.575 31.304 228.709 31.8107 228.709 32.376C228.709 33.08 228.501 33.672 228.085 34.152C227.679 34.632 227.082 34.92 226.293 35.016V35.112C227.114 35.3253 227.754 35.656 228.213 36.104C228.682 36.552 228.917 37.1707 228.917 37.96C228.917 38.888 228.607 39.6453 227.989 40.232C227.37 40.8187 226.479 41.112 225.317 41.112C224.154 41.112 223.21 40.8133 222.485 40.216C221.77 39.608 221.349 38.7227 221.221 37.56H222.661C222.757 38.264 223.023 38.824 223.461 39.24C223.909 39.656 224.511 39.864 225.269 39.864C225.983 39.864 226.533 39.6827 226.917 39.32C227.301 38.9467 227.493 38.4667 227.493 37.88C227.493 37.176 227.215 36.6427 226.661 36.28C226.117 35.9067 225.338 35.72 224.325 35.72H223.941V34.504H224.325C226.287 34.504 227.269 33.848 227.269 32.536C227.269 31.96 227.087 31.5013 226.725 31.16C226.362 30.8187 225.861 30.648 225.221 30.648C224.581 30.648 224.042 30.8347 223.605 31.208C223.167 31.5707 222.911 32.1093 222.837 32.824H221.413C221.487 31.7573 221.855 30.9253 222.517 30.328C223.189 29.72 224.101 29.416 225.253 29.416ZM236.563 35.16C237.256 35.3093 237.816 35.64 238.243 36.152C238.68 36.664 238.899 37.2667 238.899 37.96C238.899 38.8773 238.584 39.6133 237.955 40.168C237.336 40.7227 236.435 41 235.251 41H231.059V29.72H235.187C236.317 29.72 237.176 29.9707 237.763 30.472C238.349 30.9733 238.643 31.6613 238.643 32.536C238.643 33.2613 238.445 33.848 238.051 34.296C237.667 34.744 237.171 35.032 236.563 35.16ZM232.515 34.664H234.947C235.661 34.664 236.205 34.4987 236.579 34.168C236.963 33.8373 237.155 33.3733 237.155 32.776C237.155 32.2 236.968 31.7467 236.595 31.416C236.221 31.0853 235.651 30.92 234.883 30.92H232.515V34.664ZM234.979 39.784C235.747 39.784 236.339 39.608 236.755 39.256C237.181 38.904 237.395 38.408 237.395 37.768C237.395 37.1387 237.176 36.648 236.739 36.296C236.312 35.9333 235.715 35.752 234.947 35.752H232.515V39.784H234.979ZM250.219 35.352C250.219 36.4933 249.99 37.4907 249.531 38.344C249.072 39.1867 248.395 39.8427 247.499 40.312C246.614 40.7707 245.547 41 244.299 41H240.715V29.72H244.299C245.547 29.72 246.614 29.9493 247.499 30.408C248.395 30.856 249.072 31.5067 249.531 32.36C249.99 33.2027 250.219 34.2 250.219 35.352ZM244.187 39.688C245.659 39.688 246.784 39.3093 247.563 38.552C248.342 37.7947 248.731 36.728 248.731 35.352C248.731 33.976 248.342 32.9093 247.563 32.152C246.795 31.384 245.67 31 244.187 31H242.171V39.688H244.187ZM253.576 37.832C253.672 38.504 253.906 39.0213 254.28 39.384C254.653 39.7467 255.165 39.928 255.816 39.928C256.712 39.928 257.389 39.5813 257.848 38.888C258.306 38.1947 258.536 37.096 258.536 35.592C258.536 35.304 258.53 35.0853 258.52 34.936C258.37 35.576 258.008 36.088 257.432 36.472C256.856 36.856 256.178 37.048 255.4 37.048C254.28 37.048 253.4 36.712 252.76 36.04C252.12 35.368 251.8 34.4293 251.8 33.224C251.8 32.52 251.938 31.88 252.216 31.304C252.493 30.728 252.914 30.2747 253.48 29.944C254.056 29.6027 254.765 29.432 255.608 29.432C257.229 29.432 258.338 29.9333 258.936 30.936C259.544 31.928 259.848 33.2933 259.848 35.032C259.848 37.016 259.538 38.5307 258.92 39.576C258.301 40.6107 257.266 41.128 255.816 41.128C254.738 41.128 253.89 40.824 253.272 40.216C252.664 39.5973 252.306 38.8027 252.2 37.832H253.576ZM258.376 33.448C258.376 32.68 258.146 32.0293 257.688 31.496C257.24 30.9627 256.562 30.696 255.656 30.696C254.909 30.696 254.312 30.92 253.864 31.368C253.416 31.816 253.192 32.44 253.192 33.24C253.192 34.0933 253.416 34.7493 253.864 35.208C254.312 35.6667 254.925 35.896 255.704 35.896C256.152 35.896 256.578 35.8053 256.984 35.624C257.4 35.4427 257.736 35.1653 257.992 34.792C258.248 34.4187 258.376 33.9707 258.376 33.448Z" fill="white"/>
<path d="M199.42 217.816L198.86 220.408H201.1V221.736H198.588L197.884 225H196.508L197.212 221.736H193.836L193.132 225H191.756L192.46 221.736H189.964V220.408H192.732L193.292 217.816H190.876V216.472H193.58L194.284 213.16H195.66L194.956 216.472H198.332L199.036 213.16H200.412L199.708 216.472H201.996V217.816H199.42ZM198.044 217.816H194.668L194.108 220.408H197.484L198.044 217.816ZM205.013 221.832C205.109 222.504 205.344 223.021 205.717 223.384C206.09 223.747 206.602 223.928 207.253 223.928C208.149 223.928 208.826 223.581 209.285 222.888C209.744 222.195 209.973 221.096 209.973 219.592C209.973 219.304 209.968 219.085 209.957 218.936C209.808 219.576 209.445 220.088 208.869 220.472C208.293 220.856 207.616 221.048 206.837 221.048C205.717 221.048 204.837 220.712 204.197 220.04C203.557 219.368 203.237 218.429 203.237 217.224C203.237 216.52 203.376 215.88 203.653 215.304C203.93 214.728 204.352 214.275 204.917 213.944C205.493 213.603 206.202 213.432 207.045 213.432C208.666 213.432 209.776 213.933 210.373 214.936C210.981 215.928 211.285 217.293 211.285 219.032C211.285 221.016 210.976 222.531 210.357 223.576C209.738 224.611 208.704 225.128 207.253 225.128C206.176 225.128 205.328 224.824 204.709 224.216C204.101 223.597 203.744 222.803 203.637 221.832H205.013ZM209.813 217.448C209.813 216.68 209.584 216.029 209.125 215.496C208.677 214.963 208 214.696 207.093 214.696C206.346 214.696 205.749 214.92 205.301 215.368C204.853 215.816 204.629 216.44 204.629 217.24C204.629 218.093 204.853 218.749 205.301 219.208C205.749 219.667 206.362 219.896 207.141 219.896C207.589 219.896 208.016 219.805 208.421 219.624C208.837 219.443 209.173 219.165 209.429 218.792C209.685 218.419 209.813 217.971 209.813 217.448ZM214.748 221.832C214.844 222.504 215.078 223.021 215.452 223.384C215.825 223.747 216.337 223.928 216.988 223.928C217.884 223.928 218.561 223.581 219.02 222.888C219.478 222.195 219.708 221.096 219.708 219.592C219.708 219.304 219.702 219.085 219.692 218.936C219.542 219.576 219.18 220.088 218.604 220.472C218.028 220.856 217.35 221.048 216.572 221.048C215.452 221.048 214.572 220.712 213.932 220.04C213.292 219.368 212.972 218.429 212.972 217.224C212.972 216.52 213.11 215.88 213.388 215.304C213.665 214.728 214.086 214.275 214.652 213.944C215.228 213.603 215.937 213.432 216.78 213.432C218.401 213.432 219.51 213.933 220.108 214.936C220.716 215.928 221.02 217.293 221.02 219.032C221.02 221.016 220.71 222.531 220.092 223.576C219.473 224.611 218.438 225.128 216.988 225.128C215.91 225.128 215.062 224.824 214.444 224.216C213.836 223.597 213.478 222.803 213.372 221.832H214.748ZM219.548 217.448C219.548 216.68 219.318 216.029 218.86 215.496C218.412 214.963 217.734 214.696 216.828 214.696C216.081 214.696 215.484 214.92 215.036 215.368C214.588 215.816 214.364 216.44 214.364 217.24C214.364 218.093 214.588 218.749 215.036 219.208C215.484 219.667 216.097 219.896 216.876 219.896C217.324 219.896 217.75 219.805 218.156 219.624C218.572 219.443 218.908 219.165 219.164 218.792C219.42 218.419 219.548 217.971 219.548 217.448ZM222.594 223.88C224.407 222.664 225.858 221.459 226.946 220.264C228.034 219.059 228.578 217.939 228.578 216.904C228.578 216.264 228.413 215.752 228.082 215.368C227.762 214.973 227.239 214.776 226.514 214.776C225.767 214.776 225.202 215.016 224.818 215.496C224.434 215.965 224.221 216.616 224.178 217.448H222.738C222.813 216.189 223.202 215.224 223.906 214.552C224.61 213.869 225.517 213.528 226.626 213.528C227.682 213.528 228.519 213.811 229.138 214.376C229.757 214.941 230.066 215.741 230.066 216.776C230.066 217.629 229.789 218.499 229.234 219.384C228.69 220.259 228.002 221.075 227.17 221.832C226.349 222.579 225.501 223.213 224.626 223.736H230.354V224.936H222.594V223.88ZM238.28 216.728C238.195 216.056 237.965 215.539 237.592 215.176C237.229 214.803 236.723 214.616 236.072 214.616C235.165 214.616 234.477 214.968 234.008 215.672C233.549 216.376 233.32 217.491 233.32 219.016L233.336 219.608C233.496 218.968 233.864 218.461 234.44 218.088C235.016 217.704 235.693 217.512 236.472 217.512C237.592 217.512 238.467 217.848 239.096 218.52C239.736 219.192 240.056 220.131 240.056 221.336C240.056 222.04 239.917 222.68 239.64 223.256C239.363 223.821 238.936 224.275 238.36 224.616C237.795 224.947 237.091 225.112 236.248 225.112C234.637 225.112 233.528 224.605 232.92 223.592C232.323 222.579 232.024 221.203 232.024 219.464C232.024 217.459 232.344 215.955 232.984 214.952C233.635 213.939 234.691 213.432 236.152 213.432C237.229 213.432 238.056 213.736 238.632 214.344C239.219 214.952 239.565 215.747 239.672 216.728H238.28ZM233.496 221.096C233.496 221.875 233.72 222.531 234.168 223.064C234.627 223.587 235.309 223.848 236.216 223.848C236.963 223.848 237.56 223.629 238.008 223.192C238.456 222.744 238.68 222.12 238.68 221.32C238.68 220.456 238.456 219.8 238.008 219.352C237.56 218.893 236.941 218.664 236.152 218.664C235.704 218.664 235.277 218.755 234.872 218.936C234.467 219.117 234.136 219.395 233.88 219.768C233.624 220.131 233.496 220.573 233.496 221.096ZM248.714 222.392H243.754L242.81 225H241.242L245.418 213.928H247.066L251.226 225H249.658L248.714 222.392ZM248.298 221.256L246.234 215.56L244.17 221.256H248.298ZM259.307 222.392H254.347L253.403 225H251.835L256.011 213.928H257.659L261.819 225H260.251L259.307 222.392ZM258.891 221.256L256.827 215.56L254.763 221.256H258.891Z" fill="white"/>
<rect width="113" height="113" transform="translate(370.5 2)" fill="#1F2022"/>
<path d="M405.42 86.816L404.86 89.408H407.1V90.736H404.588L403.884 94H402.508L403.212 90.736H399.836L399.132 94H397.756L398.46 90.736H395.964V89.408H398.732L399.292 86.816H396.876V85.472H399.58L400.284 82.16H401.66L400.956 85.472H404.332L405.036 82.16H406.412L405.708 85.472H407.996V86.816H405.42ZM404.044 86.816H400.668L400.108 89.408H403.484L404.044 86.816ZM408.661 84.08V82.72H411.893V94H410.357V84.08H408.661ZM420.599 82.72V83.904H415.671V87.808H419.847V88.944H415.671V94H414.215V82.72H420.599ZM421.828 92.88C423.642 91.664 425.092 90.4587 426.18 89.264C427.268 88.0587 427.812 86.9387 427.812 85.904C427.812 85.264 427.647 84.752 427.316 84.368C426.996 83.9733 426.474 83.776 425.748 83.776C425.002 83.776 424.436 84.016 424.052 84.496C423.668 84.9653 423.455 85.616 423.412 86.448H421.972C422.047 85.1893 422.436 84.224 423.14 83.552C423.844 82.8693 424.751 82.528 425.86 82.528C426.916 82.528 427.754 82.8107 428.372 83.376C428.991 83.9413 429.3 84.7413 429.3 85.776C429.3 86.6293 429.023 87.4987 428.468 88.384C427.924 89.2587 427.236 90.0747 426.404 90.832C425.583 91.5787 424.735 92.2133 423.86 92.736H429.588V93.936H421.828V92.88ZM431.146 88.288C431.146 90.1013 431.445 91.5147 432.042 92.528C432.64 93.5413 433.674 94.048 435.146 94.048C436.618 94.048 437.653 93.5413 438.25 92.528C438.858 91.5147 439.162 90.1013 439.162 88.288C439.162 86.496 438.858 85.0933 438.25 84.08C437.653 83.0667 436.618 82.56 435.146 82.56C433.674 82.56 432.64 83.0667 432.042 84.08C431.445 85.0827 431.146 86.4853 431.146 88.288ZM437.722 88.288C437.722 89.216 437.653 89.9947 437.514 90.624C437.386 91.2427 437.136 91.7387 436.762 92.112C436.389 92.4853 435.85 92.672 435.146 92.672C434.453 92.672 433.92 92.4853 433.546 92.112C433.173 91.7387 432.917 91.2427 432.778 90.624C432.65 89.9947 432.586 89.216 432.586 88.288C432.586 87.3707 432.65 86.6027 432.778 85.984C432.917 85.3653 433.173 84.8747 433.546 84.512C433.92 84.1387 434.453 83.952 435.146 83.952C435.85 83.952 436.389 84.1387 436.762 84.512C437.136 84.8747 437.386 85.3653 437.514 85.984C437.653 86.6027 437.722 87.3707 437.722 88.288ZM440.735 92.88C442.548 91.664 443.999 90.4587 445.087 89.264C446.175 88.0587 446.719 86.9387 446.719 85.904C446.719 85.264 446.553 84.752 446.223 84.368C445.903 83.9733 445.38 83.776 444.655 83.776C443.908 83.776 443.343 84.016 442.959 84.496C442.575 84.9653 442.361 85.616 442.319 86.448H440.879C440.953 85.1893 441.343 84.224 442.047 83.552C442.751 82.8693 443.657 82.528 444.766 82.528C445.823 82.528 446.66 82.8107 447.279 83.376C447.897 83.9413 448.207 84.7413 448.207 85.776C448.207 86.6293 447.929 87.4987 447.375 88.384C446.831 89.2587 446.143 90.0747 445.311 90.832C444.489 91.5787 443.641 92.2133 442.767 92.736H448.495V93.936H440.735V92.88ZM449.813 92.88C451.626 91.664 453.077 90.4587 454.165 89.264C455.253 88.0587 455.797 86.9387 455.797 85.904C455.797 85.264 455.631 84.752 455.301 84.368C454.981 83.9733 454.458 83.776 453.733 83.776C452.986 83.776 452.421 84.016 452.037 84.496C451.653 84.9653 451.439 85.616 451.397 86.448H449.957C450.031 85.1893 450.421 84.224 451.125 83.552C451.829 82.8693 452.735 82.528 453.845 82.528C454.901 82.528 455.738 82.8107 456.357 83.376C456.975 83.9413 457.285 84.7413 457.285 85.776C457.285 86.6293 457.007 87.4987 456.453 88.384C455.909 89.2587 455.221 90.0747 454.389 90.832C453.567 91.5787 452.719 92.2133 451.845 92.736H457.573V93.936H449.813V92.88Z" fill="white"/>
<rect x="503" y="2.5" width="112" height="112" fill="white"/>
<path d="M538.42 86.816L537.86 89.408H540.1V90.736H537.588L536.884 94H535.508L536.212 90.736H532.836L532.132 94H530.756L531.46 90.736H528.964V89.408H531.732L532.292 86.816H529.876V85.472H532.58L533.284 82.16H534.66L533.956 85.472H537.332L538.036 82.16H539.412L538.708 85.472H540.996V86.816H538.42ZM537.044 86.816H533.668L533.108 89.408H536.484L537.044 86.816ZM549.005 82.72V83.904H544.077V87.808H548.253V88.944H544.077V94H542.621V82.72H549.005ZM557.115 82.72V83.904H552.187V87.808H556.363V88.944H552.187V94H550.731V82.72H557.115ZM565.224 82.72V83.904H560.296V87.808H564.472V88.944H560.296V94H558.84V82.72H565.224ZM573.333 82.72V83.904H568.405V87.808H572.581V88.944H568.405V94H566.949V82.72H573.333ZM581.443 82.72V83.904H576.515V87.808H580.691V88.944H576.515V94H575.059V82.72H581.443ZM589.552 82.72V83.904H584.624V87.808H588.8V88.944H584.624V94H583.168V82.72H589.552Z" fill="black"/>
<rect x="503" y="2.5" width="112" height="112" stroke="black"/>
<rect width="113" height="113" transform="translate(766.5 2)" fill="#363953"/>
<path d="M796.42 92.816L795.86 95.408H798.1V96.736H795.588L794.884 100H793.508L794.212 96.736H790.836L790.132 100H788.756L789.46 96.736H786.964V95.408H789.732L790.292 92.816H787.876V91.472H790.58L791.284 88.16H792.66L791.956 91.472H795.332L796.036 88.16H797.412L796.708 91.472H798.996V92.816H796.42ZM795.044 92.816H791.668L791.108 95.408H794.484L795.044 92.816ZM804.237 88.416C804.962 88.416 805.586 88.544 806.109 88.8C806.632 89.056 807.026 89.408 807.293 89.856C807.56 90.304 807.693 90.8107 807.693 91.376C807.693 92.08 807.485 92.672 807.069 93.152C806.664 93.632 806.066 93.92 805.277 94.016V94.112C806.098 94.3253 806.738 94.656 807.197 95.104C807.666 95.552 807.901 96.1707 807.901 96.96C807.901 97.888 807.592 98.6453 806.973 99.232C806.354 99.8187 805.464 100.112 804.301 100.112C803.138 100.112 802.194 99.8133 801.469 99.216C800.754 98.608 800.333 97.7227 800.205 96.56H801.645C801.741 97.264 802.008 97.824 802.445 98.24C802.893 98.656 803.496 98.864 804.253 98.864C804.968 98.864 805.517 98.6827 805.901 98.32C806.285 97.9467 806.477 97.4667 806.477 96.88C806.477 96.176 806.2 95.6427 805.645 95.28C805.101 94.9067 804.322 94.72 803.309 94.72H802.925V93.504H803.309C805.272 93.504 806.253 92.848 806.253 91.536C806.253 90.96 806.072 90.5013 805.709 90.16C805.346 89.8187 804.845 89.648 804.205 89.648C803.565 89.648 803.026 89.8347 802.589 90.208C802.152 90.5707 801.896 91.1093 801.821 91.824H800.397C800.472 90.7573 800.84 89.9253 801.501 89.328C802.173 88.72 803.085 88.416 804.237 88.416ZM816.155 91.728C816.07 91.056 815.84 90.5387 815.467 90.176C815.104 89.8027 814.598 89.616 813.947 89.616C813.04 89.616 812.352 89.968 811.883 90.672C811.424 91.376 811.195 92.4907 811.195 94.016L811.211 94.608C811.371 93.968 811.739 93.4613 812.315 93.088C812.891 92.704 813.568 92.512 814.347 92.512C815.467 92.512 816.342 92.848 816.971 93.52C817.611 94.192 817.931 95.1307 817.931 96.336C817.931 97.04 817.792 97.68 817.515 98.256C817.238 98.8213 816.811 99.2747 816.235 99.616C815.67 99.9467 814.966 100.112 814.123 100.112C812.512 100.112 811.403 99.6053 810.795 98.592C810.198 97.5787 809.899 96.2027 809.899 94.464C809.899 92.4587 810.219 90.9547 810.859 89.952C811.51 88.9387 812.566 88.432 814.027 88.432C815.104 88.432 815.931 88.736 816.507 89.344C817.094 89.952 817.44 90.7467 817.547 91.728H816.155ZM811.371 96.096C811.371 96.8747 811.595 97.5307 812.043 98.064C812.502 98.5867 813.184 98.848 814.091 98.848C814.838 98.848 815.435 98.6293 815.883 98.192C816.331 97.744 816.555 97.12 816.555 96.32C816.555 95.456 816.331 94.8 815.883 94.352C815.435 93.8933 814.816 93.664 814.027 93.664C813.579 93.664 813.152 93.7547 812.747 93.936C812.342 94.1173 812.011 94.3947 811.755 94.768C811.499 95.1307 811.371 95.5733 811.371 96.096ZM823.597 88.416C824.322 88.416 824.946 88.544 825.469 88.8C825.991 89.056 826.386 89.408 826.653 89.856C826.919 90.304 827.053 90.8107 827.053 91.376C827.053 92.08 826.845 92.672 826.429 93.152C826.023 93.632 825.426 93.92 824.637 94.016V94.112C825.458 94.3253 826.098 94.656 826.557 95.104C827.026 95.552 827.26 96.1707 827.26 96.96C827.26 97.888 826.951 98.6453 826.333 99.232C825.714 99.8187 824.823 100.112 823.661 100.112C822.498 100.112 821.554 99.8133 820.829 99.216C820.114 98.608 819.693 97.7227 819.565 96.56H821.005C821.101 97.264 821.367 97.824 821.805 98.24C822.253 98.656 822.855 98.864 823.613 98.864C824.327 98.864 824.877 98.6827 825.261 98.32C825.645 97.9467 825.837 97.4667 825.837 96.88C825.837 96.176 825.559 95.6427 825.005 95.28C824.461 94.9067 823.682 94.72 822.669 94.72H822.285V93.504H822.669C824.631 93.504 825.613 92.848 825.613 91.536C825.613 90.96 825.431 90.5013 825.069 90.16C824.706 89.8187 824.205 89.648 823.565 89.648C822.925 89.648 822.386 89.8347 821.949 90.208C821.511 90.5707 821.255 91.1093 821.181 91.824H819.757C819.831 90.7573 820.199 89.9253 820.861 89.328C821.533 88.72 822.445 88.416 823.597 88.416ZM830.794 96.832C830.89 97.504 831.125 98.0213 831.498 98.384C831.872 98.7467 832.384 98.928 833.034 98.928C833.93 98.928 834.608 98.5813 835.066 97.888C835.525 97.1947 835.754 96.096 835.754 94.592C835.754 94.304 835.749 94.0853 835.738 93.936C835.589 94.576 835.226 95.088 834.65 95.472C834.074 95.856 833.397 96.048 832.618 96.048C831.498 96.048 830.618 95.712 829.978 95.04C829.338 94.368 829.018 93.4293 829.018 92.224C829.018 91.52 829.157 90.88 829.434 90.304C829.712 89.728 830.133 89.2747 830.698 88.944C831.274 88.6027 831.984 88.432 832.826 88.432C834.448 88.432 835.557 88.9333 836.154 89.936C836.762 90.928 837.066 92.2933 837.066 94.032C837.066 96.016 836.757 97.5307 836.138 98.576C835.52 99.6107 834.485 100.128 833.034 100.128C831.957 100.128 831.109 99.824 830.49 99.216C829.882 98.5973 829.525 97.8027 829.418 96.832H830.794ZM835.594 92.448C835.594 91.68 835.365 91.0293 834.906 90.496C834.458 89.9627 833.781 89.696 832.874 89.696C832.128 89.696 831.53 89.92 831.082 90.368C830.634 90.816 830.41 91.44 830.41 92.24C830.41 93.0933 830.634 93.7493 831.082 94.208C831.53 94.6667 832.144 94.896 832.922 94.896C833.37 94.896 833.797 94.8053 834.202 94.624C834.618 94.4427 834.954 94.1653 835.21 93.792C835.466 93.4187 835.594 92.9707 835.594 92.448ZM846.481 89.872H840.689V93.648C840.955 93.2853 841.339 92.9973 841.841 92.784C842.342 92.5707 842.891 92.464 843.489 92.464C844.289 92.464 844.95 92.6347 845.473 92.976C846.006 93.3067 846.395 93.7493 846.641 94.304C846.897 94.848 847.025 95.456 847.025 96.128C847.025 97.2907 846.699 98.24 846.049 98.976C845.398 99.712 844.443 100.08 843.185 100.08C842.054 100.08 841.131 99.776 840.417 99.168C839.702 98.5493 839.302 97.7227 839.217 96.688H840.657C840.774 97.3493 841.046 97.8667 841.473 98.24C841.91 98.6027 842.459 98.784 843.121 98.784C843.942 98.784 844.561 98.5387 844.977 98.048C845.393 97.5573 845.601 96.912 845.601 96.112C845.601 95.3333 845.387 94.7253 844.961 94.288C844.534 93.8507 843.931 93.632 843.153 93.632C842.598 93.632 842.113 93.7547 841.697 94C841.281 94.2347 840.966 94.5547 840.753 94.96H839.345V88.576H846.481V89.872ZM852.612 88.416C853.337 88.416 853.961 88.544 854.484 88.8C855.007 89.056 855.401 89.408 855.668 89.856C855.935 90.304 856.068 90.8107 856.068 91.376C856.068 92.08 855.86 92.672 855.444 93.152C855.039 93.632 854.441 93.92 853.652 94.016V94.112C854.473 94.3253 855.113 94.656 855.572 95.104C856.041 95.552 856.276 96.1707 856.276 96.96C856.276 97.888 855.967 98.6453 855.348 99.232C854.729 99.8187 853.839 100.112 852.676 100.112C851.513 100.112 850.569 99.8133 849.844 99.216C849.129 98.608 848.708 97.7227 848.58 96.56H850.02C850.116 97.264 850.383 97.824 850.82 98.24C851.268 98.656 851.871 98.864 852.628 98.864C853.343 98.864 853.892 98.6827 854.276 98.32C854.66 97.9467 854.852 97.4667 854.852 96.88C854.852 96.176 854.575 95.6427 854.02 95.28C853.476 94.9067 852.697 94.72 851.684 94.72H851.3V93.504H851.684C853.647 93.504 854.628 92.848 854.628 91.536C854.628 90.96 854.447 90.5013 854.084 90.16C853.721 89.8187 853.22 89.648 852.58 89.648C851.94 89.648 851.401 89.8347 850.964 90.208C850.527 90.5707 850.271 91.1093 850.196 91.824H848.772C848.847 90.7573 849.215 89.9253 849.876 89.328C850.548 88.72 851.46 88.416 852.612 88.416Z" fill="white"/>
<rect width="113" height="113" transform="translate(766.5 134)" fill="#17162E"/>
<path d="M804.42 219.816L803.86 222.408H806.1V223.736H803.588L802.884 227H801.508L802.212 223.736H798.836L798.132 227H796.756L797.46 223.736H794.964V222.408H797.732L798.292 219.816H795.876V218.472H798.58L799.284 215.16H800.66L799.956 218.472H803.332L804.036 215.16H805.412L804.708 218.472H806.996V219.816H804.42ZM803.044 219.816H799.668L799.108 222.408H802.484L803.044 219.816ZM807.661 217.08V215.72H810.893V227H809.357V217.08H807.661ZM819.663 216.776L815.391 227H813.855L818.191 216.92H812.271V215.656H819.663V216.776ZM820.349 217.08V215.72H823.581V227H822.045V217.08H820.349ZM832.014 218.728C831.929 218.056 831.7 217.539 831.326 217.176C830.964 216.803 830.457 216.616 829.806 216.616C828.9 216.616 828.212 216.968 827.742 217.672C827.284 218.376 827.054 219.491 827.054 221.016L827.07 221.608C827.23 220.968 827.598 220.461 828.174 220.088C828.75 219.704 829.428 219.512 830.206 219.512C831.326 219.512 832.201 219.848 832.83 220.52C833.47 221.192 833.79 222.131 833.79 223.336C833.79 224.04 833.652 224.68 833.374 225.256C833.097 225.821 832.67 226.275 832.094 226.616C831.529 226.947 830.825 227.112 829.982 227.112C828.372 227.112 827.262 226.605 826.654 225.592C826.057 224.579 825.758 223.203 825.758 221.464C825.758 219.459 826.078 217.955 826.718 216.952C827.369 215.939 828.425 215.432 829.886 215.432C830.964 215.432 831.79 215.736 832.366 216.344C832.953 216.952 833.3 217.747 833.406 218.728H832.014ZM827.23 223.096C827.23 223.875 827.454 224.531 827.902 225.064C828.361 225.587 829.044 225.848 829.95 225.848C830.697 225.848 831.294 225.629 831.742 225.192C832.19 224.744 832.414 224.12 832.414 223.32C832.414 222.456 832.19 221.8 831.742 221.352C831.294 220.893 830.676 220.664 829.886 220.664C829.438 220.664 829.012 220.755 828.606 220.936C828.201 221.117 827.87 221.395 827.614 221.768C827.358 222.131 827.23 222.573 827.23 223.096ZM835.344 225.88C837.157 224.664 838.608 223.459 839.696 222.264C840.784 221.059 841.328 219.939 841.328 218.904C841.328 218.264 841.163 217.752 840.832 217.368C840.512 216.973 839.989 216.776 839.264 216.776C838.517 216.776 837.952 217.016 837.568 217.496C837.184 217.965 836.971 218.616 836.928 219.448H835.488C835.563 218.189 835.952 217.224 836.656 216.552C837.36 215.869 838.267 215.528 839.376 215.528C840.432 215.528 841.269 215.811 841.888 216.376C842.507 216.941 842.816 217.741 842.816 218.776C842.816 219.629 842.539 220.499 841.984 221.384C841.44 222.259 840.752 223.075 839.92 223.832C839.099 224.579 838.251 225.213 837.376 225.736H843.104V226.936H835.344V225.88ZM846.374 216.904V220.76H850.662V221.88H846.374V225.816H851.142V227H844.918V215.72H851.142V216.904H846.374Z" fill="white"/>
<rect x="371" y="134.5" width="112" height="112" fill="#FCFCFC"/>
<path d="M400.42 220.816L399.86 223.408H402.1V224.736H399.588L398.884 228H397.508L398.212 224.736H394.836L394.132 228H392.756L393.46 224.736H390.964V223.408H393.732L394.292 220.816H391.876V219.472H394.58L395.284 216.16H396.66L395.956 219.472H399.332L400.036 216.16H401.412L400.708 219.472H402.996V220.816H400.42ZM399.044 220.816H395.668L395.108 223.408H398.484L399.044 220.816ZM411.005 216.72V217.904H406.077V221.808H410.253V222.944H406.077V228H404.621V216.72H411.005ZM417.723 216.608C419.099 216.608 420.235 216.949 421.131 217.632C422.027 218.304 422.645 219.227 422.987 220.4H421.451C421.163 219.653 420.699 219.061 420.059 218.624C419.419 218.176 418.635 217.952 417.707 217.952C416.971 217.952 416.309 218.133 415.723 218.496C415.147 218.848 414.688 219.36 414.347 220.032C414.016 220.693 413.851 221.472 413.851 222.368C413.851 223.253 414.016 224.027 414.347 224.688C414.688 225.349 415.147 225.861 415.723 226.224C416.309 226.576 416.971 226.752 417.707 226.752C418.635 226.752 419.419 226.533 420.059 226.096C420.699 225.648 421.163 225.051 421.451 224.304H422.987C422.645 225.477 422.027 226.405 421.131 227.088C420.235 227.76 419.099 228.096 417.723 228.096C416.667 228.096 415.733 227.856 414.923 227.376C414.112 226.885 413.477 226.208 413.019 225.344C412.571 224.469 412.347 223.477 412.347 222.368C412.347 221.248 412.571 220.251 413.019 219.376C413.477 218.501 414.112 217.824 414.923 217.344C415.733 216.853 416.667 216.608 417.723 216.608ZM431.318 216.72V217.904H426.39V221.808H430.566V222.944H426.39V228H424.934V216.72H431.318ZM438.035 216.608C439.411 216.608 440.547 216.949 441.443 217.632C442.339 218.304 442.958 219.227 443.299 220.4H441.763C441.475 219.653 441.011 219.061 440.371 218.624C439.731 218.176 438.947 217.952 438.019 217.952C437.283 217.952 436.622 218.133 436.035 218.496C435.459 218.848 435 219.36 434.659 220.032C434.328 220.693 434.163 221.472 434.163 222.368C434.163 223.253 434.328 224.027 434.659 224.688C435 225.349 435.459 225.861 436.035 226.224C436.622 226.576 437.283 226.752 438.019 226.752C438.947 226.752 439.731 226.533 440.371 226.096C441.011 225.648 441.475 225.051 441.763 224.304H443.299C442.958 225.477 442.339 226.405 441.443 227.088C440.547 227.76 439.411 228.096 438.035 228.096C436.979 228.096 436.046 227.856 435.235 227.376C434.424 226.885 433.79 226.208 433.331 225.344C432.883 224.469 432.659 223.477 432.659 222.368C432.659 221.248 432.883 220.251 433.331 219.376C433.79 218.501 434.424 217.824 435.235 217.344C436.046 216.853 436.979 216.608 438.035 216.608ZM451.63 216.72V217.904H446.702V221.808H450.878V222.944H446.702V228H445.246V216.72H451.63ZM458.348 216.608C459.724 216.608 460.86 216.949 461.756 217.632C462.652 218.304 463.27 219.227 463.612 220.4H462.076C461.788 219.653 461.324 219.061 460.684 218.624C460.044 218.176 459.26 217.952 458.332 217.952C457.596 217.952 456.934 218.133 456.348 218.496C455.772 218.848 455.313 219.36 454.972 220.032C454.641 220.693 454.476 221.472 454.476 222.368C454.476 223.253 454.641 224.027 454.972 224.688C455.313 225.349 455.772 225.861 456.348 226.224C456.934 226.576 457.596 226.752 458.332 226.752C459.26 226.752 460.044 226.533 460.684 226.096C461.324 225.648 461.788 225.051 462.076 224.304H463.612C463.27 225.477 462.652 226.405 461.756 227.088C460.86 227.76 459.724 228.096 458.348 228.096C457.292 228.096 456.358 227.856 455.548 227.376C454.737 226.885 454.102 226.208 453.644 225.344C453.196 224.469 452.972 223.477 452.972 222.368C452.972 221.248 453.196 220.251 453.644 219.376C454.102 218.501 454.737 217.824 455.548 217.344C456.358 216.853 457.292 216.608 458.348 216.608Z" fill="black"/>
<rect x="371" y="134.5" width="112" height="112" stroke="black"/>
<rect width="113" height="113" transform="translate(634.5 134)" fill="url(#paint1_linear_1525_1118)"/>
<path d="M664.42 215.816L663.86 218.408H666.1V219.736H663.588L662.884 223H661.508L662.212 219.736H658.836L658.132 223H656.756L657.46 219.736H654.964V218.408H657.732L658.292 215.816H655.876V214.472H658.58L659.284 211.16H660.66L659.956 214.472H663.332L664.036 211.16H665.412L664.708 214.472H666.996V215.816H664.42ZM663.044 215.816H659.668L659.108 218.408H662.484L663.044 215.816ZM674.733 214.728C674.648 214.056 674.418 213.539 674.045 213.176C673.682 212.803 673.176 212.616 672.525 212.616C671.618 212.616 670.93 212.968 670.461 213.672C670.002 214.376 669.773 215.491 669.773 217.016L669.789 217.608C669.949 216.968 670.317 216.461 670.893 216.088C671.469 215.704 672.146 215.512 672.925 215.512C674.045 215.512 674.92 215.848 675.549 216.52C676.189 217.192 676.509 218.131 676.509 219.336C676.509 220.04 676.37 220.68 676.093 221.256C675.816 221.821 675.389 222.275 674.813 222.616C674.248 222.947 673.544 223.112 672.701 223.112C671.09 223.112 669.981 222.605 669.373 221.592C668.776 220.579 668.477 219.203 668.477 217.464C668.477 215.459 668.797 213.955 669.437 212.952C670.088 211.939 671.144 211.432 672.605 211.432C673.682 211.432 674.509 211.736 675.085 212.344C675.672 212.952 676.018 213.747 676.125 214.728H674.733ZM669.949 219.096C669.949 219.875 670.173 220.531 670.621 221.064C671.08 221.587 671.762 221.848 672.669 221.848C673.416 221.848 674.013 221.629 674.461 221.192C674.909 220.744 675.133 220.12 675.133 219.32C675.133 218.456 674.909 217.8 674.461 217.352C674.013 216.893 673.394 216.664 672.605 216.664C672.157 216.664 671.73 216.755 671.325 216.936C670.92 217.117 670.589 217.395 670.333 217.768C670.077 218.131 669.949 218.573 669.949 219.096ZM684.943 211.72V212.904H680.015V216.808H684.191V217.944H680.015V223H678.559V211.72H684.943ZM690.284 211.416C691.009 211.416 691.633 211.544 692.156 211.8C692.679 212.056 693.073 212.408 693.34 212.856C693.607 213.304 693.74 213.811 693.74 214.376C693.74 215.08 693.532 215.672 693.116 216.152C692.711 216.632 692.113 216.92 691.324 217.016V217.112C692.145 217.325 692.785 217.656 693.244 218.104C693.713 218.552 693.948 219.171 693.948 219.96C693.948 220.888 693.639 221.645 693.02 222.232C692.401 222.819 691.511 223.112 690.348 223.112C689.185 223.112 688.241 222.813 687.516 222.216C686.801 221.608 686.38 220.723 686.252 219.56H687.692C687.788 220.264 688.055 220.824 688.492 221.24C688.94 221.656 689.543 221.864 690.3 221.864C691.015 221.864 691.564 221.683 691.948 221.32C692.332 220.947 692.524 220.467 692.524 219.88C692.524 219.176 692.247 218.643 691.692 218.28C691.148 217.907 690.369 217.72 689.356 217.72H688.972V216.504H689.356C691.319 216.504 692.3 215.848 692.3 214.536C692.3 213.96 692.119 213.501 691.756 213.16C691.393 212.819 690.892 212.648 690.252 212.648C689.612 212.648 689.073 212.835 688.636 213.208C688.199 213.571 687.943 214.109 687.868 214.824H686.444C686.519 213.757 686.887 212.925 687.548 212.328C688.22 211.72 689.132 211.416 690.284 211.416ZM695.594 221.88C697.407 220.664 698.858 219.459 699.946 218.264C701.034 217.059 701.578 215.939 701.578 214.904C701.578 214.264 701.413 213.752 701.082 213.368C700.762 212.973 700.239 212.776 699.514 212.776C698.767 212.776 698.202 213.016 697.818 213.496C697.434 213.965 697.221 214.616 697.178 215.448H695.738C695.813 214.189 696.202 213.224 696.906 212.552C697.61 211.869 698.517 211.528 699.626 211.528C700.682 211.528 701.519 211.811 702.138 212.376C702.757 212.941 703.066 213.741 703.066 214.776C703.066 215.629 702.789 216.499 702.234 217.384C701.69 218.259 701.002 219.075 700.17 219.832C699.349 220.579 698.501 221.213 697.626 221.736H703.354V222.936H695.594V221.88ZM710.16 211.608C711.536 211.608 712.672 211.949 713.568 212.632C714.464 213.304 715.083 214.227 715.424 215.4H713.888C713.6 214.653 713.136 214.061 712.496 213.624C711.856 213.176 711.072 212.952 710.144 212.952C709.408 212.952 708.747 213.133 708.16 213.496C707.584 213.848 707.125 214.36 706.784 215.032C706.453 215.693 706.288 216.472 706.288 217.368C706.288 218.253 706.453 219.027 706.784 219.688C707.125 220.349 707.584 220.861 708.16 221.224C708.747 221.576 709.408 221.752 710.144 221.752C711.072 221.752 711.856 221.533 712.496 221.096C713.136 220.648 713.6 220.051 713.888 219.304H715.424C715.083 220.477 714.464 221.405 713.568 222.088C712.672 222.76 711.536 223.096 710.16 223.096C709.104 223.096 708.171 222.856 707.36 222.376C706.549 221.885 705.915 221.208 705.456 220.344C705.008 219.469 704.784 218.477 704.784 217.368C704.784 216.248 705.008 215.251 705.456 214.376C705.915 213.501 706.549 212.824 707.36 212.344C708.171 211.853 709.104 211.608 710.16 211.608ZM716.699 220.408V219.192L722.491 211.64H724.059V219.144H725.723V220.408H724.059V223H722.587V220.408H716.699ZM722.683 213.416L718.235 219.144H722.683V213.416Z" fill="black"/>
<rect width="113" height="113" transform="translate(502.5 134)" fill="url(#paint2_linear_1525_1118)" fill-opacity="0.45"/>
<path d="M534.42 219.816L533.86 222.408H536.1V223.736H533.588L532.884 227H531.508L532.212 223.736H528.836L528.132 227H526.756L527.46 223.736H524.964V222.408H527.732L528.292 219.816H525.876V218.472H528.58L529.284 215.16H530.66L529.956 218.472H533.332L534.036 215.16H535.412L534.708 218.472H536.996V219.816H534.42ZM533.044 219.816H529.668L529.108 222.408H532.484L533.044 219.816ZM538.125 225.88C539.938 224.664 541.389 223.459 542.477 222.264C543.565 221.059 544.109 219.939 544.109 218.904C544.109 218.264 543.944 217.752 543.613 217.368C543.293 216.973 542.77 216.776 542.045 216.776C541.298 216.776 540.733 217.016 540.349 217.496C539.965 217.965 539.752 218.616 539.709 219.448H538.269C538.344 218.189 538.733 217.224 539.437 216.552C540.141 215.869 541.048 215.528 542.157 215.528C543.213 215.528 544.05 215.811 544.669 216.376C545.288 216.941 545.597 217.741 545.597 218.776C545.597 219.629 545.32 220.499 544.765 221.384C544.221 222.259 543.533 223.075 542.701 223.832C541.88 224.579 541.032 225.213 540.157 225.736H545.885V226.936H538.125V225.88ZM549.155 216.904V220.76H553.443V221.88H549.155V225.816H553.923V227H547.699V215.72H553.923V216.904H549.155ZM559.409 215.416C560.134 215.416 560.758 215.544 561.281 215.8C561.804 216.056 562.198 216.408 562.465 216.856C562.732 217.304 562.865 217.811 562.865 218.376C562.865 219.08 562.657 219.672 562.241 220.152C561.836 220.632 561.238 220.92 560.449 221.016V221.112C561.27 221.325 561.91 221.656 562.369 222.104C562.838 222.552 563.073 223.171 563.073 223.96C563.073 224.888 562.764 225.645 562.145 226.232C561.526 226.819 560.636 227.112 559.473 227.112C558.31 227.112 557.366 226.813 556.641 226.216C555.926 225.608 555.505 224.723 555.377 223.56H556.817C556.913 224.264 557.18 224.824 557.617 225.24C558.065 225.656 558.668 225.864 559.425 225.864C560.14 225.864 560.689 225.683 561.073 225.32C561.457 224.947 561.649 224.467 561.649 223.88C561.649 223.176 561.372 222.643 560.817 222.28C560.273 221.907 559.494 221.72 558.481 221.72H558.097V220.504H558.481C560.444 220.504 561.425 219.848 561.425 218.536C561.425 217.96 561.244 217.501 560.881 217.16C560.518 216.819 560.017 216.648 559.377 216.648C558.737 216.648 558.198 216.835 557.761 217.208C557.324 217.571 557.068 218.109 556.993 218.824H555.569C555.644 217.757 556.012 216.925 556.673 216.328C557.345 215.72 558.257 215.416 559.409 215.416ZM568.831 215.416C569.556 215.416 570.18 215.544 570.703 215.8C571.226 216.056 571.62 216.408 571.887 216.856C572.154 217.304 572.287 217.811 572.287 218.376C572.287 219.08 572.079 219.672 571.663 220.152C571.258 220.632 570.66 220.92 569.871 221.016V221.112C570.692 221.325 571.332 221.656 571.791 222.104C572.26 222.552 572.495 223.171 572.495 223.96C572.495 224.888 572.186 225.645 571.567 226.232C570.948 226.819 570.058 227.112 568.895 227.112C567.732 227.112 566.788 226.813 566.063 226.216C565.348 225.608 564.927 224.723 564.799 223.56H566.239C566.335 224.264 566.602 224.824 567.039 225.24C567.487 225.656 568.09 225.864 568.847 225.864C569.562 225.864 570.111 225.683 570.495 225.32C570.879 224.947 571.071 224.467 571.071 223.88C571.071 223.176 570.794 222.643 570.239 222.28C569.695 221.907 568.916 221.72 567.903 221.72H567.519V220.504H567.903C569.866 220.504 570.847 219.848 570.847 218.536C570.847 217.96 570.666 217.501 570.303 217.16C569.94 216.819 569.439 216.648 568.799 216.648C568.159 216.648 567.62 216.835 567.183 217.208C566.746 217.571 566.49 218.109 566.415 218.824H564.991C565.066 217.757 565.434 216.925 566.095 216.328C566.767 215.72 567.679 215.416 568.831 215.416ZM581.981 216.872H576.189V220.648C576.455 220.285 576.839 219.997 577.341 219.784C577.842 219.571 578.391 219.464 578.989 219.464C579.789 219.464 580.45 219.635 580.973 219.976C581.506 220.307 581.895 220.749 582.141 221.304C582.397 221.848 582.525 222.456 582.525 223.128C582.525 224.291 582.199 225.24 581.549 225.976C580.898 226.712 579.943 227.08 578.685 227.08C577.554 227.08 576.631 226.776 575.917 226.168C575.202 225.549 574.802 224.723 574.717 223.688H576.157C576.274 224.349 576.546 224.867 576.973 225.24C577.41 225.603 577.959 225.784 578.621 225.784C579.442 225.784 580.061 225.539 580.477 225.048C580.893 224.557 581.101 223.912 581.101 223.112C581.101 222.333 580.887 221.725 580.461 221.288C580.034 220.851 579.431 220.632 578.653 220.632C578.098 220.632 577.613 220.755 577.197 221C576.781 221.235 576.466 221.555 576.253 221.96H574.845V215.576H581.981V216.872ZM591.104 224.392H586.144L585.2 227H583.632L587.808 215.928H589.456L593.616 227H592.048L591.104 224.392ZM590.688 223.256L588.624 217.56L586.56 223.256H590.688Z" fill="black"/>
<path d="M537.42 151.816L536.86 154.408H539.1V155.736H536.588L535.884 159H534.508L535.212 155.736H531.836L531.132 159H529.756L530.46 155.736H527.964V154.408H530.732L531.292 151.816H528.876V150.472H531.58L532.284 147.16H533.66L532.956 150.472H536.332L537.036 147.16H538.412L537.708 150.472H539.996V151.816H537.42ZM536.044 151.816H532.668L532.108 154.408H535.484L536.044 151.816ZM540.661 149.08V147.72H543.893V159H542.357V149.08H540.661ZM551.207 147.608C552.583 147.608 553.719 147.949 554.615 148.632C555.511 149.304 556.13 150.227 556.471 151.4H554.935C554.647 150.653 554.183 150.061 553.543 149.624C552.903 149.176 552.119 148.952 551.191 148.952C550.455 148.952 549.794 149.133 549.207 149.496C548.631 149.848 548.172 150.36 547.831 151.032C547.5 151.693 547.335 152.472 547.335 153.368C547.335 154.253 547.5 155.027 547.831 155.688C548.172 156.349 548.631 156.861 549.207 157.224C549.794 157.576 550.455 157.752 551.191 157.752C552.119 157.752 552.903 157.533 553.543 157.096C554.183 156.648 554.647 156.051 554.935 155.304H556.471C556.13 156.477 555.511 157.405 554.615 158.088C553.719 158.76 552.583 159.096 551.207 159.096C550.151 159.096 549.218 158.856 548.407 158.376C547.596 157.885 546.962 157.208 546.503 156.344C546.055 155.469 545.831 154.477 545.831 153.368C545.831 152.248 546.055 151.251 546.503 150.376C546.962 149.501 547.596 148.824 548.407 148.344C549.218 147.853 550.151 147.608 551.207 147.608ZM557.458 149.08V147.72H560.69V159H559.154V149.08H557.458ZM568.516 153.16C569.209 153.309 569.769 153.64 570.196 154.152C570.633 154.664 570.852 155.267 570.852 155.96C570.852 156.877 570.537 157.613 569.908 158.168C569.289 158.723 568.388 159 567.204 159H563.012V147.72H567.14C568.27 147.72 569.129 147.971 569.716 148.472C570.302 148.973 570.596 149.661 570.596 150.536C570.596 151.261 570.398 151.848 570.004 152.296C569.62 152.744 569.124 153.032 568.516 153.16ZM564.468 152.664H566.9C567.614 152.664 568.158 152.499 568.532 152.168C568.916 151.837 569.108 151.373 569.108 150.776C569.108 150.2 568.921 149.747 568.548 149.416C568.174 149.085 567.604 148.92 566.836 148.92H564.468V152.664ZM566.932 157.784C567.7 157.784 568.292 157.608 568.708 157.256C569.134 156.904 569.348 156.408 569.348 155.768C569.348 155.139 569.129 154.648 568.692 154.296C568.265 153.933 567.668 153.752 566.9 153.752H564.468V157.784H566.932ZM576.284 147.416C577.009 147.416 577.633 147.544 578.156 147.8C578.679 148.056 579.073 148.408 579.34 148.856C579.607 149.304 579.74 149.811 579.74 150.376C579.74 151.08 579.532 151.672 579.116 152.152C578.711 152.632 578.113 152.92 577.324 153.016V153.112C578.145 153.325 578.785 153.656 579.244 154.104C579.713 154.552 579.948 155.171 579.948 155.96C579.948 156.888 579.639 157.645 579.02 158.232C578.401 158.819 577.511 159.112 576.348 159.112C575.185 159.112 574.241 158.813 573.516 158.216C572.801 157.608 572.38 156.723 572.252 155.56H573.692C573.788 156.264 574.055 156.824 574.492 157.24C574.94 157.656 575.543 157.864 576.3 157.864C577.015 157.864 577.564 157.683 577.948 157.32C578.332 156.947 578.524 156.467 578.524 155.88C578.524 155.176 578.247 154.643 577.692 154.28C577.148 153.907 576.369 153.72 575.356 153.72H574.972V152.504H575.356C577.319 152.504 578.3 151.848 578.3 150.536C578.3 149.96 578.119 149.501 577.756 149.16C577.393 148.819 576.892 148.648 576.252 148.648C575.612 148.648 575.073 148.835 574.636 149.208C574.199 149.571 573.943 150.109 573.868 150.824H572.444C572.519 149.757 572.887 148.925 573.548 148.328C574.22 147.72 575.132 147.416 576.284 147.416ZM585.706 147.416C586.431 147.416 587.055 147.544 587.578 147.8C588.101 148.056 588.495 148.408 588.762 148.856C589.029 149.304 589.162 149.811 589.162 150.376C589.162 151.08 588.954 151.672 588.538 152.152C588.133 152.632 587.535 152.92 586.746 153.016V153.112C587.567 153.325 588.207 153.656 588.666 154.104C589.135 154.552 589.37 155.171 589.37 155.96C589.37 156.888 589.061 157.645 588.442 158.232C587.823 158.819 586.933 159.112 585.77 159.112C584.607 159.112 583.663 158.813 582.938 158.216C582.223 157.608 581.802 156.723 581.674 155.56H583.114C583.21 156.264 583.477 156.824 583.914 157.24C584.362 157.656 584.965 157.864 585.722 157.864C586.437 157.864 586.986 157.683 587.37 157.32C587.754 156.947 587.946 156.467 587.946 155.88C587.946 155.176 587.669 154.643 587.114 154.28C586.57 153.907 585.791 153.72 584.778 153.72H584.394V152.504H584.778C586.741 152.504 587.722 151.848 587.722 150.536C587.722 149.96 587.541 149.501 587.178 149.16C586.815 148.819 586.314 148.648 585.674 148.648C585.034 148.648 584.495 148.835 584.058 149.208C583.621 149.571 583.365 150.109 583.29 150.824H581.866C581.941 149.757 582.309 148.925 582.97 148.328C583.642 147.72 584.554 147.416 585.706 147.416Z" fill="black"/>
<rect width="113" height="113" transform="translate(634.5 2)" fill="url(#paint3_linear_1525_1118)" fill-opacity="0.36"/>
<path d="M664.42 88.816L663.86 91.408H666.1V92.736H663.588L662.884 96H661.508L662.212 92.736H658.836L658.132 96H656.756L657.46 92.736H654.964V91.408H657.732L658.292 88.816H655.876V87.472H658.58L659.284 84.16H660.66L659.956 87.472H663.332L664.036 84.16H665.412L664.708 87.472H666.996V88.816H664.42ZM663.044 88.816H659.668L659.108 91.408H662.484L663.044 88.816ZM675.229 93.392H670.269L669.325 96H667.757L671.933 84.928H673.581L677.741 96H676.173L675.229 93.392ZM674.813 92.256L672.749 86.56L670.685 92.256H674.813ZM680.671 85.904V89.76H684.959V90.88H680.671V94.816H685.439V96H679.215V84.72H685.439V85.904H680.671ZM693.917 93.392H688.957L688.013 96H686.445L690.621 84.928H692.269L696.429 96H694.861L693.917 93.392ZM693.501 92.256L691.437 86.56L689.373 92.256H693.501ZM699.358 85.904V89.76H703.646V90.88H699.358V94.816H704.126V96H697.902V84.72H704.126V85.904H699.358ZM711.5 90.16C712.193 90.3093 712.753 90.64 713.18 91.152C713.617 91.664 713.836 92.2667 713.836 92.96C713.836 93.8773 713.521 94.6133 712.892 95.168C712.273 95.7227 711.372 96 710.188 96H705.996V84.72H710.124C711.255 84.72 712.113 84.9707 712.7 85.472C713.287 85.9733 713.58 86.6613 713.58 87.536C713.58 88.2613 713.383 88.848 712.988 89.296C712.604 89.744 712.108 90.032 711.5 90.16ZM707.452 89.664H709.884C710.599 89.664 711.143 89.4987 711.516 89.168C711.9 88.8373 712.092 88.3733 712.092 87.776C712.092 87.2 711.905 86.7467 711.532 86.416C711.159 86.0853 710.588 85.92 709.82 85.92H707.452V89.664ZM709.916 94.784C710.684 94.784 711.276 94.608 711.692 94.256C712.119 93.904 712.332 93.408 712.332 92.768C712.332 92.1387 712.113 91.648 711.676 91.296C711.249 90.9333 710.652 90.752 709.884 90.752H707.452V94.784H709.916ZM722.1 85.776L717.828 96H716.292L720.628 85.92H714.708V84.656H722.1V85.776Z" fill="black"/>
<path d="M197.04 283.32L196.04 289H194.22L196.7 274.9H201.18C202.58 274.9 203.62 275.187 204.3 275.76C204.993 276.333 205.34 277.133 205.34 278.16C205.34 278.493 205.313 278.813 205.26 279.12C205.02 280.44 204.42 281.473 203.46 282.22C202.513 282.953 201.26 283.32 199.7 283.32H197.04ZM199.8 281.8C201.893 281.8 203.093 280.907 203.4 279.12C203.44 278.853 203.46 278.613 203.46 278.4C203.46 277.76 203.247 277.273 202.82 276.94C202.393 276.593 201.707 276.42 200.76 276.42H198.26L197.32 281.8H199.8ZM209.266 280.24C209.759 279.493 210.392 278.907 211.166 278.48C211.939 278.053 212.806 277.84 213.766 277.84L213.406 279.82H212.846C211.846 279.82 210.972 280.073 210.226 280.58C209.479 281.087 208.992 281.927 208.766 283.1L207.726 289H205.886L207.826 278.02H209.666L209.266 280.24ZM215.722 275.02C215.722 274.633 215.862 274.313 216.142 274.06C216.422 273.807 216.768 273.68 217.182 273.68C217.515 273.68 217.775 273.767 217.962 273.94C218.148 274.1 218.242 274.313 218.242 274.58C218.242 274.967 218.102 275.287 217.822 275.54C217.542 275.793 217.195 275.92 216.782 275.92C216.448 275.92 216.188 275.84 216.002 275.68C215.815 275.507 215.722 275.287 215.722 275.02ZM217.322 278.02L215.382 289H213.562L215.502 278.02H217.322ZM233.788 277.84C234.881 277.84 235.741 278.14 236.368 278.74C236.995 279.34 237.308 280.213 237.308 281.36C237.308 281.733 237.268 282.153 237.188 282.62L236.068 289H234.248L235.348 282.78C235.401 282.5 235.428 282.207 235.428 281.9C235.428 281.1 235.208 280.493 234.768 280.08C234.341 279.653 233.741 279.44 232.968 279.44C231.995 279.44 231.161 279.76 230.468 280.4C229.788 281.027 229.341 281.953 229.128 283.18L228.088 289H226.288L227.388 282.78C227.441 282.5 227.468 282.207 227.468 281.9C227.468 281.1 227.248 280.493 226.808 280.08C226.381 279.653 225.781 279.44 225.008 279.44C224.035 279.44 223.201 279.76 222.508 280.4C221.828 281.027 221.381 281.953 221.168 283.18V283.08L220.128 289H218.288L220.228 278.02H222.068L221.628 280.52C222.041 279.653 222.628 278.993 223.388 278.54C224.161 278.073 224.995 277.84 225.888 277.84C226.821 277.84 227.588 278.08 228.188 278.56C228.788 279.04 229.155 279.74 229.288 280.66C229.755 279.767 230.388 279.073 231.188 278.58C232.001 278.087 232.868 277.84 233.788 277.84ZM245.314 277.88C246.394 277.88 247.267 278.153 247.934 278.7C248.601 279.233 249.001 279.94 249.134 280.82L249.634 278.02H251.434L249.494 289H247.674L248.174 286.2C247.747 287.08 247.114 287.793 246.274 288.34C245.434 288.873 244.481 289.14 243.414 289.14C242.121 289.14 241.094 288.76 240.334 288C239.587 287.227 239.214 286.167 239.214 284.82C239.214 284.327 239.261 283.847 239.354 283.38C239.554 282.26 239.941 281.287 240.514 280.46C241.087 279.62 241.787 278.98 242.614 278.54C243.454 278.1 244.354 277.88 245.314 277.88ZM245.634 279.5C244.501 279.5 243.534 279.86 242.734 280.58C241.934 281.287 241.427 282.267 241.214 283.52C241.147 283.893 241.114 284.22 241.114 284.5C241.114 285.46 241.387 286.207 241.934 286.74C242.481 287.273 243.241 287.54 244.214 287.54C244.921 287.54 245.587 287.373 246.214 287.04C246.841 286.707 247.367 286.24 247.794 285.64C248.221 285.027 248.507 284.32 248.654 283.52C248.707 283.24 248.734 282.94 248.734 282.62C248.734 281.66 248.447 280.9 247.874 280.34C247.314 279.78 246.567 279.5 245.634 279.5ZM255.75 280.24C256.243 279.493 256.877 278.907 257.65 278.48C258.423 278.053 259.29 277.84 260.25 277.84L259.89 279.82H259.33C258.33 279.82 257.457 280.073 256.71 280.58C255.963 281.087 255.477 281.927 255.25 283.1L254.21 289H252.37L254.31 278.02H256.15L255.75 280.24ZM262.566 278.02L264.606 286.66L269.426 278.02H271.446L262.066 294.2H260.006L263.246 288.82L260.526 278.02H262.566Z" fill="black" fill-opacity="0.6"/>
<path d="M586.76 285.68C586.667 286.28 586.42 286.847 586.02 287.38C585.62 287.9 585.08 288.327 584.4 288.66C583.72 288.98 582.927 289.14 582.02 289.14C581.047 289.14 580.213 288.967 579.52 288.62C578.827 288.26 578.3 287.787 577.94 287.2C577.593 286.6 577.427 285.933 577.44 285.2H579.38C579.353 285.6 579.427 285.993 579.6 286.38C579.787 286.753 580.08 287.067 580.48 287.32C580.893 287.56 581.42 287.68 582.06 287.68C582.927 287.68 583.607 287.42 584.1 286.9C584.607 286.38 584.86 285.74 584.86 284.98C584.86 284.473 584.727 284.06 584.46 283.74C584.207 283.407 583.887 283.147 583.5 282.96C583.127 282.76 582.607 282.533 581.94 282.28C581.18 282 580.573 281.74 580.12 281.5C579.68 281.26 579.3 280.927 578.98 280.5C578.673 280.06 578.52 279.493 578.52 278.8C578.52 278.493 578.547 278.187 578.6 277.88C578.76 276.933 579.26 276.173 580.1 275.6C580.953 275.013 582.013 274.72 583.28 274.72C584.707 274.72 585.787 275.067 586.52 275.76C587.267 276.44 587.66 277.287 587.7 278.3H585.76C585.747 277.74 585.533 277.247 585.12 276.82C584.707 276.393 584.073 276.18 583.22 276.18C582.42 276.18 581.767 276.387 581.26 276.8C580.767 277.213 580.52 277.813 580.52 278.6C580.52 279.067 580.64 279.453 580.88 279.76C581.133 280.067 581.44 280.313 581.8 280.5C582.173 280.673 582.687 280.88 583.34 281.12C584.1 281.4 584.713 281.667 585.18 281.92C585.647 282.16 586.04 282.507 586.36 282.96C586.693 283.413 586.86 284 586.86 284.72C586.86 284.987 586.827 285.307 586.76 285.68ZM595.628 277.88C596.575 277.88 597.381 278.06 598.048 278.42C598.715 278.767 599.215 279.247 599.548 279.86C599.895 280.46 600.068 281.147 600.068 281.92C600.068 282.267 600.041 282.593 599.988 282.9C599.908 283.313 599.815 283.647 599.708 283.9H590.968C590.915 284.3 590.888 284.587 590.888 284.76C590.888 285.72 591.161 286.447 591.708 286.94C592.268 287.42 592.975 287.66 593.828 287.66C594.695 287.66 595.468 287.44 596.148 287C596.828 286.547 597.301 285.947 597.568 285.2H599.508C599.081 286.373 598.348 287.327 597.308 288.06C596.268 288.78 595.048 289.14 593.648 289.14C592.261 289.14 591.161 288.753 590.348 287.98C589.535 287.207 589.128 286.133 589.128 284.76C589.128 284.333 589.168 283.893 589.248 283.44C589.448 282.307 589.855 281.32 590.468 280.48C591.081 279.64 591.835 279 592.728 278.56C593.621 278.107 594.588 277.88 595.628 277.88ZM598.148 283.02C598.228 282.66 598.268 282.327 598.268 282.02C598.268 281.153 597.988 280.493 597.428 280.04C596.881 279.587 596.195 279.36 595.368 279.36C594.381 279.36 593.488 279.673 592.688 280.3C591.888 280.913 591.361 281.82 591.108 283.02H598.148ZM608.069 277.88C609.495 277.88 610.609 278.253 611.409 279C612.209 279.747 612.602 280.747 612.589 282H610.669C610.669 281.213 610.409 280.6 609.889 280.16C609.382 279.707 608.689 279.48 607.809 279.48C606.809 279.48 605.915 279.827 605.129 280.52C604.342 281.2 603.829 282.2 603.589 283.52C603.522 283.947 603.489 284.293 603.489 284.56C603.489 285.547 603.755 286.293 604.289 286.8C604.835 287.307 605.535 287.56 606.389 287.56C607.269 287.56 608.042 287.333 608.709 286.88C609.389 286.427 609.869 285.807 610.149 285.02H612.069C611.629 286.287 610.882 287.293 609.829 288.04C608.789 288.773 607.562 289.14 606.149 289.14C604.775 289.14 603.675 288.753 602.849 287.98C602.035 287.193 601.629 286.113 601.629 284.74C601.629 284.313 601.669 283.86 601.749 283.38C601.949 282.26 602.349 281.287 602.949 280.46C603.549 279.62 604.289 278.98 605.169 278.54C606.062 278.1 607.029 277.88 608.069 277.88ZM620.689 277.88C621.609 277.88 622.422 278.06 623.129 278.42C623.836 278.78 624.382 279.3 624.769 279.98C625.169 280.647 625.369 281.447 625.369 282.38C625.369 282.793 625.329 283.22 625.249 283.66C625.049 284.78 624.636 285.753 624.009 286.58C623.396 287.407 622.636 288.04 621.729 288.48C620.822 288.92 619.849 289.14 618.809 289.14C617.382 289.14 616.236 288.74 615.369 287.94C614.516 287.14 614.089 286.04 614.089 284.64C614.089 284.24 614.129 283.82 614.209 283.38C614.409 282.26 614.822 281.287 615.449 280.46C616.076 279.62 616.842 278.98 617.749 278.54C618.669 278.1 619.649 277.88 620.689 277.88ZM620.449 279.48C619.796 279.48 619.162 279.627 618.549 279.92C617.949 280.213 617.422 280.667 616.969 281.28C616.529 281.88 616.229 282.627 616.069 283.52C616.002 283.92 615.969 284.253 615.969 284.52C615.969 285.507 616.256 286.26 616.829 286.78C617.402 287.287 618.136 287.54 619.029 287.54C619.682 287.54 620.309 287.393 620.909 287.1C621.509 286.807 622.029 286.36 622.469 285.76C622.922 285.147 623.229 284.4 623.389 283.52C623.456 283.12 623.489 282.787 623.489 282.52C623.489 281.52 623.202 280.767 622.629 280.26C622.056 279.74 621.329 279.48 620.449 279.48ZM634.4 277.84C635.48 277.84 636.333 278.147 636.96 278.76C637.6 279.36 637.92 280.24 637.92 281.4C637.92 281.84 637.887 282.247 637.82 282.62L636.68 289H634.86L635.96 282.78C636.013 282.5 636.04 282.2 636.04 281.88C636.04 281.067 635.813 280.447 635.36 280.02C634.907 279.593 634.267 279.38 633.44 279.38C632.44 279.38 631.587 279.707 630.88 280.36C630.173 281 629.713 281.94 629.5 283.18V283.1L628.46 289H626.62L628.56 278.02H630.4L629.94 280.6C630.38 279.707 631 279.027 631.8 278.56C632.6 278.08 633.467 277.84 634.4 277.84ZM652.492 274.2L649.872 289H648.052L648.552 286.2C648.112 287.093 647.472 287.807 646.632 288.34C645.792 288.873 644.838 289.14 643.772 289.14C642.505 289.14 641.492 288.753 640.732 287.98C639.972 287.207 639.592 286.14 639.592 284.78C639.592 284.433 639.638 283.967 639.732 283.38C639.932 282.26 640.318 281.287 640.892 280.46C641.465 279.62 642.165 278.98 642.992 278.54C643.832 278.1 644.732 277.88 645.692 277.88C646.772 277.88 647.638 278.147 648.292 278.68C648.958 279.213 649.358 279.927 649.492 280.82L650.672 274.2H652.492ZM646.012 279.5C644.878 279.5 643.905 279.86 643.092 280.58C642.292 281.287 641.785 282.267 641.572 283.52C641.518 283.827 641.492 284.153 641.492 284.5C641.492 285.46 641.765 286.207 642.312 286.74C642.858 287.273 643.612 287.54 644.572 287.54C645.292 287.54 645.965 287.373 646.592 287.04C647.218 286.707 647.745 286.24 648.172 285.64C648.598 285.027 648.885 284.32 649.032 283.52C649.085 283.24 649.112 282.947 649.112 282.64C649.112 281.68 648.832 280.92 648.272 280.36C647.712 279.787 646.958 279.5 646.012 279.5ZM659.369 277.88C660.449 277.88 661.322 278.153 661.989 278.7C662.655 279.233 663.055 279.94 663.189 280.82L663.689 278.02H665.489L663.549 289H661.729L662.229 286.2C661.802 287.08 661.169 287.793 660.329 288.34C659.489 288.873 658.535 289.14 657.469 289.14C656.175 289.14 655.149 288.76 654.389 288C653.642 287.227 653.269 286.167 653.269 284.82C653.269 284.327 653.315 283.847 653.409 283.38C653.609 282.26 653.995 281.287 654.569 280.46C655.142 279.62 655.842 278.98 656.669 278.54C657.509 278.1 658.409 277.88 659.369 277.88ZM659.689 279.5C658.555 279.5 657.589 279.86 656.789 280.58C655.989 281.287 655.482 282.267 655.269 283.52C655.202 283.893 655.169 284.22 655.169 284.5C655.169 285.46 655.442 286.207 655.989 286.74C656.535 287.273 657.295 287.54 658.269 287.54C658.975 287.54 659.642 287.373 660.269 287.04C660.895 286.707 661.422 286.24 661.849 285.64C662.275 285.027 662.562 284.32 662.709 283.52C662.762 283.24 662.789 282.94 662.789 282.62C662.789 281.66 662.502 280.9 661.929 280.34C661.369 279.78 660.622 279.5 659.689 279.5ZM668.945 278.02L670.985 286.66L675.805 278.02H677.825L668.445 294.2H666.385L669.625 288.82L666.905 278.02H668.945Z" fill="black" fill-opacity="0.6"/>
<defs>
<linearGradient id="paint0_linear_1525_1118" x1="122.5" y1="0" x2="122.5" y2="245" gradientUnits="userSpaceOnUse">
<stop stop-color="#4E3BD9"/>
<stop offset="1" stop-color="#9926AA"/>
</linearGradient>
<linearGradient id="paint1_linear_1525_1118" x1="56.5" y1="0" x2="56.5" y2="113" gradientUnits="userSpaceOnUse">
<stop stop-color="#6F32C4"/>
<stop offset="1" stop-color="#6F32C4" stop-opacity="0.14"/>
</linearGradient>
<linearGradient id="paint2_linear_1525_1118" x1="96.8572" y1="84.3154" x2="79.7485" y2="115.214" gradientUnits="userSpaceOnUse">
<stop stop-color="#2E335A"/>
<stop offset="1" stop-color="#1C1B33"/>
</linearGradient>
<linearGradient id="paint3_linear_1525_1118" x1="13.1355" y1="87.7838" x2="12.227" y2="39.1359" gradientUnits="userSpaceOnUse">
<stop stop-color="#2E335A"/>
<stop offset="1" stop-color="#1C1B33"/>
</linearGradient>
</defs>
</svg>
