<svg width="60" height="60" viewBox="0 0 60 60" fill="none" xmlns="http://www.w3.org/2000/svg">
<path d="M42.5 5H17.5C10.5964 5 5 10.5964 5 17.5V42.5C5 49.4036 10.5964 55 17.5 55H42.5C49.4036 55 55 49.4036 55 42.5V17.5C55 10.5964 49.4036 5 42.5 5Z" stroke="#293A3D" stroke-width="4" stroke-linecap="round" stroke-linejoin="round"/>
<path d="M40.0012 28.5332C40.3098 30.6138 39.9544 32.7387 38.9856 34.6057C38.0169 36.4727 36.4841 37.9867 34.6053 38.9324C32.7265 39.878 30.5973 40.2072 28.5207 39.873C26.444 39.5388 24.5256 38.5584 23.0383 37.0711C21.551 35.5838 20.5706 33.6654 20.2364 31.5887C19.9022 29.5121 20.2314 27.3829 21.177 25.5041C22.1227 23.6253 23.6367 22.0925 25.5037 21.1238C27.3707 20.155 29.4956 19.7996 31.5762 20.1082C33.6985 20.4229 35.6633 21.4118 37.1805 22.9289C38.6976 24.446 39.6865 26.4109 40.0012 28.5332Z" stroke="#293A3D" stroke-width="4" stroke-linecap="round" stroke-linejoin="round"/>
<path d="M43.75 16.25H43.775" stroke="#293A3D" stroke-width="4" stroke-linecap="round" stroke-linejoin="round"/>
</svg>
