<svg width="184" height="173" viewBox="0 0 184 173" fill="none" xmlns="http://www.w3.org/2000/svg">
<rect x="1.49219" y="0.5" width="182" height="172" stroke="black"/>
<path d="M52.2042 96.184H38.2362L35.8362 103H30.1242L42.0762 69.592H48.4122L60.3642 103H54.6042L52.2042 96.184ZM50.6682 91.72L45.2442 76.216L39.7722 91.72H50.6682ZM63.7369 89.656C63.7369 87 64.2809 84.648 65.3689 82.6C66.4889 80.552 67.9929 78.968 69.8809 77.848C71.8009 76.696 73.9129 76.12 76.2169 76.12C78.2969 76.12 80.1049 76.536 81.6409 77.368C83.2089 78.168 84.4569 79.176 85.3849 80.392V76.552H90.9049V103H85.3849V99.064C84.4569 100.312 83.1929 101.352 81.5929 102.184C79.9929 103.016 78.1689 103.432 76.1209 103.432C73.8489 103.432 71.7689 102.856 69.8809 101.704C67.9929 100.52 66.4889 98.888 65.3689 96.808C64.2809 94.696 63.7369 92.312 63.7369 89.656ZM85.3849 89.752C85.3849 87.928 85.0009 86.344 84.2329 85C83.4969 83.656 82.5209 82.632 81.3049 81.928C80.0889 81.224 78.7769 80.872 77.3689 80.872C75.9609 80.872 74.6489 81.224 73.4329 81.928C72.2169 82.6 71.2249 83.608 70.4569 84.952C69.7209 86.264 69.3529 87.832 69.3529 89.656C69.3529 91.48 69.7209 93.08 70.4569 94.456C71.2249 95.832 72.2169 96.888 73.4329 97.624C74.6809 98.328 75.9929 98.68 77.3689 98.68C78.7769 98.68 80.0889 98.328 81.3049 97.624C82.5209 96.92 83.4969 95.896 84.2329 94.552C85.0009 93.176 85.3849 91.576 85.3849 89.752ZM115.841 98.248H131.345V103H109.361V98.728L124.817 74.392H109.361V69.64H131.345V73.912L115.841 98.248ZM142.175 98.536H154.175V103H135.839V98.536L147.887 81.016H135.839V76.552H154.175V81.016L142.175 98.536Z" fill="black" fill-opacity="0.8"/>
<path d="M34.4682 146.192C34.4682 146.757 34.3349 147.291 34.0682 147.792C33.8015 148.293 33.3749 148.704 32.7882 149.024C32.2015 149.333 31.4495 149.488 30.5322 149.488H28.5162V154H26.6922V142.88H30.5322C31.3855 142.88 32.1055 143.029 32.6922 143.328C33.2895 143.616 33.7322 144.011 34.0202 144.512C34.3189 145.013 34.4682 145.573 34.4682 146.192ZM30.5322 148C31.2255 148 31.7429 147.845 32.0842 147.536C32.4255 147.216 32.5962 146.768 32.5962 146.192C32.5962 144.976 31.9082 144.368 30.5322 144.368H28.5162V148H30.5322ZM41.2798 154.112C40.2451 154.112 39.2905 153.872 38.4158 153.392C37.5518 152.901 36.8638 152.224 36.3518 151.36C35.8505 150.485 35.5998 149.504 35.5998 148.416C35.5998 147.328 35.8505 146.352 36.3518 145.488C36.8638 144.624 37.5518 143.952 38.4158 143.472C39.2905 142.981 40.2451 142.736 41.2798 142.736C42.3251 142.736 43.2798 142.981 44.1438 143.472C45.0185 143.952 45.7065 144.624 46.2078 145.488C46.7091 146.352 46.9598 147.328 46.9598 148.416C46.9598 149.504 46.7091 150.485 46.2078 151.36C45.7065 152.224 45.0185 152.901 44.1438 153.392C43.2798 153.872 42.3251 154.112 41.2798 154.112ZM41.2798 152.528C42.0158 152.528 42.6718 152.363 43.2478 152.032C43.8238 151.691 44.2718 151.211 44.5918 150.592C44.9225 149.963 45.0878 149.237 45.0878 148.416C45.0878 147.595 44.9225 146.875 44.5918 146.256C44.2718 145.637 43.8238 145.163 43.2478 144.832C42.6718 144.501 42.0158 144.336 41.2798 144.336C40.5438 144.336 39.8878 144.501 39.3118 144.832C38.7358 145.163 38.2825 145.637 37.9518 146.256C37.6318 146.875 37.4718 147.595 37.4718 148.416C37.4718 149.237 37.6318 149.963 37.9518 150.592C38.2825 151.211 38.7358 151.691 39.3118 152.032C39.8878 152.363 40.5438 152.528 41.2798 152.528ZM56.5307 146.192C56.5307 146.757 56.3974 147.291 56.1307 147.792C55.864 148.293 55.4374 148.704 54.8507 149.024C54.264 149.333 53.512 149.488 52.5947 149.488H50.5787V154H48.7547V142.88H52.5947C53.448 142.88 54.168 143.029 54.7547 143.328C55.352 143.616 55.7947 144.011 56.0827 144.512C56.3814 145.013 56.5307 145.573 56.5307 146.192ZM52.5947 148C53.288 148 53.8054 147.845 54.1467 147.536C54.488 147.216 54.6587 146.768 54.6587 146.192C54.6587 144.976 53.9707 144.368 52.5947 144.368H50.5787V148H52.5947ZM66.0463 146.192C66.0463 146.757 65.913 147.291 65.6463 147.792C65.3796 148.293 64.953 148.704 64.3663 149.024C63.7796 149.333 63.0276 149.488 62.1103 149.488H60.0943V154H58.2703V142.88H62.1103C62.9636 142.88 63.6836 143.029 64.2703 143.328C64.8676 143.616 65.3103 144.011 65.5983 144.512C65.897 145.013 66.0463 145.573 66.0463 146.192ZM62.1103 148C62.8036 148 63.321 147.845 63.6623 147.536C64.0036 147.216 64.1743 146.768 64.1743 146.192C64.1743 144.976 63.4863 144.368 62.1103 144.368H60.0943V148H62.1103ZM69.6099 142.88V154H67.7859V142.88H69.6099ZM81.1407 154H79.3167L73.8287 145.696V154H72.0047V142.864H73.8287L79.3167 151.152V142.864H81.1407V154ZM87.1999 154.112C86.4533 154.112 85.7813 153.984 85.1839 153.728C84.5866 153.461 84.1173 153.088 83.7759 152.608C83.4346 152.128 83.2639 151.568 83.2639 150.928H85.2159C85.2586 151.408 85.4453 151.803 85.7759 152.112C86.1173 152.421 86.5919 152.576 87.1999 152.576C87.8293 152.576 88.3199 152.427 88.6719 152.128C89.0239 151.819 89.1999 151.424 89.1999 150.944C89.1999 150.571 89.0879 150.267 88.8639 150.032C88.6506 149.797 88.3786 149.616 88.0479 149.488C87.7279 149.36 87.2799 149.221 86.7039 149.072C85.9786 148.88 85.3866 148.688 84.9279 148.496C84.4799 148.293 84.0959 147.984 83.7759 147.568C83.4559 147.152 83.2959 146.597 83.2959 145.904C83.2959 145.264 83.4559 144.704 83.7759 144.224C84.0959 143.744 84.5439 143.376 85.1199 143.12C85.6959 142.864 86.3626 142.736 87.1199 142.736C88.1973 142.736 89.0773 143.008 89.7599 143.552C90.4533 144.085 90.8373 144.821 90.9119 145.76H88.8959C88.8639 145.355 88.6719 145.008 88.3199 144.72C87.9679 144.432 87.5039 144.288 86.9279 144.288C86.4053 144.288 85.9786 144.421 85.6479 144.688C85.3173 144.955 85.1519 145.339 85.1519 145.84C85.1519 146.181 85.2533 146.464 85.4559 146.688C85.6693 146.901 85.9359 147.072 86.2559 147.2C86.5759 147.328 87.0133 147.467 87.5679 147.616C88.3039 147.819 88.9013 148.021 89.3599 148.224C89.8293 148.427 90.2239 148.741 90.5439 149.168C90.8746 149.584 91.0399 150.144 91.0399 150.848C91.0399 151.413 90.8853 151.947 90.5759 152.448C90.2773 152.949 89.8346 153.355 89.2479 153.664C88.6719 153.963 87.9893 154.112 87.1999 154.112ZM109.06 142.88V154H107.236V146.384L103.844 154H102.58L99.1724 146.384V154H97.3484V142.88H99.3164L103.22 151.6L107.108 142.88H109.06ZM113.282 144.352V147.616H117.122V149.104H113.282V152.512H117.602V154H111.458V142.864H117.602V144.352H113.282ZM123.48 142.88C124.664 142.88 125.699 143.109 126.584 143.568C127.48 144.016 128.168 144.667 128.648 145.52C129.139 146.363 129.384 147.349 129.384 148.48C129.384 149.611 129.139 150.592 128.648 151.424C128.168 152.256 127.48 152.896 126.584 153.344C125.699 153.781 124.664 154 123.48 154H119.848V142.88H123.48ZM123.48 152.512C124.782 152.512 125.779 152.16 126.472 151.456C127.166 150.752 127.512 149.76 127.512 148.48C127.512 147.189 127.166 146.181 126.472 145.456C125.779 144.731 124.782 144.368 123.48 144.368H121.672V152.512H123.48ZM133.016 142.88V154H131.192V142.88H133.016ZM137.219 142.88V149.968C137.219 150.811 137.438 151.445 137.875 151.872C138.323 152.299 138.942 152.512 139.731 152.512C140.531 152.512 141.15 152.299 141.587 151.872C142.035 151.445 142.259 150.811 142.259 149.968V142.88H144.083V149.936C144.083 150.843 143.886 151.611 143.491 152.24C143.096 152.869 142.568 153.339 141.907 153.648C141.246 153.957 140.515 154.112 139.715 154.112C138.915 154.112 138.184 153.957 137.523 153.648C136.872 153.339 136.355 152.869 135.971 152.24C135.587 151.611 135.395 150.843 135.395 149.936V142.88H137.219ZM158.17 142.88V154H156.346V146.384L152.954 154H151.69L148.282 146.384V154H146.458V142.88H148.426L152.33 151.6L156.218 142.88H158.17Z" fill="black" fill-opacity="0.8"/>
</svg>
