<svg width="184" height="174" viewBox="0 0 184 174" fill="none" xmlns="http://www.w3.org/2000/svg">
<rect x="1.49219" y="1" width="182" height="172" stroke="black"/>
<path d="M61.8842 94.856H52.3442L50.7602 99.5H44.2802L53.6042 74.228H60.6962L70.0202 99.5H63.4682L61.8842 94.856ZM60.3002 90.176L57.1322 80.816L53.9282 90.176H60.3002ZM80.0451 79.16C81.5811 79.16 82.9011 79.508 84.0051 80.204C85.1091 80.9 85.9251 81.848 86.4531 83.048V79.412H92.5731V99.5H86.4531V95.864C85.9251 97.064 85.1091 98.012 84.0051 98.708C82.9011 99.404 81.5811 99.752 80.0451 99.752C78.3891 99.752 76.9011 99.344 75.5811 98.528C74.2851 97.688 73.2531 96.488 72.4851 94.928C71.7411 93.368 71.3691 91.544 71.3691 89.456C71.3691 87.344 71.7411 85.52 72.4851 83.984C73.2531 82.424 74.2851 81.236 75.5811 80.42C76.9011 79.58 78.3891 79.16 80.0451 79.16ZM82.0251 84.56C80.7051 84.56 79.6371 84.992 78.8211 85.856C78.0291 86.72 77.6331 87.92 77.6331 89.456C77.6331 90.992 78.0291 92.192 78.8211 93.056C79.6371 93.92 80.7051 94.352 82.0251 94.352C83.3211 94.352 84.3771 93.908 85.1931 93.02C86.0331 92.132 86.4531 90.944 86.4531 89.456C86.4531 87.944 86.0331 86.756 85.1931 85.892C84.3771 85.004 83.3211 84.56 82.0251 84.56ZM110.391 94.532H121.623V99.5H103.551V94.82L114.603 78.98H103.695V74.048H121.551V78.728L110.391 94.532ZM130.83 94.352H140.118V99.5H124.098V94.64L132.738 84.524H124.242V79.412H139.758V84.272L130.83 94.352Z" fill="black" fill-opacity="0.8"/>
<path d="M38.6722 150.532V154.5H35.9362V143.188H40.3682C41.7122 143.188 42.7362 143.524 43.4402 144.196C44.1442 144.857 44.4962 145.753 44.4962 146.884C44.4962 147.588 44.3362 148.217 44.0162 148.772C43.7069 149.316 43.2429 149.748 42.6242 150.068C42.0055 150.377 41.2535 150.532 40.3682 150.532H38.6722ZM40.0642 148.34C41.1629 148.34 41.7122 147.855 41.7122 146.884C41.7122 145.892 41.1629 145.396 40.0642 145.396H38.6722V148.34H40.0642ZM51.2184 143.012C52.2851 143.012 53.2504 143.263 54.1144 143.764C54.9891 144.255 55.6771 144.943 56.1784 145.828C56.6798 146.703 56.9304 147.695 56.9304 148.804C56.9304 149.913 56.6744 150.911 56.1624 151.796C55.6611 152.681 54.9731 153.375 54.0984 153.876C53.2344 154.367 52.2744 154.612 51.2184 154.612C50.1624 154.612 49.1971 154.367 48.3224 153.876C47.4584 153.375 46.7704 152.681 46.2584 151.796C45.7571 150.911 45.5064 149.913 45.5064 148.804C45.5064 147.695 45.7571 146.703 46.2584 145.828C46.7704 144.943 47.4584 144.255 48.3224 143.764C49.1971 143.263 50.1624 143.012 51.2184 143.012ZM51.2184 145.556C50.3224 145.556 49.6078 145.849 49.0744 146.436C48.5518 147.012 48.2904 147.801 48.2904 148.804C48.2904 149.796 48.5518 150.585 49.0744 151.172C49.6078 151.759 50.3224 152.052 51.2184 152.052C52.1038 152.052 52.8131 151.759 53.3464 151.172C53.8798 150.585 54.1464 149.796 54.1464 148.804C54.1464 147.812 53.8798 147.023 53.3464 146.436C52.8238 145.849 52.1144 145.556 51.2184 145.556ZM61.2034 150.532V154.5H58.4674V143.188H62.8994C64.2434 143.188 65.2674 143.524 65.9714 144.196C66.6754 144.857 67.0274 145.753 67.0274 146.884C67.0274 147.588 66.8674 148.217 66.5474 148.772C66.2381 149.316 65.7741 149.748 65.1554 150.068C64.5368 150.377 63.7848 150.532 62.8994 150.532H61.2034ZM62.5954 148.34C63.6941 148.34 64.2434 147.855 64.2434 146.884C64.2434 145.892 63.6941 145.396 62.5954 145.396H61.2034V148.34H62.5954ZM71.1097 150.532V154.5H68.3737V143.188H72.8057C74.1497 143.188 75.1737 143.524 75.8777 144.196C76.5817 144.857 76.9337 145.753 76.9337 146.884C76.9337 147.588 76.7737 148.217 76.4537 148.772C76.1444 149.316 75.6804 149.748 75.0617 150.068C74.443 150.377 73.691 150.532 72.8057 150.532H71.1097ZM72.5017 148.34C73.6004 148.34 74.1497 147.855 74.1497 146.884C74.1497 145.892 73.6004 145.396 72.5017 145.396H71.1097V148.34H72.5017ZM81.0159 143.188V154.5H78.2799V143.188H81.0159ZM92.9529 154.5H90.2169L85.6409 147.556V154.5H82.9049V143.188H85.6409L90.2169 150.196V143.188H92.9529V154.5ZM102.97 151.316C102.97 151.913 102.816 152.463 102.506 152.964C102.208 153.465 101.76 153.865 101.162 154.164C100.576 154.463 99.8611 154.612 99.0184 154.612C97.7491 154.612 96.7038 154.303 95.8824 153.684C95.0611 153.065 94.6131 152.201 94.5384 151.092H97.4504C97.4931 151.519 97.6424 151.855 97.8984 152.1C98.1651 152.345 98.5011 152.468 98.9064 152.468C99.2584 152.468 99.5358 152.372 99.7384 152.18C99.9411 151.988 100.042 151.732 100.042 151.412C100.042 151.124 99.9464 150.884 99.7544 150.692C99.5731 150.5 99.3438 150.345 99.0664 150.228C98.7891 150.1 98.4051 149.951 97.9144 149.78C97.1998 149.535 96.6131 149.3 96.1544 149.076C95.7064 148.841 95.3171 148.5 94.9864 148.052C94.6664 147.593 94.5064 147.001 94.5064 146.276C94.5064 145.604 94.6771 145.023 95.0184 144.532C95.3598 144.041 95.8291 143.668 96.4264 143.412C97.0344 143.145 97.7278 143.012 98.5064 143.012C99.7651 143.012 100.762 143.311 101.498 143.908C102.245 144.505 102.666 145.327 102.762 146.372H99.8024C99.7491 145.999 99.6104 145.705 99.3864 145.492C99.1731 145.268 98.8798 145.156 98.5064 145.156C98.1864 145.156 97.9251 145.241 97.7224 145.412C97.5304 145.583 97.4344 145.833 97.4344 146.164C97.4344 146.431 97.5198 146.66 97.6904 146.852C97.8718 147.033 98.0958 147.183 98.3624 147.3C98.6291 147.417 99.0131 147.567 99.5144 147.748C100.24 147.993 100.832 148.239 101.29 148.484C101.749 148.719 102.144 149.065 102.474 149.524C102.805 149.983 102.97 150.58 102.97 151.316ZM114.47 148.676C115.153 148.836 115.692 149.167 116.086 149.668C116.492 150.169 116.694 150.751 116.694 151.412C116.694 152.383 116.369 153.14 115.718 153.684C115.078 154.228 114.156 154.5 112.95 154.5H107.686V143.188H112.822C113.974 143.188 114.865 143.439 115.494 143.94C116.124 144.441 116.438 145.156 116.438 146.084C116.438 146.767 116.257 147.337 115.894 147.796C115.532 148.244 115.057 148.537 114.47 148.676ZM110.422 147.812H112.214C113.164 147.812 113.638 147.407 113.638 146.596C113.638 145.785 113.153 145.38 112.182 145.38H110.422V147.812ZM112.374 152.276C113.388 152.276 113.894 151.86 113.894 151.028C113.894 150.623 113.761 150.308 113.494 150.084C113.228 149.849 112.849 149.732 112.358 149.732H110.422V152.276H112.374ZM123.515 143.012C124.582 143.012 125.547 143.263 126.411 143.764C127.286 144.255 127.974 144.943 128.475 145.828C128.977 146.703 129.227 147.695 129.227 148.804C129.227 149.913 128.971 150.911 128.459 151.796C127.958 152.681 127.27 153.375 126.395 153.876C125.531 154.367 124.571 154.612 123.515 154.612C122.459 154.612 121.494 154.367 120.619 153.876C119.755 153.375 119.067 152.681 118.555 151.796C118.054 150.911 117.803 149.913 117.803 148.804C117.803 147.695 118.054 146.703 118.555 145.828C119.067 144.943 119.755 144.255 120.619 143.764C121.494 143.263 122.459 143.012 123.515 143.012ZM123.515 145.556C122.619 145.556 121.905 145.849 121.371 146.436C120.849 147.012 120.587 147.801 120.587 148.804C120.587 149.796 120.849 150.585 121.371 151.172C121.905 151.759 122.619 152.052 123.515 152.052C124.401 152.052 125.11 151.759 125.643 151.172C126.177 150.585 126.443 149.796 126.443 148.804C126.443 147.812 126.177 147.023 125.643 146.436C125.121 145.849 124.411 145.556 123.515 145.556ZM133.5 152.404H137.148V154.5H130.764V143.188H133.5V152.404ZM148.581 148.82C148.581 149.929 148.341 150.916 147.861 151.78C147.392 152.633 146.709 153.3 145.813 153.78C144.928 154.26 143.882 154.5 142.677 154.5H138.405V143.188H142.677C143.893 143.188 144.944 143.423 145.829 143.892C146.714 144.361 147.392 145.023 147.861 145.876C148.341 146.729 148.581 147.711 148.581 148.82ZM142.437 152.052C143.504 152.052 144.33 151.769 144.917 151.204C145.514 150.639 145.813 149.844 145.813 148.82C145.813 147.796 145.514 147.001 144.917 146.436C144.33 145.871 143.504 145.588 142.437 145.588H141.141V152.052H142.437Z" fill="black" fill-opacity="0.8"/>
</svg>
