<svg xmlns="http://www.w3.org/2000/svg" width="254" height="255" fill="none" viewBox="0 0 254 255">
  <path stroke="#528CA2" stroke-miterlimit="10" stroke-width="6" d="M150.624 204.387a9.307 9.307 0 0 1-2.714 6.572 9.246 9.246 0 0 1-6.55 2.722H54.264a9.249 9.249 0 0 1-6.55-2.722A9.31 9.31 0 0 1 45 204.387V125.2a9.31 9.31 0 0 1 2.713-6.572 9.249 9.249 0 0 1 6.55-2.722h37.172m59.186 88.354v-37.698"/>
  <path fill="#518BA1" d="M150.487 134.105c22.362 0 40.491-18.187 40.491-40.623 0-22.435-18.129-40.623-40.491-40.623s-40.491 18.188-40.491 40.623c0 22.436 18.129 40.623 40.491 40.623Z"/>
  <path fill="#fff" d="M150.792 104.698c6.342 0 11.484-5.158 11.484-11.52 0-6.364-5.142-11.522-11.484-11.522s-11.483 5.158-11.483 11.521 5.141 11.521 11.483 11.521Z"/>
  <path stroke="#528CA2" stroke-miterlimit="10" stroke-width="4" d="M150.717 145.264c28.539 0 51.674-23.211 51.674-51.843 0-28.632-23.135-51.843-51.674-51.843-28.539 0-51.674 23.211-51.674 51.843 0 28.632 23.135 51.843 51.674 51.843Zm-.049-96.947V33m0 120.09v-15.317m59.236-44.117h-15.267m-87.936 0H91.434"/>
  <rect width="251" height="252" x="-1.5" y="1.5" stroke="#000" stroke-opacity=".8" stroke-width="3" rx="23.5" transform="matrix(-1 0 0 1 251 0)"/>
</svg>
