<svg width="837" height="461" viewBox="0 0 837 461" fill="none" xmlns="http://www.w3.org/2000/svg">
<path d="M151.488 37.9297V23.3842H153.683V36.0405H160.273V37.9297H151.488ZM167.402 38.1499C166.379 38.1499 165.487 37.9155 164.724 37.4467C163.962 36.978 163.37 36.3222 162.949 35.4794C162.527 34.6366 162.317 33.6518 162.317 32.5249C162.317 31.3932 162.527 30.4036 162.949 29.5561C163.37 28.7086 163.962 28.0504 164.724 27.5817C165.487 27.1129 166.379 26.8786 167.402 26.8786C168.424 26.8786 169.317 27.1129 170.079 27.5817C170.842 28.0504 171.433 28.7086 171.855 29.5561C172.276 30.4036 172.487 31.3932 172.487 32.5249C172.487 33.6518 172.276 34.6366 171.855 35.4794C171.433 36.3222 170.842 36.978 170.079 37.4467C169.317 37.9155 168.424 38.1499 167.402 38.1499ZM167.409 36.3672C168.072 36.3672 168.621 36.192 169.057 35.8416C169.492 35.4912 169.814 35.0249 170.022 34.4425C170.236 33.8601 170.342 33.2185 170.342 32.5178C170.342 31.8217 170.236 31.1825 170.022 30.6001C169.814 30.013 169.492 29.5419 169.057 29.1868C168.621 28.8317 168.072 28.6541 167.409 28.6541C166.741 28.6541 166.187 28.8317 165.747 29.1868C165.311 29.5419 164.987 30.013 164.774 30.6001C164.566 31.1825 164.461 31.8217 164.461 32.5178C164.461 33.2185 164.566 33.8601 164.774 34.4425C164.987 35.0249 165.311 35.4912 165.747 35.8416C166.187 36.192 166.741 36.3672 167.409 36.3672ZM183.232 29.6839L181.307 30.0249C181.227 29.7786 181.099 29.5443 180.924 29.3217C180.753 29.0992 180.521 28.9169 180.228 28.7749C179.934 28.6328 179.567 28.5618 179.127 28.5618C178.526 28.5618 178.024 28.6967 177.621 28.9666C177.219 29.2318 177.018 29.575 177.018 29.9964C177.018 30.361 177.153 30.6546 177.422 30.8771C177.692 31.0997 178.128 31.282 178.729 31.424L180.462 31.8217C181.466 32.0537 182.214 32.4112 182.707 32.8942C183.199 33.3771 183.445 34.0045 183.445 34.7763C183.445 35.4297 183.256 36.0121 182.877 36.5234C182.503 37.0301 181.98 37.4278 181.307 37.7166C180.64 38.0054 179.866 38.1499 178.985 38.1499C177.763 38.1499 176.767 37.8894 175.995 37.3686C175.223 36.843 174.75 36.0973 174.574 35.1314L176.627 34.8189C176.755 35.3539 177.018 35.7588 177.415 36.0334C177.813 36.3033 178.332 36.4382 178.971 36.4382C179.667 36.4382 180.223 36.2938 180.64 36.005C181.056 35.7114 181.265 35.3539 181.265 34.9325C181.265 34.5916 181.137 34.3052 180.881 34.0732C180.63 33.8411 180.244 33.666 179.724 33.5476L177.877 33.1428C176.859 32.9107 176.106 32.5414 175.618 32.0348C175.135 31.5282 174.894 30.8866 174.894 30.1101C174.894 29.4661 175.074 28.9027 175.434 28.4197C175.794 27.9368 176.291 27.5604 176.925 27.2905C177.56 27.0159 178.287 26.8786 179.106 26.8786C180.285 26.8786 181.213 27.1342 181.89 27.6456C182.567 28.1522 183.014 28.8317 183.232 29.6839ZM188.104 23.3842V37.9297H185.98V23.3842H188.104ZM195.862 38.1499C194.787 38.1499 193.862 37.9202 193.085 37.4609C192.313 36.9969 191.717 36.3459 191.295 35.5078C190.879 34.665 190.67 33.6778 190.67 32.5462C190.67 31.4287 190.879 30.4439 191.295 29.5916C191.717 28.7393 192.304 28.0741 193.057 27.5959C193.814 27.1177 194.7 26.8786 195.713 26.8786C196.329 26.8786 196.925 26.9804 197.503 27.1839C198.08 27.3875 198.599 27.7071 199.058 28.1428C199.518 28.5784 199.88 29.1442 200.145 29.8402C200.41 30.5315 200.543 31.3719 200.543 32.3615V33.1143H191.871V31.5234H198.462C198.462 30.9647 198.348 30.4699 198.121 30.0391C197.893 29.6035 197.574 29.2602 197.162 29.0092C196.755 28.7583 196.276 28.6328 195.727 28.6328C195.131 28.6328 194.61 28.7796 194.165 29.0732C193.724 29.362 193.384 29.7408 193.142 30.2095C192.905 30.6735 192.787 31.1778 192.787 31.7223V32.9652C192.787 33.6944 192.915 34.3146 193.17 34.826C193.431 35.3374 193.793 35.728 194.257 35.9979C194.721 36.263 195.263 36.3956 195.884 36.3956C196.286 36.3956 196.653 36.3388 196.984 36.2251C197.316 36.1068 197.602 35.9316 197.844 35.6996C198.085 35.4676 198.27 35.1811 198.398 34.8402L200.408 35.2024C200.247 35.7943 199.958 36.3127 199.541 36.7578C199.129 37.1982 198.611 37.5414 197.986 37.7876C197.366 38.0291 196.658 38.1499 195.862 38.1499ZM207.673 42.2479C206.806 42.2479 206.06 42.1342 205.435 41.907C204.815 41.6797 204.309 41.379 203.916 41.005C203.523 40.6309 203.229 40.2214 203.035 39.7763L204.86 39.0234C204.988 39.2318 205.158 39.4519 205.372 39.6839C205.589 39.9207 205.883 40.1219 206.252 40.2876C206.626 40.4534 207.107 40.5362 207.694 40.5362C208.499 40.5362 209.164 40.3397 209.69 39.9467C210.215 39.5585 210.478 38.9382 210.478 38.0859V35.9411H210.343C210.215 36.1731 210.031 36.4311 209.789 36.7152C209.552 36.9993 209.226 37.2455 208.809 37.4538C208.392 37.6622 207.85 37.7663 207.183 37.7663C206.321 37.7663 205.544 37.5651 204.853 37.1626C204.166 36.7554 203.622 36.1565 203.22 35.3658C202.822 34.5703 202.623 33.5926 202.623 32.4325C202.623 31.2725 202.819 30.2782 203.212 29.4496C203.61 28.621 204.155 27.9865 204.846 27.5462C205.537 27.1011 206.321 26.8786 207.197 26.8786C207.874 26.8786 208.421 26.9922 208.837 27.2195C209.254 27.442 209.578 27.7024 209.81 28.0007C210.047 28.299 210.229 28.5618 210.357 28.7891H210.514V27.0206H212.595V38.1712C212.595 39.1087 212.377 39.8781 211.941 40.4794C211.505 41.0807 210.916 41.5258 210.173 41.8146C209.434 42.1035 208.601 42.2479 207.673 42.2479ZM207.651 36.005C208.262 36.005 208.778 35.8629 209.2 35.5788C209.626 35.29 209.948 34.8781 210.166 34.343C210.388 33.8033 210.499 33.157 210.499 32.4041C210.499 31.6702 210.39 31.0239 210.173 30.4652C209.955 29.9065 209.635 29.4709 209.214 29.1584C208.792 28.8411 208.272 28.6825 207.651 28.6825C207.012 28.6825 206.479 28.8482 206.053 29.1797C205.627 29.5064 205.305 29.9515 205.087 30.5149C204.874 31.0784 204.768 31.7081 204.768 32.4041C204.768 33.1191 204.877 33.7464 205.095 34.2862C205.312 34.826 205.634 35.2474 206.06 35.5504C206.491 35.8535 207.022 36.005 207.651 36.005ZM220.344 38.1499C219.269 38.1499 218.344 37.9202 217.567 37.4609C216.795 36.9969 216.199 36.3459 215.777 35.5078C215.361 34.665 215.152 33.6778 215.152 32.5462C215.152 31.4287 215.361 30.4439 215.777 29.5916C216.199 28.7393 216.786 28.0741 217.539 27.5959C218.296 27.1177 219.182 26.8786 220.195 26.8786C220.811 26.8786 221.407 26.9804 221.985 27.1839C222.563 27.3875 223.081 27.7071 223.54 28.1428C224 28.5784 224.362 29.1442 224.627 29.8402C224.892 30.5315 225.025 31.3719 225.025 32.3615V33.1143H216.353V31.5234H222.944C222.944 30.9647 222.83 30.4699 222.603 30.0391C222.375 29.6035 222.056 29.2602 221.644 29.0092C221.237 28.7583 220.759 28.6328 220.209 28.6328C219.613 28.6328 219.092 28.7796 218.647 29.0732C218.206 29.362 217.866 29.7408 217.624 30.2095C217.387 30.6735 217.269 31.1778 217.269 31.7223V32.9652C217.269 33.6944 217.397 34.3146 217.652 34.826C217.913 35.3374 218.275 35.728 218.739 35.9979C219.203 36.263 219.745 36.3956 220.366 36.3956C220.768 36.3956 221.135 36.3388 221.466 36.2251C221.798 36.1068 222.084 35.9316 222.326 35.6996C222.567 35.4676 222.752 35.1811 222.88 34.8402L224.89 35.2024C224.729 35.7943 224.44 36.3127 224.023 36.7578C223.611 37.1982 223.093 37.5414 222.468 37.7876C221.848 38.0291 221.14 38.1499 220.344 38.1499ZM229.704 31.4524V37.9297H227.581V27.0206H229.619V28.7962H229.754C230.005 28.2185 230.398 27.7545 230.933 27.4041C231.473 27.0537 232.152 26.8786 232.971 26.8786C233.715 26.8786 234.366 27.0348 234.925 27.3473C235.483 27.6551 235.917 28.1143 236.224 28.7251C236.532 29.3359 236.686 30.0911 236.686 30.9908V37.9297H234.562V31.2464C234.562 30.4557 234.356 29.8378 233.944 29.3928C233.533 28.9429 232.967 28.718 232.247 28.718C231.755 28.718 231.317 28.8246 230.933 29.0376C230.554 29.2507 230.254 29.5632 230.031 29.9751C229.813 30.3823 229.704 30.8748 229.704 31.4524Z" fill="#5F5F5F"/>
<rect x="9.5" y="2.42969" width="369" height="57" rx="28.5" stroke="#A4C639" stroke-width="3"/>
<rect x="418" y="0.929688" width="370" height="60" rx="30" fill="#EEEEEE"/>
<path d="M520.438 37.9297L516.404 23.3842H518.712L521.546 34.6484H521.681L524.628 23.3842H526.915L529.863 34.6555H529.997L532.824 23.3842H535.14L531.098 37.9297H528.89L525.828 27.0348H525.715L522.654 37.9297H520.438ZM540.798 38.1499C539.723 38.1499 538.797 37.9202 538.021 37.4609C537.249 36.9969 536.652 36.3459 536.231 35.5078C535.814 34.665 535.606 33.6778 535.606 32.5462C535.606 31.4287 535.814 30.4439 536.231 29.5916C536.652 28.7393 537.239 28.0741 537.992 27.5959C538.75 27.1177 539.635 26.8786 540.648 26.8786C541.264 26.8786 541.861 26.9804 542.438 27.1839C543.016 27.3875 543.534 27.7071 543.994 28.1428C544.453 28.5784 544.815 29.1442 545.08 29.8402C545.345 30.5315 545.478 31.3719 545.478 32.3615V33.1143H536.806V31.5234H543.397C543.397 30.9647 543.283 30.4699 543.056 30.0391C542.829 29.6035 542.509 29.2602 542.097 29.0092C541.69 28.7583 541.212 28.6328 540.663 28.6328C540.066 28.6328 539.545 28.7796 539.1 29.0732C538.66 29.362 538.319 29.7408 538.077 30.2095C537.841 30.6735 537.722 31.1778 537.722 31.7223V32.9652C537.722 33.6944 537.85 34.3146 538.106 34.826C538.366 35.3374 538.728 35.728 539.193 35.9979C539.657 36.263 540.199 36.3956 540.819 36.3956C541.221 36.3956 541.588 36.3388 541.92 36.2251C542.251 36.1068 542.538 35.9316 542.779 35.6996C543.021 35.4676 543.205 35.1811 543.333 34.8402L545.343 35.2024C545.182 35.7943 544.893 36.3127 544.477 36.7578C544.065 37.1982 543.546 37.5414 542.921 37.7876C542.301 38.0291 541.593 38.1499 540.798 38.1499ZM548.034 37.9297V27.0206H550.158V37.9297H548.034ZM549.107 25.3374C548.737 25.3374 548.42 25.2143 548.155 24.968C547.895 24.7171 547.764 24.4188 547.764 24.0732C547.764 23.7228 547.895 23.4245 548.155 23.1783C548.42 22.9273 548.737 22.8018 549.107 22.8018C549.476 22.8018 549.791 22.9273 550.051 23.1783C550.316 23.4245 550.449 23.7228 550.449 24.0732C550.449 24.4188 550.316 24.7171 550.051 24.968C549.791 25.2143 549.476 25.3374 549.107 25.3374ZM558.307 27.0206V28.7251H552.348V27.0206H558.307ZM553.946 24.407H556.07V34.7266C556.07 35.1385 556.131 35.4486 556.254 35.657C556.378 35.8606 556.536 36.0002 556.73 36.076C556.929 36.147 557.145 36.1825 557.377 36.1825C557.547 36.1825 557.696 36.1707 557.824 36.147C557.952 36.1233 558.051 36.1044 558.122 36.0902L558.506 37.8445C558.383 37.8918 558.208 37.9392 557.98 37.9865C557.753 38.0386 557.469 38.067 557.128 38.0717C556.569 38.0812 556.048 37.9818 555.566 37.7734C555.083 37.5651 554.692 37.2431 554.394 36.8075C554.095 36.3719 553.946 35.825 553.946 35.1669V24.407ZM565.441 38.1499C564.366 38.1499 563.44 37.9202 562.664 37.4609C561.892 36.9969 561.295 36.3459 560.874 35.5078C560.457 34.665 560.249 33.6778 560.249 32.5462C560.249 31.4287 560.457 30.4439 560.874 29.5916C561.295 28.7393 561.882 28.0741 562.635 27.5959C563.393 27.1177 564.278 26.8786 565.291 26.8786C565.907 26.8786 566.504 26.9804 567.081 27.1839C567.659 27.3875 568.177 27.7071 568.637 28.1428C569.096 28.5784 569.458 29.1442 569.723 29.8402C569.988 30.5315 570.121 31.3719 570.121 32.3615V33.1143H561.449V31.5234H568.04C568.04 30.9647 567.926 30.4699 567.699 30.0391C567.472 29.6035 567.152 29.2602 566.74 29.0092C566.333 28.7583 565.855 28.6328 565.306 28.6328C564.709 28.6328 564.188 28.7796 563.743 29.0732C563.303 29.362 562.962 29.7408 562.72 30.2095C562.484 30.6735 562.365 31.1778 562.365 31.7223V32.9652C562.365 33.6944 562.493 34.3146 562.749 34.826C563.009 35.3374 563.371 35.728 563.835 35.9979C564.299 36.263 564.842 36.3956 565.462 36.3956C565.864 36.3956 566.231 36.3388 566.563 36.2251C566.894 36.1068 567.181 35.9316 567.422 35.6996C567.664 35.4676 567.848 35.1811 567.976 34.8402L569.986 35.2024C569.825 35.7943 569.536 36.3127 569.12 36.7578C568.708 37.1982 568.189 37.5414 567.564 37.7876C566.944 38.0291 566.236 38.1499 565.441 38.1499ZM572.677 37.9297V27.0206H574.73V28.7536H574.843C575.042 28.1664 575.393 27.7048 575.894 27.3686C576.401 27.0277 576.974 26.8572 577.613 26.8572C577.746 26.8572 577.902 26.862 578.082 26.8714C578.267 26.8809 578.411 26.8928 578.515 26.907V28.9382C578.43 28.9145 578.278 28.8885 578.061 28.8601C577.843 28.8269 577.625 28.8104 577.407 28.8104C576.905 28.8104 576.458 28.9169 576.065 29.13C575.677 29.3383 575.369 29.6295 575.142 30.0036C574.914 30.3729 574.801 30.7943 574.801 31.2678V37.9297H572.677ZM586.046 37.9297V27.0206H588.084V28.7962H588.219C588.446 28.1948 588.818 27.7261 589.334 27.3899C589.85 27.049 590.468 26.8786 591.188 26.8786C591.917 26.8786 592.528 27.049 593.02 27.3899C593.518 27.7308 593.884 28.1996 594.121 28.7962H594.235C594.495 28.2138 594.91 27.7498 595.478 27.4041C596.046 27.0537 596.723 26.8786 597.509 26.8786C598.499 26.8786 599.306 27.1887 599.931 27.8089C600.561 28.4292 600.875 29.3643 600.875 30.6143V37.9297H598.752V30.8132C598.752 30.0746 598.551 29.5395 598.148 29.2081C597.746 28.8767 597.265 28.7109 596.706 28.7109C596.015 28.7109 595.478 28.924 595.094 29.3501C594.711 29.7715 594.519 30.3137 594.519 30.9766V37.9297H592.402V30.6783C592.402 30.0864 592.218 29.6106 591.848 29.2507C591.479 28.8909 590.999 28.7109 590.407 28.7109C590.004 28.7109 589.633 28.8175 589.292 29.0305C588.955 29.2389 588.683 29.5301 588.475 29.9041C588.271 30.2782 588.169 30.7114 588.169 31.2038V37.9297H586.046ZM603.922 37.9297V27.0206H606.045V37.9297H603.922ZM604.994 25.3374C604.625 25.3374 604.308 25.2143 604.042 24.968C603.782 24.7171 603.652 24.4188 603.652 24.0732C603.652 23.7228 603.782 23.4245 604.042 23.1783C604.308 22.9273 604.625 22.8018 604.994 22.8018C605.363 22.8018 605.678 22.9273 605.939 23.1783C606.204 23.4245 606.336 23.7228 606.336 24.0732C606.336 24.4188 606.204 24.7171 605.939 24.968C605.678 25.2143 605.363 25.3374 604.994 25.3374ZM614.195 27.0206V28.7251H608.236V27.0206H614.195ZM609.834 24.407H611.957V34.7266C611.957 35.1385 612.019 35.4486 612.142 35.657C612.265 35.8606 612.424 36.0002 612.618 36.076C612.817 36.147 613.032 36.1825 613.264 36.1825C613.435 36.1825 613.584 36.1707 613.712 36.147C613.839 36.1233 613.939 36.1044 614.01 36.0902L614.393 37.8445C614.27 37.8918 614.095 37.9392 613.868 37.9865C613.641 38.0386 613.356 38.067 613.016 38.0717C612.457 38.0812 611.936 37.9818 611.453 37.7734C610.97 37.5651 610.579 37.2431 610.281 36.8075C609.983 36.3719 609.834 35.825 609.834 35.1669V24.407ZM632.251 27.9794C632.113 27.5485 631.929 27.1626 631.697 26.8217C631.469 26.4761 631.197 26.1825 630.88 25.9411C630.563 25.6948 630.201 25.5078 629.793 25.38C629.391 25.2521 628.948 25.1882 628.465 25.1882C627.646 25.1882 626.907 25.3989 626.249 25.8203C625.591 26.2417 625.07 26.8596 624.687 27.674C624.308 28.4837 624.119 29.4756 624.119 30.6499C624.119 31.8288 624.31 32.8255 624.694 33.6399C625.077 34.4543 625.603 35.0722 626.271 35.4936C626.938 35.915 627.698 36.1257 628.55 36.1257C629.341 36.1257 630.03 35.9647 630.617 35.6428C631.209 35.3208 631.666 34.8662 631.988 34.2791C632.315 33.6873 632.478 32.9912 632.478 32.1911L633.046 32.2976H628.884V30.4865H634.602V32.1413C634.602 33.3629 634.341 34.4235 633.82 35.3232C633.304 36.218 632.589 36.9093 631.675 37.397C630.766 37.8847 629.725 38.1286 628.55 38.1286C627.234 38.1286 626.079 37.8255 625.085 37.2195C624.095 36.6134 623.323 35.754 622.769 34.6413C622.215 33.5239 621.938 32.1982 621.938 30.6641C621.938 29.504 622.099 28.4624 622.421 27.5391C622.743 26.6158 623.195 25.8321 623.778 25.1882C624.365 24.5395 625.054 24.0447 625.844 23.7038C626.64 23.3582 627.509 23.1854 628.451 23.1854C629.237 23.1854 629.969 23.3014 630.646 23.5334C631.327 23.7654 631.934 24.0945 632.464 24.5206C632.999 24.9467 633.442 25.4534 633.792 26.0405C634.142 26.6229 634.379 27.2692 634.502 27.9794H632.251ZM642.012 38.1499C640.989 38.1499 640.097 37.9155 639.335 37.4467C638.572 36.978 637.98 36.3222 637.559 35.4794C637.138 34.6366 636.927 33.6518 636.927 32.5249C636.927 31.3932 637.138 30.4036 637.559 29.5561C637.98 28.7086 638.572 28.0504 639.335 27.5817C640.097 27.1129 640.989 26.8786 642.012 26.8786C643.035 26.8786 643.927 27.1129 644.69 27.5817C645.452 28.0504 646.044 28.7086 646.465 29.5561C646.887 30.4036 647.097 31.3932 647.097 32.5249C647.097 33.6518 646.887 34.6366 646.465 35.4794C646.044 36.3222 645.452 36.978 644.69 37.4467C643.927 37.9155 643.035 38.1499 642.012 38.1499ZM642.019 36.3672C642.682 36.3672 643.231 36.192 643.667 35.8416C644.103 35.4912 644.425 35.0249 644.633 34.4425C644.846 33.8601 644.953 33.2185 644.953 32.5178C644.953 31.8217 644.846 31.1825 644.633 30.6001C644.425 30.013 644.103 29.5419 643.667 29.1868C643.231 28.8317 642.682 28.6541 642.019 28.6541C641.352 28.6541 640.798 28.8317 640.357 29.1868C639.922 29.5419 639.597 30.013 639.384 30.6001C639.176 31.1825 639.072 31.8217 639.072 32.5178C639.072 33.2185 639.176 33.8601 639.384 34.4425C639.597 35.0249 639.922 35.4912 640.357 35.8416C640.798 36.192 641.352 36.3672 642.019 36.3672ZM654.263 38.1499C653.24 38.1499 652.348 37.9155 651.585 37.4467C650.823 36.978 650.231 36.3222 649.81 35.4794C649.388 34.6366 649.178 33.6518 649.178 32.5249C649.178 31.3932 649.388 30.4036 649.81 29.5561C650.231 28.7086 650.823 28.0504 651.585 27.5817C652.348 27.1129 653.24 26.8786 654.263 26.8786C655.286 26.8786 656.178 27.1129 656.941 27.5817C657.703 28.0504 658.295 28.7086 658.716 29.5561C659.137 30.4036 659.348 31.3932 659.348 32.5249C659.348 33.6518 659.137 34.6366 658.716 35.4794C658.295 36.3222 657.703 36.978 656.941 37.4467C656.178 37.9155 655.286 38.1499 654.263 38.1499ZM654.27 36.3672C654.933 36.3672 655.482 36.192 655.918 35.8416C656.353 35.4912 656.675 35.0249 656.884 34.4425C657.097 33.8601 657.203 33.2185 657.203 32.5178C657.203 31.8217 657.097 31.1825 656.884 30.6001C656.675 30.013 656.353 29.5419 655.918 29.1868C655.482 28.8317 654.933 28.6541 654.27 28.6541C653.602 28.6541 653.048 28.8317 652.608 29.1868C652.173 29.5419 651.848 30.013 651.635 30.6001C651.427 31.1825 651.323 31.8217 651.323 32.5178C651.323 33.2185 651.427 33.8601 651.635 34.4425C651.848 35.0249 652.173 35.4912 652.608 35.8416C653.048 36.192 653.602 36.3672 654.27 36.3672ZM666.492 42.2479C665.626 42.2479 664.88 42.1342 664.255 41.907C663.635 41.6797 663.128 41.379 662.735 41.005C662.342 40.6309 662.049 40.2214 661.855 39.7763L663.68 39.0234C663.808 39.2318 663.978 39.4519 664.191 39.6839C664.409 39.9207 664.703 40.1219 665.072 40.2876C665.446 40.4534 665.927 40.5362 666.514 40.5362C667.319 40.5362 667.984 40.3397 668.509 39.9467C669.035 39.5585 669.298 38.9382 669.298 38.0859V35.9411H669.163C669.035 36.1731 668.85 36.4311 668.609 36.7152C668.372 36.9993 668.045 37.2455 667.629 37.4538C667.212 37.6622 666.67 37.7663 666.002 37.7663C665.141 37.7663 664.364 37.5651 663.673 37.1626C662.986 36.7554 662.442 36.1565 662.039 35.3658C661.642 34.5703 661.443 33.5926 661.443 32.4325C661.443 31.2725 661.639 30.2782 662.032 29.4496C662.43 28.621 662.974 27.9865 663.666 27.5462C664.357 27.1011 665.141 26.8786 666.017 26.8786C666.694 26.8786 667.241 26.9922 667.657 27.2195C668.074 27.442 668.398 27.7024 668.63 28.0007C668.867 28.299 669.049 28.5618 669.177 28.7891H669.333V27.0206H671.414V38.1712C671.414 39.1087 671.197 39.8781 670.761 40.4794C670.325 41.0807 669.736 41.5258 668.992 41.8146C668.254 42.1035 667.42 42.2479 666.492 42.2479ZM666.471 36.005C667.082 36.005 667.598 35.8629 668.019 35.5788C668.446 35.29 668.768 34.8781 668.985 34.343C669.208 33.8033 669.319 33.157 669.319 32.4041C669.319 31.6702 669.21 31.0239 668.992 30.4652C668.775 29.9065 668.455 29.4709 668.034 29.1584C667.612 28.8411 667.091 28.6825 666.471 28.6825C665.832 28.6825 665.299 28.8482 664.873 29.1797C664.447 29.5064 664.125 29.9515 663.907 30.5149C663.694 31.0784 663.588 31.7081 663.588 32.4041C663.588 33.1191 663.697 33.7464 663.914 34.2862C664.132 34.826 664.454 35.2474 664.88 35.5504C665.311 35.8535 665.841 36.005 666.471 36.005ZM676.586 23.3842V37.9297H674.462V23.3842H676.586ZM684.345 38.1499C683.27 38.1499 682.344 37.9202 681.568 37.4609C680.796 36.9969 680.199 36.3459 679.778 35.5078C679.361 34.665 679.153 33.6778 679.153 32.5462C679.153 31.4287 679.361 30.4439 679.778 29.5916C680.199 28.7393 680.786 28.0741 681.539 27.5959C682.297 27.1177 683.182 26.8786 684.195 26.8786C684.811 26.8786 685.407 26.9804 685.985 27.1839C686.563 27.3875 687.081 27.7071 687.541 28.1428C688 28.5784 688.362 29.1442 688.627 29.8402C688.892 30.5315 689.025 31.3719 689.025 32.3615V33.1143H680.353V31.5234H686.944C686.944 30.9647 686.83 30.4699 686.603 30.0391C686.376 29.6035 686.056 29.2602 685.644 29.0092C685.237 28.7583 684.759 28.6328 684.21 28.6328C683.613 28.6328 683.092 28.7796 682.647 29.0732C682.207 29.362 681.866 29.7408 681.624 30.2095C681.388 30.6735 681.269 31.1778 681.269 31.7223V32.9652C681.269 33.6944 681.397 34.3146 681.653 34.826C681.913 35.3374 682.275 35.728 682.739 35.9979C683.203 36.263 683.746 36.3956 684.366 36.3956C684.768 36.3956 685.135 36.3388 685.467 36.2251C685.798 36.1068 686.085 35.9316 686.326 35.6996C686.568 35.4676 686.752 35.1811 686.88 34.8402L688.89 35.2024C688.729 35.7943 688.44 36.3127 688.023 36.7578C687.612 37.1982 687.093 37.5414 686.468 37.7876C685.848 38.0291 685.14 38.1499 684.345 38.1499Z" fill="#203644"/>
<rect x="8" y="104.93" width="370" height="60" rx="30" fill="#009DE0"/>
<path d="M78.2718 127.384H80.9352L85.5659 138.691H85.7363L90.367 127.384H93.0304V141.93H90.9423V131.404H90.8074L86.5176 141.908H84.7846L80.4949 131.397H80.3599V141.93H78.2718V127.384ZM96.2506 141.93V131.021H98.3742V141.93H96.2506ZM97.323 129.337C96.9537 129.337 96.6365 129.214 96.3713 128.968C96.1109 128.717 95.9807 128.419 95.9807 128.073C95.9807 127.723 96.1109 127.424 96.3713 127.178C96.6365 126.927 96.9537 126.802 97.323 126.802C97.6924 126.802 98.0072 126.927 98.2677 127.178C98.5328 127.424 98.6654 127.723 98.6654 128.073C98.6654 128.419 98.5328 128.717 98.2677 128.968C98.0072 129.214 97.6924 129.337 97.323 129.337ZM106.523 131.021V132.725H100.565V131.021H106.523ZM102.163 128.407H104.286V138.727C104.286 139.138 104.348 139.449 104.471 139.657C104.594 139.861 104.753 140 104.947 140.076C105.146 140.147 105.361 140.183 105.593 140.183C105.763 140.183 105.913 140.171 106.04 140.147C106.168 140.123 106.268 140.104 106.339 140.09L106.722 141.844C106.599 141.892 106.424 141.939 106.197 141.987C105.969 142.039 105.685 142.067 105.344 142.072C104.786 142.081 104.265 141.982 103.782 141.773C103.299 141.565 102.908 141.243 102.61 140.808C102.312 140.372 102.163 139.825 102.163 139.167V128.407ZM114.736 141.93V127.384H123.756V129.273H116.931V133.705H123.109V135.587H116.931V141.93H114.736ZM129.62 142.171C128.929 142.171 128.304 142.043 127.745 141.788C127.186 141.527 126.743 141.151 126.417 140.658C126.095 140.166 125.934 139.562 125.934 138.847C125.934 138.232 126.052 137.725 126.289 137.327C126.526 136.93 126.845 136.615 127.248 136.383C127.65 136.151 128.1 135.976 128.597 135.857C129.094 135.739 129.601 135.649 130.117 135.587C130.77 135.512 131.301 135.45 131.708 135.403C132.115 135.351 132.411 135.268 132.596 135.154C132.78 135.04 132.873 134.856 132.873 134.6V134.55C132.873 133.93 132.698 133.45 132.347 133.109C132.001 132.768 131.485 132.597 130.799 132.597C130.084 132.597 129.52 132.756 129.108 133.073C128.701 133.386 128.42 133.734 128.263 134.117L126.268 133.663C126.504 133 126.85 132.465 127.305 132.058C127.764 131.646 128.292 131.347 128.888 131.163C129.485 130.973 130.112 130.879 130.77 130.879C131.206 130.879 131.668 130.931 132.155 131.035C132.648 131.134 133.107 131.319 133.533 131.589C133.964 131.859 134.317 132.245 134.591 132.746C134.866 133.244 135.003 133.89 135.003 134.685V141.93H132.93V140.438H132.844C132.707 140.713 132.501 140.983 132.226 141.248C131.952 141.513 131.599 141.733 131.168 141.908C130.737 142.084 130.221 142.171 129.62 142.171ZM130.081 140.467C130.669 140.467 131.171 140.351 131.587 140.119C132.009 139.887 132.328 139.584 132.546 139.21C132.769 138.831 132.88 138.426 132.88 137.995V136.589C132.804 136.665 132.657 136.736 132.439 136.802C132.226 136.863 131.983 136.918 131.708 136.965C131.433 137.008 131.166 137.048 130.905 137.086C130.645 137.119 130.427 137.147 130.252 137.171C129.84 137.223 129.464 137.311 129.123 137.434C128.787 137.557 128.517 137.735 128.313 137.967C128.114 138.194 128.015 138.497 128.015 138.876C128.015 139.401 128.209 139.799 128.597 140.069C128.985 140.334 129.48 140.467 130.081 140.467ZM142.627 142.15C141.571 142.15 140.662 141.911 139.9 141.433C139.142 140.95 138.56 140.284 138.153 139.437C137.745 138.589 137.542 137.619 137.542 136.525C137.542 135.417 137.75 134.439 138.167 133.592C138.583 132.739 139.171 132.074 139.928 131.596C140.686 131.118 141.578 130.879 142.606 130.879C143.434 130.879 144.173 131.032 144.822 131.34C145.47 131.643 145.994 132.069 146.391 132.619C146.794 133.168 147.033 133.809 147.109 134.543H145.042C144.928 134.032 144.668 133.592 144.261 133.222C143.858 132.853 143.318 132.668 142.641 132.668C142.049 132.668 141.531 132.825 141.086 133.137C140.645 133.445 140.302 133.885 140.056 134.458C139.81 135.026 139.687 135.699 139.687 136.475C139.687 137.271 139.807 137.957 140.049 138.535C140.29 139.112 140.631 139.56 141.072 139.877C141.517 140.194 142.04 140.353 142.641 140.353C143.044 140.353 143.408 140.28 143.735 140.133C144.066 139.981 144.343 139.766 144.566 139.487C144.793 139.207 144.952 138.871 145.042 138.478H147.109C147.033 139.183 146.803 139.813 146.42 140.367C146.036 140.921 145.522 141.357 144.878 141.674C144.239 141.991 143.489 142.15 142.627 142.15ZM154.281 142.15C153.206 142.15 152.281 141.92 151.504 141.461C150.732 140.997 150.136 140.346 149.714 139.508C149.298 138.665 149.089 137.678 149.089 136.546C149.089 135.429 149.298 134.444 149.714 133.592C150.136 132.739 150.723 132.074 151.476 131.596C152.233 131.118 153.119 130.879 154.132 130.879C154.748 130.879 155.344 130.98 155.922 131.184C156.499 131.388 157.018 131.707 157.477 132.143C157.937 132.578 158.299 133.144 158.564 133.84C158.829 134.531 158.962 135.372 158.962 136.362V137.114H150.29V135.523H156.881C156.881 134.965 156.767 134.47 156.54 134.039C156.312 133.603 155.993 133.26 155.581 133.009C155.174 132.758 154.696 132.633 154.146 132.633C153.55 132.633 153.029 132.78 152.584 133.073C152.143 133.362 151.803 133.741 151.561 134.21C151.324 134.674 151.206 135.178 151.206 135.722V136.965C151.206 137.694 151.334 138.315 151.589 138.826C151.85 139.337 152.212 139.728 152.676 139.998C153.14 140.263 153.682 140.396 154.303 140.396C154.705 140.396 155.072 140.339 155.403 140.225C155.735 140.107 156.021 139.932 156.263 139.7C156.504 139.468 156.689 139.181 156.817 138.84L158.827 139.202C158.666 139.794 158.377 140.313 157.96 140.758C157.548 141.198 157.03 141.541 156.405 141.788C155.785 142.029 155.077 142.15 154.281 142.15ZM161.688 141.93V127.384H163.812V132.789H163.94C164.063 132.562 164.24 132.299 164.472 132.001C164.704 131.702 165.026 131.442 165.438 131.219C165.85 130.992 166.395 130.879 167.072 130.879C167.952 130.879 168.738 131.101 169.43 131.546C170.121 131.991 170.663 132.633 171.056 133.471C171.454 134.309 171.653 135.317 171.653 136.496C171.653 137.675 171.456 138.686 171.063 139.529C170.67 140.367 170.13 141.013 169.444 141.468C168.757 141.918 167.974 142.143 167.093 142.143C166.43 142.143 165.888 142.031 165.467 141.809C165.05 141.586 164.723 141.326 164.487 141.028C164.25 140.729 164.068 140.464 163.94 140.232H163.762V141.93H161.688ZM163.769 136.475C163.769 137.242 163.88 137.915 164.103 138.492C164.326 139.07 164.648 139.522 165.069 139.849C165.49 140.171 166.006 140.332 166.617 140.332C167.252 140.332 167.782 140.164 168.208 139.827C168.634 139.487 168.956 139.025 169.174 138.442C169.397 137.86 169.508 137.204 169.508 136.475C169.508 135.755 169.399 135.109 169.181 134.536C168.968 133.963 168.646 133.511 168.215 133.18C167.789 132.848 167.256 132.683 166.617 132.683C166.002 132.683 165.481 132.841 165.055 133.158C164.633 133.476 164.314 133.918 164.096 134.487C163.878 135.055 163.769 135.718 163.769 136.475ZM178.832 142.15C177.81 142.15 176.917 141.915 176.155 141.447C175.393 140.978 174.801 140.322 174.379 139.479C173.958 138.637 173.747 137.652 173.747 136.525C173.747 135.393 173.958 134.404 174.379 133.556C174.801 132.709 175.393 132.05 176.155 131.582C176.917 131.113 177.81 130.879 178.832 130.879C179.855 130.879 180.748 131.113 181.51 131.582C182.272 132.05 182.864 132.709 183.286 133.556C183.707 134.404 183.918 135.393 183.918 136.525C183.918 137.652 183.707 138.637 183.286 139.479C182.864 140.322 182.272 140.978 181.51 141.447C180.748 141.915 179.855 142.15 178.832 142.15ZM178.84 140.367C179.502 140.367 180.052 140.192 180.487 139.842C180.923 139.491 181.245 139.025 181.453 138.442C181.666 137.86 181.773 137.219 181.773 136.518C181.773 135.822 181.666 135.183 181.453 134.6C181.245 134.013 180.923 133.542 180.487 133.187C180.052 132.832 179.502 132.654 178.84 132.654C178.172 132.654 177.618 132.832 177.178 133.187C176.742 133.542 176.418 134.013 176.205 134.6C175.996 135.183 175.892 135.822 175.892 136.518C175.892 137.219 175.996 137.86 176.205 138.442C176.418 139.025 176.742 139.491 177.178 139.842C177.618 140.192 178.172 140.367 178.84 140.367ZM191.083 142.15C190.061 142.15 189.168 141.915 188.406 141.447C187.643 140.978 187.052 140.322 186.63 139.479C186.209 138.637 185.998 137.652 185.998 136.525C185.998 135.393 186.209 134.404 186.63 133.556C187.052 132.709 187.643 132.05 188.406 131.582C189.168 131.113 190.061 130.879 191.083 130.879C192.106 130.879 192.999 131.113 193.761 131.582C194.523 132.05 195.115 132.709 195.536 133.556C195.958 134.404 196.169 135.393 196.169 136.525C196.169 137.652 195.958 138.637 195.536 139.479C195.115 140.322 194.523 140.978 193.761 141.447C192.999 141.915 192.106 142.15 191.083 142.15ZM191.09 140.367C191.753 140.367 192.302 140.192 192.738 139.842C193.174 139.491 193.496 139.025 193.704 138.442C193.917 137.86 194.024 137.219 194.024 136.518C194.024 135.822 193.917 135.183 193.704 134.6C193.496 134.013 193.174 133.542 192.738 133.187C192.302 132.832 191.753 132.654 191.09 132.654C190.423 132.654 189.869 132.832 189.428 133.187C188.993 133.542 188.669 134.013 188.455 134.6C188.247 135.183 188.143 135.822 188.143 136.518C188.143 137.219 188.247 137.86 188.455 138.442C188.669 139.025 188.993 139.491 189.428 139.842C189.869 140.192 190.423 140.367 191.09 140.367ZM200.692 138.229L200.678 135.637H201.047L205.394 131.021H207.936L202.979 136.276H202.645L200.692 138.229ZM198.739 141.93V127.384H200.862V141.93H198.739ZM205.628 141.93L201.722 136.745L203.185 135.261L208.235 141.93H205.628ZM218.739 142.171C218.048 142.171 217.423 142.043 216.864 141.788C216.306 141.527 215.863 141.151 215.536 140.658C215.214 140.166 215.053 139.562 215.053 138.847C215.053 138.232 215.172 137.725 215.408 137.327C215.645 136.93 215.965 136.615 216.367 136.383C216.77 136.151 217.22 135.976 217.717 135.857C218.214 135.739 218.72 135.649 219.237 135.587C219.89 135.512 220.42 135.45 220.827 135.403C221.235 135.351 221.531 135.268 221.715 135.154C221.9 135.04 221.992 134.856 221.992 134.6V134.55C221.992 133.93 221.817 133.45 221.467 133.109C221.121 132.768 220.605 132.597 219.918 132.597C219.203 132.597 218.64 132.756 218.228 133.073C217.821 133.386 217.539 133.734 217.383 134.117L215.387 133.663C215.624 133 215.97 132.465 216.424 132.058C216.883 131.646 217.411 131.347 218.008 131.163C218.604 130.973 219.232 130.879 219.89 130.879C220.326 130.879 220.787 130.931 221.275 131.035C221.767 131.134 222.227 131.319 222.653 131.589C223.084 131.859 223.436 132.245 223.711 132.746C223.986 133.244 224.123 133.89 224.123 134.685V141.93H222.049V140.438H221.964C221.827 140.713 221.621 140.983 221.346 141.248C221.071 141.513 220.719 141.733 220.288 141.908C219.857 142.084 219.341 142.171 218.739 142.171ZM219.201 140.467C219.788 140.467 220.29 140.351 220.707 140.119C221.128 139.887 221.448 139.584 221.666 139.21C221.888 138.831 221.999 138.426 221.999 137.995V136.589C221.924 136.665 221.777 136.736 221.559 136.802C221.346 136.863 221.102 136.918 220.827 136.965C220.553 137.008 220.285 137.048 220.025 137.086C219.764 137.119 219.547 137.147 219.371 137.171C218.96 137.223 218.583 137.311 218.242 137.434C217.906 137.557 217.636 137.735 217.433 137.967C217.234 138.194 217.134 138.497 217.134 138.876C217.134 139.401 217.328 139.799 217.717 140.069C218.105 140.334 218.6 140.467 219.201 140.467ZM229.275 135.452V141.93H227.151V131.021H229.19V132.796H229.325C229.576 132.219 229.969 131.754 230.504 131.404C231.043 131.054 231.723 130.879 232.542 130.879C233.285 130.879 233.936 131.035 234.495 131.347C235.054 131.655 235.487 132.114 235.795 132.725C236.103 133.336 236.257 134.091 236.257 134.991V141.93H234.133V135.246C234.133 134.456 233.927 133.838 233.515 133.393C233.103 132.943 232.537 132.718 231.818 132.718C231.325 132.718 230.887 132.825 230.504 133.038C230.125 133.251 229.824 133.563 229.602 133.975C229.384 134.382 229.275 134.875 229.275 135.452ZM239.305 141.93V131.021H241.343V132.796H241.478C241.705 132.195 242.077 131.726 242.593 131.39C243.109 131.049 243.727 130.879 244.447 130.879C245.176 130.879 245.787 131.049 246.279 131.39C246.776 131.731 247.143 132.2 247.38 132.796H247.493C247.754 132.214 248.168 131.75 248.736 131.404C249.305 131.054 249.982 130.879 250.768 130.879C251.757 130.879 252.564 131.189 253.189 131.809C253.819 132.429 254.134 133.364 254.134 134.614V141.93H252.01V134.813C252.01 134.075 251.809 133.54 251.407 133.208C251.004 132.877 250.524 132.711 249.965 132.711C249.274 132.711 248.736 132.924 248.353 133.35C247.969 133.772 247.778 134.314 247.778 134.977V141.93H245.661V134.678C245.661 134.086 245.476 133.611 245.107 133.251C244.738 132.891 244.257 132.711 243.665 132.711C243.263 132.711 242.891 132.817 242.55 133.031C242.214 133.239 241.942 133.53 241.733 133.904C241.53 134.278 241.428 134.711 241.428 135.204V141.93H239.305ZM261.882 142.15C260.807 142.15 259.882 141.92 259.105 141.461C258.333 140.997 257.737 140.346 257.315 139.508C256.899 138.665 256.69 137.678 256.69 136.546C256.69 135.429 256.899 134.444 257.315 133.592C257.737 132.739 258.324 132.074 259.077 131.596C259.834 131.118 260.72 130.879 261.733 130.879C262.348 130.879 262.945 130.98 263.523 131.184C264.1 131.388 264.619 131.707 265.078 132.143C265.537 132.578 265.9 133.144 266.165 133.84C266.43 134.531 266.562 135.372 266.562 136.362V137.114H257.891V135.523H264.481C264.481 134.965 264.368 134.47 264.141 134.039C263.913 133.603 263.594 133.26 263.182 133.009C262.775 132.758 262.296 132.633 261.747 132.633C261.15 132.633 260.63 132.78 260.185 133.073C259.744 133.362 259.403 133.741 259.162 134.21C258.925 134.674 258.807 135.178 258.807 135.722V136.965C258.807 137.694 258.935 138.315 259.19 138.826C259.451 139.337 259.813 139.728 260.277 139.998C260.741 140.263 261.283 140.396 261.903 140.396C262.306 140.396 262.673 140.339 263.004 140.225C263.336 140.107 263.622 139.932 263.864 139.7C264.105 139.468 264.29 139.181 264.418 138.84L266.427 139.202C266.266 139.794 265.978 140.313 265.561 140.758C265.149 141.198 264.631 141.541 264.006 141.788C263.385 142.029 262.677 142.15 261.882 142.15ZM271.242 127.384V141.93H269.119V127.384H271.242ZM278.383 142.143C277.502 142.143 276.716 141.918 276.025 141.468C275.338 141.013 274.799 140.367 274.406 139.529C274.017 138.686 273.823 137.675 273.823 136.496C273.823 135.317 274.02 134.309 274.413 133.471C274.81 132.633 275.355 131.991 276.046 131.546C276.737 131.101 277.521 130.879 278.397 130.879C279.074 130.879 279.619 130.992 280.031 131.219C280.447 131.442 280.769 131.702 280.996 132.001C281.228 132.299 281.408 132.562 281.536 132.789H281.664V127.384H283.788V141.93H281.714V140.232H281.536C281.408 140.464 281.224 140.729 280.982 141.028C280.746 141.326 280.419 141.586 280.002 141.809C279.586 142.031 279.046 142.143 278.383 142.143ZM278.852 140.332C279.462 140.332 279.978 140.171 280.4 139.849C280.826 139.522 281.148 139.07 281.366 138.492C281.588 137.915 281.7 137.242 281.7 136.475C281.7 135.718 281.591 135.055 281.373 134.487C281.155 133.918 280.836 133.476 280.414 133.158C279.993 132.841 279.472 132.683 278.852 132.683C278.212 132.683 277.68 132.848 277.254 133.18C276.827 133.511 276.505 133.963 276.288 134.536C276.075 135.109 275.968 135.755 275.968 136.475C275.968 137.204 276.077 137.86 276.295 138.442C276.513 139.025 276.835 139.487 277.261 139.827C277.692 140.164 278.222 140.332 278.852 140.332ZM291.72 142.15C290.645 142.15 289.72 141.92 288.943 141.461C288.172 140.997 287.575 140.346 287.154 139.508C286.737 138.665 286.529 137.678 286.529 136.546C286.529 135.429 286.737 134.444 287.154 133.592C287.575 132.739 288.162 132.074 288.915 131.596C289.672 131.118 290.558 130.879 291.571 130.879C292.187 130.879 292.783 130.98 293.361 131.184C293.939 131.388 294.457 131.707 294.916 132.143C295.376 132.578 295.738 133.144 296.003 133.84C296.268 134.531 296.401 135.372 296.401 136.362V137.114H287.729V135.523H294.32C294.32 134.965 294.206 134.47 293.979 134.039C293.752 133.603 293.432 133.26 293.02 133.009C292.613 132.758 292.135 132.633 291.585 132.633C290.989 132.633 290.468 132.78 290.023 133.073C289.582 133.362 289.242 133.741 289 134.21C288.763 134.674 288.645 135.178 288.645 135.722V136.965C288.645 137.694 288.773 138.315 289.029 138.826C289.289 139.337 289.651 139.728 290.115 139.998C290.579 140.263 291.121 140.396 291.742 140.396C292.144 140.396 292.511 140.339 292.842 140.225C293.174 140.107 293.46 139.932 293.702 139.7C293.943 139.468 294.128 139.181 294.256 138.84L296.266 139.202C296.105 139.794 295.816 140.313 295.399 140.758C294.987 141.198 294.469 141.541 293.844 141.788C293.224 142.029 292.516 142.15 291.72 142.15ZM301.08 135.452V141.93H298.957V131.021H300.995V132.796H301.13C301.381 132.219 301.774 131.754 302.309 131.404C302.849 131.054 303.528 130.879 304.347 130.879C305.091 130.879 305.742 131.035 306.301 131.347C306.859 131.655 307.293 132.114 307.6 132.725C307.908 133.336 308.062 134.091 308.062 134.991V141.93H305.938V135.246C305.938 134.456 305.732 133.838 305.32 133.393C304.909 132.943 304.343 132.718 303.623 132.718C303.131 132.718 302.693 132.825 302.309 133.038C301.93 133.251 301.63 133.563 301.407 133.975C301.189 134.382 301.08 134.875 301.08 135.452Z" fill="#203644"/>
<rect x="416" y="104.93" width="370" height="60" rx="30" fill="#FFA500"/>
<path d="M496.534 127.384H499.198L503.828 138.691H503.999L508.629 127.384H511.293V141.93H509.205V131.404H509.07L504.78 141.908H503.047L498.757 131.397H498.622V141.93H496.534V127.384ZM514.513 141.93V131.021H516.637V141.93H514.513ZM515.586 129.337C515.216 129.337 514.899 129.214 514.634 128.968C514.373 128.717 514.243 128.419 514.243 128.073C514.243 127.723 514.373 127.424 514.634 127.178C514.899 126.927 515.216 126.802 515.586 126.802C515.955 126.802 516.27 126.927 516.53 127.178C516.795 127.424 516.928 127.723 516.928 128.073C516.928 128.419 516.795 128.717 516.53 128.968C516.27 129.214 515.955 129.337 515.586 129.337ZM524.786 131.021V132.725H518.827V131.021H524.786ZM520.425 128.407H522.549V138.727C522.549 139.138 522.61 139.449 522.733 139.657C522.856 139.861 523.015 140 523.209 140.076C523.408 140.147 523.623 140.183 523.855 140.183C524.026 140.183 524.175 140.171 524.303 140.147C524.431 140.123 524.53 140.104 524.601 140.09L524.985 141.844C524.862 141.892 524.686 141.939 524.459 141.987C524.232 142.039 523.948 142.067 523.607 142.072C523.048 142.081 522.527 141.982 522.044 141.773C521.561 141.565 521.171 141.243 520.873 140.808C520.574 140.372 520.425 139.825 520.425 139.167V128.407ZM532.998 141.93V127.384H542.118V129.273H535.193V133.705H541.642V135.587H535.193V140.04H542.203V141.93H532.998ZM551.506 133.734V135.58H545.057V133.734H551.506ZM554.707 141.93V127.384H563.826V129.273H556.902V133.705H563.35V135.587H556.902V140.04H563.912V141.93H554.707ZM566.787 141.93V131.021H568.826V132.796H568.961C569.188 132.195 569.56 131.726 570.076 131.39C570.592 131.049 571.21 130.879 571.929 130.879C572.659 130.879 573.269 131.049 573.762 131.39C574.259 131.731 574.626 132.2 574.863 132.796H574.976C575.237 132.214 575.651 131.75 576.219 131.404C576.787 131.054 577.464 130.879 578.25 130.879C579.24 130.879 580.047 131.189 580.672 131.809C581.302 132.429 581.617 133.364 581.617 134.614V141.93H579.493V134.813C579.493 134.075 579.292 133.54 578.89 133.208C578.487 132.877 578.007 132.711 577.448 132.711C576.757 132.711 576.219 132.924 575.836 133.35C575.452 133.772 575.26 134.314 575.26 134.977V141.93H573.144V134.678C573.144 134.086 572.959 133.611 572.59 133.251C572.221 132.891 571.74 132.711 571.148 132.711C570.746 132.711 570.374 132.817 570.033 133.031C569.697 133.239 569.425 133.53 569.216 133.904C569.013 134.278 568.911 134.711 568.911 135.204V141.93H566.787ZM587.838 142.171C587.146 142.171 586.521 142.043 585.963 141.788C585.404 141.527 584.961 141.151 584.635 140.658C584.313 140.166 584.152 139.562 584.152 138.847C584.152 138.232 584.27 137.725 584.507 137.327C584.744 136.93 585.063 136.615 585.466 136.383C585.868 136.151 586.318 135.976 586.815 135.857C587.312 135.739 587.819 135.649 588.335 135.587C588.988 135.512 589.519 135.45 589.926 135.403C590.333 135.351 590.629 135.268 590.814 135.154C590.998 135.04 591.091 134.856 591.091 134.6V134.55C591.091 133.93 590.915 133.45 590.565 133.109C590.219 132.768 589.703 132.597 589.017 132.597C588.302 132.597 587.738 132.756 587.326 133.073C586.919 133.386 586.638 133.734 586.481 134.117L584.486 133.663C584.722 133 585.068 132.465 585.522 132.058C585.982 131.646 586.51 131.347 587.106 131.163C587.703 130.973 588.33 130.879 588.988 130.879C589.424 130.879 589.886 130.931 590.373 131.035C590.866 131.134 591.325 131.319 591.751 131.589C592.182 131.859 592.535 132.245 592.809 132.746C593.084 133.244 593.221 133.89 593.221 134.685V141.93H591.147V140.438H591.062C590.925 140.713 590.719 140.983 590.444 141.248C590.17 141.513 589.817 141.733 589.386 141.908C588.955 142.084 588.439 142.171 587.838 142.171ZM588.299 140.467C588.887 140.467 589.388 140.351 589.805 140.119C590.227 139.887 590.546 139.584 590.764 139.21C590.986 138.831 591.098 138.426 591.098 137.995V136.589C591.022 136.665 590.875 136.736 590.657 136.802C590.444 136.863 590.2 136.918 589.926 136.965C589.651 137.008 589.384 137.048 589.123 137.086C588.863 137.119 588.645 137.147 588.47 137.171C588.058 137.223 587.682 137.311 587.341 137.434C587.004 137.557 586.735 137.735 586.531 137.967C586.332 138.194 586.233 138.497 586.233 138.876C586.233 139.401 586.427 139.799 586.815 140.069C587.203 140.334 587.698 140.467 588.299 140.467ZM596.25 141.93V131.021H598.373V141.93H596.25ZM597.322 129.337C596.953 129.337 596.636 129.214 596.371 128.968C596.11 128.717 595.98 128.419 595.98 128.073C595.98 127.723 596.11 127.424 596.371 127.178C596.636 126.927 596.953 126.802 597.322 126.802C597.692 126.802 598.006 126.927 598.267 127.178C598.532 127.424 598.665 127.723 598.665 128.073C598.665 128.419 598.532 128.717 598.267 128.968C598.006 129.214 597.692 129.337 597.322 129.337ZM603.554 127.384V141.93H601.43V127.384H603.554ZM615.278 142.171C614.587 142.171 613.962 142.043 613.403 141.788C612.845 141.527 612.402 141.151 612.075 140.658C611.753 140.166 611.592 139.562 611.592 138.847C611.592 138.232 611.711 137.725 611.947 137.327C612.184 136.93 612.504 136.615 612.906 136.383C613.309 136.151 613.759 135.976 614.256 135.857C614.753 135.739 615.259 135.649 615.776 135.587C616.429 135.512 616.959 135.45 617.366 135.403C617.774 135.351 618.07 135.268 618.254 135.154C618.439 135.04 618.531 134.856 618.531 134.6V134.55C618.531 133.93 618.356 133.45 618.006 133.109C617.66 132.768 617.144 132.597 616.457 132.597C615.742 132.597 615.179 132.756 614.767 133.073C614.36 133.386 614.078 133.734 613.922 134.117L611.926 133.663C612.163 133 612.509 132.465 612.963 132.058C613.422 131.646 613.95 131.347 614.547 131.163C615.143 130.973 615.771 130.879 616.429 130.879C616.865 130.879 617.326 130.931 617.814 131.035C618.306 131.134 618.766 131.319 619.192 131.589C619.623 131.859 619.975 132.245 620.25 132.746C620.525 133.244 620.662 133.89 620.662 134.685V141.93H618.588V140.438H618.503C618.366 140.713 618.16 140.983 617.885 141.248C617.61 141.513 617.258 141.733 616.827 141.908C616.396 142.084 615.88 142.171 615.278 142.171ZM615.74 140.467C616.327 140.467 616.829 140.351 617.246 140.119C617.667 139.887 617.987 139.584 618.205 139.21C618.427 138.831 618.538 138.426 618.538 137.995V136.589C618.463 136.665 618.316 136.736 618.098 136.802C617.885 136.863 617.641 136.918 617.366 136.965C617.092 137.008 616.824 137.048 616.564 137.086C616.304 137.119 616.086 137.147 615.911 137.171C615.499 137.223 615.122 137.311 614.781 137.434C614.445 137.557 614.175 137.735 613.972 137.967C613.773 138.194 613.673 138.497 613.673 138.876C613.673 139.401 613.867 139.799 614.256 140.069C614.644 140.334 615.139 140.467 615.74 140.467ZM625.814 135.452V141.93H623.69V131.021H625.729V132.796H625.864C626.115 132.219 626.508 131.754 627.043 131.404C627.582 131.054 628.262 130.879 629.081 130.879C629.824 130.879 630.475 131.035 631.034 131.347C631.593 131.655 632.026 132.114 632.334 132.725C632.642 133.336 632.796 134.091 632.796 134.991V141.93H630.672V135.246C630.672 134.456 630.466 133.838 630.054 133.393C629.642 132.943 629.076 132.718 628.357 132.718C627.864 132.718 627.426 132.825 627.043 133.038C626.664 133.251 626.363 133.563 626.141 133.975C625.923 134.382 625.814 134.875 625.814 135.452ZM635.844 141.93V131.021H637.882V132.796H638.017C638.244 132.195 638.616 131.726 639.132 131.39C639.648 131.049 640.266 130.879 640.986 130.879C641.715 130.879 642.326 131.049 642.818 131.39C643.315 131.731 643.682 132.2 643.919 132.796H644.032C644.293 132.214 644.707 131.75 645.275 131.404C645.844 131.054 646.521 130.879 647.307 130.879C648.296 130.879 649.103 131.189 649.728 131.809C650.358 132.429 650.673 133.364 650.673 134.614V141.93H648.55V134.813C648.55 134.075 648.348 133.54 647.946 133.208C647.543 132.877 647.063 132.711 646.504 132.711C645.813 132.711 645.275 132.924 644.892 133.35C644.508 133.772 644.317 134.314 644.317 134.977V141.93H642.2V134.678C642.2 134.086 642.015 133.611 641.646 133.251C641.277 132.891 640.796 132.711 640.204 132.711C639.802 132.711 639.43 132.817 639.089 133.031C638.753 133.239 638.481 133.53 638.273 133.904C638.069 134.278 637.967 134.711 637.967 135.204V141.93H635.844ZM658.421 142.15C657.346 142.15 656.421 141.92 655.644 141.461C654.872 140.997 654.276 140.346 653.854 139.508C653.438 138.665 653.229 137.678 653.229 136.546C653.229 135.429 653.438 134.444 653.854 133.592C654.276 132.739 654.863 132.074 655.616 131.596C656.373 131.118 657.259 130.879 658.272 130.879C658.887 130.879 659.484 130.98 660.062 131.184C660.639 131.388 661.158 131.707 661.617 132.143C662.076 132.578 662.439 133.144 662.704 133.84C662.969 134.531 663.101 135.372 663.101 136.362V137.114H654.43V135.523H661.02C661.02 134.965 660.907 134.47 660.68 134.039C660.452 133.603 660.133 133.26 659.721 133.009C659.314 132.758 658.835 132.633 658.286 132.633C657.689 132.633 657.169 132.78 656.724 133.073C656.283 133.362 655.942 133.741 655.701 134.21C655.464 134.674 655.346 135.178 655.346 135.722V136.965C655.346 137.694 655.474 138.315 655.729 138.826C655.99 139.337 656.352 139.728 656.816 139.998C657.28 140.263 657.822 140.396 658.442 140.396C658.845 140.396 659.212 140.339 659.543 140.225C659.875 140.107 660.161 139.932 660.403 139.7C660.644 139.468 660.829 139.181 660.957 138.84L662.966 139.202C662.805 139.794 662.517 140.313 662.1 140.758C661.688 141.198 661.17 141.541 660.545 141.788C659.924 142.029 659.216 142.15 658.421 142.15ZM667.781 127.384V141.93H665.658V127.384H667.781ZM674.922 142.143C674.041 142.143 673.255 141.918 672.564 141.468C671.877 141.013 671.338 140.367 670.945 139.529C670.556 138.686 670.362 137.675 670.362 136.496C670.362 135.317 670.559 134.309 670.952 133.471C671.349 132.633 671.894 131.991 672.585 131.546C673.277 131.101 674.06 130.879 674.936 130.879C675.613 130.879 676.158 130.992 676.57 131.219C676.986 131.442 677.308 131.702 677.536 132.001C677.768 132.299 677.947 132.562 678.075 132.789H678.203V127.384H680.327V141.93H678.253V140.232H678.075C677.947 140.464 677.763 140.729 677.521 141.028C677.285 141.326 676.958 141.586 676.541 141.809C676.125 142.031 675.585 142.143 674.922 142.143ZM675.391 140.332C676.001 140.332 676.518 140.171 676.939 139.849C677.365 139.522 677.687 139.07 677.905 138.492C678.127 137.915 678.239 137.242 678.239 136.475C678.239 135.718 678.13 135.055 677.912 134.487C677.694 133.918 677.375 133.476 676.953 133.158C676.532 132.841 676.011 132.683 675.391 132.683C674.751 132.683 674.219 132.848 673.793 133.18C673.366 133.511 673.045 133.963 672.827 134.536C672.614 135.109 672.507 135.755 672.507 136.475C672.507 137.204 672.616 137.86 672.834 138.442C673.052 139.025 673.374 139.487 673.8 139.827C674.231 140.164 674.761 140.332 675.391 140.332ZM688.259 142.15C687.185 142.15 686.259 141.92 685.482 141.461C684.711 140.997 684.114 140.346 683.693 139.508C683.276 138.665 683.068 137.678 683.068 136.546C683.068 135.429 683.276 134.444 683.693 133.592C684.114 132.739 684.701 132.074 685.454 131.596C686.211 131.118 687.097 130.879 688.11 130.879C688.726 130.879 689.322 130.98 689.9 131.184C690.478 131.388 690.996 131.707 691.455 132.143C691.915 132.578 692.277 133.144 692.542 133.84C692.807 134.531 692.94 135.372 692.94 136.362V137.114H684.268V135.523H690.859C690.859 134.965 690.745 134.47 690.518 134.039C690.291 133.603 689.971 133.26 689.559 133.009C689.152 132.758 688.674 132.633 688.124 132.633C687.528 132.633 687.007 132.78 686.562 133.073C686.122 133.362 685.781 133.741 685.539 134.21C685.302 134.674 685.184 135.178 685.184 135.722V136.965C685.184 137.694 685.312 138.315 685.568 138.826C685.828 139.337 686.19 139.728 686.654 139.998C687.118 140.263 687.66 140.396 688.281 140.396C688.683 140.396 689.05 140.339 689.381 140.225C689.713 140.107 689.999 139.932 690.241 139.7C690.482 139.468 690.667 139.181 690.795 138.84L692.805 139.202C692.644 139.794 692.355 140.313 691.938 140.758C691.526 141.198 691.008 141.541 690.383 141.788C689.763 142.029 689.055 142.15 688.259 142.15ZM697.619 135.452V141.93H695.496V131.021H697.534V132.796H697.669C697.92 132.219 698.313 131.754 698.848 131.404C699.388 131.054 700.067 130.879 700.887 130.879C701.63 130.879 702.281 131.035 702.84 131.347C703.398 131.655 703.832 132.114 704.139 132.725C704.447 133.336 704.601 134.091 704.601 134.991V141.93H702.477V135.246C702.477 134.456 702.271 133.838 701.86 133.393C701.448 132.943 700.882 132.718 700.162 132.718C699.67 132.718 699.232 132.825 698.848 133.038C698.469 133.251 698.169 133.563 697.946 133.975C697.728 134.382 697.619 134.875 697.619 135.452Z" fill="#203644"/>
<g filter="url(#filter0_bd_1845_3372)">
<path d="M55 256.93C55 240.361 68.4315 226.93 85 226.93H317C333.569 226.93 347 240.361 347 256.93V268.93H55V256.93Z" fill="#FFA500"/>
<path d="M151.718 254.93H148.905L154.026 240.384H157.279L162.407 254.93H159.594L155.709 243.367H155.596L151.718 254.93ZM151.81 249.227H159.481V251.343H151.81V249.227ZM166.98 248.538V254.93H164.409V244.021H166.866V245.874H166.994C167.245 245.263 167.645 244.778 168.194 244.418C168.748 244.058 169.433 243.879 170.247 243.879C171 243.879 171.656 244.04 172.214 244.362C172.778 244.683 173.213 245.15 173.521 245.761C173.834 246.371 173.988 247.112 173.983 247.984V254.93H171.412V248.381C171.412 247.652 171.222 247.082 170.844 246.67C170.47 246.258 169.951 246.052 169.288 246.052C168.838 246.052 168.438 246.151 168.088 246.35C167.742 246.544 167.47 246.826 167.271 247.195C167.077 247.565 166.98 248.012 166.98 248.538ZM179.048 254.93L175.965 244.021H178.586L180.504 251.691H180.603L182.563 244.021H185.156L187.116 251.648H187.223L189.112 244.021H191.74L188.65 254.93H185.973L183.927 247.558H183.778L181.732 254.93H179.048ZM198.252 255.143C197.158 255.143 196.213 254.915 195.418 254.461C194.627 254.002 194.019 253.353 193.593 252.515C193.167 251.672 192.953 250.68 192.953 249.539C192.953 248.417 193.167 247.432 193.593 246.585C194.024 245.732 194.625 245.069 195.397 244.596C196.168 244.118 197.075 243.879 198.117 243.879C198.789 243.879 199.424 243.987 200.02 244.205C200.622 244.418 201.152 244.75 201.611 245.2C202.075 245.649 202.44 246.222 202.705 246.918C202.97 247.61 203.103 248.433 203.103 249.39V250.178H194.161V248.445H200.638C200.633 247.953 200.527 247.515 200.318 247.131C200.11 246.743 199.819 246.438 199.445 246.215C199.076 245.993 198.645 245.881 198.152 245.881C197.627 245.881 197.165 246.009 196.767 246.265C196.37 246.516 196.06 246.847 195.837 247.259C195.619 247.666 195.508 248.114 195.503 248.602V250.114C195.503 250.749 195.619 251.293 195.851 251.748C196.083 252.198 196.408 252.543 196.824 252.785C197.241 253.022 197.729 253.14 198.287 253.14C198.661 253.14 199 253.088 199.303 252.984C199.606 252.875 199.869 252.716 200.091 252.508C200.314 252.299 200.482 252.041 200.595 251.734L202.996 252.004C202.845 252.638 202.556 253.192 202.13 253.665C201.708 254.134 201.168 254.499 200.51 254.759C199.852 255.015 199.099 255.143 198.252 255.143ZM208.049 248.538V254.93H205.478V244.021H207.935V245.874H208.063C208.314 245.263 208.714 244.778 209.263 244.418C209.817 244.058 210.501 243.879 211.316 243.879C212.069 243.879 212.724 244.04 213.283 244.362C213.847 244.683 214.282 245.15 214.59 245.761C214.902 246.371 215.056 247.112 215.052 247.984V254.93H212.481V248.381C212.481 247.652 212.291 247.082 211.912 246.67C211.538 246.258 211.02 246.052 210.357 246.052C209.907 246.052 209.507 246.151 209.157 246.35C208.811 246.544 208.539 246.826 208.34 247.195C208.146 247.565 208.049 248.012 208.049 248.538ZM221.913 255.121C221.056 255.121 220.289 254.901 219.612 254.461C218.935 254.021 218.4 253.381 218.007 252.543C217.614 251.705 217.418 250.687 217.418 249.489C217.418 248.277 217.617 247.254 218.014 246.421C218.417 245.583 218.959 244.951 219.641 244.525C220.323 244.094 221.082 243.879 221.921 243.879C222.56 243.879 223.085 243.987 223.497 244.205C223.909 244.418 224.236 244.676 224.477 244.979C224.719 245.278 224.906 245.559 225.038 245.825H225.145V240.384H227.723V254.93H225.195V253.211H225.038C224.906 253.476 224.714 253.758 224.463 254.056C224.212 254.35 223.881 254.601 223.469 254.809C223.057 255.017 222.538 255.121 221.913 255.121ZM222.631 253.012C223.175 253.012 223.639 252.865 224.023 252.572C224.406 252.273 224.698 251.859 224.896 251.329C225.095 250.799 225.195 250.181 225.195 249.475C225.195 248.77 225.095 248.156 224.896 247.636C224.702 247.115 224.413 246.71 224.03 246.421C223.651 246.132 223.185 245.988 222.631 245.988C222.058 245.988 221.58 246.137 221.196 246.435C220.813 246.734 220.524 247.146 220.33 247.671C220.136 248.197 220.038 248.798 220.038 249.475C220.038 250.157 220.136 250.765 220.33 251.3C220.529 251.831 220.82 252.25 221.203 252.558C221.591 252.861 222.067 253.012 222.631 253.012ZM235.492 255.143C234.399 255.143 233.454 254.915 232.659 254.461C231.868 254.002 231.259 253.353 230.833 252.515C230.407 251.672 230.194 250.68 230.194 249.539C230.194 248.417 230.407 247.432 230.833 246.585C231.264 245.732 231.865 245.069 232.637 244.596C233.409 244.118 234.316 243.879 235.357 243.879C236.03 243.879 236.664 243.987 237.261 244.205C237.862 244.418 238.392 244.75 238.852 245.2C239.316 245.649 239.68 246.222 239.945 246.918C240.211 247.61 240.343 248.433 240.343 249.39V250.178H231.401V248.445H237.879C237.874 247.953 237.767 247.515 237.559 247.131C237.351 246.743 237.06 246.438 236.686 246.215C236.316 245.993 235.885 245.881 235.393 245.881C234.867 245.881 234.406 246.009 234.008 246.265C233.61 246.516 233.3 246.847 233.078 247.259C232.86 247.666 232.749 248.114 232.744 248.602V250.114C232.744 250.749 232.86 251.293 233.092 251.748C233.324 252.198 233.648 252.543 234.065 252.785C234.481 253.022 234.969 253.14 235.528 253.14C235.902 253.14 236.24 253.088 236.544 252.984C236.847 252.875 237.109 252.716 237.332 252.508C237.554 252.299 237.722 252.041 237.836 251.734L240.237 252.004C240.085 252.638 239.796 253.192 239.37 253.665C238.949 254.134 238.409 254.499 237.751 254.759C237.093 255.015 236.34 255.143 235.492 255.143ZM245.289 248.538V254.93H242.718V244.021H245.176V245.874H245.304C245.554 245.263 245.955 244.778 246.504 244.418C247.058 244.058 247.742 243.879 248.556 243.879C249.309 243.879 249.965 244.04 250.524 244.362C251.087 244.683 251.523 245.15 251.831 245.761C252.143 246.371 252.297 247.112 252.292 247.984V254.93H249.721V248.381C249.721 247.652 249.532 247.082 249.153 246.67C248.779 246.258 248.26 246.052 247.598 246.052C247.148 246.052 246.748 246.151 246.397 246.35C246.052 246.544 245.779 246.826 245.581 247.195C245.386 247.565 245.289 248.012 245.289 248.538Z" fill="#203644"/>
</g>
<g filter="url(#filter1_bd_1845_3372)">
<path d="M55 353.93C55 337.361 68.4315 323.93 85 323.93H317C333.569 323.93 347 337.361 347 353.93V365.93H55V353.93Z" fill="#FFA500" fill-opacity="0.5" shape-rendering="crispEdges"/>
<path d="M151.718 351.93H148.905L154.026 337.384H157.279L162.407 351.93H159.594L155.709 340.367H155.596L151.718 351.93ZM151.81 346.227H159.481V348.343H151.81V346.227ZM166.98 345.538V351.93H164.409V341.021H166.866V342.874H166.994C167.245 342.263 167.645 341.778 168.194 341.418C168.748 341.058 169.433 340.879 170.247 340.879C171 340.879 171.656 341.04 172.214 341.362C172.778 341.683 173.213 342.15 173.521 342.761C173.834 343.371 173.988 344.112 173.983 344.984V351.93H171.412V345.381C171.412 344.652 171.222 344.082 170.844 343.67C170.47 343.258 169.951 343.052 169.288 343.052C168.838 343.052 168.438 343.151 168.088 343.35C167.742 343.544 167.47 343.826 167.271 344.195C167.077 344.565 166.98 345.012 166.98 345.538ZM179.048 351.93L175.965 341.021H178.586L180.504 348.691H180.603L182.563 341.021H185.156L187.116 348.648H187.223L189.112 341.021H191.74L188.65 351.93H185.973L183.927 344.558H183.778L181.732 351.93H179.048ZM198.252 352.143C197.158 352.143 196.213 351.915 195.418 351.461C194.627 351.002 194.019 350.353 193.593 349.515C193.167 348.672 192.953 347.68 192.953 346.539C192.953 345.417 193.167 344.432 193.593 343.585C194.024 342.732 194.625 342.069 195.397 341.596C196.168 341.118 197.075 340.879 198.117 340.879C198.789 340.879 199.424 340.987 200.02 341.205C200.622 341.418 201.152 341.75 201.611 342.2C202.075 342.649 202.44 343.222 202.705 343.918C202.97 344.61 203.103 345.433 203.103 346.39V347.178H194.161V345.445H200.638C200.633 344.953 200.527 344.515 200.318 344.131C200.11 343.743 199.819 343.438 199.445 343.215C199.076 342.993 198.645 342.881 198.152 342.881C197.627 342.881 197.165 343.009 196.767 343.265C196.37 343.516 196.06 343.847 195.837 344.259C195.619 344.666 195.508 345.114 195.503 345.602V347.114C195.503 347.749 195.619 348.293 195.851 348.748C196.083 349.198 196.408 349.543 196.824 349.785C197.241 350.022 197.729 350.14 198.287 350.14C198.661 350.14 199 350.088 199.303 349.984C199.606 349.875 199.869 349.716 200.091 349.508C200.314 349.299 200.482 349.041 200.595 348.734L202.996 349.004C202.845 349.638 202.556 350.192 202.13 350.665C201.708 351.134 201.168 351.499 200.51 351.759C199.852 352.015 199.099 352.143 198.252 352.143ZM208.049 345.538V351.93H205.478V341.021H207.935V342.874H208.063C208.314 342.263 208.714 341.778 209.263 341.418C209.817 341.058 210.501 340.879 211.316 340.879C212.069 340.879 212.724 341.04 213.283 341.362C213.847 341.683 214.282 342.15 214.59 342.761C214.902 343.371 215.056 344.112 215.052 344.984V351.93H212.481V345.381C212.481 344.652 212.291 344.082 211.912 343.67C211.538 343.258 211.02 343.052 210.357 343.052C209.907 343.052 209.507 343.151 209.157 343.35C208.811 343.544 208.539 343.826 208.34 344.195C208.146 344.565 208.049 345.012 208.049 345.538ZM221.913 352.121C221.056 352.121 220.289 351.901 219.612 351.461C218.935 351.021 218.4 350.381 218.007 349.543C217.614 348.705 217.418 347.687 217.418 346.489C217.418 345.277 217.617 344.254 218.014 343.421C218.417 342.583 218.959 341.951 219.641 341.525C220.323 341.094 221.082 340.879 221.921 340.879C222.56 340.879 223.085 340.987 223.497 341.205C223.909 341.418 224.236 341.676 224.477 341.979C224.719 342.278 224.906 342.559 225.038 342.825H225.145V337.384H227.723V351.93H225.195V350.211H225.038C224.906 350.476 224.714 350.758 224.463 351.056C224.212 351.35 223.881 351.601 223.469 351.809C223.057 352.017 222.538 352.121 221.913 352.121ZM222.631 350.012C223.175 350.012 223.639 349.865 224.023 349.572C224.406 349.273 224.698 348.859 224.896 348.329C225.095 347.799 225.195 347.181 225.195 346.475C225.195 345.77 225.095 345.156 224.896 344.636C224.702 344.115 224.413 343.71 224.03 343.421C223.651 343.132 223.185 342.988 222.631 342.988C222.058 342.988 221.58 343.137 221.196 343.435C220.813 343.734 220.524 344.146 220.33 344.671C220.136 345.197 220.038 345.798 220.038 346.475C220.038 347.157 220.136 347.765 220.33 348.3C220.529 348.831 220.82 349.25 221.203 349.558C221.591 349.861 222.067 350.012 222.631 350.012ZM235.492 352.143C234.399 352.143 233.454 351.915 232.659 351.461C231.868 351.002 231.259 350.353 230.833 349.515C230.407 348.672 230.194 347.68 230.194 346.539C230.194 345.417 230.407 344.432 230.833 343.585C231.264 342.732 231.865 342.069 232.637 341.596C233.409 341.118 234.316 340.879 235.357 340.879C236.03 340.879 236.664 340.987 237.261 341.205C237.862 341.418 238.392 341.75 238.852 342.2C239.316 342.649 239.68 343.222 239.945 343.918C240.211 344.61 240.343 345.433 240.343 346.39V347.178H231.401V345.445H237.879C237.874 344.953 237.767 344.515 237.559 344.131C237.351 343.743 237.06 343.438 236.686 343.215C236.316 342.993 235.885 342.881 235.393 342.881C234.867 342.881 234.406 343.009 234.008 343.265C233.61 343.516 233.3 343.847 233.078 344.259C232.86 344.666 232.749 345.114 232.744 345.602V347.114C232.744 347.749 232.86 348.293 233.092 348.748C233.324 349.198 233.648 349.543 234.065 349.785C234.481 350.022 234.969 350.14 235.528 350.14C235.902 350.14 236.24 350.088 236.544 349.984C236.847 349.875 237.109 349.716 237.332 349.508C237.554 349.299 237.722 349.041 237.836 348.734L240.237 349.004C240.085 349.638 239.796 350.192 239.37 350.665C238.949 351.134 238.409 351.499 237.751 351.759C237.093 352.015 236.34 352.143 235.492 352.143ZM245.289 345.538V351.93H242.718V341.021H245.176V342.874H245.304C245.554 342.263 245.955 341.778 246.504 341.418C247.058 341.058 247.742 340.879 248.556 340.879C249.309 340.879 249.965 341.04 250.524 341.362C251.087 341.683 251.523 342.15 251.831 342.761C252.143 343.371 252.297 344.112 252.292 344.984V351.93H249.721V345.381C249.721 344.652 249.532 344.082 249.153 343.67C248.779 343.258 248.26 343.052 247.598 343.052C247.148 343.052 246.748 343.151 246.397 343.35C246.052 343.544 245.779 343.826 245.581 344.195C245.386 344.565 245.289 345.012 245.289 345.538Z" fill="#203644"/>
</g>
<path d="M543 273.43C543 262.66 551.73 253.93 562.5 253.93H645.5C656.27 253.93 665 262.66 665 273.43C665 284.199 656.27 292.93 645.5 292.93H562.5C551.73 292.93 543 284.199 543 273.43Z" fill="#A4C639"/>
<path d="M561.666 278.93V267.293H563.422V277.418H568.694V278.93H561.666ZM573.261 279.123C572.708 279.123 572.208 279.021 571.761 278.816C571.314 278.608 570.959 278.307 570.698 277.913C570.44 277.519 570.312 277.036 570.312 276.464C570.312 275.971 570.406 275.566 570.596 275.248C570.785 274.93 571.041 274.678 571.363 274.492C571.685 274.307 572.045 274.166 572.442 274.072C572.84 273.977 573.245 273.905 573.658 273.856C574.181 273.795 574.605 273.746 574.931 273.708C575.257 273.666 575.494 273.6 575.641 273.509C575.789 273.418 575.863 273.271 575.863 273.066V273.026C575.863 272.53 575.723 272.146 575.442 271.873C575.166 271.6 574.753 271.464 574.204 271.464C573.632 271.464 573.181 271.591 572.851 271.844C572.526 272.094 572.3 272.373 572.175 272.68L570.579 272.316C570.768 271.786 571.045 271.358 571.408 271.032C571.776 270.702 572.198 270.464 572.675 270.316C573.153 270.165 573.655 270.089 574.181 270.089C574.53 270.089 574.899 270.13 575.289 270.214C575.683 270.293 576.05 270.441 576.391 270.657C576.736 270.873 577.018 271.182 577.238 271.583C577.458 271.981 577.567 272.498 577.567 273.134V278.93H575.908V277.737H575.84C575.73 277.956 575.565 278.172 575.346 278.384C575.126 278.596 574.844 278.772 574.499 278.913C574.155 279.053 573.742 279.123 573.261 279.123ZM573.63 277.759C574.1 277.759 574.501 277.666 574.834 277.481C575.172 277.295 575.427 277.053 575.601 276.754C575.78 276.451 575.869 276.127 575.869 275.782V274.657C575.808 274.718 575.69 274.774 575.516 274.827C575.346 274.877 575.151 274.92 574.931 274.958C574.711 274.992 574.497 275.024 574.289 275.055C574.081 275.081 573.906 275.104 573.766 275.123C573.437 275.165 573.136 275.235 572.863 275.333C572.594 275.432 572.378 275.574 572.215 275.759C572.056 275.941 571.976 276.183 571.976 276.487C571.976 276.907 572.132 277.225 572.442 277.441C572.753 277.653 573.149 277.759 573.63 277.759ZM581.553 275.969L581.541 273.896H581.837L585.314 270.202H587.348L583.382 274.407H583.115L581.553 275.969ZM579.99 278.93V267.293H581.689V278.93H579.99ZM585.502 278.93L582.377 274.782L583.547 273.594L587.587 278.93H585.502ZM593.13 270.202V271.566H588.363V270.202H593.13ZM589.642 268.112H591.341V276.367C591.341 276.697 591.39 276.945 591.488 277.112C591.587 277.274 591.714 277.386 591.869 277.447C592.028 277.504 592.2 277.532 592.386 277.532C592.522 277.532 592.642 277.522 592.744 277.504C592.846 277.485 592.926 277.469 592.983 277.458L593.289 278.862C593.191 278.899 593.051 278.937 592.869 278.975C592.687 279.017 592.46 279.04 592.187 279.043C591.74 279.051 591.323 278.971 590.937 278.805C590.551 278.638 590.238 278.38 590 278.032C589.761 277.683 589.642 277.246 589.642 276.719V268.112ZM598.752 279.106C597.934 279.106 597.22 278.918 596.61 278.543C596 278.168 595.527 277.644 595.189 276.969C594.852 276.295 594.684 275.507 594.684 274.606C594.684 273.701 594.852 272.909 595.189 272.231C595.527 271.553 596 271.026 596.61 270.651C597.22 270.276 597.934 270.089 598.752 270.089C599.57 270.089 600.284 270.276 600.894 270.651C601.504 271.026 601.977 271.553 602.314 272.231C602.652 272.909 602.82 273.701 602.82 274.606C602.82 275.507 602.652 276.295 602.314 276.969C601.977 277.644 601.504 278.168 600.894 278.543C600.284 278.918 599.57 279.106 598.752 279.106ZM598.758 277.68C599.288 277.68 599.727 277.54 600.076 277.259C600.424 276.979 600.682 276.606 600.849 276.14C601.019 275.674 601.104 275.161 601.104 274.6C601.104 274.043 601.019 273.532 600.849 273.066C600.682 272.596 600.424 272.219 600.076 271.935C599.727 271.651 599.288 271.509 598.758 271.509C598.224 271.509 597.78 271.651 597.428 271.935C597.08 272.219 596.82 272.596 596.65 273.066C596.483 273.532 596.4 274.043 596.4 274.6C596.4 275.161 596.483 275.674 596.65 276.14C596.82 276.606 597.08 276.979 597.428 277.259C597.78 277.54 598.224 277.68 598.758 277.68ZM611.416 272.333L609.876 272.606C609.812 272.409 609.71 272.221 609.57 272.043C609.433 271.865 609.248 271.719 609.013 271.606C608.778 271.492 608.484 271.435 608.132 271.435C607.651 271.435 607.25 271.543 606.928 271.759C606.606 271.971 606.445 272.246 606.445 272.583C606.445 272.875 606.553 273.11 606.768 273.288C606.984 273.466 607.333 273.612 607.814 273.725L609.2 274.043C610.003 274.229 610.602 274.515 610.996 274.901C611.39 275.288 611.587 275.79 611.587 276.407C611.587 276.93 611.435 277.396 611.132 277.805C610.833 278.21 610.414 278.528 609.876 278.759C609.342 278.99 608.723 279.106 608.018 279.106C607.041 279.106 606.244 278.897 605.626 278.481C605.009 278.06 604.63 277.464 604.49 276.691L606.132 276.441C606.234 276.869 606.445 277.193 606.763 277.413C607.081 277.629 607.496 277.737 608.007 277.737C608.564 277.737 609.009 277.621 609.342 277.39C609.676 277.155 609.842 276.869 609.842 276.532C609.842 276.259 609.74 276.03 609.536 275.844C609.335 275.659 609.026 275.519 608.609 275.424L607.132 275.1C606.318 274.915 605.715 274.619 605.325 274.214C604.939 273.808 604.746 273.295 604.746 272.674C604.746 272.159 604.89 271.708 605.178 271.322C605.465 270.935 605.863 270.634 606.371 270.418C606.878 270.199 607.46 270.089 608.115 270.089C609.058 270.089 609.801 270.293 610.342 270.702C610.884 271.108 611.242 271.651 611.416 272.333ZM617.376 279.106C616.516 279.106 615.776 278.922 615.154 278.555C614.537 278.183 614.06 277.663 613.722 276.992C613.389 276.318 613.222 275.528 613.222 274.623C613.222 273.729 613.389 272.941 613.722 272.259C614.06 271.577 614.529 271.045 615.132 270.663C615.738 270.28 616.446 270.089 617.257 270.089C617.749 270.089 618.226 270.17 618.688 270.333C619.151 270.496 619.565 270.752 619.933 271.1C620.3 271.449 620.59 271.901 620.802 272.458C621.014 273.011 621.12 273.683 621.12 274.475V275.077H614.183V273.805H619.455C619.455 273.358 619.365 272.962 619.183 272.617C619.001 272.269 618.745 271.994 618.416 271.793C618.09 271.593 617.707 271.492 617.268 271.492C616.791 271.492 616.374 271.61 616.018 271.844C615.666 272.076 615.393 272.379 615.2 272.754C615.01 273.125 614.916 273.528 614.916 273.964V274.958C614.916 275.541 615.018 276.038 615.222 276.447C615.431 276.856 615.721 277.168 616.092 277.384C616.463 277.596 616.897 277.702 617.393 277.702C617.715 277.702 618.008 277.657 618.274 277.566C618.539 277.471 618.768 277.331 618.961 277.146C619.154 276.96 619.302 276.731 619.404 276.458L621.012 276.748C620.883 277.221 620.652 277.636 620.319 277.992C619.99 278.344 619.575 278.619 619.075 278.816C618.579 279.009 618.012 279.106 617.376 279.106ZM627.319 270.202V271.566H622.387V270.202H627.319ZM623.739 278.93V269.191C623.739 268.646 623.858 268.193 624.097 267.833C624.336 267.469 624.652 267.199 625.046 267.021C625.44 266.839 625.868 266.748 626.33 266.748C626.671 266.748 626.963 266.776 627.205 266.833C627.447 266.886 627.627 266.935 627.745 266.981L627.347 268.356C627.267 268.333 627.165 268.307 627.04 268.276C626.915 268.242 626.764 268.225 626.586 268.225C626.173 268.225 625.877 268.327 625.699 268.532C625.525 268.737 625.438 269.032 625.438 269.418V278.93H623.739ZM629.231 278.93V270.202H630.873V271.589H630.964C631.123 271.119 631.404 270.75 631.805 270.481C632.211 270.208 632.669 270.072 633.18 270.072C633.286 270.072 633.411 270.076 633.555 270.083C633.703 270.091 633.819 270.1 633.902 270.112V271.737C633.834 271.718 633.712 271.697 633.538 271.674C633.364 271.647 633.19 271.634 633.016 271.634C632.614 271.634 632.256 271.719 631.942 271.89C631.631 272.057 631.385 272.29 631.203 272.589C631.021 272.884 630.93 273.221 630.93 273.6V278.93H629.231ZM638.981 279.106C638.121 279.106 637.381 278.922 636.759 278.555C636.142 278.183 635.665 277.663 635.327 276.992C634.994 276.318 634.827 275.528 634.827 274.623C634.827 273.729 634.994 272.941 635.327 272.259C635.665 271.577 636.134 271.045 636.737 270.663C637.343 270.28 638.051 270.089 638.862 270.089C639.354 270.089 639.831 270.17 640.293 270.333C640.756 270.496 641.17 270.752 641.538 271.1C641.905 271.449 642.195 271.901 642.407 272.458C642.619 273.011 642.725 273.683 642.725 274.475V275.077H635.788V273.805H641.06C641.06 273.358 640.97 272.962 640.788 272.617C640.606 272.269 640.35 271.994 640.021 271.793C639.695 271.593 639.312 271.492 638.873 271.492C638.396 271.492 637.979 271.61 637.623 271.844C637.271 272.076 636.998 272.379 636.805 272.754C636.615 273.125 636.521 273.528 636.521 273.964V274.958C636.521 275.541 636.623 276.038 636.827 276.447C637.036 276.856 637.326 277.168 637.697 277.384C638.068 277.596 638.502 277.702 638.998 277.702C639.32 277.702 639.613 277.657 639.879 277.566C640.144 277.471 640.373 277.331 640.566 277.146C640.759 276.96 640.907 276.731 641.009 276.458L642.617 276.748C642.488 277.221 642.257 277.636 641.924 277.992C641.595 278.344 641.18 278.619 640.68 278.816C640.184 279.009 639.617 279.106 638.981 279.106ZM644.77 278.93V270.202H646.469V278.93H644.77ZM645.628 268.856C645.333 268.856 645.079 268.757 644.867 268.56C644.658 268.36 644.554 268.121 644.554 267.844C644.554 267.564 644.658 267.326 644.867 267.129C645.079 266.928 645.333 266.827 645.628 266.827C645.924 266.827 646.175 266.928 646.384 267.129C646.596 267.326 646.702 267.564 646.702 267.844C646.702 268.121 646.596 268.36 646.384 268.56C646.175 268.757 645.924 268.856 645.628 268.856Z" fill="#203644"/>
<path d="M561.666 351.93V340.293H563.422V350.418H568.694V351.93H561.666ZM573.261 352.123C572.708 352.123 572.208 352.021 571.761 351.816C571.314 351.608 570.959 351.307 570.698 350.913C570.44 350.519 570.312 350.036 570.312 349.464C570.312 348.971 570.406 348.566 570.596 348.248C570.785 347.93 571.041 347.678 571.363 347.492C571.685 347.307 572.045 347.166 572.442 347.072C572.84 346.977 573.245 346.905 573.658 346.856C574.181 346.795 574.605 346.746 574.931 346.708C575.257 346.666 575.494 346.6 575.641 346.509C575.789 346.418 575.863 346.271 575.863 346.066V346.026C575.863 345.53 575.723 345.146 575.442 344.873C575.166 344.6 574.753 344.464 574.204 344.464C573.632 344.464 573.181 344.591 572.851 344.844C572.526 345.094 572.3 345.373 572.175 345.68L570.579 345.316C570.768 344.786 571.045 344.358 571.408 344.032C571.776 343.702 572.198 343.464 572.675 343.316C573.153 343.165 573.655 343.089 574.181 343.089C574.53 343.089 574.899 343.13 575.289 343.214C575.683 343.293 576.05 343.441 576.391 343.657C576.736 343.873 577.018 344.182 577.238 344.583C577.458 344.981 577.567 345.498 577.567 346.134V351.93H575.908V350.737H575.84C575.73 350.956 575.565 351.172 575.346 351.384C575.126 351.596 574.844 351.772 574.499 351.913C574.155 352.053 573.742 352.123 573.261 352.123ZM573.63 350.759C574.1 350.759 574.501 350.666 574.834 350.481C575.172 350.295 575.427 350.053 575.601 349.754C575.78 349.451 575.869 349.127 575.869 348.782V347.657C575.808 347.718 575.69 347.774 575.516 347.827C575.346 347.877 575.151 347.92 574.931 347.958C574.711 347.992 574.497 348.024 574.289 348.055C574.081 348.081 573.906 348.104 573.766 348.123C573.437 348.165 573.136 348.235 572.863 348.333C572.594 348.432 572.378 348.574 572.215 348.759C572.056 348.941 571.976 349.183 571.976 349.487C571.976 349.907 572.132 350.225 572.442 350.441C572.753 350.653 573.149 350.759 573.63 350.759ZM581.553 348.969L581.541 346.896H581.837L585.314 343.202H587.348L583.382 347.407H583.115L581.553 348.969ZM579.99 351.93V340.293H581.689V351.93H579.99ZM585.502 351.93L582.377 347.782L583.547 346.594L587.587 351.93H585.502ZM593.13 343.202V344.566H588.363V343.202H593.13ZM589.642 341.112H591.341V349.367C591.341 349.697 591.39 349.945 591.488 350.112C591.587 350.274 591.714 350.386 591.869 350.447C592.028 350.504 592.2 350.532 592.386 350.532C592.522 350.532 592.642 350.522 592.744 350.504C592.846 350.485 592.926 350.469 592.983 350.458L593.289 351.862C593.191 351.899 593.051 351.937 592.869 351.975C592.687 352.017 592.46 352.04 592.187 352.043C591.74 352.051 591.323 351.971 590.937 351.805C590.551 351.638 590.238 351.38 590 351.032C589.761 350.683 589.642 350.246 589.642 349.719V341.112ZM598.752 352.106C597.934 352.106 597.22 351.918 596.61 351.543C596 351.168 595.527 350.644 595.189 349.969C594.852 349.295 594.684 348.507 594.684 347.606C594.684 346.701 594.852 345.909 595.189 345.231C595.527 344.553 596 344.026 596.61 343.651C597.22 343.276 597.934 343.089 598.752 343.089C599.57 343.089 600.284 343.276 600.894 343.651C601.504 344.026 601.977 344.553 602.314 345.231C602.652 345.909 602.82 346.701 602.82 347.606C602.82 348.507 602.652 349.295 602.314 349.969C601.977 350.644 601.504 351.168 600.894 351.543C600.284 351.918 599.57 352.106 598.752 352.106ZM598.758 350.68C599.288 350.68 599.727 350.54 600.076 350.259C600.424 349.979 600.682 349.606 600.849 349.14C601.019 348.674 601.104 348.161 601.104 347.6C601.104 347.043 601.019 346.532 600.849 346.066C600.682 345.596 600.424 345.219 600.076 344.935C599.727 344.651 599.288 344.509 598.758 344.509C598.224 344.509 597.78 344.651 597.428 344.935C597.08 345.219 596.82 345.596 596.65 346.066C596.483 346.532 596.4 347.043 596.4 347.6C596.4 348.161 596.483 348.674 596.65 349.14C596.82 349.606 597.08 349.979 597.428 350.259C597.78 350.54 598.224 350.68 598.758 350.68ZM611.416 345.333L609.876 345.606C609.812 345.409 609.71 345.221 609.57 345.043C609.433 344.865 609.248 344.719 609.013 344.606C608.778 344.492 608.484 344.435 608.132 344.435C607.651 344.435 607.25 344.543 606.928 344.759C606.606 344.971 606.445 345.246 606.445 345.583C606.445 345.875 606.553 346.11 606.768 346.288C606.984 346.466 607.333 346.612 607.814 346.725L609.2 347.043C610.003 347.229 610.602 347.515 610.996 347.901C611.39 348.288 611.587 348.79 611.587 349.407C611.587 349.93 611.435 350.396 611.132 350.805C610.833 351.21 610.414 351.528 609.876 351.759C609.342 351.99 608.723 352.106 608.018 352.106C607.041 352.106 606.244 351.897 605.626 351.481C605.009 351.06 604.63 350.464 604.49 349.691L606.132 349.441C606.234 349.869 606.445 350.193 606.763 350.413C607.081 350.629 607.496 350.737 608.007 350.737C608.564 350.737 609.009 350.621 609.342 350.39C609.676 350.155 609.842 349.869 609.842 349.532C609.842 349.259 609.74 349.03 609.536 348.844C609.335 348.659 609.026 348.519 608.609 348.424L607.132 348.1C606.318 347.915 605.715 347.619 605.325 347.214C604.939 346.808 604.746 346.295 604.746 345.674C604.746 345.159 604.89 344.708 605.178 344.322C605.465 343.935 605.863 343.634 606.371 343.418C606.878 343.199 607.46 343.089 608.115 343.089C609.058 343.089 609.801 343.293 610.342 343.702C610.884 344.108 611.242 344.651 611.416 345.333ZM617.376 352.106C616.516 352.106 615.776 351.922 615.154 351.555C614.537 351.183 614.06 350.663 613.722 349.992C613.389 349.318 613.222 348.528 613.222 347.623C613.222 346.729 613.389 345.941 613.722 345.259C614.06 344.577 614.529 344.045 615.132 343.663C615.738 343.28 616.446 343.089 617.257 343.089C617.749 343.089 618.226 343.17 618.688 343.333C619.151 343.496 619.565 343.752 619.933 344.1C620.3 344.449 620.59 344.901 620.802 345.458C621.014 346.011 621.12 346.683 621.12 347.475V348.077H614.183V346.805H619.455C619.455 346.358 619.365 345.962 619.183 345.617C619.001 345.269 618.745 344.994 618.416 344.793C618.09 344.593 617.707 344.492 617.268 344.492C616.791 344.492 616.374 344.61 616.018 344.844C615.666 345.076 615.393 345.379 615.2 345.754C615.01 346.125 614.916 346.528 614.916 346.964V347.958C614.916 348.541 615.018 349.038 615.222 349.447C615.431 349.856 615.721 350.168 616.092 350.384C616.463 350.596 616.897 350.702 617.393 350.702C617.715 350.702 618.008 350.657 618.274 350.566C618.539 350.471 618.768 350.331 618.961 350.146C619.154 349.96 619.302 349.731 619.404 349.458L621.012 349.748C620.883 350.221 620.652 350.636 620.319 350.992C619.99 351.344 619.575 351.619 619.075 351.816C618.579 352.009 618.012 352.106 617.376 352.106ZM627.319 343.202V344.566H622.387V343.202H627.319ZM623.739 351.93V342.191C623.739 341.646 623.858 341.193 624.097 340.833C624.336 340.469 624.652 340.199 625.046 340.021C625.44 339.839 625.868 339.748 626.33 339.748C626.671 339.748 626.963 339.776 627.205 339.833C627.447 339.886 627.627 339.935 627.745 339.981L627.347 341.356C627.267 341.333 627.165 341.307 627.04 341.276C626.915 341.242 626.764 341.225 626.586 341.225C626.173 341.225 625.877 341.327 625.699 341.532C625.525 341.737 625.438 342.032 625.438 342.418V351.93H623.739ZM629.231 351.93V343.202H630.873V344.589H630.964C631.123 344.119 631.404 343.75 631.805 343.481C632.211 343.208 632.669 343.072 633.18 343.072C633.286 343.072 633.411 343.076 633.555 343.083C633.703 343.091 633.819 343.1 633.902 343.112V344.737C633.834 344.718 633.712 344.697 633.538 344.674C633.364 344.647 633.19 344.634 633.016 344.634C632.614 344.634 632.256 344.719 631.942 344.89C631.631 345.057 631.385 345.29 631.203 345.589C631.021 345.884 630.93 346.221 630.93 346.6V351.93H629.231ZM638.981 352.106C638.121 352.106 637.381 351.922 636.759 351.555C636.142 351.183 635.665 350.663 635.327 349.992C634.994 349.318 634.827 348.528 634.827 347.623C634.827 346.729 634.994 345.941 635.327 345.259C635.665 344.577 636.134 344.045 636.737 343.663C637.343 343.28 638.051 343.089 638.862 343.089C639.354 343.089 639.831 343.17 640.293 343.333C640.756 343.496 641.17 343.752 641.538 344.1C641.905 344.449 642.195 344.901 642.407 345.458C642.619 346.011 642.725 346.683 642.725 347.475V348.077H635.788V346.805H641.06C641.06 346.358 640.97 345.962 640.788 345.617C640.606 345.269 640.35 344.994 640.021 344.793C639.695 344.593 639.312 344.492 638.873 344.492C638.396 344.492 637.979 344.61 637.623 344.844C637.271 345.076 636.998 345.379 636.805 345.754C636.615 346.125 636.521 346.528 636.521 346.964V347.958C636.521 348.541 636.623 349.038 636.827 349.447C637.036 349.856 637.326 350.168 637.697 350.384C638.068 350.596 638.502 350.702 638.998 350.702C639.32 350.702 639.613 350.657 639.879 350.566C640.144 350.471 640.373 350.331 640.566 350.146C640.759 349.96 640.907 349.731 641.009 349.458L642.617 349.748C642.488 350.221 642.257 350.636 641.924 350.992C641.595 351.344 641.18 351.619 640.68 351.816C640.184 352.009 639.617 352.106 638.981 352.106ZM644.77 351.93V343.202H646.469V351.93H644.77ZM645.628 341.856C645.333 341.856 645.079 341.757 644.867 341.56C644.658 341.36 644.554 341.121 644.554 340.844C644.554 340.564 644.658 340.326 644.867 340.129C645.079 339.928 645.333 339.827 645.628 339.827C645.924 339.827 646.175 339.928 646.384 340.129C646.596 340.326 646.702 340.564 646.702 340.844C646.702 341.121 646.596 341.36 646.384 341.56C646.175 341.757 645.924 341.856 645.628 341.856Z" fill="#5F5F5F"/>
<path d="M543.5 346.43C543.5 335.936 552.007 327.43 562.5 327.43H645.5C655.993 327.43 664.5 335.936 664.5 346.43C664.5 356.923 655.993 365.43 645.5 365.43H562.5C552.007 365.43 543.5 356.923 543.5 346.43Z" stroke="#5F5F5F"/>
<defs>
<filter id="filter0_bd_1845_3372" x="0" y="171.93" width="442" height="192" filterUnits="userSpaceOnUse" color-interpolation-filters="sRGB">
<feFlood flood-opacity="0" result="BackgroundImageFix"/>
<feGaussianBlur in="BackgroundImageFix" stdDeviation="2"/>
<feComposite in2="SourceAlpha" operator="in" result="effect1_backgroundBlur_1845_3372"/>
<feColorMatrix in="SourceAlpha" type="matrix" values="0 0 0 0 0 0 0 0 0 0 0 0 0 0 0 0 0 0 127 0" result="hardAlpha"/>
<feMorphology radius="5" operator="dilate" in="SourceAlpha" result="effect2_dropShadow_1845_3372"/>
<feOffset dx="20" dy="20"/>
<feGaussianBlur stdDeviation="35"/>
<feComposite in2="hardAlpha" operator="out"/>
<feColorMatrix type="matrix" values="0 0 0 0 0 0 0 0 0 0 0 0 0 0 0 0 0 0 0.52 0"/>
<feBlend mode="normal" in2="effect1_backgroundBlur_1845_3372" result="effect2_dropShadow_1845_3372"/>
<feBlend mode="normal" in="SourceGraphic" in2="effect2_dropShadow_1845_3372" result="shape"/>
</filter>
<filter id="filter1_bd_1845_3372" x="0" y="268.93" width="442" height="192" filterUnits="userSpaceOnUse" color-interpolation-filters="sRGB">
<feFlood flood-opacity="0" result="BackgroundImageFix"/>
<feGaussianBlur in="BackgroundImageFix" stdDeviation="2"/>
<feComposite in2="SourceAlpha" operator="in" result="effect1_backgroundBlur_1845_3372"/>
<feColorMatrix in="SourceAlpha" type="matrix" values="0 0 0 0 0 0 0 0 0 0 0 0 0 0 0 0 0 0 127 0" result="hardAlpha"/>
<feMorphology radius="5" operator="dilate" in="SourceAlpha" result="effect2_dropShadow_1845_3372"/>
<feOffset dx="20" dy="20"/>
<feGaussianBlur stdDeviation="35"/>
<feComposite in2="hardAlpha" operator="out"/>
<feColorMatrix type="matrix" values="0 0 0 0 0 0 0 0 0 0 0 0 0 0 0 0 0 0 0.52 0"/>
<feBlend mode="normal" in2="effect1_backgroundBlur_1845_3372" result="effect2_dropShadow_1845_3372"/>
<feBlend mode="normal" in="SourceGraphic" in2="effect2_dropShadow_1845_3372" result="shape"/>
</filter>
</defs>
</svg>
