<svg width="201" height="201" viewBox="0 0 201 201" fill="none" xmlns="http://www.w3.org/2000/svg">
<g clip-path="url(#clip0_1845_3155)">
<path d="M119.595 161.097C119.596 163.037 118.827 164.898 117.458 166.272C116.782 166.951 115.978 167.49 115.093 167.858C114.208 168.225 113.259 168.415 112.301 168.415H43.7239C42.7655 168.415 41.8166 168.225 40.9316 167.857C40.0466 167.49 39.2429 166.951 38.5666 166.272C37.1978 164.898 36.4293 163.037 36.4297 161.097V98.7475C36.4291 96.808 37.1973 94.9473 38.5658 93.5729C39.2422 92.8939 40.0459 92.355 40.9309 91.9873C41.8159 91.6195 42.7647 91.43 43.7231 91.4297H72.9913M119.593 160.997V131.315" stroke="#92A685" stroke-width="4.72424" stroke-miterlimit="10"/>
<path d="M119.487 105.76C137.094 105.76 151.368 91.44 151.368 73.7745C151.368 56.1098 137.094 41.7891 119.487 41.7891C101.88 41.7891 87.6055 56.1098 87.6055 73.7745C87.6055 91.44 101.88 105.76 119.487 105.76Z" fill="#92A685"/>
<path d="M119.725 82.6114C124.719 82.6114 128.767 78.5501 128.767 73.5409C128.767 68.53 124.719 64.4688 119.725 64.4688C114.731 64.4688 110.684 68.53 110.684 73.5401C110.684 78.5501 114.731 82.6114 119.725 82.6114Z" fill="white"/>
<path d="M119.628 38.2164V26.1562M119.628 120.712V108.652M166.268 73.9151H154.247M85.0091 73.9151H72.9883M119.666 114.55C142.137 114.55 160.353 96.2741 160.353 73.7301C160.353 51.186 142.137 32.9103 119.666 32.9103C97.1953 32.9103 78.9794 51.186 78.9794 73.7301C78.9794 96.2741 97.1953 114.55 119.666 114.55Z" stroke="#92A685" stroke-width="3.14949" stroke-miterlimit="10"/>
<path d="M20.6814 1.35156H181.305C191.524 1.35156 199.809 9.63575 199.809 19.8548V181.266C199.809 191.485 191.524 199.769 181.305 199.769H20.6814C10.4623 199.769 2.17809 191.485 2.17809 181.266V19.8548C2.17809 9.63575 10.4623 1.35156 20.6814 1.35156Z" stroke="black" stroke-opacity="0.8" stroke-width="2.36212"/>
</g>
<defs>
<clipPath id="clip0_1845_3155">
<rect width="199.993" height="200.78" fill="white" transform="translate(0.996094 0.171875)"/>
</clipPath>
</defs>
</svg>
