<svg width="201" height="201" viewBox="0 0 201 201" fill="none" xmlns="http://www.w3.org/2000/svg">
<g clip-path="url(#clip0_1845_3177)">
<path d="M178.123 80.7906V68.6021L166.416 67.4194C165.581 64.0148 164.194 60.7698 162.311 57.8135L169.855 48.5658L161.262 39.9449L151.935 47.6052C149.019 45.8259 145.835 44.5282 142.506 43.762L141.304 31.6641H129.15L127.945 43.762C124.615 44.5271 121.431 45.8246 118.515 47.6044L109.186 39.9449L100.593 48.5666L108.137 57.8135C106.253 60.7697 104.867 64.0147 104.032 67.4194L92.3242 68.6021V80.7906L103.817 81.9441C104.574 85.4842 105.925 88.8707 107.813 91.9603L100.587 100.83L109.18 109.451L117.9 102.29C121.002 104.29 124.429 105.735 128.028 106.559L129.142 117.746H141.294L142.405 106.559C146.004 105.735 149.431 104.29 152.534 102.29L161.253 109.451L169.846 100.83L162.62 91.9603C164.511 88.8763 165.867 85.495 166.631 81.9591L178.123 80.7906Z" fill="#92A685"/>
<path d="M118.813 161.191C118.813 163.15 118.037 165.029 116.654 166.417C115.971 167.103 115.16 167.647 114.266 168.019C113.372 168.39 112.413 168.582 111.445 168.582H42.1831C41.215 168.582 40.2565 168.39 39.3626 168.019C38.4686 167.647 37.6569 167.103 36.9738 166.417C35.5916 165.029 34.8158 163.15 34.8164 161.191V98.2192C34.8164 96.2586 35.5928 94.3784 36.9738 92.9926C37.657 92.3068 38.4688 91.7626 39.3627 91.3912C40.2566 91.0198 41.2151 90.8284 42.1831 90.8281H82.6461M118.813 161.092V127.49" stroke="#92A685" stroke-width="4.72424" stroke-miterlimit="10"/>
<path d="M135.194 90.1956C143.42 90.1956 150.087 83.5061 150.087 75.2545C150.087 67.002 143.42 60.3125 135.194 60.3125C126.969 60.3125 120.301 67.002 120.301 75.2545C120.301 83.5061 126.969 90.1956 135.194 90.1956Z" fill="white" stroke="#90A685" stroke-width="3.14949" stroke-miterlimit="10"/>
<path d="M20.6462 1.35156H181.27C191.489 1.35156 199.773 9.63575 199.773 19.8548V181.266C199.773 191.485 191.489 199.769 181.27 199.769H20.6462C10.4271 199.769 2.14293 191.485 2.14293 181.266V19.8548C2.14293 9.63575 10.4271 1.35156 20.6462 1.35156Z" stroke="black" stroke-opacity="0.8" stroke-width="2.36212"/>
</g>
<defs>
<clipPath id="clip0_1845_3177">
<rect width="199.993" height="200.78" fill="white" transform="translate(0.960938 0.171875)"/>
</clipPath>
</defs>
</svg>
