<svg width="201" height="201" viewBox="0 0 201 201" fill="none" xmlns="http://www.w3.org/2000/svg">
<g clip-path="url(#clip0_1845_3144)">
<path d="M113.654 160.669C113.654 161.625 113.466 162.572 113.1 163.455C112.733 164.338 112.197 165.14 111.521 165.816C110.155 167.181 108.302 167.948 106.371 167.948H37.8925C35.9612 167.947 34.109 167.181 32.7427 165.816C32.0665 165.14 31.53 164.338 31.164 163.455C30.7979 162.572 30.6095 161.625 30.6094 160.669V98.6542C30.6094 96.7232 31.3764 94.8723 32.7427 93.5068C34.1092 92.1416 35.9618 91.3749 37.8933 91.375H74.9835M113.655 160.57V126.896" stroke="#92A685" stroke-width="4.70588" stroke-miterlimit="10"/>
<path d="M111.435 103.253C127.349 103.253 140.249 90.3613 140.249 74.4586C140.249 58.5558 127.349 45.6641 111.435 45.6641C95.5215 45.6641 82.6211 58.5558 82.6211 74.4586C82.6211 90.3613 95.5215 103.253 111.435 103.253Z" fill="#92A685"/>
<path d="M130.246 101.345L139.263 91.8906M133.837 104.809L142.851 95.3526" stroke="#92A685" stroke-width="3.13725" stroke-linecap="square" stroke-linejoin="round"/>
<path d="M136.84 108.874L157.747 128.78L157.732 128.748C159.171 130.036 161.057 130.71 162.986 130.626C164.915 130.543 166.735 129.708 168.057 128.301C169.378 126.894 170.096 125.026 170.058 123.096C170.019 121.166 169.227 119.328 167.851 117.975L167.754 117.868L147.113 98.1016" stroke="#92A685" stroke-width="3.92157" stroke-linejoin="round"/>
<path d="M19.6281 1.35156H180.412C190.592 1.35156 198.844 9.60357 198.844 19.7829V180.567C198.844 190.747 190.592 198.999 180.412 198.999H19.6281C9.4487 198.999 1.19669 190.747 1.19669 180.567V19.7829C1.19669 9.60357 9.4487 1.35156 19.6281 1.35156Z" stroke="black" stroke-opacity="0.8" stroke-width="2.35294"/>
</g>
<defs>
<clipPath id="clip0_1845_3144">
<rect width="200" height="200" fill="white" transform="translate(0.0195312 0.171875)"/>
</clipPath>
</defs>
</svg>
