<svg width="201" height="201" viewBox="0 0 201 201" fill="none" xmlns="http://www.w3.org/2000/svg">
<g clip-path="url(#clip0_1845_3166)">
<path d="M127.069 160.935C127.068 162.883 126.294 164.75 124.916 166.126C123.539 167.503 121.672 168.276 119.724 168.277H50.6654C48.7181 168.276 46.8506 167.503 45.4733 166.126C44.0959 164.75 43.3216 162.883 43.3203 160.935V98.3951C43.3203 96.4484 44.0944 94.581 45.4717 93.2045C46.8496 91.828 48.7177 91.0547 50.6654 91.0547H95.6811M127.067 160.827V131.055" stroke="#92A685" stroke-width="4.70588" stroke-miterlimit="10"/>
<path d="M127.205 107.672H138.758C138.782 109.204 138.501 110.725 137.931 112.148C137.362 113.57 136.515 114.865 135.44 115.957C134.093 117.324 132.427 118.334 130.591 118.897C128.756 119.459 126.81 119.555 124.928 119.178C123.047 118.8 121.289 117.959 119.813 116.732C118.337 115.505 117.19 113.929 116.476 112.148C115.906 110.725 115.626 109.204 115.65 107.672H127.205Z" stroke="#92A685" stroke-width="3.92157" stroke-linecap="round" stroke-linejoin="round"/>
<path d="M104.495 87.126H149.901C154.394 82.6398 157.455 76.9211 158.696 70.694C159.937 64.4669 159.302 58.0116 156.872 52.1456C154.441 46.2791 150.324 41.2654 145.043 37.7386C139.76 34.2109 133.55 32.3281 127.198 32.3281C120.845 32.3281 114.636 34.2109 109.353 37.7386C104.071 41.2651 99.9545 46.2793 97.5238 52.1464C95.0943 58.0126 94.4599 64.4676 95.7008 70.6945C96.9417 76.9214 100.002 82.6401 104.495 87.1268V87.126Z" fill="#92A685"/>
<path d="M111.93 97.3125H142.48" stroke="#92A685" stroke-width="3.92157" stroke-linejoin="round"/>
<path d="M20.5773 1.35156H181.362C191.541 1.35156 199.793 9.60357 199.793 19.7829V180.567C199.793 190.747 191.541 198.999 181.362 198.999H20.5773C10.3979 198.999 2.1459 190.747 2.1459 180.567V19.7829C2.1459 9.60357 10.3979 1.35156 20.5773 1.35156Z" stroke="black" stroke-opacity="0.8" stroke-width="2.35294"/>
</g>
<defs>
<clipPath id="clip0_1845_3166">
<rect width="200" height="200" fill="white" transform="translate(0.96875 0.171875)"/>
</clipPath>
</defs>
</svg>
