<svg xmlns="http://www.w3.org/2000/svg" width="60" height="61" viewBox="0 0 60 61" fill="none">
  <path d="M50 25.9297C50 40.9297 30 55.9297 30 55.9297C30 55.9297 10 40.9297 10 25.9297C10 20.6254 12.1071 15.5383 15.8579 11.7876C19.6086 8.03683 24.6957 5.92969 30 5.92969C35.3043 5.92969 40.3914 8.03683 44.1421 11.7876C47.8929 15.5383 50 20.6254 50 25.9297Z" stroke="#293A3D" stroke-width="4" stroke-linecap="round" stroke-linejoin="round"/>
  <path d="M30 33.4297C34.1421 33.4297 37.5 30.0718 37.5 25.9297C37.5 21.7876 34.1421 18.4297 30 18.4297C25.8579 18.4297 22.5 21.7876 22.5 25.9297C22.5 30.0718 25.8579 33.4297 30 33.4297Z" stroke="#293A3D" stroke-width="4" stroke-linecap="round" stroke-linejoin="round"/>
</svg>