<svg width="201" height="201" viewBox="0 0 201 201" fill="none" xmlns="http://www.w3.org/2000/svg">
<g clip-path="url(#clip0_1845_3186)">
<path d="M120.034 160.668C120.034 162.617 119.26 164.487 117.881 165.865C116.503 167.244 114.633 168.018 112.684 168.018H43.5732C42.6079 168.019 41.652 167.829 40.7601 167.459C39.8681 167.09 39.0577 166.549 38.3751 165.866C37.6925 165.183 37.1511 164.373 36.7818 163.481C36.4124 162.589 36.2225 161.633 36.2227 160.668V98.0389C36.2229 96.0894 36.9973 94.2198 38.3758 92.8412C39.7542 91.4626 41.6237 90.6879 43.5732 90.6875L94.894 90.8318M120.032 160.564V119.352" stroke="#92A685" stroke-width="4.70588" stroke-miterlimit="10"/>
<path d="M145.203 52.2266L158.191 65.2148" stroke="#92A685" stroke-width="2.35294" stroke-linecap="round" stroke-linejoin="round"/>
<path d="M96.8801 127.377L77.9766 132.443L83.0432 113.539" stroke="#92A685" stroke-width="3.13725" stroke-linecap="round" stroke-linejoin="round"/>
<path d="M83.043 113.501L142.27 54.2734L156.149 68.1479L96.919 127.376" fill="#92A685"/>
<path d="M83.043 113.501L142.27 54.2734L156.149 68.1479L96.919 127.376" stroke="#92A685" stroke-width="3.13725" stroke-miterlimit="10"/>
<path d="M79.3125 131.106L80.9588 124.961L85.4545 129.459L79.3125 131.106Z" fill="#92A685" stroke="#92A685" stroke-width="3.13725" stroke-miterlimit="10"/>
<path d="M147.727 48.7896L151.29 45.2265C151.543 44.9739 151.843 44.7735 152.173 44.6368C152.503 44.5001 152.856 44.4297 153.214 44.4297C153.571 44.4297 153.924 44.5001 154.254 44.6368C154.584 44.7735 154.884 44.9739 155.137 45.2265L165.17 55.2602C165.68 55.7705 165.966 56.4622 165.966 57.1834C165.966 57.9045 165.68 58.5962 165.17 59.1065L161.607 62.6696L147.73 48.7935L147.727 48.7896Z" stroke="#92A685" stroke-width="3.13725" stroke-linecap="round" stroke-linejoin="round"/>
<path d="M20.5382 1.35156H181.323C191.502 1.35156 199.754 9.60357 199.754 19.7829V180.567C199.754 190.747 191.502 198.999 181.323 198.999H20.5382C10.3589 198.999 2.10684 190.747 2.10684 180.567V19.7829C2.10684 9.60357 10.3589 1.35156 20.5382 1.35156Z" stroke="black" stroke-opacity="0.8" stroke-width="2.35294"/>
</g>
<defs>
<clipPath id="clip0_1845_3186">
<rect width="200" height="200" fill="white" transform="translate(0.929688 0.171875)"/>
</clipPath>
</defs>
</svg>
