<svg width="183" height="174" viewBox="0 0 183 174" fill="none" xmlns="http://www.w3.org/2000/svg">
<rect x="0.5" y="1.42969" width="182" height="172" stroke="black"/>
<path d="M54.5369 97.9297H51.767L59.7784 76.1115H62.5057L70.517 97.9297H67.7472L61.2273 79.5632H61.0568L54.5369 97.9297ZM55.5597 89.407H66.7244V91.7507H55.5597V89.407ZM78.3899 98.3132C77.353 98.3132 76.4119 98.1179 75.5668 97.7273C74.7216 97.3295 74.0504 96.7578 73.5533 96.0121C73.0561 95.2592 72.8075 94.3501 72.8075 93.2848C72.8075 92.3473 72.9922 91.5874 73.3615 91.005C73.7308 90.4155 74.2244 89.9538 74.8423 89.62C75.4602 89.2862 76.142 89.0376 76.8878 88.8743C77.6406 88.7038 78.397 88.5689 79.157 88.4695C80.1513 88.3416 80.9574 88.2457 81.5753 88.1818C82.2003 88.1108 82.6548 87.9936 82.9389 87.8303C83.2301 87.6669 83.3757 87.3828 83.3757 86.978V86.8928C83.3757 85.8416 83.0881 85.0249 82.5128 84.4425C81.9446 83.8601 81.0817 83.5689 79.924 83.5689C78.7237 83.5689 77.7827 83.8317 77.1009 84.3572C76.419 84.8828 75.9396 85.4439 75.6626 86.0405L73.2763 85.1882C73.7024 84.1939 74.2706 83.4197 74.9808 82.8658C75.6982 82.3047 76.4794 81.9141 77.3246 81.6939C78.1768 81.4666 79.0149 81.353 79.8388 81.353C80.3643 81.353 80.968 81.4169 81.6499 81.5447C82.3388 81.6655 83.0028 81.9176 83.642 82.3011C84.2884 82.6847 84.8246 83.2635 85.2507 84.0376C85.6768 84.8118 85.8899 85.8487 85.8899 87.1484V97.9297H83.3757V95.7138H83.2479C83.0774 96.0689 82.7933 96.4489 82.3956 96.8537C81.9979 97.2585 81.4688 97.603 80.8082 97.8871C80.1477 98.1712 79.3416 98.3132 78.3899 98.3132ZM78.7734 96.0547C79.7678 96.0547 80.6058 95.8594 81.2876 95.4688C81.9766 95.0781 82.495 94.5739 82.843 93.956C83.1982 93.3381 83.3757 92.6882 83.3757 92.0064V89.7053C83.2692 89.8331 83.0348 89.9503 82.6726 90.0568C82.3175 90.1562 81.9055 90.245 81.4368 90.3232C80.9751 90.3942 80.5241 90.4581 80.0838 90.5149C79.6506 90.5646 79.299 90.6072 79.0291 90.6428C78.3757 90.728 77.7649 90.8665 77.1967 91.0582C76.6357 91.2429 76.1811 91.5234 75.8331 91.8999C75.4922 92.2692 75.3217 92.7734 75.3217 93.4126C75.3217 94.2862 75.6449 94.9467 76.2912 95.3942C76.9446 95.8345 77.772 96.0547 78.7734 96.0547ZM98.5328 97.9297V96.0121L110.294 78.4553H98.405V76.1115H113.448V78.0291L101.686 95.5859H113.575V97.9297H98.5328ZM117.198 97.9297V96.0121L126.487 84.0803V83.9098H117.496V81.5661H129.726V83.5689L120.692 95.4155V95.5859H130.024V97.9297H117.198Z" fill="black" fill-opacity="0.8"/>
<path d="M38.124 143.65V154.93H36.668V143.65H38.124ZM49.2329 154.93H47.7769L41.9209 146.018V154.93H40.4649V143.65H41.9209L47.7769 152.578V143.65H49.2329V154.93ZM58.4862 143.65V144.834H55.3023V154.93H53.8463V144.834H50.6623V143.65H58.4862ZM61.3896 144.834V148.69H65.6776V149.81H61.3896V153.746H66.1576V154.93H59.9336V143.65H66.1576V144.834H61.3896ZM74.0114 154.93L71.0674 150.322H69.4834V154.93H68.0274V143.65H71.7394C73.0194 143.65 73.9794 143.959 74.6194 144.578C75.2594 145.186 75.5794 145.996 75.5794 147.01C75.5794 147.927 75.3234 148.668 74.8114 149.234C74.2994 149.788 73.558 150.135 72.5874 150.274L75.6594 154.93H74.0114ZM69.4834 149.266H71.6114C73.2647 149.266 74.0914 148.54 74.0914 147.09C74.0914 145.639 73.2647 144.914 71.6114 144.914H69.4834V149.266ZM87.2926 154.93L84.3486 150.322H82.7646V154.93H81.3086V143.65H85.0206C86.3006 143.65 87.2606 143.959 87.9006 144.578C88.5406 145.186 88.8606 145.996 88.8606 147.01C88.8606 147.927 88.6046 148.668 88.0926 149.234C87.5806 149.788 86.8393 150.135 85.8686 150.274L88.9406 154.93H87.2926ZM82.7646 149.266H84.8926C86.546 149.266 87.3726 148.54 87.3726 147.09C87.3726 145.639 86.546 144.914 84.8926 144.914H82.7646V149.266ZM92.0928 144.834V148.69H96.3808V149.81H92.0928V153.746H96.8608V154.93H90.6368V143.65H96.8608V144.834H92.0928ZM103.851 143.538C105.163 143.538 106.261 143.863 107.147 144.514C108.043 145.164 108.645 146.05 108.955 147.17H107.419C107.152 146.487 106.704 145.938 106.075 145.522C105.456 145.106 104.72 144.898 103.867 144.898C103.099 144.898 102.411 145.079 101.803 145.442C101.195 145.794 100.715 146.3 100.363 146.962C100.021 147.623 99.8505 148.402 99.8505 149.298C99.8505 150.215 100.027 151.01 100.379 151.682C100.731 152.343 101.216 152.855 101.835 153.218C102.464 153.57 103.184 153.746 103.995 153.746C104.688 153.746 105.323 153.596 105.899 153.298C106.475 152.999 106.944 152.567 107.307 152.002C107.68 151.426 107.904 150.754 107.979 149.986H103.547V148.898H109.211V150.242C109.115 151.138 108.837 151.948 108.379 152.674C107.92 153.399 107.301 153.975 106.523 154.402C105.744 154.828 104.859 155.042 103.867 155.042C102.779 155.042 101.819 154.802 100.987 154.322C100.155 153.831 99.5038 153.154 99.0345 152.29C98.5758 151.415 98.3465 150.418 98.3465 149.298C98.3465 148.178 98.5758 147.186 99.0345 146.322C99.5038 145.447 100.155 144.764 100.987 144.274C101.819 143.783 102.773 143.538 103.851 143.538ZM112.56 143.65V150.418C112.56 151.527 112.805 152.348 113.296 152.882C113.786 153.404 114.464 153.666 115.328 153.666C116.181 153.666 116.848 153.399 117.328 152.866C117.808 152.332 118.048 151.516 118.048 150.418V143.65H119.504V150.418C119.504 151.954 119.12 153.111 118.352 153.89C117.594 154.658 116.576 155.042 115.296 155.042C114.026 155.042 113.008 154.658 112.24 153.89C111.482 153.111 111.104 151.954 111.104 150.418V143.65H112.56ZM123.218 153.794H127.218V154.93H121.762V143.65H123.218V153.794ZM135.307 152.322H130.347L129.403 154.93H127.835L132.011 143.858H133.659L137.819 154.93H136.251L135.307 152.322ZM134.891 151.186L132.827 145.49L130.763 151.186H134.891ZM145.277 154.93L142.333 150.322H140.749V154.93H139.293V143.65H143.005C144.285 143.65 145.245 143.959 145.885 144.578C146.525 145.186 146.845 145.996 146.845 147.01C146.845 147.927 146.589 148.668 146.077 149.234C145.565 149.788 144.824 150.135 143.853 150.274L146.925 154.93H145.277ZM140.749 149.266H142.877C144.53 149.266 145.357 148.54 145.357 147.09C145.357 145.639 144.53 144.914 142.877 144.914H140.749V149.266Z" fill="black" fill-opacity="0.8"/>
</svg>
