<svg width="183" height="174" viewBox="0 0 183 174" fill="none" xmlns="http://www.w3.org/2000/svg">
<rect x="0.5" y="1.42969" width="182" height="172" stroke="black"/>
<path d="M55.157 97.9297H50.2138L57.7457 76.1115H63.6903L71.2116 97.9297H66.2685L60.8033 81.0973H60.6328L55.157 97.9297ZM54.848 89.3537H66.5241V92.9545H54.848V89.3537ZM78.4187 98.2386C77.3746 98.2386 76.4442 98.0575 75.6275 97.6953C74.8107 97.326 74.1644 96.7827 73.6886 96.0653C73.2198 95.3409 72.9854 94.4389 72.9854 93.3594C72.9854 92.4503 73.1523 91.6868 73.4862 91.0689C73.82 90.451 74.2745 89.9538 74.8498 89.5774C75.4251 89.201 76.0785 88.9169 76.81 88.7251C77.5487 88.5334 78.3228 88.3984 79.1325 88.3203C80.0842 88.2209 80.8512 88.1286 81.4336 88.0433C82.016 87.951 82.4386 87.8161 82.7013 87.6385C82.9641 87.4609 83.0955 87.1982 83.0955 86.8501V86.7862C83.0955 86.1115 82.8825 85.5895 82.4563 85.2202C82.0373 84.8509 81.4407 84.6662 80.6665 84.6662C79.8498 84.6662 79.1999 84.8473 78.717 85.2095C78.234 85.5646 77.9144 86.0121 77.7582 86.5518L73.5607 86.2109C73.7738 85.2166 74.1928 84.3572 74.8178 83.6328C75.4428 82.9013 76.2489 82.3402 77.2362 81.9496C78.2305 81.5518 79.381 81.353 80.6879 81.353C81.5969 81.353 82.467 81.4595 83.2979 81.6726C84.136 81.8857 84.8782 82.2159 85.5245 82.6634C86.1779 83.1108 86.6928 83.6861 87.0692 84.3892C87.4457 85.0852 87.6339 85.9197 87.6339 86.8928V97.9297H83.3299V95.6605H83.2021C82.9393 96.1719 82.5877 96.6229 82.1474 97.0135C81.707 97.397 81.1779 97.6989 80.56 97.919C79.9421 98.1321 79.2283 98.2386 78.4187 98.2386ZM79.7184 95.1065C80.386 95.1065 80.9755 94.9751 81.4869 94.7124C81.9982 94.4425 82.3995 94.0803 82.6907 93.6257C82.9819 93.1712 83.1275 92.6562 83.1275 92.081V90.3445C82.9854 90.4368 82.7901 90.522 82.5415 90.6001C82.3001 90.6712 82.0266 90.7386 81.7212 90.8026C81.4158 90.8594 81.1104 90.9126 80.805 90.9624C80.4996 91.005 80.2227 91.044 79.9741 91.0795C79.4414 91.1577 78.9762 91.282 78.5785 91.4524C78.1808 91.6229 77.8718 91.8537 77.6516 92.1449C77.4315 92.429 77.3214 92.7841 77.3214 93.2102C77.3214 93.8281 77.5451 94.3004 77.9925 94.6271C78.4471 94.9467 79.0224 95.1065 79.7184 95.1065ZM97.949 97.9297V95.1918L108.837 79.9148H97.9277V76.1115H114.632V78.8494L103.734 94.1264H114.654V97.9297H97.949ZM118.023 97.9297V95.2237L126.034 85.3054V85.1882H118.3V81.5661H131.499V84.517L123.978 94.1903V94.3075H131.776V97.9297H118.023Z" fill="black" fill-opacity="0.8"/>
<path d="M50.024 143.81V154.93H48.2V143.81H50.024ZM61.5548 154.93H59.7308L54.2428 146.626V154.93H52.4188V143.794H54.2428L59.7308 152.082V143.794H61.5548V154.93ZM71.134 143.81V145.298H68.174V154.93H66.35V145.298H63.374V143.81H71.134ZM74.8053 145.282V148.546H78.6453V150.034H74.8053V153.442H79.1253V154.93H72.9813V143.794H79.1253V145.282H74.8053ZM87.1479 154.93L84.5879 150.482H83.1959V154.93H81.3719V143.81H85.2119C86.0652 143.81 86.7852 143.959 87.3719 144.258C87.9692 144.556 88.4119 144.956 88.6999 145.458C88.9985 145.959 89.1479 146.519 89.1479 147.138C89.1479 147.863 88.9345 148.524 88.5079 149.122C88.0919 149.708 87.4465 150.108 86.5719 150.322L89.3239 154.93H87.1479ZM83.1959 149.026H85.2119C85.8945 149.026 86.4065 148.855 86.7479 148.514C87.0999 148.172 87.2759 147.714 87.2759 147.138C87.2759 146.562 87.1052 146.114 86.7639 145.794C86.4225 145.463 85.9052 145.298 85.2119 145.298H83.1959V149.026ZM101.59 149.218C102.187 149.324 102.694 149.639 103.11 150.162C103.526 150.684 103.734 151.276 103.734 151.938C103.734 152.503 103.584 153.015 103.286 153.474C102.998 153.922 102.576 154.279 102.022 154.546C101.467 154.802 100.822 154.93 100.086 154.93H95.6375V143.81H99.8775C100.635 143.81 101.286 143.938 101.83 144.194C102.374 144.45 102.784 144.796 103.062 145.234C103.339 145.66 103.477 146.14 103.477 146.674C103.477 147.314 103.307 147.847 102.966 148.274C102.624 148.7 102.166 149.015 101.59 149.218ZM97.4615 148.482H99.7175C100.315 148.482 100.779 148.348 101.11 148.082C101.451 147.804 101.622 147.41 101.622 146.898C101.622 146.396 101.451 146.007 101.11 145.73C100.779 145.442 100.315 145.298 99.7175 145.298H97.4615V148.482ZM99.9255 153.442C100.544 153.442 101.03 153.292 101.382 152.994C101.734 152.695 101.91 152.279 101.91 151.746C101.91 151.202 101.723 150.77 101.35 150.45C100.976 150.13 100.48 149.97 99.8615 149.97H97.4615V153.442H99.9255ZM110.788 155.042C109.753 155.042 108.798 154.802 107.924 154.322C107.06 153.831 106.372 153.154 105.86 152.29C105.358 151.415 105.108 150.434 105.108 149.346C105.108 148.258 105.358 147.282 105.86 146.418C106.372 145.554 107.06 144.882 107.924 144.402C108.798 143.911 109.753 143.666 110.788 143.666C111.833 143.666 112.788 143.911 113.652 144.402C114.526 144.882 115.214 145.554 115.716 146.418C116.217 147.282 116.468 148.258 116.468 149.346C116.468 150.434 116.217 151.415 115.716 152.29C115.214 153.154 114.526 153.831 113.652 154.322C112.788 154.802 111.833 155.042 110.788 155.042ZM110.788 153.458C111.524 153.458 112.18 153.292 112.756 152.962C113.332 152.62 113.78 152.14 114.1 151.522C114.43 150.892 114.596 150.167 114.596 149.346C114.596 148.524 114.43 147.804 114.1 147.186C113.78 146.567 113.332 146.092 112.756 145.762C112.18 145.431 111.524 145.266 110.788 145.266C110.052 145.266 109.396 145.431 108.82 145.762C108.244 146.092 107.79 146.567 107.46 147.186C107.14 147.804 106.98 148.524 106.98 149.346C106.98 150.167 107.14 150.892 107.46 151.522C107.79 152.14 108.244 152.62 108.82 152.962C109.396 153.292 110.052 153.458 110.788 153.458ZM120.087 153.458H123.847V154.93H118.263V143.81H120.087V153.458ZM129.004 143.81C130.188 143.81 131.223 144.039 132.108 144.498C133.004 144.946 133.692 145.596 134.172 146.45C134.663 147.292 134.908 148.279 134.908 149.41C134.908 150.54 134.663 151.522 134.172 152.354C133.692 153.186 133.004 153.826 132.108 154.274C131.223 154.711 130.188 154.93 129.004 154.93H125.372V143.81H129.004ZM129.004 153.442C130.305 153.442 131.303 153.09 131.996 152.386C132.689 151.682 133.036 150.69 133.036 149.41C133.036 148.119 132.689 147.111 131.996 146.386C131.303 145.66 130.305 145.298 129.004 145.298H127.196V153.442H129.004Z" fill="black" fill-opacity="0.8"/>
</svg>
