<svg width="183" height="174" viewBox="0 0 183 174" fill="none" xmlns="http://www.w3.org/2000/svg">
<path d="M54.2401 92.9297H50.7457L58.5973 71.1115H62.4006L70.2521 92.9297H66.7578L60.5895 75.0746H60.419L54.2401 92.9297ZM54.826 84.3857H66.1612V87.1555H54.826V84.3857ZM77.9093 93.2919C76.8723 93.2919 75.9348 93.1001 75.0968 92.7166C74.2587 92.326 73.5946 91.7614 73.1046 91.0227C72.6216 90.2841 72.3801 89.3786 72.3801 88.3061C72.3801 87.3828 72.5577 86.6229 72.9128 86.0263C73.2679 85.4297 73.7473 84.9574 74.351 84.6094C74.9547 84.2614 75.6294 83.9986 76.3752 83.821C77.1209 83.6435 77.8809 83.5085 78.655 83.4162C79.6351 83.3026 80.4306 83.2102 81.0414 83.1392C81.6522 83.0611 82.0961 82.9368 82.373 82.7663C82.65 82.5959 82.7885 82.3189 82.7885 81.9354V81.8608C82.7885 80.9304 82.5257 80.2095 82.0002 79.6982C81.4817 79.1868 80.7076 78.9311 79.6777 78.9311C78.6053 78.9311 77.7601 79.169 77.1422 79.6449C76.5314 80.1136 76.1088 80.6357 75.8745 81.2109L72.8809 80.5291C73.236 79.5348 73.7544 78.7322 74.4363 78.1214C75.1252 77.5036 75.9171 77.0561 76.812 76.7791C77.7069 76.495 78.6479 76.353 79.6351 76.353C80.2885 76.353 80.981 76.4311 81.7125 76.5874C82.4512 76.7365 83.1401 77.0135 83.7793 77.4183C84.4256 77.8232 84.9547 78.402 85.3667 79.1548C85.7786 79.9006 85.9846 80.87 85.9846 82.0632V92.9297H82.8738V90.6925H82.7459C82.54 91.1044 82.231 91.5092 81.8191 91.907C81.4071 92.3047 80.878 92.6349 80.2317 92.8977C79.5854 93.1605 78.8113 93.2919 77.9093 93.2919ZM78.6017 90.7351C79.4824 90.7351 80.2353 90.5611 80.8603 90.2131C81.4924 89.8651 81.9718 89.4105 82.2985 88.8494C82.6323 88.2812 82.7992 87.674 82.7992 87.0277V84.9183C82.6855 85.032 82.4654 85.1385 82.1387 85.2379C81.8191 85.3303 81.4533 85.4119 81.0414 85.483C80.6294 85.5469 80.2282 85.6072 79.8375 85.6641C79.4469 85.7138 79.1202 85.7564 78.8574 85.7919C78.2395 85.87 77.6749 86.0014 77.1635 86.1861C76.6593 86.3707 76.2544 86.6371 75.949 86.9851C75.6507 87.326 75.5016 87.7805 75.5016 88.3487C75.5016 89.1371 75.7928 89.7337 76.3752 90.1385C76.9576 90.5362 77.6998 90.7351 78.6017 90.7351ZM97.8578 92.9297V90.7351L109.331 73.9453H97.7619V71.1115H113.358V73.3061L101.885 90.0959H113.454V92.9297H97.8578ZM116.986 92.9297V90.7457L125.85 79.4851V79.3359H117.274V76.5661H129.823V78.8885L121.301 90.0107V90.1598H130.122V92.9297H116.986Z" fill="black" fill-opacity="0.8"/>
<path d="M40.624 138.65V149.93H39.168V138.65H40.624ZM51.7329 149.93H50.2769L44.4209 141.018V149.93H42.9649V138.65H44.4209L50.2769 147.578V138.65H51.7329V149.93ZM60.9862 138.65V139.834H57.8023V149.93H56.3463V139.834H53.1623V138.65H60.9862ZM63.8896 139.834V143.69H68.1776V144.81H63.8896V148.746H68.6576V149.93H62.4336V138.65H68.6576V139.834H63.8896ZM76.5114 149.93L73.5674 145.322H71.9834V149.93H70.5274V138.65H74.2394C75.5194 138.65 76.4794 138.959 77.1194 139.578C77.7594 140.186 78.0794 140.996 78.0794 142.01C78.0794 142.927 77.8234 143.668 77.3114 144.234C76.7994 144.788 76.058 145.135 75.0874 145.274L78.1594 149.93H76.5114ZM71.9834 144.266H74.1114C75.7647 144.266 76.5914 143.54 76.5914 142.09C76.5914 140.639 75.7647 139.914 74.1114 139.914H71.9834V144.266ZM95.1046 138.842V149.93H93.6486V141.082L90.1126 149.93H88.8166L85.2646 141.114V149.93H83.8086V138.842H85.5526L89.4886 148.154L93.3606 138.842H95.1046ZM98.8896 139.834V143.69H103.178V144.81H98.8896V148.746H103.658V149.93H97.4336V138.65H103.658V139.834H98.8896ZM115.031 144.282C115.031 145.423 114.802 146.42 114.343 147.274C113.885 148.116 113.207 148.772 112.311 149.242C111.426 149.7 110.359 149.93 109.111 149.93H105.527V138.65H109.111C110.359 138.65 111.426 138.879 112.311 139.338C113.207 139.786 113.885 140.436 114.343 141.29C114.802 142.132 115.031 143.13 115.031 144.282ZM108.999 148.618C110.471 148.618 111.597 148.239 112.375 147.482C113.154 146.724 113.543 145.658 113.543 144.282C113.543 142.906 113.154 141.839 112.375 141.082C111.607 140.314 110.482 139.93 108.999 139.93H106.983V148.618H108.999ZM118.452 138.65V149.93H116.996V138.65H118.452ZM122.169 138.65V145.418C122.169 146.527 122.414 147.348 122.905 147.882C123.396 148.404 124.073 148.666 124.937 148.666C125.79 148.666 126.457 148.399 126.937 147.866C127.417 147.332 127.657 146.516 127.657 145.418V138.65H129.113V145.418C129.113 146.954 128.729 148.111 127.961 148.89C127.204 149.658 126.185 150.042 124.905 150.042C123.636 150.042 122.617 149.658 121.849 148.89C121.092 148.111 120.713 146.954 120.713 145.418V138.65H122.169ZM142.667 138.842V149.93H141.211V141.082L137.675 149.93H136.379L132.827 141.114V149.93H131.371V138.842H133.115L137.051 148.154L140.923 138.842H142.667Z" fill="black"/>
<rect x="0.5" y="1.42969" width="182" height="172" stroke="black"/>
</svg>
