<svg width="183" height="174" viewBox="0 0 183 174" fill="none" xmlns="http://www.w3.org/2000/svg">
<rect x="0.5" y="1.42969" width="182" height="172" stroke="black"/>
<path d="M54.9538 97.9297H50.7351L58.4162 76.1115H63.2955L70.9872 97.9297H66.7685L60.9411 80.5859H60.7706L54.9538 97.9297ZM55.0923 89.375H66.598V92.5497H55.0923V89.375ZM78.3993 98.2599C77.3624 98.2599 76.4284 98.0753 75.5975 97.706C74.7736 97.3295 74.1202 96.7756 73.6373 96.044C73.1614 95.3125 72.9235 94.4105 72.9235 93.3381C72.9235 92.4148 73.0939 91.6513 73.4348 91.0476C73.7757 90.4439 74.2409 89.9609 74.8304 89.5987C75.4199 89.2365 76.084 88.9631 76.8226 88.7784C77.5684 88.5866 78.339 88.4482 79.1344 88.3629C80.0932 88.2635 80.8709 88.1747 81.4675 88.0966C82.0641 88.0114 82.4973 87.8835 82.7672 87.7131C83.0442 87.5355 83.1827 87.2621 83.1827 86.8928V86.8288C83.1827 86.0263 82.9448 85.4048 82.4689 84.9645C81.9931 84.5241 81.3077 84.304 80.4128 84.304C79.4682 84.304 78.7189 84.5099 78.165 84.9219C77.6181 85.3338 77.2488 85.8203 77.057 86.3814L73.4561 85.87C73.7402 84.8757 74.209 84.0447 74.8624 83.3771C75.5158 82.7024 76.3148 82.1982 77.2594 81.8643C78.204 81.5234 79.248 81.353 80.3915 81.353C81.1799 81.353 81.9647 81.4453 82.7459 81.63C83.5272 81.8146 84.2409 82.12 84.8873 82.5462C85.5336 82.9652 86.052 83.5369 86.4426 84.2614C86.8404 84.9858 87.0392 85.8913 87.0392 86.978V97.9297H83.3319V95.6818H83.204C82.9696 96.1364 82.6394 96.5625 82.2132 96.9602C81.7942 97.3509 81.2651 97.6669 80.6259 97.9084C79.9938 98.1428 79.2516 98.2599 78.3993 98.2599ZM79.4007 95.4261C80.1749 95.4261 80.8461 95.2734 81.4142 94.968C81.9824 94.6555 82.4192 94.2436 82.7246 93.7322C83.0371 93.2209 83.1934 92.6634 83.1934 92.0597V90.1314C83.0726 90.2308 82.8667 90.3232 82.5755 90.4084C82.2914 90.4936 81.9718 90.5682 81.6167 90.6321C81.2615 90.696 80.91 90.7528 80.562 90.8026C80.214 90.8523 79.9121 90.8949 79.6564 90.9304C79.0811 91.0085 78.5662 91.1364 78.1117 91.3139C77.6571 91.4915 77.2985 91.7401 77.0357 92.0597C76.7729 92.3722 76.6415 92.777 76.6415 93.2741C76.6415 93.9844 76.9007 94.5206 77.4192 94.8828C77.9377 95.245 78.5982 95.4261 79.4007 95.4261ZM98.1241 97.9297V95.4688L109.31 79.4247H98.0602V76.1115H114.211V78.5724L103.035 94.6165H114.275V97.9297H98.1241ZM117.716 97.9297V95.4794L126.153 84.9006V84.7621H117.993V81.5661H130.873V84.1974L122.84 94.5952V94.7337H131.15V97.9297H117.716Z" fill="black" fill-opacity="0.8"/>
<path d="M29.524 143.81V154.93H27.7V143.81H29.524ZM41.0548 154.93H39.2308L33.7428 146.626V154.93H31.9188V143.794H33.7428L39.2308 152.082V143.794H41.0548V154.93ZM50.634 143.81V145.298H47.674V154.93H45.85V145.298H42.874V143.81H50.634ZM54.3053 145.282V148.546H58.1453V150.034H54.3053V153.442H58.6253V154.93H52.4813V143.794H58.6253V145.282H54.3053ZM66.6479 154.93L64.0879 150.482H62.6959V154.93H60.8719V143.81H64.7119C65.5652 143.81 66.2852 143.959 66.8719 144.258C67.4692 144.556 67.9119 144.956 68.1999 145.458C68.4985 145.959 68.6479 146.519 68.6479 147.138C68.6479 147.863 68.4345 148.524 68.0079 149.122C67.5919 149.708 66.9465 150.108 66.0719 150.322L68.8239 154.93H66.6479ZM62.6959 149.026H64.7119C65.3945 149.026 65.9065 148.855 66.2479 148.514C66.5999 148.172 66.7759 147.714 66.7759 147.138C66.7759 146.562 66.6052 146.114 66.2639 145.794C65.9225 145.463 65.4052 145.298 64.7119 145.298H62.6959V149.026ZM78.8015 155.042C78.0548 155.042 77.3828 154.914 76.7855 154.658C76.1882 154.391 75.7188 154.018 75.3775 153.538C75.0362 153.058 74.8655 152.498 74.8655 151.858H76.8175C76.8602 152.338 77.0468 152.732 77.3775 153.042C77.7188 153.351 78.1935 153.506 78.8015 153.506C79.4308 153.506 79.9215 153.356 80.2735 153.058C80.6255 152.748 80.8015 152.354 80.8015 151.874C80.8015 151.5 80.6895 151.196 80.4655 150.962C80.2522 150.727 79.9802 150.546 79.6495 150.418C79.3295 150.29 78.8815 150.151 78.3055 150.002C77.5802 149.81 76.9882 149.618 76.5295 149.426C76.0815 149.223 75.6975 148.914 75.3775 148.498C75.0575 148.082 74.8975 147.527 74.8975 146.834C74.8975 146.194 75.0575 145.634 75.3775 145.154C75.6975 144.674 76.1455 144.306 76.7215 144.05C77.2975 143.794 77.9642 143.666 78.7215 143.666C79.7988 143.666 80.6788 143.938 81.3615 144.482C82.0548 145.015 82.4388 145.751 82.5135 146.69H80.4975C80.4655 146.284 80.2735 145.938 79.9215 145.65C79.5695 145.362 79.1055 145.218 78.5295 145.218C78.0068 145.218 77.5802 145.351 77.2495 145.618C76.9188 145.884 76.7535 146.268 76.7535 146.77C76.7535 147.111 76.8548 147.394 77.0575 147.618C77.2708 147.831 77.5375 148.002 77.8575 148.13C78.1775 148.258 78.6148 148.396 79.1695 148.546C79.9055 148.748 80.5028 148.951 80.9615 149.154C81.4308 149.356 81.8255 149.671 82.1455 150.098C82.4762 150.514 82.6415 151.074 82.6415 151.778C82.6415 152.343 82.4868 152.876 82.1775 153.378C81.8788 153.879 81.4362 154.284 80.8495 154.594C80.2735 154.892 79.5908 155.042 78.8015 155.042ZM86.6178 145.282V148.546H90.4578V150.034H86.6178V153.442H90.9378V154.93H84.7938V143.794H90.9378V145.282H86.6178ZM104.896 143.81V154.93H103.072V147.314L99.6804 154.93H98.4164L95.0084 147.314V154.93H93.1844V143.81H95.1524L99.0564 152.53L102.944 143.81H104.896ZM109.118 143.81V154.93H107.294V143.81H109.118ZM121.621 149.218C122.218 149.324 122.725 149.639 123.141 150.162C123.557 150.684 123.765 151.276 123.765 151.938C123.765 152.503 123.615 153.015 123.317 153.474C123.029 153.922 122.607 154.279 122.053 154.546C121.498 154.802 120.853 154.93 120.117 154.93H115.669V143.81H119.909C120.666 143.81 121.317 143.938 121.861 144.194C122.405 144.45 122.815 144.796 123.093 145.234C123.37 145.66 123.509 146.14 123.509 146.674C123.509 147.314 123.338 147.847 122.997 148.274C122.655 148.7 122.197 149.015 121.621 149.218ZM117.493 148.482H119.749C120.346 148.482 120.81 148.348 121.141 148.082C121.482 147.804 121.653 147.41 121.653 146.898C121.653 146.396 121.482 146.007 121.141 145.73C120.81 145.442 120.346 145.298 119.749 145.298H117.493V148.482ZM119.957 153.442C120.575 153.442 121.061 153.292 121.413 152.994C121.765 152.695 121.941 152.279 121.941 151.746C121.941 151.202 121.754 150.77 121.381 150.45C121.007 150.13 120.511 149.97 119.893 149.97H117.493V153.442H119.957ZM130.819 155.042C129.784 155.042 128.83 154.802 127.955 154.322C127.091 153.831 126.403 153.154 125.891 152.29C125.39 151.415 125.139 150.434 125.139 149.346C125.139 148.258 125.39 147.282 125.891 146.418C126.403 145.554 127.091 144.882 127.955 144.402C128.83 143.911 129.784 143.666 130.819 143.666C131.864 143.666 132.819 143.911 133.683 144.402C134.558 144.882 135.246 145.554 135.747 146.418C136.248 147.282 136.499 148.258 136.499 149.346C136.499 150.434 136.248 151.415 135.747 152.29C135.246 153.154 134.558 153.831 133.683 154.322C132.819 154.802 131.864 155.042 130.819 155.042ZM130.819 153.458C131.555 153.458 132.211 153.292 132.787 152.962C133.363 152.62 133.811 152.14 134.131 151.522C134.462 150.892 134.627 150.167 134.627 149.346C134.627 148.524 134.462 147.804 134.131 147.186C133.811 146.567 133.363 146.092 132.787 145.762C132.211 145.431 131.555 145.266 130.819 145.266C130.083 145.266 129.427 145.431 128.851 145.762C128.275 146.092 127.822 146.567 127.491 147.186C127.171 147.804 127.011 148.524 127.011 149.346C127.011 150.167 127.171 150.892 127.491 151.522C127.822 152.14 128.275 152.62 128.851 152.962C129.427 153.292 130.083 153.458 130.819 153.458ZM140.118 153.458H143.878V154.93H138.294V143.81H140.118V153.458ZM149.035 143.81C150.219 143.81 151.254 144.039 152.139 144.498C153.035 144.946 153.723 145.596 154.203 146.45C154.694 147.292 154.939 148.279 154.939 149.41C154.939 150.54 154.694 151.522 154.203 152.354C153.723 153.186 153.035 153.826 152.139 154.274C151.254 154.711 150.219 154.93 149.035 154.93H145.403V143.81H149.035ZM149.035 153.442C150.336 153.442 151.334 153.09 152.027 152.386C152.72 151.682 153.067 150.69 153.067 149.41C153.067 148.119 152.72 147.111 152.027 146.386C151.334 145.66 150.336 145.298 149.035 145.298H147.227V153.442H149.035Z" fill="black" fill-opacity="0.8"/>
</svg>
