<svg width="184" height="173" viewBox="0 0 184 173" fill="none" xmlns="http://www.w3.org/2000/svg">
<rect x="1.49219" y="0.5" width="182" height="172" stroke="black"/>
<path d="M78.2402 89.066H72.6602L71.5982 92H69.8342L74.5322 79.544H76.3862L81.0662 92H79.3022L78.2402 89.066ZM77.7722 87.788L75.4502 81.38L73.1282 87.788H77.7722ZM86.7742 81.992C87.7342 81.992 88.5442 82.232 89.2042 82.712C89.8762 83.192 90.3442 83.834 90.6082 84.638V82.118H92.2462V92H90.6082V89.48C90.3442 90.284 89.8762 90.926 89.2042 91.406C88.5442 91.886 87.7342 92.126 86.7742 92.126C85.8982 92.126 85.1182 91.922 84.4342 91.514C83.7502 91.106 83.2102 90.524 82.8142 89.768C82.4302 89 82.2382 88.1 82.2382 87.068C82.2382 86.036 82.4302 85.136 82.8142 84.368C83.2102 83.6 83.7502 83.012 84.4342 82.604C85.1182 82.196 85.8982 81.992 86.7742 81.992ZM87.2422 83.45C86.2342 83.45 85.4242 83.774 84.8122 84.422C84.2122 85.058 83.9122 85.94 83.9122 87.068C83.9122 88.196 84.2122 89.084 84.8122 89.732C85.4242 90.368 86.2342 90.686 87.2422 90.686C87.8902 90.686 88.4662 90.536 88.9702 90.236C89.4862 89.936 89.8882 89.516 90.1762 88.976C90.4642 88.424 90.6082 87.788 90.6082 87.068C90.6082 86.348 90.4642 85.712 90.1762 85.16C89.8882 84.608 89.4862 84.188 88.9702 83.9C88.4662 83.6 87.8902 83.45 87.2422 83.45ZM100.542 90.65H106.932V92H98.7063V90.704L104.988 80.66H98.8683V79.31H106.824V80.606L100.542 90.65ZM109.94 90.614H115.232V92H108.14V90.686L113.18 83.504H108.284V82.118H115.052V83.45L109.94 90.614Z" fill="black" fill-opacity="0.8"/>
<path d="M27.6162 149.456V154H26.1602V142.72H29.7442C31.0349 142.72 32.0002 143.024 32.6402 143.632C33.2802 144.229 33.6002 145.051 33.6002 146.096C33.6002 147.152 33.2695 147.979 32.6082 148.576C31.9469 149.163 30.9922 149.456 29.7442 149.456H27.6162ZM29.6162 148.24C30.5015 148.24 31.1362 148.053 31.5202 147.68C31.9149 147.307 32.1122 146.779 32.1122 146.096C32.1122 145.392 31.9149 144.859 31.5202 144.496C31.1362 144.123 30.5015 143.936 29.6162 143.936H27.6162V148.24H29.6162ZM40.4688 142.576C41.5141 142.576 42.4528 142.821 43.2848 143.312C44.1275 143.803 44.7888 144.491 45.2688 145.376C45.7488 146.251 45.9888 147.243 45.9888 148.352C45.9888 149.461 45.7488 150.459 45.2688 151.344C44.7888 152.219 44.1275 152.901 43.2848 153.392C42.4528 153.883 41.5141 154.128 40.4688 154.128C39.4235 154.128 38.4741 153.883 37.6208 153.392C36.7781 152.901 36.1168 152.219 35.6368 151.344C35.1568 150.459 34.9168 149.461 34.9168 148.352C34.9168 147.243 35.1568 146.251 35.6368 145.376C36.1168 144.491 36.7781 143.803 37.6208 143.312C38.4741 142.821 39.4235 142.576 40.4688 142.576ZM40.4688 143.936C39.6901 143.936 38.9915 144.117 38.3728 144.48C37.7648 144.832 37.2848 145.344 36.9328 146.016C36.5915 146.677 36.4208 147.456 36.4208 148.352C36.4208 149.237 36.5915 150.016 36.9328 150.688C37.2848 151.36 37.7648 151.877 38.3728 152.24C38.9915 152.592 39.6901 152.768 40.4688 152.768C41.2368 152.768 41.9248 152.587 42.5328 152.224C43.1515 151.861 43.6315 151.349 43.9728 150.688C44.3248 150.016 44.5008 149.237 44.5008 148.352C44.5008 147.456 44.3248 146.677 43.9728 146.016C43.6315 145.344 43.1515 144.832 42.5328 144.48C41.9248 144.117 41.2368 143.936 40.4688 143.936ZM49.4131 149.456V154H47.9571V142.72H51.5411C52.8317 142.72 53.7971 143.024 54.4371 143.632C55.0771 144.229 55.3971 145.051 55.3971 146.096C55.3971 147.152 55.0664 147.979 54.4051 148.576C53.7437 149.163 52.7891 149.456 51.5411 149.456H49.4131ZM51.4131 148.24C52.2984 148.24 52.9331 148.053 53.3171 147.68C53.7117 147.307 53.9091 146.779 53.9091 146.096C53.9091 145.392 53.7117 144.859 53.3171 144.496C52.9331 144.123 52.2984 143.936 51.4131 143.936H49.4131V148.24H51.4131ZM58.5537 149.456V154H57.0977V142.72H60.6817C61.9724 142.72 62.9377 143.024 63.5777 143.632C64.2177 144.229 64.5377 145.051 64.5377 146.096C64.5377 147.152 64.207 147.979 63.5457 148.576C62.8844 149.163 61.9297 149.456 60.6817 149.456H58.5537ZM60.5537 148.24C61.439 148.24 62.0737 148.053 62.4577 147.68C62.8524 147.307 63.0497 146.779 63.0497 146.096C63.0497 145.392 62.8524 144.859 62.4577 144.496C62.0737 144.123 61.439 143.936 60.5537 143.936H58.5537V148.24H60.5537ZM67.6943 142.72V154H66.2383V142.72H67.6943ZM78.8032 154H77.3472L71.4912 145.088V154H70.0352V142.72H71.4912L77.3472 151.648V142.72H78.8032V154ZM88.2806 151.072C88.2806 151.605 88.1526 152.101 87.8966 152.56C87.6406 153.019 87.2512 153.392 86.7286 153.68C86.2059 153.968 85.5606 154.112 84.7926 154.112C84.0459 154.112 83.3792 153.979 82.7926 153.712C82.2166 153.435 81.7526 153.061 81.4006 152.592C81.0592 152.112 80.8619 151.568 80.8086 150.96H82.3606C82.3926 151.28 82.4992 151.595 82.6806 151.904C82.8726 152.203 83.1392 152.453 83.4806 152.656C83.8326 152.848 84.2539 152.944 84.7446 152.944C85.3846 152.944 85.8752 152.773 86.2166 152.432C86.5579 152.091 86.7286 151.653 86.7286 151.12C86.7286 150.661 86.6059 150.288 86.3606 150C86.1259 149.712 85.8326 149.488 85.4806 149.328C85.1286 149.157 84.6486 148.976 84.0406 148.784C83.3259 148.549 82.7499 148.331 82.3126 148.128C81.8859 147.915 81.5179 147.6 81.2086 147.184C80.9099 146.768 80.7606 146.219 80.7606 145.536C80.7606 144.949 80.8992 144.432 81.1766 143.984C81.4646 143.536 81.8699 143.189 82.3926 142.944C82.9259 142.699 83.5499 142.576 84.2646 142.576C85.3739 142.576 86.2539 142.848 86.9046 143.392C87.5552 143.925 87.9339 144.608 88.0406 145.44H86.4726C86.3872 144.992 86.1579 144.597 85.7846 144.256C85.4112 143.915 84.9046 143.744 84.2646 143.744C83.6779 143.744 83.2086 143.899 82.8566 144.208C82.5046 144.507 82.3286 144.933 82.3286 145.488C82.3286 145.925 82.4406 146.283 82.6646 146.56C82.8992 146.827 83.1872 147.04 83.5286 147.2C83.8699 147.349 84.3392 147.52 84.9366 147.712C85.6619 147.947 86.2432 148.171 86.6806 148.384C87.1286 148.597 87.5072 148.923 87.8166 149.36C88.1259 149.787 88.2806 150.357 88.2806 151.072ZM100.175 154L97.2314 149.392H95.6474V154H94.1914V142.72H97.9034C99.1834 142.72 100.143 143.029 100.783 143.648C101.423 144.256 101.743 145.067 101.743 146.08C101.743 146.997 101.487 147.739 100.975 148.304C100.463 148.859 99.7221 149.205 98.7514 149.344L101.823 154H100.175ZM95.6474 148.336H97.7754C99.4288 148.336 100.255 147.611 100.255 146.16C100.255 144.709 99.4288 143.984 97.7754 143.984H95.6474V148.336ZM104.976 143.904V147.76H109.264V148.88H104.976V152.816H109.744V154H103.52V142.72H109.744V143.904H104.976ZM116.733 142.608C118.045 142.608 119.144 142.933 120.029 143.584C120.925 144.235 121.528 145.12 121.837 146.24H120.301C120.035 145.557 119.587 145.008 118.957 144.592C118.339 144.176 117.603 143.968 116.749 143.968C115.981 143.968 115.293 144.149 114.685 144.512C114.077 144.864 113.597 145.371 113.245 146.032C112.904 146.693 112.733 147.472 112.733 148.368C112.733 149.285 112.909 150.08 113.261 150.752C113.613 151.413 114.099 151.925 114.717 152.288C115.347 152.64 116.067 152.816 116.877 152.816C117.571 152.816 118.205 152.667 118.781 152.368C119.357 152.069 119.827 151.637 120.189 151.072C120.563 150.496 120.787 149.824 120.861 149.056H116.429V147.968H122.093V149.312C121.997 150.208 121.72 151.019 121.261 151.744C120.803 152.469 120.184 153.045 119.405 153.472C118.627 153.899 117.741 154.112 116.749 154.112C115.661 154.112 114.701 153.872 113.869 153.392C113.037 152.901 112.387 152.224 111.917 151.36C111.459 150.485 111.229 149.488 111.229 148.368C111.229 147.248 111.459 146.256 111.917 145.392C112.387 144.517 113.037 143.835 113.869 143.344C114.701 142.853 115.656 142.608 116.733 142.608ZM125.442 142.72V149.488C125.442 150.597 125.688 151.419 126.178 151.952C126.669 152.475 127.346 152.736 128.21 152.736C129.064 152.736 129.73 152.469 130.21 151.936C130.69 151.403 130.93 150.587 130.93 149.488V142.72H132.386V149.488C132.386 151.024 132.002 152.181 131.234 152.96C130.477 153.728 129.458 154.112 128.178 154.112C126.909 154.112 125.89 153.728 125.122 152.96C124.365 152.181 123.986 151.024 123.986 149.488V142.72H125.442ZM136.101 152.864H140.101V154H134.645V142.72H136.101V152.864ZM148.19 151.392H143.23L142.286 154H140.718L144.894 142.928H146.542L150.702 154H149.134L148.19 151.392ZM147.774 150.256L145.71 144.56L143.646 150.256H147.774ZM158.16 154L155.216 149.392H153.632V154H152.176V142.72H155.888C157.168 142.72 158.128 143.029 158.768 143.648C159.408 144.256 159.728 145.067 159.728 146.08C159.728 146.997 159.472 147.739 158.96 148.304C158.448 148.859 157.706 149.205 156.736 149.344L159.808 154H158.16ZM153.632 148.336H155.76C157.413 148.336 158.24 147.611 158.24 146.16C158.24 144.709 157.413 143.984 155.76 143.984H153.632V148.336Z" fill="black" fill-opacity="0.8"/>
</svg>
