<svg width="183" height="173" viewBox="0 0 183 173" fill="none" xmlns="http://www.w3.org/2000/svg">
<path d="M58.624 150.456V155H57.168V143.72H60.752C62.0427 143.72 63.008 144.024 63.648 144.632C64.288 145.229 64.608 146.051 64.608 147.096C64.608 148.152 64.2773 148.979 63.616 149.576C62.9547 150.163 62 150.456 60.752 150.456H58.624ZM60.624 149.24C61.5093 149.24 62.144 149.053 62.528 148.68C62.9227 148.307 63.12 147.779 63.12 147.096C63.12 146.392 62.9227 145.859 62.528 145.496C62.144 145.123 61.5093 144.936 60.624 144.936H58.624V149.24H60.624ZM71.4766 143.576C72.522 143.576 73.4606 143.821 74.2926 144.312C75.1353 144.803 75.7966 145.491 76.2766 146.376C76.7566 147.251 76.9966 148.243 76.9966 149.352C76.9966 150.461 76.7566 151.459 76.2766 152.344C75.7966 153.219 75.1353 153.901 74.2926 154.392C73.4606 154.883 72.522 155.128 71.4766 155.128C70.4313 155.128 69.482 154.883 68.6286 154.392C67.786 153.901 67.1246 153.219 66.6446 152.344C66.1646 151.459 65.9246 150.461 65.9246 149.352C65.9246 148.243 66.1646 147.251 66.6446 146.376C67.1246 145.491 67.786 144.803 68.6286 144.312C69.482 143.821 70.4313 143.576 71.4766 143.576ZM71.4766 144.936C70.698 144.936 69.9993 145.117 69.3806 145.48C68.7726 145.832 68.2926 146.344 67.9406 147.016C67.5993 147.677 67.4286 148.456 67.4286 149.352C67.4286 150.237 67.5993 151.016 67.9406 151.688C68.2926 152.36 68.7726 152.877 69.3806 153.24C69.9993 153.592 70.698 153.768 71.4766 153.768C72.2446 153.768 72.9326 153.587 73.5406 153.224C74.1593 152.861 74.6393 152.349 74.9806 151.688C75.3326 151.016 75.5086 150.237 75.5086 149.352C75.5086 148.456 75.3326 147.677 74.9806 147.016C74.6393 146.344 74.1593 145.832 73.5406 145.48C72.9326 145.117 72.2446 144.936 71.4766 144.936ZM80.4209 150.456V155H78.9649V143.72H82.5489C83.8395 143.72 84.8049 144.024 85.4449 144.632C86.0849 145.229 86.4049 146.051 86.4049 147.096C86.4049 148.152 86.0742 148.979 85.4129 149.576C84.7515 150.163 83.7969 150.456 82.5489 150.456H80.4209ZM82.4209 149.24C83.3062 149.24 83.9409 149.053 84.3249 148.68C84.7195 148.307 84.9169 147.779 84.9169 147.096C84.9169 146.392 84.7195 145.859 84.3249 145.496C83.9409 145.123 83.3062 144.936 82.4209 144.936H80.4209V149.24H82.4209ZM89.5615 150.456V155H88.1055V143.72H91.6895C92.9802 143.72 93.9455 144.024 94.5855 144.632C95.2255 145.229 95.5455 146.051 95.5455 147.096C95.5455 148.152 95.2148 148.979 94.5535 149.576C93.8922 150.163 92.9375 150.456 91.6895 150.456H89.5615ZM91.5615 149.24C92.4468 149.24 93.0815 149.053 93.4655 148.68C93.8602 148.307 94.0575 147.779 94.0575 147.096C94.0575 146.392 93.8602 145.859 93.4655 145.496C93.0815 145.123 92.4468 144.936 91.5615 144.936H89.5615V149.24H91.5615ZM98.7021 143.72V155H97.2461V143.72H98.7021ZM109.811 155H108.355L102.499 146.088V155H101.043V143.72H102.499L108.355 152.648V143.72H109.811V155ZM119.288 152.072C119.288 152.605 119.16 153.101 118.904 153.56C118.648 154.019 118.259 154.392 117.736 154.68C117.214 154.968 116.568 155.112 115.8 155.112C115.054 155.112 114.387 154.979 113.8 154.712C113.224 154.435 112.76 154.061 112.408 153.592C112.067 153.112 111.87 152.568 111.816 151.96H113.368C113.4 152.28 113.507 152.595 113.688 152.904C113.88 153.203 114.147 153.453 114.488 153.656C114.84 153.848 115.262 153.944 115.752 153.944C116.392 153.944 116.883 153.773 117.224 153.432C117.566 153.091 117.736 152.653 117.736 152.12C117.736 151.661 117.614 151.288 117.368 151C117.134 150.712 116.84 150.488 116.488 150.328C116.136 150.157 115.656 149.976 115.048 149.784C114.334 149.549 113.758 149.331 113.32 149.128C112.894 148.915 112.526 148.6 112.216 148.184C111.918 147.768 111.768 147.219 111.768 146.536C111.768 145.949 111.907 145.432 112.184 144.984C112.472 144.536 112.878 144.189 113.4 143.944C113.934 143.699 114.558 143.576 115.272 143.576C116.382 143.576 117.262 143.848 117.912 144.392C118.563 144.925 118.942 145.608 119.048 146.44H117.48C117.395 145.992 117.166 145.597 116.792 145.256C116.419 144.915 115.912 144.744 115.272 144.744C114.686 144.744 114.216 144.899 113.864 145.208C113.512 145.507 113.336 145.933 113.336 146.488C113.336 146.925 113.448 147.283 113.672 147.56C113.907 147.827 114.195 148.04 114.536 148.2C114.878 148.349 115.347 148.52 115.944 148.712C116.67 148.947 117.251 149.171 117.688 149.384C118.136 149.597 118.515 149.923 118.824 150.36C119.134 150.787 119.288 151.357 119.288 152.072Z" fill="black"/>
<rect x="0.5" y="0.5" width="182" height="172" stroke="black"/>
<path d="M59.772 94.604H48.714L46.814 100H42.292L51.754 73.552H56.77L66.232 100H61.672L59.772 94.604ZM58.556 91.07L54.262 78.796L49.93 91.07H58.556ZM68.9021 89.436C68.9021 87.3333 69.3328 85.4713 70.1941 83.85C71.0808 82.2287 72.2714 80.9747 73.7661 80.088C75.2861 79.176 76.9581 78.72 78.7821 78.72C80.4288 78.72 81.8601 79.0493 83.0761 79.708C84.3174 80.3413 85.3054 81.1393 86.0401 82.102V79.062H90.4101V100H86.0401V96.884C85.3054 97.872 84.3048 98.6953 83.0381 99.354C81.7714 100.013 80.3274 100.342 78.7061 100.342C76.9074 100.342 75.2608 99.886 73.7661 98.974C72.2714 98.0367 71.0808 96.7447 70.1941 95.098C69.3328 93.426 68.9021 91.5387 68.9021 89.436ZM86.0401 89.512C86.0401 88.068 85.7361 86.814 85.1281 85.75C84.5454 84.686 83.7728 83.8753 82.8101 83.318C81.8474 82.7607 80.8088 82.482 79.6941 82.482C78.5794 82.482 77.5408 82.7607 76.5781 83.318C75.6154 83.85 74.8301 84.648 74.2221 85.712C73.6394 86.7507 73.3481 87.992 73.3481 89.436C73.3481 90.88 73.6394 92.1467 74.2221 93.236C74.8301 94.3253 75.6154 95.1613 76.5781 95.744C77.5661 96.3013 78.6048 96.58 79.6941 96.58C80.8088 96.58 81.8474 96.3013 82.8101 95.744C83.7728 95.1867 84.5454 94.376 85.1281 93.312C85.7361 92.2227 86.0401 90.956 86.0401 89.512ZM110.151 96.238H122.425V100H105.021V96.618L117.257 77.352H105.021V73.59H122.425V76.972L110.151 96.238ZM130.999 96.466H140.499V100H125.983V96.466L135.521 82.596H125.983V79.062H140.499V82.596L130.999 96.466Z" fill="black"/>
</svg>
