<svg width="385" height="82" viewBox="0 0 385 82" fill="none" xmlns="http://www.w3.org/2000/svg">
<line x1="39.0625" y1="4.37114e-08" x2="39.0625" y2="81.9317" stroke="#293A3D" stroke-width="2"/>
<rect x="0.09375" y="12.6562" width="37.9684" height="57.2856" fill="#528CA2" fill-opacity="0.48"/>
<line x1="1.09375" y1="4.37114e-08" x2="1.09375" y2="81.9317" stroke="#293A3D" stroke-width="2"/>
<line x1="108.031" y1="4.37114e-08" x2="108.031" y2="81.9317" stroke="#293A3D" stroke-width="2"/>
<rect x="69.0625" y="12.6562" width="37.9684" height="57.2856" fill="#528CA2" fill-opacity="0.48"/>
<line x1="70.0625" y1="4.37114e-08" x2="70.0625" y2="81.9317" stroke="#293A3D" stroke-width="2"/>
<line x1="177" y1="4.37114e-08" x2="177" y2="81.9317" stroke="#293A3D" stroke-width="2"/>
<rect x="138.031" y="12.6562" width="37.9684" height="57.2856" fill="#528CA2" fill-opacity="0.48"/>
<line x1="139.031" y1="4.37114e-08" x2="139.031" y2="81.9317" stroke="#293A3D" stroke-width="2"/>
<line x1="245.969" y1="4.37114e-08" x2="245.969" y2="81.9317" stroke="#293A3D" stroke-width="2"/>
<rect x="207" y="12.6562" width="37.9684" height="57.2856" fill="#528CA2" fill-opacity="0.48"/>
<line x1="208" y1="4.37114e-08" x2="208" y2="81.9317" stroke="#293A3D" stroke-width="2"/>
<line x1="314.938" y1="4.37114e-08" x2="314.938" y2="81.9317" stroke="#293A3D" stroke-width="2"/>
<rect x="275.969" y="12.6562" width="37.9684" height="57.2856" fill="#528CA2" fill-opacity="0.48"/>
<line x1="276.969" y1="4.37114e-08" x2="276.969" y2="81.9317" stroke="#293A3D" stroke-width="2"/>
<line x1="383.906" y1="4.37114e-08" x2="383.906" y2="81.9317" stroke="#293A3D" stroke-width="2"/>
<rect x="344.938" y="12.6562" width="37.9684" height="57.2856" fill="#528CA2" fill-opacity="0.48"/>
<line x1="345.938" y1="4.37114e-08" x2="345.938" y2="81.9317" stroke="#293A3D" stroke-width="2"/>
</svg>
