<svg width="871" height="305" viewBox="0 0 871 305" fill="none" xmlns="http://www.w3.org/2000/svg">
<rect width="245" height="245" transform="translate(115)" fill="url(#paint0_linear_1845_3228)" fill-opacity="0.73"/>
<path d="M207.92 31.816L207.36 34.408H209.6V35.736H207.088L206.384 39H205.008L205.712 35.736H202.336L201.632 39H200.256L200.96 35.736H198.464V34.408H201.232L201.792 31.816H199.376V30.472H202.08L202.784 27.16H204.16L203.456 30.472H206.832L207.536 27.16H208.912L208.208 30.472H210.496V31.816H207.92ZM206.544 31.816H203.168L202.608 34.408H205.984L206.544 31.816ZM211.625 37.88C213.438 36.664 214.889 35.4587 215.977 34.264C217.065 33.0587 217.609 31.9387 217.609 30.904C217.609 30.264 217.444 29.752 217.113 29.368C216.793 28.9733 216.27 28.776 215.545 28.776C214.798 28.776 214.233 29.016 213.849 29.496C213.465 29.9653 213.252 30.616 213.209 31.448H211.769C211.844 30.1893 212.233 29.224 212.937 28.552C213.641 27.8693 214.548 27.528 215.657 27.528C216.713 27.528 217.55 27.8107 218.169 28.376C218.788 28.9413 219.097 29.7413 219.097 30.776C219.097 31.6293 218.82 32.4987 218.265 33.384C217.721 34.2587 217.033 35.0747 216.201 35.832C215.38 36.5787 214.532 37.2133 213.657 37.736H219.385V38.936H211.625V37.88ZM227.583 27.72V28.904H222.655V32.808H226.831V33.944H222.655V39H221.199V27.72H227.583ZM228.637 36.408V35.192L234.429 27.64H235.997V35.144H237.661V36.408H235.997V39H234.525V36.408H228.637ZM234.621 29.416L230.173 35.144H234.621V29.416ZM245.615 27.72V28.904H240.687V32.808H244.863V33.944H240.687V39H239.231V27.72H245.615ZM253.452 30.728C253.367 30.056 253.137 29.5387 252.764 29.176C252.401 28.8027 251.895 28.616 251.244 28.616C250.337 28.616 249.649 28.968 249.18 29.672C248.721 30.376 248.492 31.4907 248.492 33.016L248.508 33.608C248.668 32.968 249.036 32.4613 249.612 32.088C250.188 31.704 250.865 31.512 251.644 31.512C252.764 31.512 253.639 31.848 254.268 32.52C254.908 33.192 255.228 34.1307 255.228 35.336C255.228 36.04 255.089 36.68 254.812 37.256C254.535 37.8213 254.108 38.2747 253.532 38.616C252.967 38.9467 252.263 39.112 251.42 39.112C249.809 39.112 248.7 38.6053 248.092 37.592C247.495 36.5787 247.196 35.2027 247.196 33.464C247.196 31.4587 247.516 29.9547 248.156 28.952C248.807 27.9387 249.863 27.432 251.324 27.432C252.401 27.432 253.228 27.736 253.804 28.344C254.391 28.952 254.737 29.7467 254.844 30.728H253.452ZM248.668 35.096C248.668 35.8747 248.892 36.5307 249.34 37.064C249.799 37.5867 250.481 37.848 251.388 37.848C252.135 37.848 252.732 37.6293 253.18 37.192C253.628 36.744 253.852 36.12 253.852 35.32C253.852 34.456 253.628 33.8 253.18 33.352C252.732 32.8933 252.113 32.664 251.324 32.664C250.876 32.664 250.449 32.7547 250.044 32.936C249.639 33.1173 249.308 33.3947 249.052 33.768C248.796 34.1307 248.668 34.5733 248.668 35.096ZM256.605 36.408V35.192L262.397 27.64H263.965V35.144H265.629V36.408H263.965V39H262.493V36.408H256.605ZM262.589 29.416L258.141 35.144H262.589V29.416Z" fill="white"/>
<path d="M207.92 215.816L207.36 218.408H209.6V219.736H207.088L206.384 223H205.008L205.712 219.736H202.336L201.632 223H200.256L200.96 219.736H198.464V218.408H201.232L201.792 215.816H199.376V214.472H202.08L202.784 211.16H204.16L203.456 214.472H206.832L207.536 211.16H208.912L208.208 214.472H210.496V215.816H207.92ZM206.544 215.816H203.168L202.608 218.408H205.984L206.544 215.816ZM212.761 221.528C212.164 220.515 211.865 219.101 211.865 217.288C211.865 215.485 212.164 214.083 212.761 213.08C213.358 212.067 214.393 211.56 215.865 211.56C217.337 211.56 218.372 212.067 218.969 213.08C219.577 214.093 219.881 215.496 219.881 217.288C219.881 219.101 219.577 220.515 218.969 221.528C218.372 222.541 217.337 223.048 215.865 223.048C214.393 223.048 213.358 222.541 212.761 221.528ZM218.233 219.624C218.372 218.995 218.441 218.216 218.441 217.288C218.441 216.371 218.372 215.603 218.233 214.984C218.105 214.365 217.854 213.875 217.481 213.512C217.108 213.139 216.569 212.952 215.865 212.952C215.172 212.952 214.638 213.139 214.265 213.512C213.892 213.875 213.636 214.365 213.497 214.984C213.369 215.603 213.305 216.371 213.305 217.288C213.305 218.216 213.369 218.995 213.497 219.624C213.636 220.243 213.892 220.739 214.265 221.112C214.638 221.485 215.172 221.672 215.865 221.672C216.569 221.672 217.108 221.485 217.481 221.112C217.854 220.739 218.105 220.243 218.233 219.624ZM222.589 221.528C221.992 220.515 221.693 219.101 221.693 217.288C221.693 215.485 221.992 214.083 222.589 213.08C223.187 212.067 224.221 211.56 225.693 211.56C227.165 211.56 228.2 212.067 228.797 213.08C229.405 214.093 229.709 215.496 229.709 217.288C229.709 219.101 229.405 220.515 228.797 221.528C228.2 222.541 227.165 223.048 225.693 223.048C224.221 223.048 223.187 222.541 222.589 221.528ZM228.061 219.624C228.2 218.995 228.269 218.216 228.269 217.288C228.269 216.371 228.2 215.603 228.061 214.984C227.933 214.365 227.683 213.875 227.309 213.512C226.936 213.139 226.397 212.952 225.693 212.952C225 212.952 224.467 213.139 224.093 213.512C223.72 213.875 223.464 214.365 223.325 214.984C223.197 215.603 223.133 216.371 223.133 217.288C223.133 218.216 223.197 218.995 223.325 219.624C223.464 220.243 223.72 220.739 224.093 221.112C224.467 221.485 225 221.672 225.693 221.672C226.397 221.672 226.936 221.485 227.309 221.112C227.683 220.739 227.933 220.243 228.061 219.624ZM232.417 221.528C231.82 220.515 231.521 219.101 231.521 217.288C231.521 215.485 231.82 214.083 232.417 213.08C233.015 212.067 234.049 211.56 235.521 211.56C236.993 211.56 238.028 212.067 238.625 213.08C239.233 214.093 239.537 215.496 239.537 217.288C239.537 219.101 239.233 220.515 238.625 221.528C238.028 222.541 236.993 223.048 235.521 223.048C234.049 223.048 233.015 222.541 232.417 221.528ZM237.889 219.624C238.028 218.995 238.097 218.216 238.097 217.288C238.097 216.371 238.028 215.603 237.889 214.984C237.761 214.365 237.511 213.875 237.137 213.512C236.764 213.139 236.225 212.952 235.521 212.952C234.828 212.952 234.295 213.139 233.921 213.512C233.548 213.875 233.292 214.365 233.153 214.984C233.025 215.603 232.961 216.371 232.961 217.288C232.961 218.216 233.025 218.995 233.153 219.624C233.292 220.243 233.548 220.739 233.921 221.112C234.295 221.485 234.828 221.672 235.521 221.672C236.225 221.672 236.764 221.485 237.137 221.112C237.511 220.739 237.761 220.243 237.889 219.624ZM242.246 221.528C241.648 220.515 241.35 219.101 241.35 217.288C241.35 215.485 241.648 214.083 242.246 213.08C242.843 212.067 243.878 211.56 245.35 211.56C246.822 211.56 247.856 212.067 248.454 213.08C249.062 214.093 249.366 215.496 249.366 217.288C249.366 219.101 249.062 220.515 248.454 221.528C247.856 222.541 246.822 223.048 245.35 223.048C243.878 223.048 242.843 222.541 242.246 221.528ZM247.718 219.624C247.856 218.995 247.926 218.216 247.926 217.288C247.926 216.371 247.856 215.603 247.718 214.984C247.59 214.365 247.339 213.875 246.966 213.512C246.592 213.139 246.054 212.952 245.35 212.952C244.656 212.952 244.123 213.139 243.75 213.512C243.376 213.875 243.12 214.365 242.982 214.984C242.854 215.603 242.789 216.371 242.789 217.288C242.789 218.216 242.854 218.995 242.982 219.624C243.12 220.243 243.376 220.739 243.75 221.112C244.123 221.485 244.656 221.672 245.35 221.672C246.054 221.672 246.592 221.485 246.966 221.112C247.339 220.739 247.59 220.243 247.718 219.624ZM252.074 221.528C251.476 220.515 251.178 219.101 251.178 217.288C251.178 215.485 251.476 214.083 252.074 213.08C252.671 212.067 253.706 211.56 255.178 211.56C256.65 211.56 257.684 212.067 258.282 213.08C258.89 214.093 259.194 215.496 259.194 217.288C259.194 219.101 258.89 220.515 258.282 221.528C257.684 222.541 256.65 223.048 255.178 223.048C253.706 223.048 252.671 222.541 252.074 221.528ZM257.546 219.624C257.684 218.995 257.754 218.216 257.754 217.288C257.754 216.371 257.684 215.603 257.546 214.984C257.418 214.365 257.167 213.875 256.794 213.512C256.42 213.139 255.882 212.952 255.178 212.952C254.484 212.952 253.951 213.139 253.578 213.512C253.204 213.875 252.948 214.365 252.81 214.984C252.682 215.603 252.618 216.371 252.618 217.288C252.618 218.216 252.682 218.995 252.81 219.624C252.948 220.243 253.204 220.739 253.578 221.112C253.951 221.485 254.484 221.672 255.178 221.672C255.882 221.672 256.42 221.485 256.794 221.112C257.167 220.739 257.418 220.243 257.546 219.624ZM261.902 221.528C261.304 220.515 261.006 219.101 261.006 217.288C261.006 215.485 261.304 214.083 261.902 213.08C262.499 212.067 263.534 211.56 265.006 211.56C266.478 211.56 267.512 212.067 268.11 213.08C268.718 214.093 269.022 215.496 269.022 217.288C269.022 219.101 268.718 220.515 268.11 221.528C267.512 222.541 266.478 223.048 265.006 223.048C263.534 223.048 262.499 222.541 261.902 221.528ZM267.374 219.624C267.512 218.995 267.582 218.216 267.582 217.288C267.582 216.371 267.512 215.603 267.374 214.984C267.246 214.365 266.995 213.875 266.622 213.512C266.248 213.139 265.71 212.952 265.006 212.952C264.312 212.952 263.779 213.139 263.406 213.512C263.032 213.875 262.776 214.365 262.638 214.984C262.51 215.603 262.446 216.371 262.446 217.288C262.446 218.216 262.51 218.995 262.638 219.624C262.776 220.243 263.032 220.739 263.406 221.112C263.779 221.485 264.312 221.672 265.006 221.672C265.71 221.672 266.248 221.485 266.622 221.112C266.995 220.739 267.246 220.243 267.374 219.624Z" fill="white"/>
<rect width="113" height="113" transform="translate(379)" fill="#FFA500"/>
<path d="M413.92 84.816L413.36 87.408H415.6V88.736H413.088L412.384 92H411.008L411.712 88.736H408.336L407.632 92H406.256L406.96 88.736H404.464V87.408H407.232L407.792 84.816H405.376V83.472H408.08L408.784 80.16H410.16L409.456 83.472H412.832L413.536 80.16H414.912L414.208 83.472H416.496V84.816H413.92ZM412.544 84.816H409.168L408.608 87.408H411.984L412.544 84.816ZM424.505 80.72V81.904H419.577V85.808H423.753V86.944H419.577V92H418.121V80.72H424.505ZM432.615 80.72V81.904H427.687V85.808H431.863V86.944H427.687V92H426.231V80.72H432.615ZM440.948 89.392H435.988L435.044 92H433.476L437.652 80.928H439.3L443.46 92H441.892L440.948 89.392ZM440.532 88.256L438.468 82.56L436.404 88.256H440.532ZM452.278 81.872H446.486V85.648C446.752 85.2853 447.136 84.9973 447.638 84.784C448.139 84.5707 448.688 84.464 449.286 84.464C450.086 84.464 450.747 84.6347 451.27 84.976C451.803 85.3067 452.192 85.7493 452.438 86.304C452.694 86.848 452.822 87.456 452.822 88.128C452.822 89.2907 452.496 90.24 451.846 90.976C451.195 91.712 450.24 92.08 448.982 92.08C447.851 92.08 446.928 91.776 446.214 91.168C445.499 90.5493 445.099 89.7227 445.014 88.688H446.454C446.571 89.3493 446.843 89.8667 447.27 90.24C447.707 90.6027 448.256 90.784 448.918 90.784C449.739 90.784 450.358 90.5387 450.774 90.048C451.19 89.5573 451.398 88.912 451.398 88.112C451.398 87.3333 451.184 86.7253 450.758 86.288C450.331 85.8507 449.728 85.632 448.95 85.632C448.395 85.632 447.91 85.7547 447.494 86C447.078 86.2347 446.763 86.5547 446.55 86.96H445.142V80.576H452.278V81.872ZM455.433 90.528C454.836 89.5147 454.537 88.1013 454.537 86.288C454.537 84.4853 454.836 83.0827 455.433 82.08C456.03 81.0667 457.065 80.56 458.537 80.56C460.009 80.56 461.044 81.0667 461.641 82.08C462.249 83.0933 462.553 84.496 462.553 86.288C462.553 88.1013 462.249 89.5147 461.641 90.528C461.044 91.5413 460.009 92.048 458.537 92.048C457.065 92.048 456.03 91.5413 455.433 90.528ZM460.905 88.624C461.044 87.9947 461.113 87.216 461.113 86.288C461.113 85.3707 461.044 84.6027 460.905 83.984C460.777 83.3653 460.526 82.8747 460.153 82.512C459.78 82.1387 459.241 81.952 458.537 81.952C457.844 81.952 457.31 82.1387 456.937 82.512C456.564 82.8747 456.308 83.3653 456.169 83.984C456.041 84.6027 455.977 85.3707 455.977 86.288C455.977 87.216 456.041 87.9947 456.169 88.624C456.308 89.2427 456.564 89.7387 456.937 90.112C457.31 90.4853 457.844 90.672 458.537 90.672C459.241 90.672 459.78 90.4853 460.153 90.112C460.526 89.7387 460.777 89.2427 460.905 88.624ZM465.261 90.528C464.664 89.5147 464.365 88.1013 464.365 86.288C464.365 84.4853 464.664 83.0827 465.261 82.08C465.858 81.0667 466.893 80.56 468.365 80.56C469.837 80.56 470.872 81.0667 471.469 82.08C472.077 83.0933 472.381 84.496 472.381 86.288C472.381 88.1013 472.077 89.5147 471.469 90.528C470.872 91.5413 469.837 92.048 468.365 92.048C466.893 92.048 465.858 91.5413 465.261 90.528ZM470.733 88.624C470.872 87.9947 470.941 87.216 470.941 86.288C470.941 85.3707 470.872 84.6027 470.733 83.984C470.605 83.3653 470.354 82.8747 469.981 82.512C469.608 82.1387 469.069 81.952 468.365 81.952C467.672 81.952 467.138 82.1387 466.765 82.512C466.392 82.8747 466.136 83.3653 465.997 83.984C465.869 84.6027 465.805 85.3707 465.805 86.288C465.805 87.216 465.869 87.9947 465.997 88.624C466.136 89.2427 466.392 89.7387 466.765 90.112C467.138 90.4853 467.672 90.672 468.365 90.672C469.069 90.672 469.608 90.4853 469.981 90.112C470.354 89.7387 470.605 89.2427 470.733 88.624Z" fill="black"/>
<rect x="511.5" y="0.5" width="112" height="112" fill="white"/>
<path d="M546.42 84.816L545.86 87.408H548.1V88.736H545.588L544.884 92H543.508L544.212 88.736H540.836L540.132 92H538.756L539.46 88.736H536.964V87.408H539.732L540.292 84.816H537.876V83.472H540.58L541.284 80.16H542.66L541.956 83.472H545.332L546.036 80.16H547.412L546.708 83.472H548.996V84.816H546.42ZM545.044 84.816H541.668L541.108 87.408H544.484L545.044 84.816ZM557.005 80.72V81.904H552.077V85.808H556.253V86.944H552.077V92H550.621V80.72H557.005ZM565.115 80.72V81.904H560.187V85.808H564.363V86.944H560.187V92H558.731V80.72H565.115ZM573.224 80.72V81.904H568.296V85.808H572.472V86.944H568.296V92H566.84V80.72H573.224ZM581.333 80.72V81.904H576.405V85.808H580.581V86.944H576.405V92H574.949V80.72H581.333ZM589.443 80.72V81.904H584.515V85.808H588.691V86.944H584.515V92H583.059V80.72H589.443ZM597.552 80.72V81.904H592.624V85.808H596.8V86.944H592.624V92H591.168V80.72H597.552Z" fill="black"/>
<rect x="511.5" y="0.5" width="112" height="112" stroke="black"/>
<rect width="113" height="113" transform="translate(643)" fill="#095E83"/>
<path d="M674.42 84.816L673.86 87.408H676.1V88.736H673.588L672.884 92H671.508L672.212 88.736H668.836L668.132 92H666.756L667.46 88.736H664.964V87.408H667.732L668.292 84.816H665.876V83.472H668.58L669.284 80.16H670.66L669.956 83.472H673.332L674.036 80.16H675.412L674.708 83.472H676.996V84.816H674.42ZM673.044 84.816H669.668L669.108 87.408H672.484L673.044 84.816ZM679.261 90.528C678.664 89.5147 678.365 88.1013 678.365 86.288C678.365 84.4853 678.664 83.0827 679.261 82.08C679.858 81.0667 680.893 80.56 682.365 80.56C683.837 80.56 684.872 81.0667 685.469 82.08C686.077 83.0933 686.381 84.496 686.381 86.288C686.381 88.1013 686.077 89.5147 685.469 90.528C684.872 91.5413 683.837 92.048 682.365 92.048C680.893 92.048 679.858 91.5413 679.261 90.528ZM684.733 88.624C684.872 87.9947 684.941 87.216 684.941 86.288C684.941 85.3707 684.872 84.6027 684.733 83.984C684.605 83.3653 684.354 82.8747 683.981 82.512C683.608 82.1387 683.069 81.952 682.365 81.952C681.672 81.952 681.138 82.1387 680.765 82.512C680.392 82.8747 680.136 83.3653 679.997 83.984C679.869 84.6027 679.805 85.3707 679.805 86.288C679.805 87.216 679.869 87.9947 679.997 88.624C680.136 89.2427 680.392 89.7387 680.765 90.112C681.138 90.4853 681.672 90.672 682.365 90.672C683.069 90.672 683.608 90.4853 683.981 90.112C684.354 89.7387 684.605 89.2427 684.733 88.624ZM689.841 88.832C689.937 89.504 690.172 90.0213 690.545 90.384C690.919 90.7467 691.431 90.928 692.081 90.928C692.977 90.928 693.655 90.5813 694.113 89.888C694.572 89.1947 694.801 88.096 694.801 86.592C694.801 86.304 694.796 86.0853 694.785 85.936C694.636 86.576 694.273 87.088 693.697 87.472C693.121 87.856 692.444 88.048 691.665 88.048C690.545 88.048 689.665 87.712 689.025 87.04C688.385 86.368 688.065 85.4293 688.065 84.224C688.065 83.52 688.204 82.88 688.481 82.304C688.759 81.728 689.18 81.2747 689.745 80.944C690.321 80.6027 691.031 80.432 691.873 80.432C693.495 80.432 694.604 80.9333 695.201 81.936C695.809 82.928 696.113 84.2933 696.113 86.032C696.113 88.016 695.804 89.5307 695.185 90.576C694.567 91.6107 693.532 92.128 692.081 92.128C691.004 92.128 690.156 91.824 689.537 91.216C688.929 90.5973 688.572 89.8027 688.465 88.832H689.841ZM694.641 84.448C694.641 83.68 694.412 83.0293 693.953 82.496C693.505 81.9627 692.828 81.696 691.921 81.696C691.175 81.696 690.577 81.92 690.129 82.368C689.681 82.816 689.457 83.44 689.457 84.24C689.457 85.0933 689.681 85.7493 690.129 86.208C690.577 86.6667 691.191 86.896 691.969 86.896C692.417 86.896 692.844 86.8053 693.249 86.624C693.665 86.4427 694.001 86.1653 694.257 85.792C694.513 85.4187 694.641 84.9707 694.641 84.448ZM705.528 81.872H699.736V85.648C700.002 85.2853 700.386 84.9973 700.888 84.784C701.389 84.5707 701.938 84.464 702.536 84.464C703.336 84.464 703.997 84.6347 704.52 84.976C705.053 85.3067 705.442 85.7493 705.688 86.304C705.944 86.848 706.072 87.456 706.072 88.128C706.072 89.2907 705.746 90.24 705.096 90.976C704.445 91.712 703.49 92.08 702.232 92.08C701.101 92.08 700.178 91.776 699.464 91.168C698.749 90.5493 698.349 89.7227 698.264 88.688H699.704C699.821 89.3493 700.093 89.8667 700.52 90.24C700.957 90.6027 701.506 90.784 702.168 90.784C702.989 90.784 703.608 90.5387 704.024 90.048C704.44 89.5573 704.648 88.912 704.648 88.112C704.648 87.3333 704.434 86.7253 704.008 86.288C703.581 85.8507 702.978 85.632 702.2 85.632C701.645 85.632 701.16 85.7547 700.744 86C700.328 86.2347 700.013 86.5547 699.8 86.96H698.392V80.576H705.528V81.872ZM709.499 81.904V85.76H713.787V86.88H709.499V90.816H714.267V92H708.043V80.72H714.267V81.904H709.499ZM716.105 83.376C716.105 82.8213 716.254 82.3147 716.553 81.856C716.851 81.3973 717.294 81.0347 717.881 80.768C718.467 80.5013 719.166 80.368 719.977 80.368C720.787 80.368 721.481 80.5013 722.057 80.768C722.643 81.0347 723.086 81.3973 723.385 81.856C723.683 82.3147 723.833 82.8213 723.833 83.376C723.833 84.0053 723.662 84.5493 723.321 85.008C722.979 85.4667 722.462 85.792 721.769 85.984C722.515 86.1867 723.097 86.5387 723.513 87.04C723.929 87.5413 724.137 88.16 724.137 88.896C724.137 89.9627 723.758 90.8 723.001 91.408C722.243 92.016 721.235 92.32 719.977 92.32C718.718 92.32 717.71 92.016 716.953 91.408C716.195 90.8 715.817 89.9627 715.817 88.896C715.817 88.16 716.019 87.5413 716.425 87.04C716.841 86.5387 717.422 86.1867 718.169 85.984C717.475 85.792 716.958 85.4667 716.617 85.008C716.275 84.5493 716.105 84.0053 716.105 83.376ZM717.545 83.584C717.545 84.224 717.763 84.72 718.201 85.072C718.638 85.4133 719.23 85.584 719.977 85.584C720.723 85.584 721.31 85.4133 721.737 85.072C722.174 84.72 722.393 84.224 722.393 83.584C722.393 82.944 722.174 82.4533 721.737 82.112C721.299 81.76 720.713 81.584 719.977 81.584C719.241 81.584 718.649 81.76 718.201 82.112C717.763 82.4533 717.545 82.944 717.545 83.584ZM717.241 88.816C717.241 89.5413 717.486 90.1067 717.977 90.512C718.467 90.9067 719.134 91.104 719.977 91.104C720.809 91.104 721.47 90.9013 721.961 90.496C722.451 90.0907 722.697 89.5307 722.697 88.816C722.697 88.0907 722.441 87.5413 721.929 87.168C721.417 86.7947 720.766 86.608 719.977 86.608C719.177 86.608 718.521 86.7947 718.009 87.168C717.497 87.5413 717.241 88.0907 717.241 88.816ZM729.753 80.416C730.478 80.416 731.102 80.544 731.625 80.8C732.147 81.056 732.542 81.408 732.809 81.856C733.075 82.304 733.209 82.8107 733.209 83.376C733.209 84.08 733.001 84.672 732.585 85.152C732.179 85.632 731.582 85.92 730.793 86.016V86.112C731.614 86.3253 732.254 86.656 732.713 87.104C733.182 87.552 733.417 88.1707 733.417 88.96C733.417 89.888 733.107 90.6453 732.489 91.232C731.87 91.8187 730.979 92.112 729.817 92.112C728.654 92.112 727.71 91.8133 726.985 91.216C726.27 90.608 725.849 89.7227 725.721 88.56H727.161C727.257 89.264 727.523 89.824 727.961 90.24C728.409 90.656 729.011 90.864 729.769 90.864C730.483 90.864 731.033 90.6827 731.417 90.32C731.801 89.9467 731.993 89.4667 731.993 88.88C731.993 88.176 731.715 87.6427 731.161 87.28C730.617 86.9067 729.838 86.72 728.825 86.72H728.441V85.504H728.825C730.787 85.504 731.769 84.848 731.769 83.536C731.769 82.96 731.587 82.5013 731.225 82.16C730.862 81.8187 730.361 81.648 729.721 81.648C729.081 81.648 728.542 81.8347 728.105 82.208C727.667 82.5707 727.411 83.1093 727.337 83.824H725.913C725.987 82.7573 726.355 81.9253 727.017 81.328C727.689 80.72 728.601 80.416 729.753 80.416Z" fill="black"/>
<rect width="113" height="113" transform="translate(379 132)" fill="#A4C639"/>
<path d="M408.92 218.816L408.36 221.408H410.6V222.736H408.088L407.384 226H406.008L406.712 222.736H403.336L402.632 226H401.256L401.96 222.736H399.464V221.408H402.232L402.792 218.816H400.376V217.472H403.08L403.784 214.16H405.16L404.456 217.472H407.832L408.536 214.16H409.912L409.208 217.472H411.496V218.816H408.92ZM407.544 218.816H404.168L403.608 221.408H406.984L407.544 218.816ZM419.729 223.392H414.769L413.825 226H412.257L416.433 214.928H418.081L422.241 226H420.673L419.729 223.392ZM419.313 222.256L417.249 216.56L415.185 222.256H419.313ZM423.043 223.408V222.192L428.835 214.64H430.403V222.144H432.067V223.408H430.403V226H428.931V223.408H423.043ZM429.027 216.416L424.579 222.144H429.027V216.416ZM438.629 214.608C440.005 214.608 441.141 214.949 442.037 215.632C442.933 216.304 443.551 217.227 443.893 218.4H442.357C442.069 217.653 441.605 217.061 440.965 216.624C440.325 216.176 439.541 215.952 438.613 215.952C437.877 215.952 437.215 216.133 436.629 216.496C436.053 216.848 435.594 217.36 435.253 218.032C434.922 218.693 434.757 219.472 434.757 220.368C434.757 221.253 434.922 222.027 435.253 222.688C435.594 223.349 436.053 223.861 436.629 224.224C437.215 224.576 437.877 224.752 438.613 224.752C439.541 224.752 440.325 224.533 440.965 224.096C441.605 223.648 442.069 223.051 442.357 222.304H443.893C443.551 223.477 442.933 224.405 442.037 225.088C441.141 225.76 440.005 226.096 438.629 226.096C437.573 226.096 436.639 225.856 435.829 225.376C435.018 224.885 434.383 224.208 433.925 223.344C433.477 222.469 433.253 221.477 433.253 220.368C433.253 219.248 433.477 218.251 433.925 217.376C434.383 216.501 435.018 215.824 435.829 215.344C436.639 214.853 437.573 214.608 438.629 214.608ZM451.952 217.728C451.867 217.056 451.637 216.539 451.264 216.176C450.901 215.803 450.395 215.616 449.744 215.616C448.837 215.616 448.149 215.968 447.68 216.672C447.221 217.376 446.992 218.491 446.992 220.016L447.008 220.608C447.168 219.968 447.536 219.461 448.112 219.088C448.688 218.704 449.365 218.512 450.144 218.512C451.264 218.512 452.139 218.848 452.768 219.52C453.408 220.192 453.728 221.131 453.728 222.336C453.728 223.04 453.589 223.68 453.312 224.256C453.035 224.821 452.608 225.275 452.032 225.616C451.467 225.947 450.763 226.112 449.92 226.112C448.309 226.112 447.2 225.605 446.592 224.592C445.995 223.579 445.696 222.203 445.696 220.464C445.696 218.459 446.016 216.955 446.656 215.952C447.307 214.939 448.363 214.432 449.824 214.432C450.901 214.432 451.728 214.736 452.304 215.344C452.891 215.952 453.237 216.747 453.344 217.728H451.952ZM447.168 222.096C447.168 222.875 447.392 223.531 447.84 224.064C448.299 224.587 448.981 224.848 449.888 224.848C450.635 224.848 451.232 224.629 451.68 224.192C452.128 223.744 452.352 223.12 452.352 222.32C452.352 221.456 452.128 220.8 451.68 220.352C451.232 219.893 450.613 219.664 449.824 219.664C449.376 219.664 448.949 219.755 448.544 219.936C448.139 220.117 447.808 220.395 447.552 220.768C447.296 221.131 447.168 221.573 447.168 222.096ZM459.393 214.416C460.119 214.416 460.743 214.544 461.265 214.8C461.788 215.056 462.183 215.408 462.449 215.856C462.716 216.304 462.849 216.811 462.849 217.376C462.849 218.08 462.641 218.672 462.225 219.152C461.82 219.632 461.223 219.92 460.433 220.016V220.112C461.255 220.325 461.895 220.656 462.353 221.104C462.823 221.552 463.057 222.171 463.057 222.96C463.057 223.888 462.748 224.645 462.129 225.232C461.511 225.819 460.62 226.112 459.457 226.112C458.295 226.112 457.351 225.813 456.625 225.216C455.911 224.608 455.489 223.723 455.361 222.56H456.801C456.897 223.264 457.164 223.824 457.601 224.24C458.049 224.656 458.652 224.864 459.409 224.864C460.124 224.864 460.673 224.683 461.057 224.32C461.441 223.947 461.633 223.467 461.633 222.88C461.633 222.176 461.356 221.643 460.801 221.28C460.257 220.907 459.479 220.72 458.465 220.72H458.081V219.504H458.465C460.428 219.504 461.409 218.848 461.409 217.536C461.409 216.96 461.228 216.501 460.865 216.16C460.503 215.819 460.001 215.648 459.361 215.648C458.721 215.648 458.183 215.835 457.745 216.208C457.308 216.571 457.052 217.109 456.977 217.824H455.553C455.628 216.757 455.996 215.925 456.657 215.328C457.329 214.72 458.241 214.416 459.393 214.416ZM466.591 222.832C466.687 223.504 466.922 224.021 467.295 224.384C467.669 224.747 468.181 224.928 468.831 224.928C469.727 224.928 470.405 224.581 470.863 223.888C471.322 223.195 471.551 222.096 471.551 220.592C471.551 220.304 471.546 220.085 471.535 219.936C471.386 220.576 471.023 221.088 470.447 221.472C469.871 221.856 469.194 222.048 468.415 222.048C467.295 222.048 466.415 221.712 465.775 221.04C465.135 220.368 464.815 219.429 464.815 218.224C464.815 217.52 464.954 216.88 465.231 216.304C465.509 215.728 465.93 215.275 466.495 214.944C467.071 214.603 467.781 214.432 468.623 214.432C470.245 214.432 471.354 214.933 471.951 215.936C472.559 216.928 472.863 218.293 472.863 220.032C472.863 222.016 472.554 223.531 471.935 224.576C471.317 225.611 470.282 226.128 468.831 226.128C467.754 226.128 466.906 225.824 466.287 225.216C465.679 224.597 465.322 223.803 465.215 222.832H466.591ZM471.391 218.448C471.391 217.68 471.162 217.029 470.703 216.496C470.255 215.963 469.578 215.696 468.671 215.696C467.925 215.696 467.327 215.92 466.879 216.368C466.431 216.816 466.207 217.44 466.207 218.24C466.207 219.093 466.431 219.749 466.879 220.208C467.327 220.667 467.941 220.896 468.719 220.896C469.167 220.896 469.594 220.805 469.999 220.624C470.415 220.443 470.751 220.165 471.007 219.792C471.263 219.419 471.391 218.971 471.391 218.448Z" fill="black"/>
<rect width="113" height="113" transform="translate(511 132)" fill="url(#paint1_linear_1845_3228)" fill-opacity="0.36"/>
<path d="M542.42 153.316L541.86 155.908H544.1V157.236H541.588L540.884 160.5H539.508L540.212 157.236H536.836L536.132 160.5H534.756L535.46 157.236H532.964V155.908H535.732L536.292 153.316H533.876V151.972H536.58L537.284 148.66H538.66L537.956 151.972H541.332L542.036 148.66H543.412L542.708 151.972H544.996V153.316H542.42ZM541.044 153.316H537.668L537.108 155.908H540.484L541.044 153.316ZM546.125 159.38C547.938 158.164 549.389 156.959 550.477 155.764C551.565 154.559 552.109 153.439 552.109 152.404C552.109 151.764 551.944 151.252 551.613 150.868C551.293 150.473 550.77 150.276 550.045 150.276C549.298 150.276 548.733 150.516 548.349 150.996C547.965 151.465 547.752 152.116 547.709 152.948H546.269C546.344 151.689 546.733 150.724 547.437 150.052C548.141 149.369 549.048 149.028 550.157 149.028C551.213 149.028 552.05 149.311 552.669 149.876C553.288 150.441 553.597 151.241 553.597 152.276C553.597 153.129 553.32 153.999 552.765 154.884C552.221 155.759 551.533 156.575 550.701 157.332C549.88 158.079 549.032 158.713 548.157 159.236H553.885V160.436H546.125V159.38ZM557.155 150.404V154.26H561.443V155.38H557.155V159.316H561.923V160.5H555.699V149.22H561.923V150.404H557.155ZM567.409 148.916C568.134 148.916 568.758 149.044 569.281 149.3C569.804 149.556 570.198 149.908 570.465 150.356C570.732 150.804 570.865 151.311 570.865 151.876C570.865 152.58 570.657 153.172 570.241 153.652C569.836 154.132 569.238 154.42 568.449 154.516V154.612C569.27 154.825 569.91 155.156 570.369 155.604C570.838 156.052 571.073 156.671 571.073 157.46C571.073 158.388 570.764 159.145 570.145 159.732C569.526 160.319 568.636 160.612 567.473 160.612C566.31 160.612 565.366 160.313 564.641 159.716C563.926 159.108 563.505 158.223 563.377 157.06H564.817C564.913 157.764 565.18 158.324 565.617 158.74C566.065 159.156 566.668 159.364 567.425 159.364C568.14 159.364 568.689 159.183 569.073 158.82C569.457 158.447 569.649 157.967 569.649 157.38C569.649 156.676 569.372 156.143 568.817 155.78C568.273 155.407 567.494 155.22 566.481 155.22H566.097V154.004H566.481C568.444 154.004 569.425 153.348 569.425 152.036C569.425 151.46 569.244 151.001 568.881 150.66C568.518 150.319 568.017 150.148 567.377 150.148C566.737 150.148 566.198 150.335 565.761 150.708C565.324 151.071 565.068 151.609 564.993 152.324H563.569C563.644 151.257 564.012 150.425 564.673 149.828C565.345 149.22 566.257 148.916 567.409 148.916ZM576.831 148.916C577.556 148.916 578.18 149.044 578.703 149.3C579.226 149.556 579.62 149.908 579.887 150.356C580.154 150.804 580.287 151.311 580.287 151.876C580.287 152.58 580.079 153.172 579.663 153.652C579.258 154.132 578.66 154.42 577.871 154.516V154.612C578.692 154.825 579.332 155.156 579.791 155.604C580.26 156.052 580.495 156.671 580.495 157.46C580.495 158.388 580.186 159.145 579.567 159.732C578.948 160.319 578.058 160.612 576.895 160.612C575.732 160.612 574.788 160.313 574.063 159.716C573.348 159.108 572.927 158.223 572.799 157.06H574.239C574.335 157.764 574.602 158.324 575.039 158.74C575.487 159.156 576.09 159.364 576.847 159.364C577.562 159.364 578.111 159.183 578.495 158.82C578.879 158.447 579.071 157.967 579.071 157.38C579.071 156.676 578.794 156.143 578.239 155.78C577.695 155.407 576.916 155.22 575.903 155.22H575.519V154.004H575.903C577.866 154.004 578.847 153.348 578.847 152.036C578.847 151.46 578.666 151.001 578.303 150.66C577.94 150.319 577.439 150.148 576.799 150.148C576.159 150.148 575.62 150.335 575.183 150.708C574.746 151.071 574.49 151.609 574.415 152.324H572.991C573.066 151.257 573.434 150.425 574.095 149.828C574.767 149.22 575.679 148.916 576.831 148.916ZM589.981 150.372H584.189V154.148C584.455 153.785 584.839 153.497 585.341 153.284C585.842 153.071 586.391 152.964 586.989 152.964C587.789 152.964 588.45 153.135 588.973 153.476C589.506 153.807 589.895 154.249 590.141 154.804C590.397 155.348 590.525 155.956 590.525 156.628C590.525 157.791 590.199 158.74 589.549 159.476C588.898 160.212 587.943 160.58 586.685 160.58C585.554 160.58 584.631 160.276 583.917 159.668C583.202 159.049 582.802 158.223 582.717 157.188H584.157C584.274 157.849 584.546 158.367 584.973 158.74C585.41 159.103 585.959 159.284 586.621 159.284C587.442 159.284 588.061 159.039 588.477 158.548C588.893 158.057 589.101 157.412 589.101 156.612C589.101 155.833 588.887 155.225 588.461 154.788C588.034 154.351 587.431 154.132 586.653 154.132C586.098 154.132 585.613 154.255 585.197 154.5C584.781 154.735 584.466 155.055 584.253 155.46H582.845V149.076H589.981V150.372ZM599.104 157.892H594.144L593.2 160.5H591.632L595.808 149.428H597.456L601.616 160.5H600.048L599.104 157.892ZM598.688 156.756L596.624 151.06L594.56 156.756H598.688Z" fill="black"/>
<path d="M545.92 221.316L545.36 223.908H547.6V225.236H545.088L544.384 228.5H543.008L543.712 225.236H540.336L539.632 228.5H538.256L538.96 225.236H536.464V223.908H539.232L539.792 221.316H537.376V219.972H540.08L540.784 216.66H542.16L541.456 219.972H544.832L545.536 216.66H546.912L546.208 219.972H548.496V221.316H545.92ZM544.544 221.316H541.168L540.608 223.908H543.984L544.544 221.316ZM549.161 218.58V217.22H552.393V228.5H550.857V218.58H549.161ZM559.707 217.108C561.083 217.108 562.219 217.449 563.115 218.132C564.011 218.804 564.63 219.727 564.971 220.9H563.435C563.147 220.153 562.683 219.561 562.043 219.124C561.403 218.676 560.619 218.452 559.691 218.452C558.955 218.452 558.294 218.633 557.707 218.996C557.131 219.348 556.672 219.86 556.331 220.532C556 221.193 555.835 221.972 555.835 222.868C555.835 223.753 556 224.527 556.331 225.188C556.672 225.849 557.131 226.361 557.707 226.724C558.294 227.076 558.955 227.252 559.691 227.252C560.619 227.252 561.403 227.033 562.043 226.596C562.683 226.148 563.147 225.551 563.435 224.804H564.971C564.63 225.977 564.011 226.905 563.115 227.588C562.219 228.26 561.083 228.596 559.707 228.596C558.651 228.596 557.718 228.356 556.907 227.876C556.096 227.385 555.462 226.708 555.003 225.844C554.555 224.969 554.331 223.977 554.331 222.868C554.331 221.748 554.555 220.751 555.003 219.876C555.462 219.001 556.096 218.324 556.907 217.844C557.718 217.353 558.651 217.108 559.707 217.108ZM565.958 218.58V217.22H569.19V228.5H567.654V218.58H565.958ZM577.016 222.66C577.709 222.809 578.269 223.14 578.696 223.652C579.133 224.164 579.352 224.767 579.352 225.46C579.352 226.377 579.037 227.113 578.408 227.668C577.789 228.223 576.888 228.5 575.704 228.5H571.512V217.22H575.64C576.77 217.22 577.629 217.471 578.216 217.972C578.802 218.473 579.096 219.161 579.096 220.036C579.096 220.761 578.898 221.348 578.504 221.796C578.12 222.244 577.624 222.532 577.016 222.66ZM572.968 222.164H575.4C576.114 222.164 576.658 221.999 577.032 221.668C577.416 221.337 577.608 220.873 577.608 220.276C577.608 219.7 577.421 219.247 577.048 218.916C576.674 218.585 576.104 218.42 575.336 218.42H572.968V222.164ZM575.432 227.284C576.2 227.284 576.792 227.108 577.208 226.756C577.634 226.404 577.848 225.908 577.848 225.268C577.848 224.639 577.629 224.148 577.192 223.796C576.765 223.433 576.168 223.252 575.4 223.252H572.968V227.284H575.432ZM584.784 216.916C585.509 216.916 586.133 217.044 586.656 217.3C587.179 217.556 587.573 217.908 587.84 218.356C588.107 218.804 588.24 219.311 588.24 219.876C588.24 220.58 588.032 221.172 587.616 221.652C587.211 222.132 586.613 222.42 585.824 222.516V222.612C586.645 222.825 587.285 223.156 587.744 223.604C588.213 224.052 588.448 224.671 588.448 225.46C588.448 226.388 588.139 227.145 587.52 227.732C586.901 228.319 586.011 228.612 584.848 228.612C583.685 228.612 582.741 228.313 582.016 227.716C581.301 227.108 580.88 226.223 580.752 225.06H582.192C582.288 225.764 582.555 226.324 582.992 226.74C583.44 227.156 584.043 227.364 584.8 227.364C585.515 227.364 586.064 227.183 586.448 226.82C586.832 226.447 587.024 225.967 587.024 225.38C587.024 224.676 586.747 224.143 586.192 223.78C585.648 223.407 584.869 223.22 583.856 223.22H583.472V222.004H583.856C585.819 222.004 586.8 221.348 586.8 220.036C586.8 219.46 586.619 219.001 586.256 218.66C585.893 218.319 585.392 218.148 584.752 218.148C584.112 218.148 583.573 218.335 583.136 218.708C582.699 219.071 582.443 219.609 582.368 220.324H580.944C581.019 219.257 581.387 218.425 582.048 217.828C582.72 217.22 583.632 216.916 584.784 216.916ZM594.206 216.916C594.931 216.916 595.555 217.044 596.078 217.3C596.601 217.556 596.995 217.908 597.262 218.356C597.529 218.804 597.662 219.311 597.662 219.876C597.662 220.58 597.454 221.172 597.038 221.652C596.633 222.132 596.035 222.42 595.246 222.516V222.612C596.067 222.825 596.707 223.156 597.166 223.604C597.635 224.052 597.87 224.671 597.87 225.46C597.87 226.388 597.561 227.145 596.942 227.732C596.323 228.319 595.433 228.612 594.27 228.612C593.107 228.612 592.163 228.313 591.438 227.716C590.723 227.108 590.302 226.223 590.174 225.06H591.614C591.71 225.764 591.977 226.324 592.414 226.74C592.862 227.156 593.465 227.364 594.222 227.364C594.937 227.364 595.486 227.183 595.87 226.82C596.254 226.447 596.446 225.967 596.446 225.38C596.446 224.676 596.169 224.143 595.614 223.78C595.07 223.407 594.291 223.22 593.278 223.22H592.894V222.004H593.278C595.241 222.004 596.222 221.348 596.222 220.036C596.222 219.46 596.041 219.001 595.678 218.66C595.315 218.319 594.814 218.148 594.174 218.148C593.534 218.148 592.995 218.335 592.558 218.708C592.121 219.071 591.865 219.609 591.79 220.324H590.366C590.441 219.257 590.809 218.425 591.47 217.828C592.142 217.22 593.054 216.916 594.206 216.916Z" fill="black"/>
<rect width="113" height="113" transform="translate(643 132)" fill="#203644"/>
<path d="M673.42 216.816L672.86 219.408H675.1V220.736H672.588L671.884 224H670.508L671.212 220.736H667.836L667.132 224H665.756L666.46 220.736H663.964V219.408H666.732L667.292 216.816H664.876V215.472H667.58L668.284 212.16H669.66L668.956 215.472H672.332L673.036 212.16H674.412L673.708 215.472H675.996V216.816H673.42ZM672.044 216.816H668.668L668.108 219.408H671.484L672.044 216.816ZM677.125 222.88C678.938 221.664 680.389 220.459 681.477 219.264C682.565 218.059 683.109 216.939 683.109 215.904C683.109 215.264 682.944 214.752 682.613 214.368C682.293 213.973 681.77 213.776 681.045 213.776C680.298 213.776 679.733 214.016 679.349 214.496C678.965 214.965 678.752 215.616 678.709 216.448H677.269C677.344 215.189 677.733 214.224 678.437 213.552C679.141 212.869 680.048 212.528 681.157 212.528C682.213 212.528 683.05 212.811 683.669 213.376C684.288 213.941 684.597 214.741 684.597 215.776C684.597 216.629 684.32 217.499 683.765 218.384C683.221 219.259 682.533 220.075 681.701 220.832C680.88 221.579 680.032 222.213 679.157 222.736H684.885V223.936H677.125V222.88ZM687.339 222.528C686.742 221.515 686.443 220.101 686.443 218.288C686.443 216.485 686.742 215.083 687.339 214.08C687.937 213.067 688.971 212.56 690.443 212.56C691.915 212.56 692.95 213.067 693.547 214.08C694.155 215.093 694.459 216.496 694.459 218.288C694.459 220.101 694.155 221.515 693.547 222.528C692.95 223.541 691.915 224.048 690.443 224.048C688.971 224.048 687.937 223.541 687.339 222.528ZM692.811 220.624C692.95 219.995 693.019 219.216 693.019 218.288C693.019 217.371 692.95 216.603 692.811 215.984C692.683 215.365 692.433 214.875 692.059 214.512C691.686 214.139 691.147 213.952 690.443 213.952C689.75 213.952 689.217 214.139 688.843 214.512C688.47 214.875 688.214 215.365 688.075 215.984C687.947 216.603 687.883 217.371 687.883 218.288C687.883 219.216 687.947 219.995 688.075 220.624C688.214 221.243 688.47 221.739 688.843 222.112C689.217 222.485 689.75 222.672 690.443 222.672C691.147 222.672 691.686 222.485 692.059 222.112C692.433 221.739 692.683 221.243 692.811 220.624ZM700.143 212.416C700.869 212.416 701.493 212.544 702.015 212.8C702.538 213.056 702.933 213.408 703.199 213.856C703.466 214.304 703.599 214.811 703.599 215.376C703.599 216.08 703.391 216.672 702.975 217.152C702.57 217.632 701.973 217.92 701.183 218.016V218.112C702.005 218.325 702.645 218.656 703.103 219.104C703.573 219.552 703.807 220.171 703.807 220.96C703.807 221.888 703.498 222.645 702.879 223.232C702.261 223.819 701.37 224.112 700.207 224.112C699.045 224.112 698.101 223.813 697.375 223.216C696.661 222.608 696.239 221.723 696.111 220.56H697.551C697.647 221.264 697.914 221.824 698.351 222.24C698.799 222.656 699.402 222.864 700.159 222.864C700.874 222.864 701.423 222.683 701.807 222.32C702.191 221.947 702.383 221.467 702.383 220.88C702.383 220.176 702.106 219.643 701.551 219.28C701.007 218.907 700.229 218.72 699.215 218.72H698.831V217.504H699.215C701.178 217.504 702.159 216.848 702.159 215.536C702.159 214.96 701.978 214.501 701.615 214.16C701.253 213.819 700.751 213.648 700.111 213.648C699.471 213.648 698.933 213.835 698.495 214.208C698.058 214.571 697.802 215.109 697.727 215.824H696.303C696.378 214.757 696.746 213.925 697.407 213.328C698.079 212.72 698.991 212.416 700.143 212.416ZM712.061 215.728C711.976 215.056 711.747 214.539 711.373 214.176C711.011 213.803 710.504 213.616 709.853 213.616C708.947 213.616 708.259 213.968 707.789 214.672C707.331 215.376 707.101 216.491 707.101 218.016L707.117 218.608C707.277 217.968 707.645 217.461 708.221 217.088C708.797 216.704 709.475 216.512 710.253 216.512C711.373 216.512 712.248 216.848 712.877 217.52C713.517 218.192 713.837 219.131 713.837 220.336C713.837 221.04 713.699 221.68 713.421 222.256C713.144 222.821 712.717 223.275 712.141 223.616C711.576 223.947 710.872 224.112 710.029 224.112C708.419 224.112 707.309 223.605 706.701 222.592C706.104 221.579 705.805 220.203 705.805 218.464C705.805 216.459 706.125 214.955 706.765 213.952C707.416 212.939 708.472 212.432 709.933 212.432C711.011 212.432 711.837 212.736 712.413 213.344C713 213.952 713.347 214.747 713.453 215.728H712.061ZM707.277 220.096C707.277 220.875 707.501 221.531 707.949 222.064C708.408 222.587 709.091 222.848 709.997 222.848C710.744 222.848 711.341 222.629 711.789 222.192C712.237 221.744 712.461 221.12 712.461 220.32C712.461 219.456 712.237 218.8 711.789 218.352C711.341 217.893 710.723 217.664 709.933 217.664C709.485 217.664 709.059 217.755 708.653 217.936C708.248 218.117 707.917 218.395 707.661 218.768C707.405 219.131 707.277 219.573 707.277 220.096ZM715.215 221.408V220.192L721.007 212.64H722.575V220.144H724.239V221.408H722.575V224H721.103V221.408H715.215ZM721.199 214.416L716.751 220.144H721.199V214.416ZM725.137 221.408V220.192L730.929 212.64H732.497V220.144H734.161V221.408H732.497V224H731.025V221.408H725.137ZM731.121 214.416L726.673 220.144H731.121V214.416Z" fill="white"/>
<path d="M196.54 291.32L195.54 297H193.72L196.2 282.9H200.68C202.08 282.9 203.12 283.187 203.8 283.76C204.493 284.333 204.84 285.133 204.84 286.16C204.84 286.493 204.813 286.813 204.76 287.12C204.52 288.44 203.92 289.473 202.96 290.22C202.013 290.953 200.76 291.32 199.2 291.32H196.54ZM199.3 289.8C201.393 289.8 202.593 288.907 202.9 287.12C202.94 286.853 202.96 286.613 202.96 286.4C202.96 285.76 202.747 285.273 202.32 284.94C201.893 284.593 201.207 284.42 200.26 284.42H197.76L196.82 289.8H199.3ZM208.766 288.24C209.259 287.493 209.892 286.907 210.666 286.48C211.439 286.053 212.306 285.84 213.266 285.84L212.906 287.82H212.346C211.346 287.82 210.472 288.073 209.726 288.58C208.979 289.087 208.492 289.927 208.266 291.1L207.226 297H205.386L207.326 286.02H209.166L208.766 288.24ZM215.222 283.02C215.222 282.633 215.362 282.313 215.642 282.06C215.922 281.807 216.268 281.68 216.682 281.68C217.015 281.68 217.275 281.767 217.462 281.94C217.648 282.1 217.742 282.313 217.742 282.58C217.742 282.967 217.602 283.287 217.322 283.54C217.042 283.793 216.695 283.92 216.282 283.92C215.948 283.92 215.688 283.84 215.502 283.68C215.315 283.507 215.222 283.287 215.222 283.02ZM216.822 286.02L214.882 297H213.062L215.002 286.02H216.822ZM233.288 285.84C234.381 285.84 235.241 286.14 235.868 286.74C236.495 287.34 236.808 288.213 236.808 289.36C236.808 289.733 236.768 290.153 236.688 290.62L235.568 297H233.748L234.848 290.78C234.901 290.5 234.928 290.207 234.928 289.9C234.928 289.1 234.708 288.493 234.268 288.08C233.841 287.653 233.241 287.44 232.468 287.44C231.495 287.44 230.661 287.76 229.968 288.4C229.288 289.027 228.841 289.953 228.628 291.18L227.588 297H225.788L226.888 290.78C226.941 290.5 226.968 290.207 226.968 289.9C226.968 289.1 226.748 288.493 226.308 288.08C225.881 287.653 225.281 287.44 224.508 287.44C223.535 287.44 222.701 287.76 222.008 288.4C221.328 289.027 220.881 289.953 220.668 291.18V291.08L219.628 297H217.788L219.728 286.02H221.568L221.128 288.52C221.541 287.653 222.128 286.993 222.888 286.54C223.661 286.073 224.495 285.84 225.388 285.84C226.321 285.84 227.088 286.08 227.688 286.56C228.288 287.04 228.655 287.74 228.788 288.66C229.255 287.767 229.888 287.073 230.688 286.58C231.501 286.087 232.368 285.84 233.288 285.84ZM244.814 285.88C245.894 285.88 246.767 286.153 247.434 286.7C248.101 287.233 248.501 287.94 248.634 288.82L249.134 286.02H250.934L248.994 297H247.174L247.674 294.2C247.247 295.08 246.614 295.793 245.774 296.34C244.934 296.873 243.981 297.14 242.914 297.14C241.621 297.14 240.594 296.76 239.834 296C239.087 295.227 238.714 294.167 238.714 292.82C238.714 292.327 238.761 291.847 238.854 291.38C239.054 290.26 239.441 289.287 240.014 288.46C240.587 287.62 241.287 286.98 242.114 286.54C242.954 286.1 243.854 285.88 244.814 285.88ZM245.134 287.5C244.001 287.5 243.034 287.86 242.234 288.58C241.434 289.287 240.927 290.267 240.714 291.52C240.647 291.893 240.614 292.22 240.614 292.5C240.614 293.46 240.887 294.207 241.434 294.74C241.981 295.273 242.741 295.54 243.714 295.54C244.421 295.54 245.087 295.373 245.714 295.04C246.341 294.707 246.867 294.24 247.294 293.64C247.721 293.027 248.007 292.32 248.154 291.52C248.207 291.24 248.234 290.94 248.234 290.62C248.234 289.66 247.947 288.9 247.374 288.34C246.814 287.78 246.067 287.5 245.134 287.5ZM255.25 288.24C255.743 287.493 256.377 286.907 257.15 286.48C257.923 286.053 258.79 285.84 259.75 285.84L259.39 287.82H258.83C257.83 287.82 256.957 288.073 256.21 288.58C255.463 289.087 254.977 289.927 254.75 291.1L253.71 297H251.87L253.81 286.02H255.65L255.25 288.24ZM262.066 286.02L264.106 294.66L268.926 286.02H270.946L261.566 302.2H259.506L262.746 296.82L260.026 286.02H262.066Z" fill="black" fill-opacity="0.6"/>
<path d="M586.26 293.68C586.167 294.28 585.92 294.847 585.52 295.38C585.12 295.9 584.58 296.327 583.9 296.66C583.22 296.98 582.427 297.14 581.52 297.14C580.547 297.14 579.713 296.967 579.02 296.62C578.327 296.26 577.8 295.787 577.44 295.2C577.093 294.6 576.927 293.933 576.94 293.2H578.88C578.853 293.6 578.927 293.993 579.1 294.38C579.287 294.753 579.58 295.067 579.98 295.32C580.393 295.56 580.92 295.68 581.56 295.68C582.427 295.68 583.107 295.42 583.6 294.9C584.107 294.38 584.36 293.74 584.36 292.98C584.36 292.473 584.227 292.06 583.96 291.74C583.707 291.407 583.387 291.147 583 290.96C582.627 290.76 582.107 290.533 581.44 290.28C580.68 290 580.073 289.74 579.62 289.5C579.18 289.26 578.8 288.927 578.48 288.5C578.173 288.06 578.02 287.493 578.02 286.8C578.02 286.493 578.047 286.187 578.1 285.88C578.26 284.933 578.76 284.173 579.6 283.6C580.453 283.013 581.513 282.72 582.78 282.72C584.207 282.72 585.287 283.067 586.02 283.76C586.767 284.44 587.16 285.287 587.2 286.3H585.26C585.247 285.74 585.033 285.247 584.62 284.82C584.207 284.393 583.573 284.18 582.72 284.18C581.92 284.18 581.267 284.387 580.76 284.8C580.267 285.213 580.02 285.813 580.02 286.6C580.02 287.067 580.14 287.453 580.38 287.76C580.633 288.067 580.94 288.313 581.3 288.5C581.673 288.673 582.187 288.88 582.84 289.12C583.6 289.4 584.213 289.667 584.68 289.92C585.147 290.16 585.54 290.507 585.86 290.96C586.193 291.413 586.36 292 586.36 292.72C586.36 292.987 586.327 293.307 586.26 293.68ZM595.128 285.88C596.075 285.88 596.881 286.06 597.548 286.42C598.215 286.767 598.715 287.247 599.048 287.86C599.395 288.46 599.568 289.147 599.568 289.92C599.568 290.267 599.541 290.593 599.488 290.9C599.408 291.313 599.315 291.647 599.208 291.9H590.468C590.415 292.3 590.388 292.587 590.388 292.76C590.388 293.72 590.661 294.447 591.208 294.94C591.768 295.42 592.475 295.66 593.328 295.66C594.195 295.66 594.968 295.44 595.648 295C596.328 294.547 596.801 293.947 597.068 293.2H599.008C598.581 294.373 597.848 295.327 596.808 296.06C595.768 296.78 594.548 297.14 593.148 297.14C591.761 297.14 590.661 296.753 589.848 295.98C589.035 295.207 588.628 294.133 588.628 292.76C588.628 292.333 588.668 291.893 588.748 291.44C588.948 290.307 589.355 289.32 589.968 288.48C590.581 287.64 591.335 287 592.228 286.56C593.121 286.107 594.088 285.88 595.128 285.88ZM597.648 291.02C597.728 290.66 597.768 290.327 597.768 290.02C597.768 289.153 597.488 288.493 596.928 288.04C596.381 287.587 595.695 287.36 594.868 287.36C593.881 287.36 592.988 287.673 592.188 288.3C591.388 288.913 590.861 289.82 590.608 291.02H597.648ZM607.569 285.88C608.995 285.88 610.109 286.253 610.909 287C611.709 287.747 612.102 288.747 612.089 290H610.169C610.169 289.213 609.909 288.6 609.389 288.16C608.882 287.707 608.189 287.48 607.309 287.48C606.309 287.48 605.415 287.827 604.629 288.52C603.842 289.2 603.329 290.2 603.089 291.52C603.022 291.947 602.989 292.293 602.989 292.56C602.989 293.547 603.255 294.293 603.789 294.8C604.335 295.307 605.035 295.56 605.889 295.56C606.769 295.56 607.542 295.333 608.209 294.88C608.889 294.427 609.369 293.807 609.649 293.02H611.569C611.129 294.287 610.382 295.293 609.329 296.04C608.289 296.773 607.062 297.14 605.649 297.14C604.275 297.14 603.175 296.753 602.349 295.98C601.535 295.193 601.129 294.113 601.129 292.74C601.129 292.313 601.169 291.86 601.249 291.38C601.449 290.26 601.849 289.287 602.449 288.46C603.049 287.62 603.789 286.98 604.669 286.54C605.562 286.1 606.529 285.88 607.569 285.88ZM620.189 285.88C621.109 285.88 621.922 286.06 622.629 286.42C623.336 286.78 623.882 287.3 624.269 287.98C624.669 288.647 624.869 289.447 624.869 290.38C624.869 290.793 624.829 291.22 624.749 291.66C624.549 292.78 624.136 293.753 623.509 294.58C622.896 295.407 622.136 296.04 621.229 296.48C620.322 296.92 619.349 297.14 618.309 297.14C616.882 297.14 615.736 296.74 614.869 295.94C614.016 295.14 613.589 294.04 613.589 292.64C613.589 292.24 613.629 291.82 613.709 291.38C613.909 290.26 614.322 289.287 614.949 288.46C615.576 287.62 616.342 286.98 617.249 286.54C618.169 286.1 619.149 285.88 620.189 285.88ZM619.949 287.48C619.296 287.48 618.662 287.627 618.049 287.92C617.449 288.213 616.922 288.667 616.469 289.28C616.029 289.88 615.729 290.627 615.569 291.52C615.502 291.92 615.469 292.253 615.469 292.52C615.469 293.507 615.756 294.26 616.329 294.78C616.902 295.287 617.636 295.54 618.529 295.54C619.182 295.54 619.809 295.393 620.409 295.1C621.009 294.807 621.529 294.36 621.969 293.76C622.422 293.147 622.729 292.4 622.889 291.52C622.956 291.12 622.989 290.787 622.989 290.52C622.989 289.52 622.702 288.767 622.129 288.26C621.556 287.74 620.829 287.48 619.949 287.48ZM633.9 285.84C634.98 285.84 635.833 286.147 636.46 286.76C637.1 287.36 637.42 288.24 637.42 289.4C637.42 289.84 637.387 290.247 637.32 290.62L636.18 297H634.36L635.46 290.78C635.513 290.5 635.54 290.2 635.54 289.88C635.54 289.067 635.313 288.447 634.86 288.02C634.407 287.593 633.767 287.38 632.94 287.38C631.94 287.38 631.087 287.707 630.38 288.36C629.673 289 629.213 289.94 629 291.18V291.1L627.96 297H626.12L628.06 286.02H629.9L629.44 288.6C629.88 287.707 630.5 287.027 631.3 286.56C632.1 286.08 632.967 285.84 633.9 285.84ZM651.992 282.2L649.372 297H647.552L648.052 294.2C647.612 295.093 646.972 295.807 646.132 296.34C645.292 296.873 644.338 297.14 643.272 297.14C642.005 297.14 640.992 296.753 640.232 295.98C639.472 295.207 639.092 294.14 639.092 292.78C639.092 292.433 639.138 291.967 639.232 291.38C639.432 290.26 639.818 289.287 640.392 288.46C640.965 287.62 641.665 286.98 642.492 286.54C643.332 286.1 644.232 285.88 645.192 285.88C646.272 285.88 647.138 286.147 647.792 286.68C648.458 287.213 648.858 287.927 648.992 288.82L650.172 282.2H651.992ZM645.512 287.5C644.378 287.5 643.405 287.86 642.592 288.58C641.792 289.287 641.285 290.267 641.072 291.52C641.018 291.827 640.992 292.153 640.992 292.5C640.992 293.46 641.265 294.207 641.812 294.74C642.358 295.273 643.112 295.54 644.072 295.54C644.792 295.54 645.465 295.373 646.092 295.04C646.718 294.707 647.245 294.24 647.672 293.64C648.098 293.027 648.385 292.32 648.532 291.52C648.585 291.24 648.612 290.947 648.612 290.64C648.612 289.68 648.332 288.92 647.772 288.36C647.212 287.787 646.458 287.5 645.512 287.5ZM658.869 285.88C659.949 285.88 660.822 286.153 661.489 286.7C662.155 287.233 662.555 287.94 662.689 288.82L663.189 286.02H664.989L663.049 297H661.229L661.729 294.2C661.302 295.08 660.669 295.793 659.829 296.34C658.989 296.873 658.035 297.14 656.969 297.14C655.675 297.14 654.649 296.76 653.889 296C653.142 295.227 652.769 294.167 652.769 292.82C652.769 292.327 652.815 291.847 652.909 291.38C653.109 290.26 653.495 289.287 654.069 288.46C654.642 287.62 655.342 286.98 656.169 286.54C657.009 286.1 657.909 285.88 658.869 285.88ZM659.189 287.5C658.055 287.5 657.089 287.86 656.289 288.58C655.489 289.287 654.982 290.267 654.769 291.52C654.702 291.893 654.669 292.22 654.669 292.5C654.669 293.46 654.942 294.207 655.489 294.74C656.035 295.273 656.795 295.54 657.769 295.54C658.475 295.54 659.142 295.373 659.769 295.04C660.395 294.707 660.922 294.24 661.349 293.64C661.775 293.027 662.062 292.32 662.209 291.52C662.262 291.24 662.289 290.94 662.289 290.62C662.289 289.66 662.002 288.9 661.429 288.34C660.869 287.78 660.122 287.5 659.189 287.5ZM668.445 286.02L670.485 294.66L675.305 286.02H677.325L667.945 302.2H665.885L669.125 296.82L666.405 286.02H668.445Z" fill="black" fill-opacity="0.6"/>
<defs>
<linearGradient id="paint0_linear_1845_3228" x1="122.5" y1="0" x2="122.5" y2="245" gradientUnits="userSpaceOnUse">
<stop offset="0.103837" stop-color="#2F4F64"/>
<stop offset="0.831739"/>
</linearGradient>
<linearGradient id="paint1_linear_1845_3228" x1="48.5339" y1="4.16315" x2="100.719" y2="15.3366" gradientUnits="userSpaceOnUse">
<stop stop-color="#2E335A"/>
<stop offset="1" stop-color="#1C1B33"/>
</linearGradient>
</defs>
</svg>
