<svg width="853" height="1043" viewBox="0 0 853 1043" fill="none" xmlns="http://www.w3.org/2000/svg">
<rect width="853" height="1043" fill="#92A685" fill-opacity="0.95"/>
<path d="M388.894 943.145C389.285 943.535 389.918 943.535 390.309 943.145L396.673 936.781C397.063 936.39 397.063 935.757 396.673 935.366C396.282 934.976 395.649 934.976 395.258 935.366L389.602 941.023L383.945 935.366C383.554 934.976 382.921 934.976 382.53 935.366C382.14 935.757 382.14 936.39 382.53 936.781L388.894 943.145ZM390.602 942.438L390.602 913.964L388.602 913.964L388.602 942.437L390.602 942.438Z" fill="#211B32" fill-opacity="0.6"/>
<path d="M388.894 651.387C389.285 651.777 389.918 651.777 390.309 651.387L396.673 645.023C397.063 644.632 397.063 643.999 396.673 643.609C396.282 643.218 395.649 643.218 395.258 643.609L389.602 649.265L383.945 643.609C383.554 643.218 382.921 643.218 382.53 643.609C382.14 643.999 382.14 644.632 382.53 645.023L388.894 651.387ZM390.602 650.68L390.602 622.206L388.602 622.206L388.602 650.68L390.602 650.68Z" fill="#211B32" fill-opacity="0.6"/>
<path d="M494.844 549.707C495.234 549.317 495.234 548.683 494.844 548.293L488.48 541.929C488.089 541.538 487.456 541.538 487.066 541.929C486.675 542.319 486.675 542.953 487.066 543.343L492.723 549L487.066 554.657C486.675 555.047 486.675 555.681 487.066 556.071C487.456 556.462 488.089 556.462 488.48 556.071L494.844 549.707ZM494.137 548L455.371 548L455.371 550L494.137 550L494.137 548Z" fill="#211B32" fill-opacity="0.6"/>
<path d="M388.664 473.181C389.055 473.571 389.688 473.571 390.078 473.181L396.442 466.817C396.833 466.426 396.833 465.793 396.442 465.403C396.052 465.012 395.418 465.012 395.028 465.403L389.371 471.059L383.714 465.403C383.324 465.012 382.691 465.012 382.3 465.403C381.91 465.793 381.91 466.426 382.3 466.817L388.664 473.181ZM388.371 444V472.474H390.371V444H388.371Z" fill="#211B32" fill-opacity="0.6"/>
<path d="M489.552 198.707C489.942 198.317 489.942 197.683 489.552 197.293L483.188 190.929C482.797 190.538 482.164 190.538 481.774 190.929C481.383 191.319 481.383 191.953 481.774 192.343L487.431 198L481.774 203.657C481.383 204.047 481.383 204.681 481.774 205.071C482.164 205.462 482.797 205.462 483.188 205.071L489.552 198.707ZM460.371 199L488.845 199L488.845 197L460.371 197L460.371 199Z" fill="#211B32" fill-opacity="0.6"/>
<g filter="url(#filter0_d_1845_3413)">
<rect x="341.012" y="955.141" width="96.3327" height="52.8551" rx="26.4276" fill="white" shape-rendering="crispEdges"/>
<path d="M359.049 974.19H362.574V975.57H357.339V965.145H359.049V974.19ZM371.729 971.235C371.729 971.545 371.709 971.825 371.669 972.075H365.354C365.404 972.735 365.649 973.265 366.089 973.665C366.529 974.065 367.069 974.265 367.709 974.265C368.629 974.265 369.279 973.88 369.659 973.11H371.504C371.254 973.87 370.799 974.495 370.139 974.985C369.489 975.465 368.679 975.705 367.709 975.705C366.919 975.705 366.209 975.53 365.579 975.18C364.959 974.82 364.469 974.32 364.109 973.68C363.759 973.03 363.584 972.28 363.584 971.43C363.584 970.58 363.754 969.835 364.094 969.195C364.444 968.545 364.929 968.045 365.549 967.695C366.179 967.345 366.899 967.17 367.709 967.17C368.489 967.17 369.184 967.34 369.794 967.68C370.404 968.02 370.879 968.5 371.219 969.12C371.559 969.73 371.729 970.435 371.729 971.235ZM369.944 970.695C369.934 970.065 369.709 969.56 369.269 969.18C368.829 968.8 368.284 968.61 367.634 968.61C367.044 968.61 366.539 968.8 366.119 969.18C365.699 969.55 365.449 970.055 365.369 970.695H369.944ZM372.992 971.4C372.992 970.57 373.162 969.835 373.502 969.195C373.852 968.555 374.322 968.06 374.912 967.71C375.512 967.35 376.172 967.17 376.892 967.17C377.542 967.17 378.107 967.3 378.587 967.56C379.077 967.81 379.467 968.125 379.757 968.505V967.305H381.482V975.57H379.757V974.34C379.467 974.73 379.072 975.055 378.572 975.315C378.072 975.575 377.502 975.705 376.862 975.705C376.152 975.705 375.502 975.525 374.912 975.165C374.322 974.795 373.852 974.285 373.502 973.635C373.162 972.975 372.992 972.23 372.992 971.4ZM379.757 971.43C379.757 970.86 379.637 970.365 379.397 969.945C379.167 969.525 378.862 969.205 378.482 968.985C378.102 968.765 377.692 968.655 377.252 968.655C376.812 968.655 376.402 968.765 376.022 968.985C375.642 969.195 375.332 969.51 375.092 969.93C374.862 970.34 374.747 970.83 374.747 971.4C374.747 971.97 374.862 972.47 375.092 972.9C375.332 973.33 375.642 973.66 376.022 973.89C376.412 974.11 376.822 974.22 377.252 974.22C377.692 974.22 378.102 974.11 378.482 973.89C378.862 973.67 379.167 973.35 379.397 972.93C379.637 972.5 379.757 972 379.757 971.43ZM383.308 971.4C383.308 970.57 383.478 969.835 383.818 969.195C384.168 968.555 384.638 968.06 385.228 967.71C385.828 967.35 386.493 967.17 387.223 967.17C387.763 967.17 388.293 967.29 388.813 967.53C389.343 967.76 389.763 968.07 390.073 968.46V964.47H391.798V975.57H390.073V974.325C389.793 974.725 389.403 975.055 388.903 975.315C388.413 975.575 387.848 975.705 387.208 975.705C386.488 975.705 385.828 975.525 385.228 975.165C384.638 974.795 384.168 974.285 383.818 973.635C383.478 972.975 383.308 972.23 383.308 971.4ZM390.073 971.43C390.073 970.86 389.953 970.365 389.713 969.945C389.483 969.525 389.178 969.205 388.798 968.985C388.418 968.765 388.008 968.655 387.568 968.655C387.128 968.655 386.718 968.765 386.338 968.985C385.958 969.195 385.648 969.51 385.408 969.93C385.178 970.34 385.063 970.83 385.063 971.4C385.063 971.97 385.178 972.47 385.408 972.9C385.648 973.33 385.958 973.66 386.338 973.89C386.728 974.11 387.138 974.22 387.568 974.22C388.008 974.22 388.418 974.11 388.798 973.89C389.178 973.67 389.483 973.35 389.713 972.93C389.953 972.5 390.073 972 390.073 971.43ZM400.235 968.7V973.275C400.235 973.585 400.305 973.81 400.445 973.95C400.595 974.08 400.845 974.145 401.195 974.145H402.245V975.57H400.895C400.125 975.57 399.535 975.39 399.125 975.03C398.715 974.67 398.51 974.085 398.51 973.275V968.7H397.535V967.305H398.51V965.25H400.235V967.305H402.245V968.7H400.235ZM408.246 967.17C408.876 967.17 409.436 967.305 409.926 967.575C410.426 967.845 410.816 968.245 411.096 968.775C411.386 969.305 411.531 969.945 411.531 970.695V975.57H409.836V970.95C409.836 970.21 409.651 969.645 409.281 969.255C408.911 968.855 408.406 968.655 407.766 968.655C407.126 968.655 406.616 968.855 406.236 969.255C405.866 969.645 405.681 970.21 405.681 970.95V975.57H403.971V964.47H405.681V968.265C405.971 967.915 406.336 967.645 406.776 967.455C407.226 967.265 407.716 967.17 408.246 967.17ZM421.438 971.235C421.438 971.545 421.418 971.825 421.378 972.075H415.063C415.113 972.735 415.358 973.265 415.798 973.665C416.238 974.065 416.778 974.265 417.418 974.265C418.338 974.265 418.988 973.88 419.368 973.11H421.213C420.963 973.87 420.508 974.495 419.848 974.985C419.198 975.465 418.388 975.705 417.418 975.705C416.628 975.705 415.918 975.53 415.288 975.18C414.668 974.82 414.178 974.32 413.818 973.68C413.468 973.03 413.293 972.28 413.293 971.43C413.293 970.58 413.463 969.835 413.803 969.195C414.153 968.545 414.638 968.045 415.258 967.695C415.888 967.345 416.608 967.17 417.418 967.17C418.198 967.17 418.893 967.34 419.503 967.68C420.113 968.02 420.588 968.5 420.928 969.12C421.268 969.73 421.438 970.435 421.438 971.235ZM419.653 970.695C419.643 970.065 419.418 969.56 418.978 969.18C418.538 968.8 417.993 968.61 417.343 968.61C416.753 968.61 416.248 968.8 415.828 969.18C415.408 969.55 415.158 970.055 415.078 970.695H419.653ZM385.617 990.305L383.052 998.57H381.252L379.587 992.465L377.922 998.57H376.122L373.542 990.305H375.282L377.007 996.95L378.762 990.305H380.547L382.227 996.92L383.937 990.305H385.617ZM386.475 994.4C386.475 993.57 386.645 992.835 386.985 992.195C387.335 991.555 387.805 991.06 388.395 990.71C388.995 990.35 389.655 990.17 390.375 990.17C391.025 990.17 391.59 990.3 392.07 990.56C392.56 990.81 392.95 991.125 393.24 991.505V990.305H394.965V998.57H393.24V997.34C392.95 997.73 392.555 998.055 392.055 998.315C391.555 998.575 390.985 998.705 390.345 998.705C389.635 998.705 388.985 998.525 388.395 998.165C387.805 997.795 387.335 997.285 386.985 996.635C386.645 995.975 386.475 995.23 386.475 994.4ZM393.24 994.43C393.24 993.86 393.12 993.365 392.88 992.945C392.65 992.525 392.345 992.205 391.965 991.985C391.585 991.765 391.175 991.655 390.735 991.655C390.295 991.655 389.885 991.765 389.505 991.985C389.125 992.195 388.815 992.51 388.575 992.93C388.345 993.34 388.23 993.83 388.23 994.4C388.23 994.97 388.345 995.47 388.575 995.9C388.815 996.33 389.125 996.66 389.505 996.89C389.895 997.11 390.305 997.22 390.735 997.22C391.175 997.22 391.585 997.11 391.965 996.89C392.345 996.67 392.65 996.35 392.88 995.93C393.12 995.5 393.24 995 393.24 994.43ZM404.801 990.305L399.731 1002.46H397.961L399.641 998.435L396.386 990.305H398.291L400.616 996.605L403.031 990.305H404.801Z" fill="#211B32" fill-opacity="0.95"/>
<rect x="342.012" y="956.141" width="94.3327" height="50.8551" rx="25.4276" stroke="#211B32" stroke-opacity="0.6" stroke-width="2" shape-rendering="crispEdges"/>
</g>
<g filter="url(#filter1_d_1845_3413)">
<rect x="316.602" y="549.141" width="103.265" height="103.265" rx="4" transform="rotate(-45 316.602 549.141)" fill="white"/>
<rect x="318.016" y="549.141" width="101.265" height="101.265" rx="3" transform="rotate(-45 318.016 549.141)" stroke="#211B32" stroke-opacity="0.6" stroke-width="2"/>
<path d="M369.014 534.841C369.304 534.461 369.699 534.141 370.199 533.881C370.699 533.621 371.264 533.491 371.894 533.491C372.614 533.491 373.269 533.671 373.859 534.031C374.459 534.381 374.929 534.876 375.269 535.516C375.609 536.156 375.779 536.891 375.779 537.721C375.779 538.551 375.609 539.296 375.269 539.956C374.929 540.606 374.459 541.116 373.859 541.486C373.269 541.846 372.614 542.026 371.894 542.026C371.264 542.026 370.704 541.901 370.214 541.651C369.724 541.391 369.324 541.071 369.014 540.691V545.821H367.304V533.626H369.014V534.841ZM374.039 537.721C374.039 537.151 373.919 536.661 373.679 536.251C373.449 535.831 373.139 535.516 372.749 535.306C372.369 535.086 371.959 534.976 371.519 534.976C371.089 534.976 370.679 535.086 370.289 535.306C369.909 535.526 369.599 535.846 369.359 536.266C369.129 536.686 369.014 537.181 369.014 537.751C369.014 538.321 369.129 538.821 369.359 539.251C369.599 539.671 369.909 539.991 370.289 540.211C370.679 540.431 371.089 540.541 371.519 540.541C371.959 540.541 372.369 540.431 372.749 540.211C373.139 539.981 373.449 539.651 373.679 539.221C373.919 538.791 374.039 538.291 374.039 537.721ZM378.49 532.531C378.18 532.531 377.92 532.426 377.71 532.216C377.5 532.006 377.395 531.746 377.395 531.436C377.395 531.126 377.5 530.866 377.71 530.656C377.92 530.446 378.18 530.341 378.49 530.341C378.79 530.341 379.045 530.446 379.255 530.656C379.465 530.866 379.57 531.126 379.57 531.436C379.57 531.746 379.465 532.006 379.255 532.216C379.045 532.426 378.79 532.531 378.49 532.531ZM379.33 533.626V541.891H377.62V533.626H379.33ZM381.155 537.751C381.155 536.901 381.325 536.156 381.665 535.516C382.015 534.866 382.495 534.366 383.105 534.016C383.715 533.666 384.415 533.491 385.205 533.491C386.205 533.491 387.03 533.731 387.68 534.211C388.34 534.681 388.785 535.356 389.015 536.236H387.17C387.02 535.826 386.78 535.506 386.45 535.276C386.12 535.046 385.705 534.931 385.205 534.931C384.505 534.931 383.945 535.181 383.525 535.681C383.115 536.171 382.91 536.861 382.91 537.751C382.91 538.641 383.115 539.336 383.525 539.836C383.945 540.336 384.505 540.586 385.205 540.586C386.195 540.586 386.85 540.151 387.17 539.281H389.015C388.775 540.121 388.325 540.791 387.665 541.291C387.005 541.781 386.185 542.026 385.205 542.026C384.415 542.026 383.715 541.851 383.105 541.501C382.495 541.141 382.015 540.641 381.665 540.001C381.325 539.351 381.155 538.601 381.155 537.751ZM394.14 537.766L397.95 541.891H395.64L392.58 538.336V541.891H390.87V530.791H392.58V537.241L395.58 533.626H397.95L394.14 537.766ZM402.802 537.721C402.802 536.891 402.972 536.156 403.312 535.516C403.662 534.876 404.132 534.381 404.722 534.031C405.322 533.671 405.982 533.491 406.702 533.491C407.352 533.491 407.917 533.621 408.397 533.881C408.887 534.131 409.277 534.446 409.567 534.826V533.626H411.292V541.891H409.567V540.661C409.277 541.051 408.882 541.376 408.382 541.636C407.882 541.896 407.312 542.026 406.672 542.026C405.962 542.026 405.312 541.846 404.722 541.486C404.132 541.116 403.662 540.606 403.312 539.956C402.972 539.296 402.802 538.551 402.802 537.721ZM409.567 537.751C409.567 537.181 409.447 536.686 409.207 536.266C408.977 535.846 408.672 535.526 408.292 535.306C407.912 535.086 407.502 534.976 407.062 534.976C406.622 534.976 406.212 535.086 405.832 535.306C405.452 535.516 405.142 535.831 404.902 536.251C404.672 536.661 404.557 537.151 404.557 537.721C404.557 538.291 404.672 538.791 404.902 539.221C405.142 539.651 405.452 539.981 405.832 540.211C406.222 540.431 406.632 540.541 407.062 540.541C407.502 540.541 407.912 540.431 408.292 540.211C408.672 539.991 408.977 539.671 409.207 539.251C409.447 538.821 409.567 538.321 409.567 537.751ZM356.809 557.826C357.059 557.406 357.389 557.081 357.799 556.851C358.219 556.611 358.714 556.491 359.284 556.491V558.261H358.849C358.179 558.261 357.669 558.431 357.319 558.771C356.979 559.111 356.809 559.701 356.809 560.541V564.891H355.099V556.626H356.809V557.826ZM368.581 560.556C368.581 560.866 368.561 561.146 368.521 561.396H362.206C362.256 562.056 362.501 562.586 362.941 562.986C363.381 563.386 363.921 563.586 364.561 563.586C365.481 563.586 366.131 563.201 366.511 562.431H368.356C368.106 563.191 367.651 563.816 366.991 564.306C366.341 564.786 365.531 565.026 364.561 565.026C363.771 565.026 363.061 564.851 362.431 564.501C361.811 564.141 361.321 563.641 360.961 563.001C360.611 562.351 360.436 561.601 360.436 560.751C360.436 559.901 360.606 559.156 360.946 558.516C361.296 557.866 361.781 557.366 362.401 557.016C363.031 556.666 363.751 556.491 364.561 556.491C365.341 556.491 366.036 556.661 366.646 557.001C367.256 557.341 367.731 557.821 368.071 558.441C368.411 559.051 368.581 559.756 368.581 560.556ZM366.796 560.016C366.786 559.386 366.561 558.881 366.121 558.501C365.681 558.121 365.136 557.931 364.486 557.931C363.896 557.931 363.391 558.121 362.971 558.501C362.551 558.871 362.301 559.376 362.221 560.016H366.796ZM373.413 565.026C372.763 565.026 372.178 564.911 371.658 564.681C371.148 564.441 370.743 564.121 370.443 563.721C370.143 563.311 369.983 562.856 369.963 562.356H371.733C371.763 562.706 371.928 563.001 372.228 563.241C372.538 563.471 372.923 563.586 373.383 563.586C373.863 563.586 374.233 563.496 374.493 563.316C374.763 563.126 374.898 562.886 374.898 562.596C374.898 562.286 374.748 562.056 374.448 561.906C374.158 561.756 373.693 561.591 373.053 561.411C372.433 561.241 371.928 561.076 371.538 560.916C371.148 560.756 370.808 560.511 370.518 560.181C370.238 559.851 370.098 559.416 370.098 558.876C370.098 558.436 370.228 558.036 370.488 557.676C370.748 557.306 371.118 557.016 371.598 556.806C372.088 556.596 372.648 556.491 373.278 556.491C374.218 556.491 374.973 556.731 375.543 557.211C376.123 557.681 376.433 558.326 376.473 559.146H374.763C374.733 558.776 374.583 558.481 374.313 558.261C374.043 558.041 373.678 557.931 373.218 557.931C372.768 557.931 372.423 558.016 372.183 558.186C371.943 558.356 371.823 558.581 371.823 558.861C371.823 559.081 371.903 559.266 372.063 559.416C372.223 559.566 372.418 559.686 372.648 559.776C372.878 559.856 373.218 559.961 373.668 560.091C374.268 560.251 374.758 560.416 375.138 560.586C375.528 560.746 375.863 560.986 376.143 561.306C376.423 561.626 376.568 562.051 376.578 562.581C376.578 563.051 376.448 563.471 376.188 563.841C375.928 564.211 375.558 564.501 375.078 564.711C374.608 564.921 374.053 565.026 373.413 565.026ZM380.571 558.021V562.596C380.571 562.906 380.641 563.131 380.781 563.271C380.931 563.401 381.181 563.466 381.531 563.466H382.581V564.891H381.231C380.461 564.891 379.871 564.711 379.461 564.351C379.051 563.991 378.846 563.406 378.846 562.596V558.021H377.871V556.626H378.846V554.571H380.571V556.626H382.581V558.021H380.571ZM391.792 556.626V564.891H390.082V563.916C389.812 564.256 389.457 564.526 389.017 564.726C388.587 564.916 388.127 565.011 387.637 565.011C386.987 565.011 386.402 564.876 385.882 564.606C385.372 564.336 384.967 563.936 384.667 563.406C384.377 562.876 384.232 562.236 384.232 561.486V556.626H385.927V561.231C385.927 561.971 386.112 562.541 386.482 562.941C386.852 563.331 387.357 563.526 387.997 563.526C388.637 563.526 389.142 563.331 389.512 562.941C389.892 562.541 390.082 561.971 390.082 561.231V556.626H391.792ZM395.908 557.826C396.158 557.406 396.488 557.081 396.898 556.851C397.318 556.611 397.813 556.491 398.383 556.491V558.261H397.948C397.278 558.261 396.768 558.431 396.418 558.771C396.078 559.111 395.908 559.701 395.908 560.541V564.891H394.198V556.626H395.908V557.826ZM399.535 560.721C399.535 559.891 399.705 559.156 400.045 558.516C400.395 557.876 400.865 557.381 401.455 557.031C402.055 556.671 402.715 556.491 403.435 556.491C404.085 556.491 404.65 556.621 405.13 556.881C405.62 557.131 406.01 557.446 406.3 557.826V556.626H408.025V564.891H406.3V563.661C406.01 564.051 405.615 564.376 405.115 564.636C404.615 564.896 404.045 565.026 403.405 565.026C402.695 565.026 402.045 564.846 401.455 564.486C400.865 564.116 400.395 563.606 400.045 562.956C399.705 562.296 399.535 561.551 399.535 560.721ZM406.3 560.751C406.3 560.181 406.18 559.686 405.94 559.266C405.71 558.846 405.405 558.526 405.025 558.306C404.645 558.086 404.235 557.976 403.795 557.976C403.355 557.976 402.945 558.086 402.565 558.306C402.185 558.516 401.875 558.831 401.635 559.251C401.405 559.661 401.29 560.151 401.29 560.721C401.29 561.291 401.405 561.791 401.635 562.221C401.875 562.651 402.185 562.981 402.565 563.211C402.955 563.431 403.365 563.541 403.795 563.541C404.235 563.541 404.645 563.431 405.025 563.211C405.405 562.991 405.71 562.671 405.94 562.251C406.18 561.821 406.3 561.321 406.3 560.751ZM414.591 556.491C415.241 556.491 415.821 556.626 416.331 556.896C416.851 557.166 417.256 557.566 417.546 558.096C417.836 558.626 417.981 559.266 417.981 560.016V564.891H416.286V560.271C416.286 559.531 416.101 558.966 415.731 558.576C415.361 558.176 414.856 557.976 414.216 557.976C413.576 557.976 413.066 558.176 412.686 558.576C412.316 558.966 412.131 559.531 412.131 560.271V564.891H410.421V556.626H412.131V557.571C412.411 557.231 412.766 556.966 413.196 556.776C413.636 556.586 414.101 556.491 414.591 556.491ZM422.307 558.021V562.596C422.307 562.906 422.377 563.131 422.517 563.271C422.667 563.401 422.917 563.466 423.267 563.466H424.317V564.891H422.967C422.197 564.891 421.607 564.711 421.197 564.351C420.787 563.991 420.582 563.406 420.582 562.596V558.021H419.607V556.626H420.582V554.571H422.307V556.626H424.317V558.021H422.307Z" fill="#211B32" fill-opacity="0.95"/>
</g>
<g filter="url(#filter2_d_1845_3413)">
<rect x="316.602" y="197.914" width="103.265" height="103.265" rx="4" transform="rotate(-45 316.602 197.914)" fill="white"/>
<rect x="318.016" y="197.914" width="101.265" height="101.265" rx="3" transform="rotate(-45 318.016 197.914)" stroke="#211B32" stroke-opacity="0.6" stroke-width="2"/>
</g>
<path d="M369.836 201.284H373.361V202.664H368.126V192.239H369.836V201.284ZM378.527 202.799C377.747 202.799 377.042 202.624 376.412 202.274C375.782 201.914 375.287 201.414 374.927 200.774C374.567 200.124 374.387 199.374 374.387 198.524C374.387 197.684 374.572 196.939 374.942 196.289C375.312 195.639 375.817 195.139 376.457 194.789C377.097 194.439 377.812 194.264 378.602 194.264C379.392 194.264 380.107 194.439 380.747 194.789C381.387 195.139 381.892 195.639 382.262 196.289C382.632 196.939 382.817 197.684 382.817 198.524C382.817 199.364 382.627 200.109 382.247 200.759C381.867 201.409 381.347 201.914 380.687 202.274C380.037 202.624 379.317 202.799 378.527 202.799ZM378.527 201.314C378.967 201.314 379.377 201.209 379.757 200.999C380.147 200.789 380.462 200.474 380.702 200.054C380.942 199.634 381.062 199.124 381.062 198.524C381.062 197.924 380.947 197.419 380.717 197.009C380.487 196.589 380.182 196.274 379.802 196.064C379.422 195.854 379.012 195.749 378.572 195.749C378.132 195.749 377.722 195.854 377.342 196.064C376.972 196.274 376.677 196.589 376.457 197.009C376.237 197.419 376.127 197.924 376.127 198.524C376.127 199.414 376.352 200.104 376.802 200.594C377.262 201.074 377.837 201.314 378.527 201.314ZM387.987 194.264C388.627 194.264 389.192 194.394 389.682 194.654C390.182 194.904 390.572 195.219 390.852 195.599V194.399H392.577V202.799C392.577 203.559 392.417 204.234 392.097 204.824C391.777 205.424 391.312 205.894 390.702 206.234C390.102 206.574 389.382 206.744 388.542 206.744C387.422 206.744 386.492 206.479 385.752 205.949C385.012 205.429 384.592 204.719 384.492 203.819H386.187C386.317 204.249 386.592 204.594 387.012 204.854C387.442 205.124 387.952 205.259 388.542 205.259C389.232 205.259 389.787 205.049 390.207 204.629C390.637 204.209 390.852 203.599 390.852 202.799V201.419C390.562 201.809 390.167 202.139 389.667 202.409C389.177 202.669 388.617 202.799 387.987 202.799C387.267 202.799 386.607 202.619 386.007 202.259C385.417 201.889 384.947 201.379 384.597 200.729C384.257 200.069 384.087 199.324 384.087 198.494C384.087 197.664 384.257 196.929 384.597 196.289C384.947 195.649 385.417 195.154 386.007 194.804C386.607 194.444 387.267 194.264 387.987 194.264ZM390.852 198.524C390.852 197.954 390.732 197.459 390.492 197.039C390.262 196.619 389.957 196.299 389.577 196.079C389.197 195.859 388.787 195.749 388.347 195.749C387.907 195.749 387.497 195.859 387.117 196.079C386.737 196.289 386.427 196.604 386.187 197.024C385.957 197.434 385.842 197.924 385.842 198.494C385.842 199.064 385.957 199.564 386.187 199.994C386.427 200.424 386.737 200.754 387.117 200.984C387.507 201.204 387.917 201.314 388.347 201.314C388.787 201.314 389.197 201.204 389.577 200.984C389.957 200.764 390.262 200.444 390.492 200.024C390.732 199.594 390.852 199.094 390.852 198.524ZM399.889 193.304C399.579 193.304 399.319 193.199 399.109 192.989C398.899 192.779 398.794 192.519 398.794 192.209C398.794 191.899 398.899 191.639 399.109 191.429C399.319 191.219 399.579 191.114 399.889 191.114C400.189 191.114 400.444 191.219 400.654 191.429C400.864 191.639 400.969 191.899 400.969 192.209C400.969 192.519 400.864 192.779 400.654 192.989C400.444 193.199 400.189 193.304 399.889 193.304ZM400.729 194.399V202.664H399.019V194.399H400.729ZM407.295 194.264C407.945 194.264 408.525 194.399 409.035 194.669C409.555 194.939 409.96 195.339 410.25 195.869C410.54 196.399 410.685 197.039 410.685 197.789V202.664H408.99V198.044C408.99 197.304 408.805 196.739 408.435 196.349C408.065 195.949 407.56 195.749 406.92 195.749C406.28 195.749 405.77 195.949 405.39 196.349C405.02 196.739 404.835 197.304 404.835 198.044V202.664H403.125V194.399H404.835V195.344C405.115 195.004 405.47 194.739 405.9 194.549C406.34 194.359 406.805 194.264 407.295 194.264Z" fill="#211B32" fill-opacity="0.95"/>
<g filter="url(#filter3_d_1845_3413)">
<rect x="341.012" y="302.75" width="96.3327" height="53.7076" rx="4" fill="white" shape-rendering="crispEdges"/>
<path d="M377.952 324.677V326.072H373.527V329.147H376.977V330.542H373.527V335.102H371.817V324.677H377.952ZM380.557 325.742C380.247 325.742 379.987 325.637 379.777 325.427C379.567 325.217 379.462 324.957 379.462 324.647C379.462 324.337 379.567 324.077 379.777 323.867C379.987 323.657 380.247 323.552 380.557 323.552C380.857 323.552 381.112 323.657 381.322 323.867C381.532 324.077 381.637 324.337 381.637 324.647C381.637 324.957 381.532 325.217 381.322 325.427C381.112 325.637 380.857 325.742 380.557 325.742ZM381.397 326.837V335.102H379.687V326.837H381.397ZM385.502 324.002V335.102H383.792V324.002H385.502ZM389.892 328.232V332.807C389.892 333.117 389.962 333.342 390.102 333.482C390.252 333.612 390.502 333.677 390.852 333.677H391.902V335.102H390.552C389.782 335.102 389.192 334.922 388.782 334.562C388.372 334.202 388.167 333.617 388.167 332.807V328.232H387.192V326.837H388.167V324.782H389.892V326.837H391.902V328.232H389.892ZM401.203 330.767C401.203 331.077 401.183 331.357 401.143 331.607H394.828C394.878 332.267 395.123 332.797 395.563 333.197C396.003 333.597 396.543 333.797 397.183 333.797C398.103 333.797 398.753 333.412 399.133 332.642H400.978C400.728 333.402 400.273 334.027 399.613 334.517C398.963 334.997 398.153 335.237 397.183 335.237C396.393 335.237 395.683 335.062 395.053 334.712C394.433 334.352 393.943 333.852 393.583 333.212C393.233 332.562 393.058 331.812 393.058 330.962C393.058 330.112 393.228 329.367 393.568 328.727C393.918 328.077 394.403 327.577 395.023 327.227C395.653 326.877 396.373 326.702 397.183 326.702C397.963 326.702 398.658 326.872 399.268 327.212C399.878 327.552 400.353 328.032 400.693 328.652C401.033 329.262 401.203 329.967 401.203 330.767ZM399.418 330.227C399.408 329.597 399.183 329.092 398.743 328.712C398.303 328.332 397.758 328.142 397.108 328.142C396.518 328.142 396.013 328.332 395.593 328.712C395.173 329.082 394.923 329.587 394.843 330.227H399.418ZM404.746 328.037C404.996 327.617 405.326 327.292 405.736 327.062C406.156 326.822 406.651 326.702 407.221 326.702V328.472H406.786C406.116 328.472 405.606 328.642 405.256 328.982C404.916 329.322 404.746 329.912 404.746 330.752V335.102H403.036V326.837H404.746V328.037Z" fill="#211B32" fill-opacity="0.95"/>
<rect x="342.012" y="303.75" width="94.3327" height="51.7076" rx="3" stroke="#211B32" stroke-opacity="0.6" stroke-width="2" shape-rendering="crispEdges"/>
</g>
<g filter="url(#filter4_d_1845_3413)">
<rect x="497.371" y="171.469" width="96.3327" height="53.7076" rx="4" fill="white" shape-rendering="crispEdges"/>
<path d="M520.822 203.82L518.422 199.65H517.117V203.82H515.407V193.395H519.007C519.807 193.395 520.482 193.535 521.032 193.815C521.592 194.095 522.007 194.47 522.277 194.94C522.557 195.41 522.697 195.935 522.697 196.515C522.697 197.195 522.497 197.815 522.097 198.375C521.707 198.925 521.102 199.3 520.282 199.5L522.862 203.82H520.822ZM517.117 198.285H519.007C519.647 198.285 520.127 198.125 520.447 197.805C520.777 197.485 520.942 197.055 520.942 196.515C520.942 195.975 520.782 195.555 520.462 195.255C520.142 194.945 519.657 194.79 519.007 194.79H517.117V198.285ZM532.609 199.485C532.609 199.795 532.589 200.075 532.549 200.325H526.234C526.284 200.985 526.529 201.515 526.969 201.915C527.409 202.315 527.949 202.515 528.589 202.515C529.509 202.515 530.159 202.13 530.539 201.36H532.384C532.134 202.12 531.679 202.745 531.019 203.235C530.369 203.715 529.559 203.955 528.589 203.955C527.799 203.955 527.089 203.78 526.459 203.43C525.839 203.07 525.349 202.57 524.989 201.93C524.639 201.28 524.464 200.53 524.464 199.68C524.464 198.83 524.634 198.085 524.974 197.445C525.324 196.795 525.809 196.295 526.429 195.945C527.059 195.595 527.779 195.42 528.589 195.42C529.369 195.42 530.064 195.59 530.674 195.93C531.284 196.27 531.759 196.75 532.099 197.37C532.439 197.98 532.609 198.685 532.609 199.485ZM530.824 198.945C530.814 198.315 530.589 197.81 530.149 197.43C529.709 197.05 529.164 196.86 528.514 196.86C527.924 196.86 527.419 197.05 526.999 197.43C526.579 197.8 526.329 198.305 526.249 198.945H530.824ZM537.772 195.42C538.412 195.42 538.977 195.55 539.467 195.81C539.967 196.06 540.357 196.375 540.637 196.755V195.555H542.362V203.955C542.362 204.715 542.202 205.39 541.882 205.98C541.562 206.58 541.097 207.05 540.487 207.39C539.887 207.73 539.167 207.9 538.327 207.9C537.207 207.9 536.277 207.635 535.537 207.105C534.797 206.585 534.377 205.875 534.277 204.975H535.972C536.102 205.405 536.377 205.75 536.797 206.01C537.227 206.28 537.737 206.415 538.327 206.415C539.017 206.415 539.572 206.205 539.992 205.785C540.422 205.365 540.637 204.755 540.637 203.955V202.575C540.347 202.965 539.952 203.295 539.452 203.565C538.962 203.825 538.402 203.955 537.772 203.955C537.052 203.955 536.392 203.775 535.792 203.415C535.202 203.045 534.732 202.535 534.382 201.885C534.042 201.225 533.872 200.48 533.872 199.65C533.872 198.82 534.042 198.085 534.382 197.445C534.732 196.805 535.202 196.31 535.792 195.96C536.392 195.6 537.052 195.42 537.772 195.42ZM540.637 199.68C540.637 199.11 540.517 198.615 540.277 198.195C540.047 197.775 539.742 197.455 539.362 197.235C538.982 197.015 538.572 196.905 538.132 196.905C537.692 196.905 537.282 197.015 536.902 197.235C536.522 197.445 536.212 197.76 535.972 198.18C535.742 198.59 535.627 199.08 535.627 199.65C535.627 200.22 535.742 200.72 535.972 201.15C536.212 201.58 536.522 201.91 536.902 202.14C537.292 202.36 537.702 202.47 538.132 202.47C538.572 202.47 538.982 202.36 539.362 202.14C539.742 201.92 540.047 201.6 540.277 201.18C540.517 200.75 540.637 200.25 540.637 199.68ZM545.628 194.46C545.318 194.46 545.058 194.355 544.848 194.145C544.638 193.935 544.533 193.675 544.533 193.365C544.533 193.055 544.638 192.795 544.848 192.585C545.058 192.375 545.318 192.27 545.628 192.27C545.928 192.27 546.183 192.375 546.393 192.585C546.603 192.795 546.708 193.055 546.708 193.365C546.708 193.675 546.603 193.935 546.393 194.145C546.183 194.355 545.928 194.46 545.628 194.46ZM546.468 195.555V203.82H544.758V195.555H546.468ZM551.863 203.955C551.213 203.955 550.628 203.84 550.108 203.61C549.598 203.37 549.193 203.05 548.893 202.65C548.593 202.24 548.433 201.785 548.413 201.285H550.183C550.213 201.635 550.378 201.93 550.678 202.17C550.988 202.4 551.373 202.515 551.833 202.515C552.313 202.515 552.683 202.425 552.943 202.245C553.213 202.055 553.348 201.815 553.348 201.525C553.348 201.215 553.198 200.985 552.898 200.835C552.608 200.685 552.143 200.52 551.503 200.34C550.883 200.17 550.378 200.005 549.988 199.845C549.598 199.685 549.258 199.44 548.968 199.11C548.688 198.78 548.548 198.345 548.548 197.805C548.548 197.365 548.678 196.965 548.938 196.605C549.198 196.235 549.568 195.945 550.048 195.735C550.538 195.525 551.098 195.42 551.728 195.42C552.668 195.42 553.423 195.66 553.993 196.14C554.573 196.61 554.883 197.255 554.923 198.075H553.213C553.183 197.705 553.033 197.41 552.763 197.19C552.493 196.97 552.128 196.86 551.668 196.86C551.218 196.86 550.873 196.945 550.633 197.115C550.393 197.285 550.273 197.51 550.273 197.79C550.273 198.01 550.353 198.195 550.513 198.345C550.673 198.495 550.868 198.615 551.098 198.705C551.328 198.785 551.668 198.89 552.118 199.02C552.718 199.18 553.208 199.345 553.588 199.515C553.978 199.675 554.313 199.915 554.593 200.235C554.873 200.555 555.018 200.98 555.028 201.51C555.028 201.98 554.898 202.4 554.638 202.77C554.378 203.14 554.008 203.43 553.528 203.64C553.058 203.85 552.503 203.955 551.863 203.955ZM559.021 196.95V201.525C559.021 201.835 559.091 202.06 559.231 202.2C559.381 202.33 559.631 202.395 559.981 202.395H561.031V203.82H559.681C558.911 203.82 558.321 203.64 557.911 203.28C557.501 202.92 557.296 202.335 557.296 201.525V196.95H556.321V195.555H557.296V193.5H559.021V195.555H561.031V196.95H559.021ZM570.332 199.485C570.332 199.795 570.312 200.075 570.272 200.325H563.957C564.007 200.985 564.252 201.515 564.692 201.915C565.132 202.315 565.672 202.515 566.312 202.515C567.232 202.515 567.882 202.13 568.262 201.36H570.107C569.857 202.12 569.402 202.745 568.742 203.235C568.092 203.715 567.282 203.955 566.312 203.955C565.522 203.955 564.812 203.78 564.182 203.43C563.562 203.07 563.072 202.57 562.712 201.93C562.362 201.28 562.187 200.53 562.187 199.68C562.187 198.83 562.357 198.085 562.697 197.445C563.047 196.795 563.532 196.295 564.152 195.945C564.782 195.595 565.502 195.42 566.312 195.42C567.092 195.42 567.787 195.59 568.397 195.93C569.007 196.27 569.482 196.75 569.822 197.37C570.162 197.98 570.332 198.685 570.332 199.485ZM568.547 198.945C568.537 198.315 568.312 197.81 567.872 197.43C567.432 197.05 566.887 196.86 566.237 196.86C565.647 196.86 565.142 197.05 564.722 197.43C564.302 197.8 564.052 198.305 563.972 198.945H568.547ZM573.875 196.755C574.125 196.335 574.455 196.01 574.865 195.78C575.285 195.54 575.78 195.42 576.35 195.42V197.19H575.915C575.245 197.19 574.735 197.36 574.385 197.7C574.045 198.04 573.875 198.63 573.875 199.47V203.82H572.165V195.555H573.875V196.755Z" fill="#211B32" fill-opacity="0.95"/>
<rect x="498.371" y="172.469" width="94.3327" height="51.7076" rx="3" stroke="#211B32" stroke-opacity="0.6" stroke-width="2" shape-rendering="crispEdges"/>
</g>
<g filter="url(#filter5_d_1845_3413)">
<rect x="341.012" y="391.109" width="96.3327" height="53.7076" rx="4" fill="white" shape-rendering="crispEdges"/>
<path d="M384.355 413.036V423.461H382.645V416.321L379.465 423.461H378.28L375.085 416.321V423.461H373.375V413.036H375.22L378.88 421.211L382.525 413.036H384.355ZM386.182 419.291C386.182 418.461 386.352 417.726 386.692 417.086C387.042 416.446 387.512 415.951 388.102 415.601C388.702 415.241 389.362 415.061 390.082 415.061C390.732 415.061 391.297 415.191 391.777 415.451C392.267 415.701 392.657 416.016 392.947 416.396V415.196H394.672V423.461H392.947V422.231C392.657 422.621 392.262 422.946 391.762 423.206C391.262 423.466 390.692 423.596 390.052 423.596C389.342 423.596 388.692 423.416 388.102 423.056C387.512 422.686 387.042 422.176 386.692 421.526C386.352 420.866 386.182 420.121 386.182 419.291ZM392.947 419.321C392.947 418.751 392.827 418.256 392.587 417.836C392.357 417.416 392.052 417.096 391.672 416.876C391.292 416.656 390.882 416.546 390.442 416.546C390.002 416.546 389.592 416.656 389.212 416.876C388.832 417.086 388.522 417.401 388.282 417.821C388.052 418.231 387.937 418.721 387.937 419.291C387.937 419.861 388.052 420.361 388.282 420.791C388.522 421.221 388.832 421.551 389.212 421.781C389.602 422.001 390.012 422.111 390.442 422.111C390.882 422.111 391.292 422.001 391.672 421.781C392.052 421.561 392.357 421.241 392.587 420.821C392.827 420.391 392.947 419.891 392.947 419.321ZM398.778 416.411C399.068 416.031 399.463 415.711 399.963 415.451C400.463 415.191 401.028 415.061 401.658 415.061C402.378 415.061 403.033 415.241 403.623 415.601C404.223 415.951 404.693 416.446 405.033 417.086C405.373 417.726 405.543 418.461 405.543 419.291C405.543 420.121 405.373 420.866 405.033 421.526C404.693 422.176 404.223 422.686 403.623 423.056C403.033 423.416 402.378 423.596 401.658 423.596C401.028 423.596 400.468 423.471 399.978 423.221C399.488 422.961 399.088 422.641 398.778 422.261V427.391H397.068V415.196H398.778V416.411ZM403.803 419.291C403.803 418.721 403.683 418.231 403.443 417.821C403.213 417.401 402.903 417.086 402.513 416.876C402.133 416.656 401.723 416.546 401.283 416.546C400.853 416.546 400.443 416.656 400.053 416.876C399.673 417.096 399.363 417.416 399.123 417.836C398.893 418.256 398.778 418.751 398.778 419.321C398.778 419.891 398.893 420.391 399.123 420.821C399.363 421.241 399.673 421.561 400.053 421.781C400.443 422.001 400.853 422.111 401.283 422.111C401.723 422.111 402.133 422.001 402.513 421.781C402.903 421.551 403.213 421.221 403.443 420.791C403.683 420.361 403.803 419.861 403.803 419.291Z" fill="#211B32" fill-opacity="0.95"/>
<rect x="342.012" y="392.109" width="94.3327" height="51.7076" rx="3" stroke="#211B32" stroke-opacity="0.6" stroke-width="2" shape-rendering="crispEdges"/>
</g>
<g filter="url(#filter6_d_1845_3413)">
<rect x="341.012" y="657.281" width="96.3327" height="53.7076" rx="4" fill="white" shape-rendering="crispEdges"/>
<path d="M349.361 682.583C349.651 682.203 350.046 681.883 350.546 681.623C351.046 681.363 351.611 681.233 352.241 681.233C352.961 681.233 353.616 681.413 354.206 681.773C354.806 682.123 355.276 682.618 355.616 683.258C355.956 683.898 356.126 684.633 356.126 685.463C356.126 686.293 355.956 687.038 355.616 687.698C355.276 688.348 354.806 688.858 354.206 689.228C353.616 689.588 352.961 689.768 352.241 689.768C351.611 689.768 351.051 689.643 350.561 689.393C350.071 689.133 349.671 688.813 349.361 688.433V693.563H347.651V681.368H349.361V682.583ZM354.386 685.463C354.386 684.893 354.266 684.403 354.026 683.993C353.796 683.573 353.486 683.258 353.096 683.048C352.716 682.828 352.306 682.718 351.866 682.718C351.436 682.718 351.026 682.828 350.636 683.048C350.256 683.268 349.946 683.588 349.706 684.008C349.476 684.428 349.361 684.923 349.361 685.493C349.361 686.063 349.476 686.563 349.706 686.993C349.946 687.413 350.256 687.733 350.636 687.953C351.026 688.173 351.436 688.283 351.866 688.283C352.306 688.283 352.716 688.173 353.096 687.953C353.486 687.723 353.796 687.393 354.026 686.963C354.266 686.533 354.386 686.033 354.386 685.463ZM358.837 680.273C358.527 680.273 358.267 680.168 358.057 679.958C357.847 679.748 357.742 679.488 357.742 679.178C357.742 678.868 357.847 678.608 358.057 678.398C358.267 678.188 358.527 678.083 358.837 678.083C359.137 678.083 359.392 678.188 359.602 678.398C359.812 678.608 359.917 678.868 359.917 679.178C359.917 679.488 359.812 679.748 359.602 679.958C359.392 680.168 359.137 680.273 358.837 680.273ZM359.677 681.368V689.633H357.967V681.368H359.677ZM361.502 685.493C361.502 684.643 361.672 683.898 362.012 683.258C362.362 682.608 362.842 682.108 363.452 681.758C364.062 681.408 364.762 681.233 365.552 681.233C366.552 681.233 367.377 681.473 368.027 681.953C368.687 682.423 369.132 683.098 369.362 683.978H367.517C367.367 683.568 367.127 683.248 366.797 683.018C366.467 682.788 366.052 682.673 365.552 682.673C364.852 682.673 364.292 682.923 363.872 683.423C363.462 683.913 363.257 684.603 363.257 685.493C363.257 686.383 363.462 687.078 363.872 687.578C364.292 688.078 364.852 688.328 365.552 688.328C366.542 688.328 367.197 687.893 367.517 687.023H369.362C369.122 687.863 368.672 688.533 368.012 689.033C367.352 689.523 366.532 689.768 365.552 689.768C364.762 689.768 364.062 689.593 363.452 689.243C362.842 688.883 362.362 688.383 362.012 687.743C361.672 687.093 361.502 686.343 361.502 685.493ZM374.486 685.508L378.296 689.633H375.986L372.926 686.078V689.633H371.216V678.533H372.926V684.983L375.926 681.368H378.296L374.486 685.508ZM383.148 685.463C383.148 684.633 383.318 683.898 383.658 683.258C384.008 682.618 384.478 682.123 385.068 681.773C385.668 681.413 386.328 681.233 387.048 681.233C387.698 681.233 388.263 681.363 388.743 681.623C389.233 681.873 389.623 682.188 389.913 682.568V681.368H391.638V689.633H389.913V688.403C389.623 688.793 389.228 689.118 388.728 689.378C388.228 689.638 387.658 689.768 387.018 689.768C386.308 689.768 385.658 689.588 385.068 689.228C384.478 688.858 384.008 688.348 383.658 687.698C383.318 687.038 383.148 686.293 383.148 685.463ZM389.913 685.493C389.913 684.923 389.793 684.428 389.553 684.008C389.323 683.588 389.018 683.268 388.638 683.048C388.258 682.828 387.848 682.718 387.408 682.718C386.968 682.718 386.558 682.828 386.178 683.048C385.798 683.258 385.488 683.573 385.248 683.993C385.018 684.403 384.903 684.893 384.903 685.463C384.903 686.033 385.018 686.533 385.248 686.963C385.488 687.393 385.798 687.723 386.178 687.953C386.568 688.173 386.978 688.283 387.408 688.283C387.848 688.283 388.258 688.173 388.638 687.953C389.018 687.733 389.323 687.413 389.553 686.993C389.793 686.563 389.913 686.063 389.913 685.493ZM401.546 682.763H400.016V689.633H398.291V682.763H397.316V681.368H398.291V680.783C398.291 679.833 398.541 679.143 399.041 678.713C399.551 678.273 400.346 678.053 401.426 678.053V679.478C400.906 679.478 400.541 679.578 400.331 679.778C400.121 679.968 400.016 680.303 400.016 680.783V681.368H401.546V682.763ZM406.796 689.768C406.016 689.768 405.311 689.593 404.681 689.243C404.051 688.883 403.556 688.383 403.196 687.743C402.836 687.093 402.656 686.343 402.656 685.493C402.656 684.653 402.841 683.908 403.211 683.258C403.581 682.608 404.086 682.108 404.726 681.758C405.366 681.408 406.081 681.233 406.871 681.233C407.661 681.233 408.376 681.408 409.016 681.758C409.656 682.108 410.161 682.608 410.531 683.258C410.901 683.908 411.086 684.653 411.086 685.493C411.086 686.333 410.896 687.078 410.516 687.728C410.136 688.378 409.616 688.883 408.956 689.243C408.306 689.593 407.586 689.768 406.796 689.768ZM406.796 688.283C407.236 688.283 407.646 688.178 408.026 687.968C408.416 687.758 408.731 687.443 408.971 687.023C409.211 686.603 409.331 686.093 409.331 685.493C409.331 684.893 409.216 684.388 408.986 683.978C408.756 683.558 408.451 683.243 408.071 683.033C407.691 682.823 407.281 682.718 406.841 682.718C406.401 682.718 405.991 682.823 405.611 683.033C405.241 683.243 404.946 683.558 404.726 683.978C404.506 684.388 404.396 684.893 404.396 685.493C404.396 686.383 404.621 687.073 405.071 687.563C405.531 688.043 406.106 688.283 406.796 688.283ZM416.512 689.768C415.732 689.768 415.027 689.593 414.397 689.243C413.767 688.883 413.272 688.383 412.912 687.743C412.552 687.093 412.372 686.343 412.372 685.493C412.372 684.653 412.557 683.908 412.927 683.258C413.297 682.608 413.802 682.108 414.442 681.758C415.082 681.408 415.797 681.233 416.587 681.233C417.377 681.233 418.092 681.408 418.732 681.758C419.372 682.108 419.877 682.608 420.247 683.258C420.617 683.908 420.802 684.653 420.802 685.493C420.802 686.333 420.612 687.078 420.232 687.728C419.852 688.378 419.332 688.883 418.672 689.243C418.022 689.593 417.302 689.768 416.512 689.768ZM416.512 688.283C416.952 688.283 417.362 688.178 417.742 687.968C418.132 687.758 418.447 687.443 418.687 687.023C418.927 686.603 419.047 686.093 419.047 685.493C419.047 684.893 418.932 684.388 418.702 683.978C418.472 683.558 418.167 683.243 417.787 683.033C417.407 682.823 416.997 682.718 416.557 682.718C416.117 682.718 415.707 682.823 415.327 683.033C414.957 683.243 414.662 683.558 414.442 683.978C414.222 684.388 414.112 684.893 414.112 685.493C414.112 686.383 414.337 687.073 414.787 687.563C415.247 688.043 415.822 688.283 416.512 688.283ZM422.072 685.463C422.072 684.633 422.242 683.898 422.582 683.258C422.932 682.618 423.402 682.123 423.992 681.773C424.592 681.413 425.257 681.233 425.987 681.233C426.527 681.233 427.057 681.353 427.577 681.593C428.107 681.823 428.527 682.133 428.837 682.523V678.533H430.562V689.633H428.837V688.388C428.557 688.788 428.167 689.118 427.667 689.378C427.177 689.638 426.612 689.768 425.972 689.768C425.252 689.768 424.592 689.588 423.992 689.228C423.402 688.858 422.932 688.348 422.582 687.698C422.242 687.038 422.072 686.293 422.072 685.463ZM428.837 685.493C428.837 684.923 428.717 684.428 428.477 684.008C428.247 683.588 427.942 683.268 427.562 683.048C427.182 682.828 426.772 682.718 426.332 682.718C425.892 682.718 425.482 682.828 425.102 683.048C424.722 683.258 424.412 683.573 424.172 683.993C423.942 684.403 423.827 684.893 423.827 685.463C423.827 686.033 423.942 686.533 424.172 686.963C424.412 687.393 424.722 687.723 425.102 687.953C425.492 688.173 425.902 688.283 426.332 688.283C426.772 688.283 427.182 688.173 427.562 687.953C427.942 687.733 428.247 687.413 428.477 686.993C428.717 686.563 428.837 686.063 428.837 685.493Z" fill="#211B32" fill-opacity="0.95"/>
<rect x="342.012" y="658.281" width="94.3327" height="51.7076" rx="3" stroke="#211B32" stroke-opacity="0.6" stroke-width="2" shape-rendering="crispEdges"/>
</g>
<g filter="url(#filter7_d_1845_3413)">
<rect x="500.43" y="522.695" width="120.203" height="52.8551" rx="4" fill="white" shape-rendering="crispEdges"/>
<path d="M512.39 538.985C512.39 538.135 512.56 537.39 512.9 536.75C513.25 536.1 513.73 535.6 514.34 535.25C514.95 534.9 515.65 534.725 516.44 534.725C517.44 534.725 518.265 534.965 518.915 535.445C519.575 535.915 520.02 536.59 520.25 537.47H518.405C518.255 537.06 518.015 536.74 517.685 536.51C517.355 536.28 516.94 536.165 516.44 536.165C515.74 536.165 515.18 536.415 514.76 536.915C514.35 537.405 514.145 538.095 514.145 538.985C514.145 539.875 514.35 540.57 514.76 541.07C515.18 541.57 515.74 541.82 516.44 541.82C517.43 541.82 518.085 541.385 518.405 540.515H520.25C520.01 541.355 519.56 542.025 518.9 542.525C518.24 543.015 517.42 543.26 516.44 543.26C515.65 543.26 514.95 543.085 514.34 542.735C513.73 542.375 513.25 541.875 512.9 541.235C512.56 540.585 512.39 539.835 512.39 538.985ZM525.689 543.26C524.909 543.26 524.204 543.085 523.574 542.735C522.944 542.375 522.449 541.875 522.089 541.235C521.729 540.585 521.549 539.835 521.549 538.985C521.549 538.145 521.734 537.4 522.104 536.75C522.474 536.1 522.979 535.6 523.619 535.25C524.259 534.9 524.974 534.725 525.764 534.725C526.554 534.725 527.269 534.9 527.909 535.25C528.549 535.6 529.054 536.1 529.424 536.75C529.794 537.4 529.979 538.145 529.979 538.985C529.979 539.825 529.789 540.57 529.409 541.22C529.029 541.87 528.509 542.375 527.849 542.735C527.199 543.085 526.479 543.26 525.689 543.26ZM525.689 541.775C526.129 541.775 526.539 541.67 526.919 541.46C527.309 541.25 527.624 540.935 527.864 540.515C528.104 540.095 528.224 539.585 528.224 538.985C528.224 538.385 528.109 537.88 527.879 537.47C527.649 537.05 527.344 536.735 526.964 536.525C526.584 536.315 526.174 536.21 525.734 536.21C525.294 536.21 524.884 536.315 524.504 536.525C524.134 536.735 523.839 537.05 523.619 537.47C523.399 537.88 523.289 538.385 523.289 538.985C523.289 539.875 523.514 540.565 523.964 541.055C524.424 541.535 524.999 541.775 525.689 541.775ZM541.825 534.725C542.475 534.725 543.055 534.86 543.565 535.13C544.085 535.4 544.49 535.8 544.78 536.33C545.08 536.86 545.23 537.5 545.23 538.25V543.125H543.535V538.505C543.535 537.765 543.35 537.2 542.98 536.81C542.61 536.41 542.105 536.21 541.465 536.21C540.825 536.21 540.315 536.41 539.935 536.81C539.565 537.2 539.38 537.765 539.38 538.505V543.125H537.685V538.505C537.685 537.765 537.5 537.2 537.13 536.81C536.76 536.41 536.255 536.21 535.615 536.21C534.975 536.21 534.465 536.41 534.085 536.81C533.715 537.2 533.53 537.765 533.53 538.505V543.125H531.82V534.86H533.53V535.805C533.81 535.465 534.165 535.2 534.595 535.01C535.025 534.82 535.485 534.725 535.975 534.725C536.635 534.725 537.225 534.865 537.745 535.145C538.265 535.425 538.665 535.83 538.945 536.36C539.195 535.86 539.585 535.465 540.115 535.175C540.645 534.875 541.215 534.725 541.825 534.725ZM549.266 536.09C549.556 535.69 549.951 535.365 550.451 535.115C550.961 534.855 551.526 534.725 552.146 534.725C552.876 534.725 553.536 534.9 554.126 535.25C554.716 535.6 555.181 536.1 555.521 536.75C555.861 537.39 556.031 538.125 556.031 538.955C556.031 539.785 555.861 540.53 555.521 541.19C555.181 541.84 554.711 542.35 554.111 542.72C553.521 543.08 552.866 543.26 552.146 543.26C551.506 543.26 550.936 543.135 550.436 542.885C549.946 542.635 549.556 542.315 549.266 541.925V543.125H547.556V532.025H549.266V536.09ZM554.291 538.955C554.291 538.385 554.171 537.895 553.931 537.485C553.701 537.065 553.391 536.75 553.001 536.54C552.621 536.32 552.211 536.21 551.771 536.21C551.341 536.21 550.931 536.32 550.541 536.54C550.161 536.76 549.851 537.08 549.611 537.5C549.381 537.92 549.266 538.415 549.266 538.985C549.266 539.555 549.381 540.055 549.611 540.485C549.851 540.905 550.161 541.225 550.541 541.445C550.931 541.665 551.341 541.775 551.771 541.775C552.211 541.775 552.621 541.665 553.001 541.445C553.391 541.215 553.701 540.885 553.931 540.455C554.171 540.025 554.291 539.525 554.291 538.955ZM558.742 533.765C558.432 533.765 558.172 533.66 557.962 533.45C557.752 533.24 557.647 532.98 557.647 532.67C557.647 532.36 557.752 532.1 557.962 531.89C558.172 531.68 558.432 531.575 558.742 531.575C559.042 531.575 559.297 531.68 559.507 531.89C559.717 532.1 559.822 532.36 559.822 532.67C559.822 532.98 559.717 533.24 559.507 533.45C559.297 533.66 559.042 533.765 558.742 533.765ZM559.582 534.86V543.125H557.872V534.86H559.582ZM566.147 534.725C566.797 534.725 567.377 534.86 567.887 535.13C568.407 535.4 568.812 535.8 569.102 536.33C569.392 536.86 569.537 537.5 569.537 538.25V543.125H567.842V538.505C567.842 537.765 567.657 537.2 567.287 536.81C566.917 536.41 566.412 536.21 565.772 536.21C565.132 536.21 564.622 536.41 564.242 536.81C563.872 537.2 563.687 537.765 563.687 538.505V543.125H561.977V534.86H563.687V535.805C563.967 535.465 564.322 535.2 564.752 535.01C565.192 534.82 565.657 534.725 566.147 534.725ZM579.443 538.79C579.443 539.1 579.423 539.38 579.383 539.63H573.068C573.118 540.29 573.363 540.82 573.803 541.22C574.243 541.62 574.783 541.82 575.423 541.82C576.343 541.82 576.993 541.435 577.373 540.665H579.218C578.968 541.425 578.513 542.05 577.853 542.54C577.203 543.02 576.393 543.26 575.423 543.26C574.633 543.26 573.923 543.085 573.293 542.735C572.673 542.375 572.183 541.875 571.823 541.235C571.473 540.585 571.298 539.835 571.298 538.985C571.298 538.135 571.468 537.39 571.808 536.75C572.158 536.1 572.643 535.6 573.263 535.25C573.893 534.9 574.613 534.725 575.423 534.725C576.203 534.725 576.898 534.895 577.508 535.235C578.118 535.575 578.593 536.055 578.933 536.675C579.273 537.285 579.443 537.99 579.443 538.79ZM577.658 538.25C577.648 537.62 577.423 537.115 576.983 536.735C576.543 536.355 575.998 536.165 575.348 536.165C574.758 536.165 574.253 536.355 573.833 536.735C573.413 537.105 573.163 537.61 573.083 538.25H577.658ZM587.317 536.255V540.83C587.317 541.14 587.387 541.365 587.527 541.505C587.677 541.635 587.927 541.7 588.277 541.7H589.327V543.125H587.977C587.207 543.125 586.617 542.945 586.207 542.585C585.797 542.225 585.592 541.64 585.592 540.83V536.255H584.617V534.86H585.592V532.805H587.317V534.86H589.327V536.255H587.317ZM595.328 534.725C595.958 534.725 596.518 534.86 597.008 535.13C597.508 535.4 597.898 535.8 598.178 536.33C598.468 536.86 598.613 537.5 598.613 538.25V543.125H596.918V538.505C596.918 537.765 596.733 537.2 596.363 536.81C595.993 536.41 595.488 536.21 594.848 536.21C594.208 536.21 593.698 536.41 593.318 536.81C592.948 537.2 592.763 537.765 592.763 538.505V543.125H591.053V532.025H592.763V535.82C593.053 535.47 593.418 535.2 593.858 535.01C594.308 534.82 594.798 534.725 595.328 534.725ZM608.52 538.79C608.52 539.1 608.5 539.38 608.46 539.63H602.145C602.195 540.29 602.44 540.82 602.88 541.22C603.32 541.62 603.86 541.82 604.5 541.82C605.42 541.82 606.07 541.435 606.45 540.665H608.295C608.045 541.425 607.59 542.05 606.93 542.54C606.28 543.02 605.47 543.26 604.5 543.26C603.71 543.26 603 543.085 602.37 542.735C601.75 542.375 601.26 541.875 600.9 541.235C600.55 540.585 600.375 539.835 600.375 538.985C600.375 538.135 600.545 537.39 600.885 536.75C601.235 536.1 601.72 535.6 602.34 535.25C602.97 534.9 603.69 534.725 604.5 534.725C605.28 534.725 605.975 534.895 606.585 535.235C607.195 535.575 607.67 536.055 608.01 536.675C608.35 537.285 608.52 537.99 608.52 538.79ZM606.735 538.25C606.725 537.62 606.5 537.115 606.06 536.735C605.62 536.355 605.075 536.165 604.425 536.165C603.835 536.165 603.33 536.355 602.91 536.735C602.49 537.105 602.24 537.61 602.16 538.25H606.735ZM518.981 556.765C518.671 556.765 518.411 556.66 518.201 556.45C517.991 556.24 517.886 555.98 517.886 555.67C517.886 555.36 517.991 555.1 518.201 554.89C518.411 554.68 518.671 554.575 518.981 554.575C519.281 554.575 519.536 554.68 519.746 554.89C519.956 555.1 520.061 555.36 520.061 555.67C520.061 555.98 519.956 556.24 519.746 556.45C519.536 556.66 519.281 556.765 518.981 556.765ZM519.821 557.86V566.125H518.111V557.86H519.821ZM526.386 557.725C527.036 557.725 527.616 557.86 528.126 558.13C528.646 558.4 529.051 558.8 529.341 559.33C529.631 559.86 529.776 560.5 529.776 561.25V566.125H528.081V561.505C528.081 560.765 527.896 560.2 527.526 559.81C527.156 559.41 526.651 559.21 526.011 559.21C525.371 559.21 524.861 559.41 524.481 559.81C524.111 560.2 523.926 560.765 523.926 561.505V566.125H522.216V557.86H523.926V558.805C524.206 558.465 524.561 558.2 524.991 558.01C525.431 557.82 525.896 557.725 526.386 557.725ZM535.437 557.725C536.077 557.725 536.642 557.855 537.132 558.115C537.632 558.365 538.022 558.68 538.302 559.06V557.86H540.027V566.26C540.027 567.02 539.867 567.695 539.547 568.285C539.227 568.885 538.762 569.355 538.152 569.695C537.552 570.035 536.832 570.205 535.992 570.205C534.872 570.205 533.942 569.94 533.202 569.41C532.462 568.89 532.042 568.18 531.942 567.28H533.637C533.767 567.71 534.042 568.055 534.462 568.315C534.892 568.585 535.402 568.72 535.992 568.72C536.682 568.72 537.237 568.51 537.657 568.09C538.087 567.67 538.302 567.06 538.302 566.26V564.88C538.012 565.27 537.617 565.6 537.117 565.87C536.627 566.13 536.067 566.26 535.437 566.26C534.717 566.26 534.057 566.08 533.457 565.72C532.867 565.35 532.397 564.84 532.047 564.19C531.707 563.53 531.537 562.785 531.537 561.955C531.537 561.125 531.707 560.39 532.047 559.75C532.397 559.11 532.867 558.615 533.457 558.265C534.057 557.905 534.717 557.725 535.437 557.725ZM538.302 561.985C538.302 561.415 538.182 560.92 537.942 560.5C537.712 560.08 537.407 559.76 537.027 559.54C536.647 559.32 536.237 559.21 535.797 559.21C535.357 559.21 534.947 559.32 534.567 559.54C534.187 559.75 533.877 560.065 533.637 560.485C533.407 560.895 533.292 561.385 533.292 561.955C533.292 562.525 533.407 563.025 533.637 563.455C533.877 563.885 534.187 564.215 534.567 564.445C534.957 564.665 535.367 564.775 535.797 564.775C536.237 564.775 536.647 564.665 537.027 564.445C537.407 564.225 537.712 563.905 537.942 563.485C538.182 563.055 538.302 562.555 538.302 561.985ZM544.133 559.06C544.383 558.64 544.713 558.315 545.123 558.085C545.543 557.845 546.038 557.725 546.608 557.725V559.495H546.173C545.503 559.495 544.993 559.665 544.643 560.005C544.303 560.345 544.133 560.935 544.133 561.775V566.125H542.423V557.86H544.133V559.06ZM555.905 561.79C555.905 562.1 555.885 562.38 555.845 562.63H549.53C549.58 563.29 549.825 563.82 550.265 564.22C550.705 564.62 551.245 564.82 551.885 564.82C552.805 564.82 553.455 564.435 553.835 563.665H555.68C555.43 564.425 554.975 565.05 554.315 565.54C553.665 566.02 552.855 566.26 551.885 566.26C551.095 566.26 550.385 566.085 549.755 565.735C549.135 565.375 548.645 564.875 548.285 564.235C547.935 563.585 547.76 562.835 547.76 561.985C547.76 561.135 547.93 560.39 548.27 559.75C548.62 559.1 549.105 558.6 549.725 558.25C550.355 557.9 551.075 557.725 551.885 557.725C552.665 557.725 553.36 557.895 553.97 558.235C554.58 558.575 555.055 559.055 555.395 559.675C555.735 560.285 555.905 560.99 555.905 561.79ZM554.12 561.25C554.11 560.62 553.885 560.115 553.445 559.735C553.005 559.355 552.46 559.165 551.81 559.165C551.22 559.165 550.715 559.355 550.295 559.735C549.875 560.105 549.625 560.61 549.545 561.25H554.12ZM557.168 561.955C557.168 561.125 557.338 560.39 557.678 559.75C558.028 559.11 558.498 558.615 559.088 558.265C559.688 557.905 560.353 557.725 561.083 557.725C561.623 557.725 562.153 557.845 562.673 558.085C563.203 558.315 563.623 558.625 563.933 559.015V555.025H565.658V566.125H563.933V564.88C563.653 565.28 563.263 565.61 562.763 565.87C562.273 566.13 561.708 566.26 561.068 566.26C560.348 566.26 559.688 566.08 559.088 565.72C558.498 565.35 558.028 564.84 557.678 564.19C557.338 563.53 557.168 562.785 557.168 561.955ZM563.933 561.985C563.933 561.415 563.813 560.92 563.573 560.5C563.343 560.08 563.038 559.76 562.658 559.54C562.278 559.32 561.868 559.21 561.428 559.21C560.988 559.21 560.578 559.32 560.198 559.54C559.818 559.75 559.508 560.065 559.268 560.485C559.038 560.895 558.923 561.385 558.923 561.955C558.923 562.525 559.038 563.025 559.268 563.455C559.508 563.885 559.818 564.215 560.198 564.445C560.588 564.665 560.998 564.775 561.428 564.775C561.868 564.775 562.278 564.665 562.658 564.445C563.038 564.225 563.343 563.905 563.573 563.485C563.813 563.055 563.933 562.555 563.933 561.985ZM568.924 556.765C568.614 556.765 568.354 556.66 568.144 556.45C567.934 556.24 567.829 555.98 567.829 555.67C567.829 555.36 567.934 555.1 568.144 554.89C568.354 554.68 568.614 554.575 568.924 554.575C569.224 554.575 569.479 554.68 569.689 554.89C569.899 555.1 570.004 555.36 570.004 555.67C570.004 555.98 569.899 556.24 569.689 556.45C569.479 556.66 569.224 556.765 568.924 556.765ZM569.764 557.86V566.125H568.054V557.86H569.764ZM579.734 561.79C579.734 562.1 579.714 562.38 579.674 562.63H573.359C573.409 563.29 573.654 563.82 574.094 564.22C574.534 564.62 575.074 564.82 575.714 564.82C576.634 564.82 577.284 564.435 577.664 563.665H579.509C579.259 564.425 578.804 565.05 578.144 565.54C577.494 566.02 576.684 566.26 575.714 566.26C574.924 566.26 574.214 566.085 573.584 565.735C572.964 565.375 572.474 564.875 572.114 564.235C571.764 563.585 571.589 562.835 571.589 561.985C571.589 561.135 571.759 560.39 572.099 559.75C572.449 559.1 572.934 558.6 573.554 558.25C574.184 557.9 574.904 557.725 575.714 557.725C576.494 557.725 577.189 557.895 577.799 558.235C578.409 558.575 578.884 559.055 579.224 559.675C579.564 560.285 579.734 560.99 579.734 561.79ZM577.949 561.25C577.939 560.62 577.714 560.115 577.274 559.735C576.834 559.355 576.289 559.165 575.639 559.165C575.049 559.165 574.544 559.355 574.124 559.735C573.704 560.105 573.454 560.61 573.374 561.25H577.949ZM585.737 557.725C586.387 557.725 586.967 557.86 587.477 558.13C587.997 558.4 588.402 558.8 588.692 559.33C588.982 559.86 589.127 560.5 589.127 561.25V566.125H587.432V561.505C587.432 560.765 587.247 560.2 586.877 559.81C586.507 559.41 586.002 559.21 585.362 559.21C584.722 559.21 584.212 559.41 583.832 559.81C583.462 560.2 583.277 560.765 583.277 561.505V566.125H581.567V557.86H583.277V558.805C583.557 558.465 583.912 558.2 584.342 558.01C584.782 557.82 585.247 557.725 585.737 557.725ZM593.453 559.255V563.83C593.453 564.14 593.523 564.365 593.663 564.505C593.813 564.635 594.063 564.7 594.413 564.7H595.463V566.125H594.113C593.343 566.125 592.753 565.945 592.343 565.585C591.933 565.225 591.728 564.64 591.728 563.83V559.255H590.753V557.86H591.728V555.805H593.453V557.86H595.463V559.255H593.453ZM600.189 566.26C599.539 566.26 598.954 566.145 598.434 565.915C597.924 565.675 597.519 565.355 597.219 564.955C596.919 564.545 596.759 564.09 596.739 563.59H598.509C598.539 563.94 598.704 564.235 599.004 564.475C599.314 564.705 599.699 564.82 600.159 564.82C600.639 564.82 601.009 564.73 601.269 564.55C601.539 564.36 601.674 564.12 601.674 563.83C601.674 563.52 601.524 563.29 601.224 563.14C600.934 562.99 600.469 562.825 599.829 562.645C599.209 562.475 598.704 562.31 598.314 562.15C597.924 561.99 597.584 561.745 597.294 561.415C597.014 561.085 596.874 560.65 596.874 560.11C596.874 559.67 597.004 559.27 597.264 558.91C597.524 558.54 597.894 558.25 598.374 558.04C598.864 557.83 599.424 557.725 600.054 557.725C600.994 557.725 601.749 557.965 602.319 558.445C602.899 558.915 603.209 559.56 603.249 560.38H601.539C601.509 560.01 601.359 559.715 601.089 559.495C600.819 559.275 600.454 559.165 599.994 559.165C599.544 559.165 599.199 559.25 598.959 559.42C598.719 559.59 598.599 559.815 598.599 560.095C598.599 560.315 598.679 560.5 598.839 560.65C598.999 560.8 599.194 560.92 599.424 561.01C599.654 561.09 599.994 561.195 600.444 561.325C601.044 561.485 601.534 561.65 601.914 561.82C602.304 561.98 602.639 562.22 602.919 562.54C603.199 562.86 603.344 563.285 603.354 563.815C603.354 564.285 603.224 564.705 602.964 565.075C602.704 565.445 602.334 565.735 601.854 565.945C601.384 566.155 600.829 566.26 600.189 566.26Z" fill="#211B32" fill-opacity="0.95"/>
<rect x="501.43" y="523.695" width="118.203" height="50.8551" rx="3" stroke="#211B32" stroke-opacity="0.6" stroke-width="2" shape-rendering="crispEdges"/>
</g>
<g filter="url(#filter8_d_1845_3413)">
<rect x="341.863" y="861.289" width="94.6277" height="52.8551" rx="4" fill="white" shape-rendering="crispEdges"/>
<path d="M370.399 881.324C369.429 881.324 368.534 881.099 367.714 880.649C366.904 880.189 366.259 879.554 365.779 878.744C365.309 877.924 365.074 877.004 365.074 875.984C365.074 874.964 365.309 874.049 365.779 873.239C366.259 872.429 366.904 871.799 367.714 871.349C368.534 870.889 369.429 870.659 370.399 870.659C371.379 870.659 372.274 870.889 373.084 871.349C373.904 871.799 374.549 872.429 375.019 873.239C375.489 874.049 375.724 874.964 375.724 875.984C375.724 877.004 375.489 877.924 375.019 878.744C374.549 879.554 373.904 880.189 373.084 880.649C372.274 881.099 371.379 881.324 370.399 881.324ZM370.399 879.839C371.089 879.839 371.704 879.684 372.244 879.374C372.784 879.054 373.204 878.604 373.504 878.024C373.814 877.434 373.969 876.754 373.969 875.984C373.969 875.214 373.814 874.539 373.504 873.959C373.204 873.379 372.784 872.934 372.244 872.624C371.704 872.314 371.089 872.159 370.399 872.159C369.709 872.159 369.094 872.314 368.554 872.624C368.014 872.934 367.589 873.379 367.279 873.959C366.979 874.539 366.829 875.214 366.829 875.984C366.829 876.754 366.979 877.434 367.279 878.024C367.589 878.604 368.014 879.054 368.554 879.374C369.094 879.684 369.709 879.839 370.399 879.839ZM381.727 872.819C382.377 872.819 382.957 872.954 383.467 873.224C383.987 873.494 384.392 873.894 384.682 874.424C384.972 874.954 385.117 875.594 385.117 876.344V881.219H383.422V876.599C383.422 875.859 383.237 875.294 382.867 874.904C382.497 874.504 381.992 874.304 381.352 874.304C380.712 874.304 380.202 874.504 379.822 874.904C379.452 875.294 379.267 875.859 379.267 876.599V881.219H377.557V872.954H379.267V873.899C379.547 873.559 379.902 873.294 380.332 873.104C380.772 872.914 381.237 872.819 381.727 872.819ZM389.158 870.119V881.219H387.448V870.119H389.158ZM392.423 871.859C392.113 871.859 391.853 871.754 391.643 871.544C391.433 871.334 391.328 871.074 391.328 870.764C391.328 870.454 391.433 870.194 391.643 869.984C391.853 869.774 392.113 869.669 392.423 869.669C392.723 869.669 392.978 869.774 393.188 869.984C393.398 870.194 393.503 870.454 393.503 870.764C393.503 871.074 393.398 871.334 393.188 871.544C392.978 871.754 392.723 871.859 392.423 871.859ZM393.263 872.954V881.219H391.553V872.954H393.263ZM399.828 872.819C400.478 872.819 401.058 872.954 401.568 873.224C402.088 873.494 402.493 873.894 402.783 874.424C403.073 874.954 403.218 875.594 403.218 876.344V881.219H401.523V876.599C401.523 875.859 401.338 875.294 400.968 874.904C400.598 874.504 400.093 874.304 399.453 874.304C398.813 874.304 398.303 874.504 397.923 874.904C397.553 875.294 397.368 875.859 397.368 876.599V881.219H395.658V872.954H397.368V873.899C397.648 873.559 398.003 873.294 398.433 873.104C398.873 872.914 399.338 872.819 399.828 872.819ZM413.125 876.884C413.125 877.194 413.105 877.474 413.065 877.724H406.75C406.8 878.384 407.045 878.914 407.485 879.314C407.925 879.714 408.465 879.914 409.105 879.914C410.025 879.914 410.675 879.529 411.055 878.759H412.9C412.65 879.519 412.195 880.144 411.535 880.634C410.885 881.114 410.075 881.354 409.105 881.354C408.315 881.354 407.605 881.179 406.975 880.829C406.355 880.469 405.865 879.969 405.505 879.329C405.155 878.679 404.98 877.929 404.98 877.079C404.98 876.229 405.15 875.484 405.49 874.844C405.84 874.194 406.325 873.694 406.945 873.344C407.575 872.994 408.295 872.819 409.105 872.819C409.885 872.819 410.58 872.989 411.19 873.329C411.8 873.669 412.275 874.149 412.615 874.769C412.955 875.379 413.125 876.084 413.125 876.884ZM411.34 876.344C411.33 875.714 411.105 875.209 410.665 874.829C410.225 874.449 409.68 874.259 409.03 874.259C408.44 874.259 407.935 874.449 407.515 874.829C407.095 875.199 406.845 875.704 406.765 876.344H411.34ZM373.334 904.354C372.554 904.354 371.849 904.179 371.219 903.829C370.589 903.469 370.094 902.969 369.734 902.329C369.374 901.679 369.194 900.929 369.194 900.079C369.194 899.239 369.379 898.494 369.749 897.844C370.119 897.194 370.624 896.694 371.264 896.344C371.904 895.994 372.619 895.819 373.409 895.819C374.199 895.819 374.914 895.994 375.554 896.344C376.194 896.694 376.699 897.194 377.069 897.844C377.439 898.494 377.624 899.239 377.624 900.079C377.624 900.919 377.434 901.664 377.054 902.314C376.674 902.964 376.154 903.469 375.494 903.829C374.844 904.179 374.124 904.354 373.334 904.354ZM373.334 902.869C373.774 902.869 374.184 902.764 374.564 902.554C374.954 902.344 375.269 902.029 375.509 901.609C375.749 901.189 375.869 900.679 375.869 900.079C375.869 899.479 375.754 898.974 375.524 898.564C375.294 898.144 374.989 897.829 374.609 897.619C374.229 897.409 373.819 897.304 373.379 897.304C372.939 897.304 372.529 897.409 372.149 897.619C371.779 897.829 371.484 898.144 371.264 898.564C371.044 898.974 370.934 899.479 370.934 900.079C370.934 900.969 371.159 901.659 371.609 902.149C372.069 902.629 372.644 902.869 373.334 902.869ZM381.175 897.154C381.425 896.734 381.755 896.409 382.165 896.179C382.585 895.939 383.08 895.819 383.65 895.819V897.589H383.215C382.545 897.589 382.035 897.759 381.685 898.099C381.345 898.439 381.175 899.029 381.175 899.869V904.219H379.465V895.954H381.175V897.154ZM384.802 900.049C384.802 899.219 384.972 898.484 385.312 897.844C385.662 897.204 386.132 896.709 386.722 896.359C387.322 895.999 387.987 895.819 388.717 895.819C389.257 895.819 389.787 895.939 390.307 896.179C390.837 896.409 391.257 896.719 391.567 897.109V893.119H393.292V904.219H391.567V902.974C391.287 903.374 390.897 903.704 390.397 903.964C389.907 904.224 389.342 904.354 388.702 904.354C387.982 904.354 387.322 904.174 386.722 903.814C386.132 903.444 385.662 902.934 385.312 902.284C384.972 901.624 384.802 900.879 384.802 900.049ZM391.567 900.079C391.567 899.509 391.447 899.014 391.207 898.594C390.977 898.174 390.672 897.854 390.292 897.634C389.912 897.414 389.502 897.304 389.062 897.304C388.622 897.304 388.212 897.414 387.832 897.634C387.452 897.844 387.142 898.159 386.902 898.579C386.672 898.989 386.557 899.479 386.557 900.049C386.557 900.619 386.672 901.119 386.902 901.549C387.142 901.979 387.452 902.309 387.832 902.539C388.222 902.759 388.632 902.869 389.062 902.869C389.502 902.869 389.912 902.759 390.292 902.539C390.672 902.319 390.977 901.999 391.207 901.579C391.447 901.149 391.567 900.649 391.567 900.079ZM403.263 899.884C403.263 900.194 403.243 900.474 403.203 900.724H396.888C396.938 901.384 397.183 901.914 397.623 902.314C398.063 902.714 398.603 902.914 399.243 902.914C400.163 902.914 400.813 902.529 401.193 901.759H403.038C402.788 902.519 402.333 903.144 401.673 903.634C401.023 904.114 400.213 904.354 399.243 904.354C398.453 904.354 397.743 904.179 397.113 903.829C396.493 903.469 396.003 902.969 395.643 902.329C395.293 901.679 395.118 900.929 395.118 900.079C395.118 899.229 395.288 898.484 395.628 897.844C395.978 897.194 396.463 896.694 397.083 896.344C397.713 895.994 398.433 895.819 399.243 895.819C400.023 895.819 400.718 895.989 401.328 896.329C401.938 896.669 402.413 897.149 402.753 897.769C403.093 898.379 403.263 899.084 403.263 899.884ZM401.478 899.344C401.468 898.714 401.243 898.209 400.803 897.829C400.363 897.449 399.818 897.259 399.168 897.259C398.578 897.259 398.073 897.449 397.653 897.829C397.233 898.199 396.983 898.704 396.903 899.344H401.478ZM406.805 897.154C407.055 896.734 407.385 896.409 407.795 896.179C408.215 895.939 408.71 895.819 409.28 895.819V897.589H408.845C408.175 897.589 407.665 897.759 407.315 898.099C406.975 898.439 406.805 899.029 406.805 899.869V904.219H405.095V895.954H406.805V897.154Z" fill="#211B32" fill-opacity="0.95"/>
<rect x="342.863" y="862.289" width="92.6277" height="50.8551" rx="3" stroke="#211B32" stroke-opacity="0.6" stroke-width="2" shape-rendering="crispEdges"/>
</g>
<g filter="url(#filter9_d_1845_3413)">
<rect x="341.012" y="757.281" width="96.3327" height="53.7076" rx="4" fill="white" shape-rendering="crispEdges"/>
<path d="M358.533 778.238C357.833 778.238 357.203 778.118 356.643 777.878C356.083 777.628 355.643 777.278 355.323 776.828C355.003 776.378 354.843 775.853 354.843 775.253H356.673C356.713 775.703 356.888 776.073 357.198 776.363C357.518 776.653 357.963 776.798 358.533 776.798C359.123 776.798 359.583 776.658 359.913 776.378C360.243 776.088 360.408 775.718 360.408 775.268C360.408 774.918 360.303 774.633 360.093 774.413C359.893 774.193 359.638 774.023 359.328 773.903C359.028 773.783 358.608 773.653 358.068 773.513C357.388 773.333 356.833 773.153 356.403 772.973C355.983 772.783 355.623 772.493 355.323 772.103C355.023 771.713 354.873 771.193 354.873 770.543C354.873 769.943 355.023 769.418 355.323 768.968C355.623 768.518 356.043 768.173 356.583 767.933C357.123 767.693 357.748 767.573 358.458 767.573C359.468 767.573 360.293 767.828 360.933 768.338C361.583 768.838 361.943 769.528 362.013 770.408H360.123C360.093 770.028 359.913 769.703 359.583 769.433C359.253 769.163 358.818 769.028 358.278 769.028C357.788 769.028 357.388 769.153 357.078 769.403C356.768 769.653 356.613 770.013 356.613 770.483C356.613 770.803 356.708 771.068 356.898 771.278C357.098 771.478 357.348 771.638 357.648 771.758C357.948 771.878 358.358 772.008 358.878 772.148C359.568 772.338 360.128 772.528 360.558 772.718C360.998 772.908 361.368 773.203 361.668 773.603C361.978 773.993 362.133 774.518 362.133 775.178C362.133 775.708 361.988 776.208 361.698 776.678C361.418 777.148 361.003 777.528 360.453 777.818C359.913 778.098 359.273 778.238 358.533 778.238ZM368.575 769.733C369.205 769.733 369.765 769.868 370.255 770.138C370.755 770.408 371.145 770.808 371.425 771.338C371.715 771.868 371.86 772.508 371.86 773.258V778.133H370.165V773.513C370.165 772.773 369.98 772.208 369.61 771.818C369.24 771.418 368.735 771.218 368.095 771.218C367.455 771.218 366.945 771.418 366.565 771.818C366.195 772.208 366.01 772.773 366.01 773.513V778.133H364.3V767.033H366.01V770.828C366.3 770.478 366.665 770.208 367.105 770.018C367.555 769.828 368.045 769.733 368.575 769.733ZM377.777 778.268C376.997 778.268 376.292 778.093 375.662 777.743C375.032 777.383 374.537 776.883 374.177 776.243C373.817 775.593 373.637 774.843 373.637 773.993C373.637 773.153 373.822 772.408 374.192 771.758C374.562 771.108 375.067 770.608 375.707 770.258C376.347 769.908 377.062 769.733 377.852 769.733C378.642 769.733 379.357 769.908 379.997 770.258C380.637 770.608 381.142 771.108 381.512 771.758C381.882 772.408 382.067 773.153 382.067 773.993C382.067 774.833 381.877 775.578 381.497 776.228C381.117 776.878 380.597 777.383 379.937 777.743C379.287 778.093 378.567 778.268 377.777 778.268ZM377.777 776.783C378.217 776.783 378.627 776.678 379.007 776.468C379.397 776.258 379.712 775.943 379.952 775.523C380.192 775.103 380.312 774.593 380.312 773.993C380.312 773.393 380.197 772.888 379.967 772.478C379.737 772.058 379.432 771.743 379.052 771.533C378.672 771.323 378.262 771.218 377.822 771.218C377.382 771.218 376.972 771.323 376.592 771.533C376.222 771.743 375.927 772.058 375.707 772.478C375.487 772.888 375.377 773.393 375.377 773.993C375.377 774.883 375.602 775.573 376.052 776.063C376.512 776.543 377.087 776.783 377.777 776.783ZM395.007 769.868L392.442 778.133H390.642L388.977 772.028L387.312 778.133H385.512L382.932 769.868H384.672L386.397 776.513L388.152 769.868H389.937L391.617 776.483L393.327 769.868H395.007ZM402.477 771.263V775.838C402.477 776.148 402.547 776.373 402.687 776.513C402.837 776.643 403.087 776.708 403.437 776.708H404.487V778.133H403.137C402.367 778.133 401.777 777.953 401.367 777.593C400.957 777.233 400.752 776.648 400.752 775.838V771.263H399.777V769.868H400.752V767.813H402.477V769.868H404.487V771.263H402.477ZM410.488 769.733C411.118 769.733 411.678 769.868 412.168 770.138C412.668 770.408 413.058 770.808 413.338 771.338C413.628 771.868 413.773 772.508 413.773 773.258V778.133H412.078V773.513C412.078 772.773 411.893 772.208 411.523 771.818C411.153 771.418 410.648 771.218 410.008 771.218C409.368 771.218 408.858 771.418 408.478 771.818C408.108 772.208 407.923 772.773 407.923 773.513V778.133H406.213V767.033H407.923V770.828C408.213 770.478 408.578 770.208 409.018 770.018C409.468 769.828 409.958 769.733 410.488 769.733ZM423.679 773.798C423.679 774.108 423.659 774.388 423.619 774.638H417.304C417.354 775.298 417.599 775.828 418.039 776.228C418.479 776.628 419.019 776.828 419.659 776.828C420.579 776.828 421.229 776.443 421.609 775.673H423.454C423.204 776.433 422.749 777.058 422.089 777.548C421.439 778.028 420.629 778.268 419.659 778.268C418.869 778.268 418.159 778.093 417.529 777.743C416.909 777.383 416.419 776.883 416.059 776.243C415.709 775.593 415.534 774.843 415.534 773.993C415.534 773.143 415.704 772.398 416.044 771.758C416.394 771.108 416.879 770.608 417.499 770.258C418.129 769.908 418.849 769.733 419.659 769.733C420.439 769.733 421.134 769.903 421.744 770.243C422.354 770.583 422.829 771.063 423.169 771.683C423.509 772.293 423.679 772.998 423.679 773.798ZM421.894 773.258C421.884 772.628 421.659 772.123 421.219 771.743C420.779 771.363 420.234 771.173 419.584 771.173C418.994 771.173 418.489 771.363 418.069 771.743C417.649 772.113 417.399 772.618 417.319 773.258H421.894ZM356.273 796.963C356.273 796.133 356.443 795.398 356.783 794.758C357.133 794.118 357.603 793.623 358.193 793.273C358.793 792.913 359.458 792.733 360.188 792.733C360.728 792.733 361.258 792.853 361.778 793.093C362.308 793.323 362.728 793.633 363.038 794.023V790.033H364.763V801.133H363.038V799.888C362.758 800.288 362.368 800.618 361.868 800.878C361.378 801.138 360.813 801.268 360.173 801.268C359.453 801.268 358.793 801.088 358.193 800.728C357.603 800.358 357.133 799.848 356.783 799.198C356.443 798.538 356.273 797.793 356.273 796.963ZM363.038 796.993C363.038 796.423 362.918 795.928 362.678 795.508C362.448 795.088 362.143 794.768 361.763 794.548C361.383 794.328 360.973 794.218 360.533 794.218C360.093 794.218 359.683 794.328 359.303 794.548C358.923 794.758 358.613 795.073 358.373 795.493C358.143 795.903 358.028 796.393 358.028 796.963C358.028 797.533 358.143 798.033 358.373 798.463C358.613 798.893 358.923 799.223 359.303 799.453C359.693 799.673 360.103 799.783 360.533 799.783C360.973 799.783 361.383 799.673 361.763 799.453C362.143 799.233 362.448 798.913 362.678 798.493C362.918 798.063 363.038 797.563 363.038 796.993ZM368.029 791.773C367.719 791.773 367.459 791.668 367.249 791.458C367.039 791.248 366.934 790.988 366.934 790.678C366.934 790.368 367.039 790.108 367.249 789.898C367.459 789.688 367.719 789.583 368.029 789.583C368.329 789.583 368.584 789.688 368.794 789.898C369.004 790.108 369.109 790.368 369.109 790.678C369.109 790.988 369.004 791.248 368.794 791.458C368.584 791.668 368.329 791.773 368.029 791.773ZM368.869 792.868V801.133H367.159V792.868H368.869ZM374.264 801.268C373.614 801.268 373.029 801.153 372.509 800.923C371.999 800.683 371.594 800.363 371.294 799.963C370.994 799.553 370.834 799.098 370.814 798.598H372.584C372.614 798.948 372.779 799.243 373.079 799.483C373.389 799.713 373.774 799.828 374.234 799.828C374.714 799.828 375.084 799.738 375.344 799.558C375.614 799.368 375.749 799.128 375.749 798.838C375.749 798.528 375.599 798.298 375.299 798.148C375.009 797.998 374.544 797.833 373.904 797.653C373.284 797.483 372.779 797.318 372.389 797.158C371.999 796.998 371.659 796.753 371.369 796.423C371.089 796.093 370.949 795.658 370.949 795.118C370.949 794.678 371.079 794.278 371.339 793.918C371.599 793.548 371.969 793.258 372.449 793.048C372.939 792.838 373.499 792.733 374.129 792.733C375.069 792.733 375.824 792.973 376.394 793.453C376.974 793.923 377.284 794.568 377.324 795.388H375.614C375.584 795.018 375.434 794.723 375.164 794.503C374.894 794.283 374.529 794.173 374.069 794.173C373.619 794.173 373.274 794.258 373.034 794.428C372.794 794.598 372.674 794.823 372.674 795.103C372.674 795.323 372.754 795.508 372.914 795.658C373.074 795.808 373.269 795.928 373.499 796.018C373.729 796.098 374.069 796.203 374.519 796.333C375.119 796.493 375.609 796.658 375.989 796.828C376.379 796.988 376.714 797.228 376.994 797.548C377.274 797.868 377.419 798.293 377.429 798.823C377.429 799.293 377.299 799.713 377.039 800.083C376.779 800.453 376.409 800.743 375.929 800.953C375.459 801.163 374.904 801.268 374.264 801.268ZM381.421 794.263V798.838C381.421 799.148 381.491 799.373 381.631 799.513C381.781 799.643 382.031 799.708 382.381 799.708H383.431V801.133H382.081C381.311 801.133 380.721 800.953 380.311 800.593C379.901 800.233 379.696 799.648 379.696 798.838V794.263H378.721V792.868H379.696V790.813H381.421V792.868H383.431V794.263H381.421ZM384.588 796.963C384.588 796.133 384.758 795.398 385.098 794.758C385.448 794.118 385.918 793.623 386.508 793.273C387.108 792.913 387.768 792.733 388.488 792.733C389.138 792.733 389.703 792.863 390.183 793.123C390.673 793.373 391.063 793.688 391.353 794.068V792.868H393.078V801.133H391.353V799.903C391.063 800.293 390.668 800.618 390.168 800.878C389.668 801.138 389.098 801.268 388.458 801.268C387.748 801.268 387.098 801.088 386.508 800.728C385.918 800.358 385.448 799.848 385.098 799.198C384.758 798.538 384.588 797.793 384.588 796.963ZM391.353 796.993C391.353 796.423 391.233 795.928 390.993 795.508C390.763 795.088 390.458 794.768 390.078 794.548C389.698 794.328 389.288 794.218 388.848 794.218C388.408 794.218 387.998 794.328 387.618 794.548C387.238 794.758 386.928 795.073 386.688 795.493C386.458 795.903 386.343 796.393 386.343 796.963C386.343 797.533 386.458 798.033 386.688 798.463C386.928 798.893 387.238 799.223 387.618 799.453C388.008 799.673 388.418 799.783 388.848 799.783C389.288 799.783 389.698 799.673 390.078 799.453C390.458 799.233 390.763 798.913 390.993 798.493C391.233 798.063 391.353 797.563 391.353 796.993ZM399.644 792.733C400.294 792.733 400.874 792.868 401.384 793.138C401.904 793.408 402.309 793.808 402.599 794.338C402.889 794.868 403.034 795.508 403.034 796.258V801.133H401.339V796.513C401.339 795.773 401.154 795.208 400.784 794.818C400.414 794.418 399.909 794.218 399.269 794.218C398.629 794.218 398.119 794.418 397.739 794.818C397.369 795.208 397.184 795.773 397.184 796.513V801.133H395.474V792.868H397.184V793.813C397.464 793.473 397.819 793.208 398.249 793.018C398.689 792.828 399.154 792.733 399.644 792.733ZM404.795 796.993C404.795 796.143 404.965 795.398 405.305 794.758C405.655 794.108 406.135 793.608 406.745 793.258C407.355 792.908 408.055 792.733 408.845 792.733C409.845 792.733 410.67 792.973 411.32 793.453C411.98 793.923 412.425 794.598 412.655 795.478H410.81C410.66 795.068 410.42 794.748 410.09 794.518C409.76 794.288 409.345 794.173 408.845 794.173C408.145 794.173 407.585 794.423 407.165 794.923C406.755 795.413 406.55 796.103 406.55 796.993C406.55 797.883 406.755 798.578 407.165 799.078C407.585 799.578 408.145 799.828 408.845 799.828C409.835 799.828 410.49 799.393 410.81 798.523H412.655C412.415 799.363 411.965 800.033 411.305 800.533C410.645 801.023 409.825 801.268 408.845 801.268C408.055 801.268 407.355 801.093 406.745 800.743C406.135 800.383 405.655 799.883 405.305 799.243C404.965 798.593 404.795 797.843 404.795 796.993ZM422.084 796.798C422.084 797.108 422.064 797.388 422.024 797.638H415.709C415.759 798.298 416.004 798.828 416.444 799.228C416.884 799.628 417.424 799.828 418.064 799.828C418.984 799.828 419.634 799.443 420.014 798.673H421.859C421.609 799.433 421.154 800.058 420.494 800.548C419.844 801.028 419.034 801.268 418.064 801.268C417.274 801.268 416.564 801.093 415.934 800.743C415.314 800.383 414.824 799.883 414.464 799.243C414.114 798.593 413.939 797.843 413.939 796.993C413.939 796.143 414.109 795.398 414.449 794.758C414.799 794.108 415.284 793.608 415.904 793.258C416.534 792.908 417.254 792.733 418.064 792.733C418.844 792.733 419.539 792.903 420.149 793.243C420.759 793.583 421.234 794.063 421.574 794.683C421.914 795.293 422.084 795.998 422.084 796.798ZM420.299 796.258C420.289 795.628 420.064 795.123 419.624 794.743C419.184 794.363 418.639 794.173 417.989 794.173C417.399 794.173 416.894 794.363 416.474 794.743C416.054 795.113 415.804 795.618 415.724 796.258H420.299Z" fill="#211B32" fill-opacity="0.95"/>
<rect x="342.012" y="758.281" width="94.3327" height="51.7076" rx="3" stroke="#211B32" stroke-opacity="0.6" stroke-width="2" shape-rendering="crispEdges"/>
</g>
<path d="M388.664 300.181C389.055 300.571 389.688 300.571 390.078 300.181L396.442 293.817C396.833 293.426 396.833 292.793 396.442 292.403C396.052 292.012 395.418 292.012 395.028 292.403L389.371 298.059L383.714 292.403C383.324 292.012 382.691 292.012 382.3 292.403C381.91 292.793 381.91 293.426 382.3 293.817L388.664 300.181ZM388.371 271V299.474H390.371V271H388.371Z" fill="#211B32" fill-opacity="0.6"/>
<path d="M388.898 385.642C389.289 386.032 389.922 386.032 390.313 385.642L396.677 379.278C397.067 378.887 397.067 378.254 396.677 377.864C396.286 377.473 395.653 377.473 395.262 377.864L389.605 383.52L383.949 377.864C383.558 377.473 382.925 377.473 382.534 377.864C382.144 378.254 382.144 378.887 382.534 379.278L388.898 385.642ZM388.605 356.461V384.935H390.605V356.461H388.605Z" fill="#211B32" fill-opacity="0.6"/>
<path d="M388.664 123.181C389.055 123.571 389.688 123.571 390.078 123.181L396.442 116.817C396.833 116.426 396.833 115.793 396.442 115.403C396.052 115.012 395.418 115.012 395.028 115.403L389.371 121.059L383.714 115.403C383.324 115.012 382.691 115.012 382.3 115.403C381.91 115.793 381.91 116.426 382.3 116.817L388.664 123.181ZM388.371 94V122.474H390.371V94H388.371Z" fill="#211B32" fill-opacity="0.6"/>
<path d="M388.894 842.574C389.285 842.965 389.918 842.965 390.309 842.574L396.673 836.21C397.063 835.82 397.063 835.187 396.673 834.796C396.282 834.406 395.649 834.406 395.258 834.796L389.602 840.453L383.945 834.796C383.554 834.406 382.921 834.406 382.53 834.796C382.14 835.187 382.14 835.82 382.53 836.21L388.894 842.574ZM390.602 841.867L390.602 813.394L388.602 813.394L388.602 841.867L390.602 841.867Z" fill="#211B32" fill-opacity="0.6"/>
<path d="M388.894 742.832C389.285 743.223 389.918 743.223 390.309 742.832L396.673 736.468C397.063 736.078 397.063 735.444 396.673 735.054C396.282 734.663 395.649 734.663 395.258 735.054L389.602 740.711L383.945 735.054C383.554 734.663 382.921 734.663 382.53 735.054C382.14 735.444 382.14 736.078 382.53 736.468L388.894 742.832ZM390.602 742.125L390.602 713.651L388.602 713.651L388.602 742.125L390.602 742.125Z" fill="#211B32" fill-opacity="0.6"/>
<path d="M443.457 328.73C443.066 329.121 443.066 329.754 443.457 330.145L449.821 336.509C450.211 336.899 450.845 336.899 451.235 336.509C451.626 336.118 451.626 335.485 451.235 335.094L445.578 329.438L451.235 323.781C451.626 323.39 451.626 322.757 451.235 322.366C450.845 321.976 450.211 321.976 449.821 322.366L443.457 328.73ZM444.164 330.438H447.327V328.438H444.164V330.438ZM453.652 330.438H459.978V328.438H453.652V330.438ZM466.303 330.438H472.629V328.438H466.303V330.438ZM478.954 330.438H485.279V328.438H478.954V330.438ZM491.605 330.438H497.93V328.438H491.605V330.438ZM504.256 330.438H510.581V328.438H504.256V330.438ZM516.907 330.438H523.232V328.438H516.907V330.438ZM529.557 330.437H535.883V328.437L529.557 328.438V330.437ZM542.208 330.437H545.371V328.437H542.208V330.437Z" fill="#211B32" fill-opacity="0.6"/>
<line x1="546.188" y1="227.727" x2="546.188" y2="330.879" stroke="#211B32" stroke-opacity="0.6" stroke-width="2" stroke-dasharray="6 6"/>
<path d="M447.664 679.902C447.273 680.293 447.273 680.926 447.664 681.316L454.028 687.68C454.418 688.071 455.052 688.071 455.442 687.68C455.833 687.29 455.833 686.657 455.442 686.266L449.785 680.609L455.442 674.953C455.833 674.562 455.833 673.929 455.442 673.538C455.052 673.148 454.418 673.148 454.028 673.538L447.664 679.902ZM448.371 681.609H451.498V679.609H448.371V681.609ZM457.753 681.609H464.008V679.609H457.753V681.609ZM470.263 681.609H476.517V679.609H470.263V681.609ZM482.772 681.609H489.027V679.609H482.772V681.609ZM495.281 681.609H501.536V679.609H495.281V681.609ZM507.791 681.609H514.045V679.609H507.791V681.609ZM520.3 681.609H526.555V679.609H520.3V681.609ZM532.81 681.609H539.064V679.609H532.81V681.609ZM545.319 681.609H551.574V679.609H545.319V681.609ZM557.828 681.609H560.956V679.609H557.828V681.609Z" fill="#211B32" fill-opacity="0.6"/>
<line x1="561.75" y1="574.703" x2="561.75" y2="682.118" stroke="#211B32" stroke-opacity="0.6" stroke-width="2" stroke-dasharray="6 6"/>
<g filter="url(#filter10_d_1845_3413)">
<rect x="341.012" y="35" width="96.3327" height="59" rx="29.5" fill="white"/>
<path d="M351.437 68.62H354.962V70H349.727V59.575H351.437V68.62ZM360.127 70.135C359.347 70.135 358.642 69.96 358.012 69.61C357.382 69.25 356.887 68.75 356.527 68.11C356.167 67.46 355.987 66.71 355.987 65.86C355.987 65.02 356.172 64.275 356.542 63.625C356.912 62.975 357.417 62.475 358.057 62.125C358.697 61.775 359.412 61.6 360.202 61.6C360.992 61.6 361.707 61.775 362.347 62.125C362.987 62.475 363.492 62.975 363.862 63.625C364.232 64.275 364.417 65.02 364.417 65.86C364.417 66.7 364.227 67.445 363.847 68.095C363.467 68.745 362.947 69.25 362.287 69.61C361.637 69.96 360.917 70.135 360.127 70.135ZM360.127 68.65C360.567 68.65 360.977 68.545 361.357 68.335C361.747 68.125 362.062 67.81 362.302 67.39C362.542 66.97 362.662 66.46 362.662 65.86C362.662 65.26 362.547 64.755 362.317 64.345C362.087 63.925 361.782 63.61 361.402 63.4C361.022 63.19 360.612 63.085 360.172 63.085C359.732 63.085 359.322 63.19 358.942 63.4C358.572 63.61 358.277 63.925 358.057 64.345C357.837 64.755 357.727 65.26 357.727 65.86C357.727 66.75 357.952 67.44 358.402 67.93C358.862 68.41 359.437 68.65 360.127 68.65ZM369.588 61.6C370.228 61.6 370.793 61.73 371.283 61.99C371.783 62.24 372.173 62.555 372.453 62.935V61.735H374.178V70.135C374.178 70.895 374.018 71.57 373.698 72.16C373.378 72.76 372.913 73.23 372.303 73.57C371.703 73.91 370.983 74.08 370.143 74.08C369.023 74.08 368.093 73.815 367.353 73.285C366.613 72.765 366.193 72.055 366.093 71.155H367.788C367.918 71.585 368.193 71.93 368.613 72.19C369.043 72.46 369.553 72.595 370.143 72.595C370.833 72.595 371.388 72.385 371.808 71.965C372.238 71.545 372.453 70.935 372.453 70.135V68.755C372.163 69.145 371.768 69.475 371.268 69.745C370.778 70.005 370.218 70.135 369.588 70.135C368.868 70.135 368.208 69.955 367.608 69.595C367.018 69.225 366.548 68.715 366.198 68.065C365.858 67.405 365.688 66.66 365.688 65.83C365.688 65 365.858 64.265 366.198 63.625C366.548 62.985 367.018 62.49 367.608 62.14C368.208 61.78 368.868 61.6 369.588 61.6ZM372.453 65.86C372.453 65.29 372.333 64.795 372.093 64.375C371.863 63.955 371.558 63.635 371.178 63.415C370.798 63.195 370.388 63.085 369.948 63.085C369.508 63.085 369.098 63.195 368.718 63.415C368.338 63.625 368.028 63.94 367.788 64.36C367.558 64.77 367.443 65.26 367.443 65.83C367.443 66.4 367.558 66.9 367.788 67.33C368.028 67.76 368.338 68.09 368.718 68.32C369.108 68.54 369.518 68.65 369.948 68.65C370.388 68.65 370.798 68.54 371.178 68.32C371.558 68.1 371.863 67.78 372.093 67.36C372.333 66.93 372.453 66.43 372.453 65.86ZM380.159 70.135C379.379 70.135 378.674 69.96 378.044 69.61C377.414 69.25 376.919 68.75 376.559 68.11C376.199 67.46 376.019 66.71 376.019 65.86C376.019 65.02 376.204 64.275 376.574 63.625C376.944 62.975 377.449 62.475 378.089 62.125C378.729 61.775 379.444 61.6 380.234 61.6C381.024 61.6 381.739 61.775 382.379 62.125C383.019 62.475 383.524 62.975 383.894 63.625C384.264 64.275 384.449 65.02 384.449 65.86C384.449 66.7 384.259 67.445 383.879 68.095C383.499 68.745 382.979 69.25 382.319 69.61C381.669 69.96 380.949 70.135 380.159 70.135ZM380.159 68.65C380.599 68.65 381.009 68.545 381.389 68.335C381.779 68.125 382.094 67.81 382.334 67.39C382.574 66.97 382.694 66.46 382.694 65.86C382.694 65.26 382.579 64.755 382.349 64.345C382.119 63.925 381.814 63.61 381.434 63.4C381.054 63.19 380.644 63.085 380.204 63.085C379.764 63.085 379.354 63.19 378.974 63.4C378.604 63.61 378.309 63.925 378.089 64.345C377.869 64.755 377.759 65.26 377.759 65.86C377.759 66.75 377.984 67.44 378.434 67.93C378.894 68.41 379.469 68.65 380.159 68.65ZM391.839 55.84L387.759 72.625H386.079L390.144 55.84H391.839ZM397.579 70.105C396.879 70.105 396.249 69.985 395.689 69.745C395.129 69.495 394.689 69.145 394.369 68.695C394.049 68.245 393.889 67.72 393.889 67.12H395.719C395.759 67.57 395.934 67.94 396.244 68.23C396.564 68.52 397.009 68.665 397.579 68.665C398.169 68.665 398.629 68.525 398.959 68.245C399.289 67.955 399.454 67.585 399.454 67.135C399.454 66.785 399.349 66.5 399.139 66.28C398.939 66.06 398.684 65.89 398.374 65.77C398.074 65.65 397.654 65.52 397.114 65.38C396.434 65.2 395.879 65.02 395.449 64.84C395.029 64.65 394.669 64.36 394.369 63.97C394.069 63.58 393.919 63.06 393.919 62.41C393.919 61.81 394.069 61.285 394.369 60.835C394.669 60.385 395.089 60.04 395.629 59.8C396.169 59.56 396.794 59.44 397.504 59.44C398.514 59.44 399.339 59.695 399.979 60.205C400.629 60.705 400.989 61.395 401.059 62.275H399.169C399.139 61.895 398.959 61.57 398.629 61.3C398.299 61.03 397.864 60.895 397.324 60.895C396.834 60.895 396.434 61.02 396.124 61.27C395.814 61.52 395.659 61.88 395.659 62.35C395.659 62.67 395.754 62.935 395.944 63.145C396.144 63.345 396.394 63.505 396.694 63.625C396.994 63.745 397.404 63.875 397.924 64.015C398.614 64.205 399.174 64.395 399.604 64.585C400.044 64.775 400.414 65.07 400.714 65.47C401.024 65.86 401.179 66.385 401.179 67.045C401.179 67.575 401.034 68.075 400.744 68.545C400.464 69.015 400.049 69.395 399.499 69.685C398.959 69.965 398.319 70.105 397.579 70.105ZM405.342 63.13V67.705C405.342 68.015 405.412 68.24 405.552 68.38C405.702 68.51 405.952 68.575 406.302 68.575H407.352V70H406.002C405.232 70 404.642 69.82 404.232 69.46C403.822 69.1 403.617 68.515 403.617 67.705V63.13H402.642V61.735H403.617V59.68H405.342V61.735H407.352V63.13H405.342ZM408.508 65.83C408.508 65 408.678 64.265 409.018 63.625C409.368 62.985 409.838 62.49 410.428 62.14C411.028 61.78 411.688 61.6 412.408 61.6C413.058 61.6 413.623 61.73 414.103 61.99C414.593 62.24 414.983 62.555 415.273 62.935V61.735H416.998V70H415.273V68.77C414.983 69.16 414.588 69.485 414.088 69.745C413.588 70.005 413.018 70.135 412.378 70.135C411.668 70.135 411.018 69.955 410.428 69.595C409.838 69.225 409.368 68.715 409.018 68.065C408.678 67.405 408.508 66.66 408.508 65.83ZM415.273 65.86C415.273 65.29 415.153 64.795 414.913 64.375C414.683 63.955 414.378 63.635 413.998 63.415C413.618 63.195 413.208 63.085 412.768 63.085C412.328 63.085 411.918 63.195 411.538 63.415C411.158 63.625 410.848 63.94 410.608 64.36C410.378 64.77 410.263 65.26 410.263 65.83C410.263 66.4 410.378 66.9 410.608 67.33C410.848 67.76 411.158 68.09 411.538 68.32C411.928 68.54 412.338 68.65 412.768 68.65C413.208 68.65 413.618 68.54 413.998 68.32C414.378 68.1 414.683 67.78 414.913 67.36C415.153 66.93 415.273 66.43 415.273 65.86ZM421.104 62.935C421.354 62.515 421.684 62.19 422.094 61.96C422.514 61.72 423.009 61.6 423.579 61.6V63.37H423.144C422.474 63.37 421.964 63.54 421.614 63.88C421.274 64.22 421.104 64.81 421.104 65.65V70H419.394V61.735H421.104V62.935ZM427.296 63.13V67.705C427.296 68.015 427.366 68.24 427.506 68.38C427.656 68.51 427.906 68.575 428.256 68.575H429.306V70H427.956C427.186 70 426.596 69.82 426.186 69.46C425.776 69.1 425.571 68.515 425.571 67.705V63.13H424.596V61.735H425.571V59.68H427.296V61.735H429.306V63.13H427.296Z" fill="#211B32" fill-opacity="0.95"/>
<rect x="342.012" y="36" width="94.3327" height="57" rx="28.5" stroke="#211B32" stroke-opacity="0.6" stroke-width="2"/>
</g>
<defs>
<filter id="filter0_d_1845_3413" x="337.012" y="955.141" width="104.332" height="60.8516" filterUnits="userSpaceOnUse" color-interpolation-filters="sRGB">
<feFlood flood-opacity="0" result="BackgroundImageFix"/>
<feColorMatrix in="SourceAlpha" type="matrix" values="0 0 0 0 0 0 0 0 0 0 0 0 0 0 0 0 0 0 127 0" result="hardAlpha"/>
<feOffset dy="4"/>
<feGaussianBlur stdDeviation="2"/>
<feComposite in2="hardAlpha" operator="out"/>
<feColorMatrix type="matrix" values="0 0 0 0 0 0 0 0 0 0 0 0 0 0 0 0 0 0 0.25 0"/>
<feBlend mode="normal" in2="BackgroundImageFix" result="effect1_dropShadow_1845_3413"/>
<feBlend mode="normal" in="SourceGraphic" in2="effect1_dropShadow_1845_3413" result="shape"/>
</filter>
<filter id="filter1_d_1845_3413" x="314.258" y="477.781" width="150.727" height="150.719" filterUnits="userSpaceOnUse" color-interpolation-filters="sRGB">
<feFlood flood-opacity="0" result="BackgroundImageFix"/>
<feColorMatrix in="SourceAlpha" type="matrix" values="0 0 0 0 0 0 0 0 0 0 0 0 0 0 0 0 0 0 127 0" result="hardAlpha"/>
<feOffset dy="4"/>
<feGaussianBlur stdDeviation="2"/>
<feComposite in2="hardAlpha" operator="out"/>
<feColorMatrix type="matrix" values="0 0 0 0 0 0 0 0 0 0 0 0 0 0 0 0 0 0 0.25 0"/>
<feBlend mode="normal" in2="BackgroundImageFix" result="effect1_dropShadow_1845_3413"/>
<feBlend mode="normal" in="SourceGraphic" in2="effect1_dropShadow_1845_3413" result="shape"/>
</filter>
<filter id="filter2_d_1845_3413" x="314.258" y="126.555" width="150.727" height="150.719" filterUnits="userSpaceOnUse" color-interpolation-filters="sRGB">
<feFlood flood-opacity="0" result="BackgroundImageFix"/>
<feColorMatrix in="SourceAlpha" type="matrix" values="0 0 0 0 0 0 0 0 0 0 0 0 0 0 0 0 0 0 127 0" result="hardAlpha"/>
<feOffset dy="4"/>
<feGaussianBlur stdDeviation="2"/>
<feComposite in2="hardAlpha" operator="out"/>
<feColorMatrix type="matrix" values="0 0 0 0 0 0 0 0 0 0 0 0 0 0 0 0 0 0 0.25 0"/>
<feBlend mode="normal" in2="BackgroundImageFix" result="effect1_dropShadow_1845_3413"/>
<feBlend mode="normal" in="SourceGraphic" in2="effect1_dropShadow_1845_3413" result="shape"/>
</filter>
<filter id="filter3_d_1845_3413" x="337.012" y="302.75" width="104.332" height="61.7109" filterUnits="userSpaceOnUse" color-interpolation-filters="sRGB">
<feFlood flood-opacity="0" result="BackgroundImageFix"/>
<feColorMatrix in="SourceAlpha" type="matrix" values="0 0 0 0 0 0 0 0 0 0 0 0 0 0 0 0 0 0 127 0" result="hardAlpha"/>
<feOffset dy="4"/>
<feGaussianBlur stdDeviation="2"/>
<feComposite in2="hardAlpha" operator="out"/>
<feColorMatrix type="matrix" values="0 0 0 0 0 0 0 0 0 0 0 0 0 0 0 0 0 0 0.25 0"/>
<feBlend mode="normal" in2="BackgroundImageFix" result="effect1_dropShadow_1845_3413"/>
<feBlend mode="normal" in="SourceGraphic" in2="effect1_dropShadow_1845_3413" result="shape"/>
</filter>
<filter id="filter4_d_1845_3413" x="493.371" y="171.469" width="104.332" height="61.7109" filterUnits="userSpaceOnUse" color-interpolation-filters="sRGB">
<feFlood flood-opacity="0" result="BackgroundImageFix"/>
<feColorMatrix in="SourceAlpha" type="matrix" values="0 0 0 0 0 0 0 0 0 0 0 0 0 0 0 0 0 0 127 0" result="hardAlpha"/>
<feOffset dy="4"/>
<feGaussianBlur stdDeviation="2"/>
<feComposite in2="hardAlpha" operator="out"/>
<feColorMatrix type="matrix" values="0 0 0 0 0 0 0 0 0 0 0 0 0 0 0 0 0 0 0.25 0"/>
<feBlend mode="normal" in2="BackgroundImageFix" result="effect1_dropShadow_1845_3413"/>
<feBlend mode="normal" in="SourceGraphic" in2="effect1_dropShadow_1845_3413" result="shape"/>
</filter>
<filter id="filter5_d_1845_3413" x="337.012" y="391.109" width="104.332" height="61.7109" filterUnits="userSpaceOnUse" color-interpolation-filters="sRGB">
<feFlood flood-opacity="0" result="BackgroundImageFix"/>
<feColorMatrix in="SourceAlpha" type="matrix" values="0 0 0 0 0 0 0 0 0 0 0 0 0 0 0 0 0 0 127 0" result="hardAlpha"/>
<feOffset dy="4"/>
<feGaussianBlur stdDeviation="2"/>
<feComposite in2="hardAlpha" operator="out"/>
<feColorMatrix type="matrix" values="0 0 0 0 0 0 0 0 0 0 0 0 0 0 0 0 0 0 0.25 0"/>
<feBlend mode="normal" in2="BackgroundImageFix" result="effect1_dropShadow_1845_3413"/>
<feBlend mode="normal" in="SourceGraphic" in2="effect1_dropShadow_1845_3413" result="shape"/>
</filter>
<filter id="filter6_d_1845_3413" x="337.012" y="657.281" width="104.332" height="61.7109" filterUnits="userSpaceOnUse" color-interpolation-filters="sRGB">
<feFlood flood-opacity="0" result="BackgroundImageFix"/>
<feColorMatrix in="SourceAlpha" type="matrix" values="0 0 0 0 0 0 0 0 0 0 0 0 0 0 0 0 0 0 127 0" result="hardAlpha"/>
<feOffset dy="4"/>
<feGaussianBlur stdDeviation="2"/>
<feComposite in2="hardAlpha" operator="out"/>
<feColorMatrix type="matrix" values="0 0 0 0 0 0 0 0 0 0 0 0 0 0 0 0 0 0 0.25 0"/>
<feBlend mode="normal" in2="BackgroundImageFix" result="effect1_dropShadow_1845_3413"/>
<feBlend mode="normal" in="SourceGraphic" in2="effect1_dropShadow_1845_3413" result="shape"/>
</filter>
<filter id="filter7_d_1845_3413" x="496.43" y="522.695" width="128.203" height="60.8516" filterUnits="userSpaceOnUse" color-interpolation-filters="sRGB">
<feFlood flood-opacity="0" result="BackgroundImageFix"/>
<feColorMatrix in="SourceAlpha" type="matrix" values="0 0 0 0 0 0 0 0 0 0 0 0 0 0 0 0 0 0 127 0" result="hardAlpha"/>
<feOffset dy="4"/>
<feGaussianBlur stdDeviation="2"/>
<feComposite in2="hardAlpha" operator="out"/>
<feColorMatrix type="matrix" values="0 0 0 0 0 0 0 0 0 0 0 0 0 0 0 0 0 0 0.25 0"/>
<feBlend mode="normal" in2="BackgroundImageFix" result="effect1_dropShadow_1845_3413"/>
<feBlend mode="normal" in="SourceGraphic" in2="effect1_dropShadow_1845_3413" result="shape"/>
</filter>
<filter id="filter8_d_1845_3413" x="337.863" y="861.289" width="102.629" height="60.8516" filterUnits="userSpaceOnUse" color-interpolation-filters="sRGB">
<feFlood flood-opacity="0" result="BackgroundImageFix"/>
<feColorMatrix in="SourceAlpha" type="matrix" values="0 0 0 0 0 0 0 0 0 0 0 0 0 0 0 0 0 0 127 0" result="hardAlpha"/>
<feOffset dy="4"/>
<feGaussianBlur stdDeviation="2"/>
<feComposite in2="hardAlpha" operator="out"/>
<feColorMatrix type="matrix" values="0 0 0 0 0 0 0 0 0 0 0 0 0 0 0 0 0 0 0.25 0"/>
<feBlend mode="normal" in2="BackgroundImageFix" result="effect1_dropShadow_1845_3413"/>
<feBlend mode="normal" in="SourceGraphic" in2="effect1_dropShadow_1845_3413" result="shape"/>
</filter>
<filter id="filter9_d_1845_3413" x="337.012" y="757.281" width="104.332" height="61.7109" filterUnits="userSpaceOnUse" color-interpolation-filters="sRGB">
<feFlood flood-opacity="0" result="BackgroundImageFix"/>
<feColorMatrix in="SourceAlpha" type="matrix" values="0 0 0 0 0 0 0 0 0 0 0 0 0 0 0 0 0 0 127 0" result="hardAlpha"/>
<feOffset dy="4"/>
<feGaussianBlur stdDeviation="2"/>
<feComposite in2="hardAlpha" operator="out"/>
<feColorMatrix type="matrix" values="0 0 0 0 0 0 0 0 0 0 0 0 0 0 0 0 0 0 0.25 0"/>
<feBlend mode="normal" in2="BackgroundImageFix" result="effect1_dropShadow_1845_3413"/>
<feBlend mode="normal" in="SourceGraphic" in2="effect1_dropShadow_1845_3413" result="shape"/>
</filter>
<filter id="filter10_d_1845_3413" x="337.012" y="35" width="104.332" height="67" filterUnits="userSpaceOnUse" color-interpolation-filters="sRGB">
<feFlood flood-opacity="0" result="BackgroundImageFix"/>
<feColorMatrix in="SourceAlpha" type="matrix" values="0 0 0 0 0 0 0 0 0 0 0 0 0 0 0 0 0 0 127 0" result="hardAlpha"/>
<feOffset dy="4"/>
<feGaussianBlur stdDeviation="2"/>
<feComposite in2="hardAlpha" operator="out"/>
<feColorMatrix type="matrix" values="0 0 0 0 0 0 0 0 0 0 0 0 0 0 0 0 0 0 0.25 0"/>
<feBlend mode="normal" in2="BackgroundImageFix" result="effect1_dropShadow_1845_3413"/>
<feBlend mode="normal" in="SourceGraphic" in2="effect1_dropShadow_1845_3413" result="shape"/>
</filter>
</defs>
</svg>
