<svg width="60" height="60" viewBox="0 0 60 60" fill="none" xmlns="http://www.w3.org/2000/svg">
<path d="M37.5014 55V45C37.8492 41.8682 36.9513 38.7253 35.0014 36.25C42.5014 36.25 50.0014 31.25 50.0014 22.5C50.2014 19.375 49.3264 16.3 47.5014 13.75C48.2014 10.875 48.2014 7.875 47.5014 5C47.5014 5 45.0014 5 40.0014 8.75C33.4014 7.5 26.6014 7.5 20.0014 8.75C15.0014 5 12.5014 5 12.5014 5C11.7514 7.875 11.7514 10.875 12.5014 13.75C10.6811 16.2897 9.79762 19.382 10.0014 22.5C10.0014 31.25 17.5014 36.25 25.0014 36.25C24.0264 37.475 23.3014 38.875 22.8764 40.375C22.4514 41.875 22.3264 43.45 22.5014 45V55" stroke="#293A3D" stroke-width="4" stroke-linecap="round" stroke-linejoin="round"/>
<path d="M22.5 45C11.225 50 10 40 5 40" stroke="#293A3D" stroke-width="4" stroke-linecap="round" stroke-linejoin="round"/>
</svg>
