<svg width="60" height="60" viewBox="0 0 60 60" fill="none" xmlns="http://www.w3.org/2000/svg">
<path d="M50 25C50 40 30 55 30 55C30 55 10 40 10 25C10 19.6957 12.1071 14.6086 15.8579 10.8579C19.6086 7.10714 24.6957 5 30 5C35.3043 5 40.3914 7.10714 44.1421 10.8579C47.8929 14.6086 50 19.6957 50 25V25Z" stroke="#293A3D" stroke-width="4" stroke-linecap="round" stroke-linejoin="round"/>
<path d="M30 32.5C34.1421 32.5 37.5 29.1421 37.5 25C37.5 20.8579 34.1421 17.5 30 17.5C25.8579 17.5 22.5 20.8579 22.5 25C22.5 29.1421 25.8579 32.5 30 32.5Z" stroke="#293A3D" stroke-width="4" stroke-linecap="round" stroke-linejoin="round"/>
</svg>
