<svg width="60" height="60" viewBox="0 0 60 60" fill="none" xmlns="http://www.w3.org/2000/svg">
<path d="M55 42.3002V49.8002C55.0028 50.4965 54.8602 51.1857 54.5813 51.8236C54.3023 52.4616 53.8932 53.0342 53.3802 53.5049C52.8671 53.9756 52.2614 54.334 51.6019 54.557C50.9423 54.7801 50.2434 54.8629 49.55 54.8002C41.8571 53.9643 34.4675 51.3356 27.975 47.1252C21.9346 43.2869 16.8133 38.1657 12.975 32.1252C8.74993 25.6033 6.12059 18.1777 5.29999 10.4502C5.23751 9.75891 5.31967 9.06214 5.54124 8.4043C5.7628 7.74646 6.11891 7.14197 6.5869 6.6293C7.05489 6.11662 7.6245 5.70702 8.25946 5.42655C8.89443 5.14608 9.58084 5.0009 10.275 5.00024H17.775C18.9883 4.9883 20.1645 5.41794 21.0844 6.20907C22.0043 7.00021 22.6052 8.09886 22.775 9.30024C23.0915 11.7004 23.6786 14.0571 24.525 16.3252C24.8613 17.2201 24.9341 18.1925 24.7348 19.1274C24.5354 20.0624 24.0721 20.9205 23.4 21.6002L20.225 24.7752C23.7839 31.0341 28.9661 36.2164 35.225 39.7752L38.4 36.6002C39.0797 35.9281 39.9379 35.4649 40.8728 35.2655C41.8077 35.0661 42.7802 35.1389 43.675 35.4752C45.9432 36.3216 48.2998 36.9087 50.7 37.2252C51.9144 37.3966 53.0235 38.0083 53.8163 38.944C54.6091 39.8797 55.0304 41.0742 55 42.3002Z" stroke="#293A3D" stroke-width="4" stroke-linecap="round" stroke-linejoin="round"/>
</svg>
